%TF.GenerationSoftware,KiCad,Pcbnew,9.0.5*%
%TF.CreationDate,2026-05-07T09:14:04-07:00*%
%TF.ProjectId,Payload_Hardware_Schematic,5061796c-6f61-4645-9f48-617264776172,rev?*%
%TF.SameCoordinates,Original*%
%TF.FileFunction,Legend,Bot*%
%TF.FilePolarity,Positive*%
%FSLAX46Y46*%
G04 Gerber Fmt 4.6, Leading zero omitted, Abs format (unit mm)*
G04 Created by KiCad (PCBNEW 9.0.5) date 2026-05-07 09:14:04*
%MOMM*%
%LPD*%
G01*
G04 APERTURE LIST*
%ADD10C,0.000000*%
G04 APERTURE END LIST*
D10*
G36*
X123494628Y-72657516D02*
G01*
X123494296Y-72657187D01*
X123493963Y-72656856D01*
X123493978Y-72656848D01*
X123494628Y-72657516D01*
G37*
G36*
X98992395Y-48637885D02*
G01*
X98992266Y-48639200D01*
X98992481Y-48640599D01*
X98993021Y-48642073D01*
X98993868Y-48643617D01*
X98995000Y-48645224D01*
X98996399Y-48646886D01*
X98998046Y-48648596D01*
X99002002Y-48652135D01*
X99006713Y-48655786D01*
X99012023Y-48659492D01*
X99017776Y-48663200D01*
X99023815Y-48666853D01*
X99029986Y-48670397D01*
X99042095Y-48676936D01*
X99052855Y-48682373D01*
X99061019Y-48686268D01*
X99292334Y-48699197D01*
X99519750Y-48716644D01*
X99744454Y-48738602D01*
X99967630Y-48765065D01*
X100190465Y-48796023D01*
X100414145Y-48831469D01*
X100639856Y-48871395D01*
X100868784Y-48915794D01*
X102264750Y-49209585D01*
X102956331Y-49365837D01*
X103644594Y-49530289D01*
X104330252Y-49704415D01*
X105014020Y-49889688D01*
X105696608Y-50087581D01*
X106378732Y-50299565D01*
X106900981Y-50476476D01*
X107414648Y-50668158D01*
X107919556Y-50874652D01*
X108415527Y-51096002D01*
X108902383Y-51332251D01*
X109379944Y-51583440D01*
X109848033Y-51849613D01*
X110306471Y-52130812D01*
X110755081Y-52427081D01*
X111193683Y-52738460D01*
X111622100Y-53064994D01*
X112040153Y-53406724D01*
X112447665Y-53763694D01*
X112844455Y-54135946D01*
X113230348Y-54523522D01*
X113605163Y-54926466D01*
X114128459Y-55502792D01*
X114389441Y-55784518D01*
X114651756Y-56062934D01*
X114916738Y-56338776D01*
X115185719Y-56612781D01*
X115460033Y-56885686D01*
X115741014Y-57158226D01*
X115867214Y-57273455D01*
X115990659Y-57391105D01*
X116231288Y-57631697D01*
X116701534Y-58120235D01*
X116939164Y-58360291D01*
X117060359Y-58477540D01*
X117183809Y-58592278D01*
X117310014Y-58704013D01*
X117439476Y-58812251D01*
X117572696Y-58916498D01*
X117710174Y-59016262D01*
X119849992Y-60507851D01*
X119888526Y-59947671D01*
X119965312Y-59398914D01*
X120079799Y-58864106D01*
X120231436Y-58345772D01*
X120419672Y-57846436D01*
X120643955Y-57368625D01*
X120903734Y-56914862D01*
X121198457Y-56487673D01*
X121358751Y-56284833D01*
X121527574Y-56089584D01*
X121704857Y-55902240D01*
X121890532Y-55723118D01*
X122084530Y-55552533D01*
X122286782Y-55390801D01*
X122497218Y-55238238D01*
X122715770Y-55095159D01*
X122942369Y-54961879D01*
X123176946Y-54838715D01*
X123419433Y-54725982D01*
X123669759Y-54623996D01*
X123927857Y-54533072D01*
X124193658Y-54453526D01*
X124467092Y-54385674D01*
X124748090Y-54329830D01*
X125114456Y-54275267D01*
X125479194Y-54239472D01*
X125841716Y-54222115D01*
X126201438Y-54222864D01*
X126557771Y-54241389D01*
X126910132Y-54277358D01*
X127257932Y-54330441D01*
X127600587Y-54400307D01*
X127937509Y-54486624D01*
X128268113Y-54589061D01*
X128591812Y-54707288D01*
X128908021Y-54840974D01*
X129216152Y-54989787D01*
X129515620Y-55153396D01*
X129805839Y-55331471D01*
X130086222Y-55523680D01*
X130356183Y-55729693D01*
X130615137Y-55949178D01*
X130862496Y-56181804D01*
X131097674Y-56427241D01*
X131320086Y-56685157D01*
X131529145Y-56955222D01*
X131724265Y-57237104D01*
X131904860Y-57530472D01*
X132070343Y-57834996D01*
X132220129Y-58150344D01*
X132353631Y-58476185D01*
X132470262Y-58812188D01*
X132569438Y-59158023D01*
X132650571Y-59513358D01*
X132713075Y-59877862D01*
X132756364Y-60251205D01*
X134580007Y-60174476D01*
X134477078Y-60317412D01*
X134370827Y-60453148D01*
X134261455Y-60582234D01*
X134149160Y-60705224D01*
X134034140Y-60822667D01*
X133916594Y-60935115D01*
X133796721Y-61043120D01*
X133674718Y-61147233D01*
X133550786Y-61248004D01*
X133425122Y-61345987D01*
X133169395Y-61535788D01*
X132645902Y-61906173D01*
X132463992Y-62497775D01*
X132370165Y-62787689D01*
X132273090Y-63076541D01*
X132171767Y-63366478D01*
X132065196Y-63659647D01*
X131952378Y-63958196D01*
X131832311Y-64264271D01*
X134584803Y-62625840D01*
X135271918Y-62208015D01*
X135956336Y-61781819D01*
X136636909Y-61344708D01*
X137312490Y-60894142D01*
X137731131Y-60615922D01*
X138153990Y-60352748D01*
X138367872Y-60228191D01*
X138583855Y-60109061D01*
X138802287Y-59995914D01*
X139023518Y-59889303D01*
X139247896Y-59789786D01*
X139475769Y-59697916D01*
X139707487Y-59614249D01*
X139943399Y-59539340D01*
X140183853Y-59473745D01*
X140429198Y-59418018D01*
X140679783Y-59372716D01*
X140935956Y-59338392D01*
X144621602Y-58931595D01*
X146592084Y-58538027D01*
X148526849Y-58197377D01*
X149328538Y-58137184D01*
X149413860Y-58131876D01*
X149498124Y-58129015D01*
X149581248Y-58128845D01*
X149663152Y-58131613D01*
X149743754Y-58137562D01*
X149822972Y-58146939D01*
X149900725Y-58159988D01*
X149976932Y-58176954D01*
X150051510Y-58198083D01*
X150124380Y-58223619D01*
X150195459Y-58253808D01*
X150264666Y-58288895D01*
X150331920Y-58329126D01*
X150397139Y-58374744D01*
X150460241Y-58425996D01*
X150521146Y-58483126D01*
X150521146Y-58556548D01*
X150487920Y-58733722D01*
X150440046Y-58904587D01*
X150378212Y-59069332D01*
X150303107Y-59228148D01*
X150215419Y-59381225D01*
X150115836Y-59528753D01*
X150005047Y-59670923D01*
X149883740Y-59807924D01*
X149752602Y-59939947D01*
X149612324Y-60067181D01*
X149463592Y-60189817D01*
X149307095Y-60308046D01*
X149143521Y-60422057D01*
X148973559Y-60532040D01*
X148617224Y-60740684D01*
X148243595Y-60935499D01*
X147858179Y-61118007D01*
X147466483Y-61289728D01*
X147074012Y-61452185D01*
X145606515Y-62039788D01*
X146142606Y-62085221D01*
X146421743Y-62115969D01*
X146558571Y-62135195D01*
X146691471Y-62157693D01*
X146818867Y-62183988D01*
X146939184Y-62214609D01*
X147050846Y-62250082D01*
X147152279Y-62290935D01*
X147241906Y-62337695D01*
X147281800Y-62363454D01*
X147318152Y-62390888D01*
X147350765Y-62420062D01*
X147379442Y-62451042D01*
X147403986Y-62483894D01*
X147424200Y-62518684D01*
X147438366Y-62552153D01*
X147447981Y-62586767D01*
X147453200Y-62622434D01*
X147454181Y-62659062D01*
X147451082Y-62696559D01*
X147444058Y-62734835D01*
X147433266Y-62773797D01*
X147418865Y-62813353D01*
X147401010Y-62853413D01*
X147379860Y-62893883D01*
X147355569Y-62934673D01*
X147328297Y-62975691D01*
X147298199Y-63016845D01*
X147265432Y-63058043D01*
X147230154Y-63099194D01*
X147192522Y-63140207D01*
X147110822Y-63221447D01*
X147021587Y-63301033D01*
X146926074Y-63378228D01*
X146825537Y-63452301D01*
X146721234Y-63522518D01*
X146614419Y-63588144D01*
X146506349Y-63648448D01*
X146398279Y-63702694D01*
X146124324Y-63829066D01*
X145848967Y-63949439D01*
X145571920Y-64064137D01*
X145292897Y-64173487D01*
X145011611Y-64277814D01*
X144727775Y-64377443D01*
X144441101Y-64472701D01*
X144151304Y-64563913D01*
X141505472Y-65376184D01*
X142308566Y-65450061D01*
X142763535Y-65504735D01*
X142991652Y-65538974D01*
X143215342Y-65578756D01*
X143430972Y-65624785D01*
X143634904Y-65677768D01*
X143823503Y-65738409D01*
X143993135Y-65807413D01*
X144140164Y-65885487D01*
X144204066Y-65928146D01*
X144260954Y-65973336D01*
X144310373Y-66021146D01*
X144351870Y-66071664D01*
X144384989Y-66124979D01*
X144409276Y-66181178D01*
X144427906Y-66246168D01*
X144439211Y-66310393D01*
X144443475Y-66373815D01*
X144440983Y-66436397D01*
X144432018Y-66498103D01*
X144416864Y-66558896D01*
X144395804Y-66618738D01*
X144369123Y-66677593D01*
X144337104Y-66735424D01*
X144300031Y-66792194D01*
X144258188Y-66847866D01*
X144211858Y-66902402D01*
X144161325Y-66955767D01*
X144106873Y-67007923D01*
X144048786Y-67058833D01*
X143987348Y-67108461D01*
X143922842Y-67156768D01*
X143855552Y-67203720D01*
X143713756Y-67293404D01*
X143564230Y-67377219D01*
X143409244Y-67454868D01*
X143251068Y-67526057D01*
X143091972Y-67590489D01*
X142934227Y-67647869D01*
X142780103Y-67697902D01*
X142557435Y-67763173D01*
X142334398Y-67823194D01*
X142110947Y-67878173D01*
X141887041Y-67928317D01*
X141437685Y-68014929D01*
X140985980Y-68084690D01*
X140531577Y-68139257D01*
X140074128Y-68180291D01*
X139613283Y-68209449D01*
X139148694Y-68228391D01*
X139836614Y-68726468D01*
X139845654Y-68733514D01*
X139854772Y-68741590D01*
X139873141Y-68760595D01*
X139891511Y-68783011D01*
X139909675Y-68808365D01*
X139927424Y-68836184D01*
X139944550Y-68865994D01*
X139960845Y-68897325D01*
X139976100Y-68929701D01*
X139990107Y-68962651D01*
X140002658Y-68995702D01*
X140013544Y-69028382D01*
X140022557Y-69060216D01*
X140029489Y-69090732D01*
X140034132Y-69119458D01*
X140036276Y-69145920D01*
X140036347Y-69158155D01*
X140035715Y-69169647D01*
X140032132Y-69195189D01*
X140025724Y-69222493D01*
X140016670Y-69251239D01*
X140005152Y-69281113D01*
X139991352Y-69311797D01*
X139975450Y-69342974D01*
X139957627Y-69374327D01*
X139938065Y-69405540D01*
X139916946Y-69436295D01*
X139894449Y-69466276D01*
X139870757Y-69495166D01*
X139846050Y-69522649D01*
X139820509Y-69548406D01*
X139794317Y-69572122D01*
X139767654Y-69593480D01*
X139740701Y-69612163D01*
X139649068Y-69665475D01*
X139552330Y-69712478D01*
X139450771Y-69753436D01*
X139344674Y-69788613D01*
X139234321Y-69818274D01*
X139119995Y-69842682D01*
X138880558Y-69876797D01*
X138628625Y-69893073D01*
X138366460Y-69893621D01*
X138096327Y-69880557D01*
X137820489Y-69855992D01*
X137541209Y-69822040D01*
X137260751Y-69780814D01*
X136705353Y-69684995D01*
X136172403Y-69585439D01*
X135680009Y-69499053D01*
X135730247Y-69547665D01*
X135778863Y-69596955D01*
X135825258Y-69646841D01*
X135868833Y-69697243D01*
X135908991Y-69748079D01*
X135945131Y-69799268D01*
X135976655Y-69850728D01*
X135990499Y-69876534D01*
X136002964Y-69902378D01*
X136013977Y-69928249D01*
X136023460Y-69954136D01*
X136031341Y-69980031D01*
X136037544Y-70005922D01*
X136041994Y-70031799D01*
X136044617Y-70057653D01*
X136045337Y-70083473D01*
X136044079Y-70109248D01*
X136040770Y-70134970D01*
X136035333Y-70160627D01*
X136027695Y-70186209D01*
X136017780Y-70211707D01*
X136005513Y-70237110D01*
X135990820Y-70262407D01*
X135973626Y-70287589D01*
X135953855Y-70312646D01*
X135926699Y-70343253D01*
X135898463Y-70372086D01*
X135869190Y-70399172D01*
X135838921Y-70424533D01*
X135807696Y-70448196D01*
X135775557Y-70470185D01*
X135742545Y-70490526D01*
X135708701Y-70509243D01*
X135674066Y-70526362D01*
X135638682Y-70541906D01*
X135602590Y-70555902D01*
X135565831Y-70568374D01*
X135528446Y-70579347D01*
X135490476Y-70588846D01*
X135412946Y-70603522D01*
X135333572Y-70612601D01*
X135252682Y-70616283D01*
X135170606Y-70614768D01*
X135087674Y-70608256D01*
X135004215Y-70596945D01*
X134920558Y-70581036D01*
X134837033Y-70560727D01*
X134753969Y-70536220D01*
X134627232Y-70716540D01*
X134501704Y-70899402D01*
X134379897Y-71085675D01*
X134321174Y-71180362D01*
X134264323Y-71276227D01*
X134209657Y-71373379D01*
X134157492Y-71471926D01*
X134108140Y-71571976D01*
X134061916Y-71673639D01*
X134019133Y-71777023D01*
X133980106Y-71882236D01*
X133945149Y-71989387D01*
X133914575Y-72098585D01*
X133825941Y-73109292D01*
X135752767Y-71895515D01*
X135812607Y-71859452D01*
X135874422Y-71825662D01*
X135938018Y-71794495D01*
X136003201Y-71766304D01*
X136069774Y-71741438D01*
X136137545Y-71720247D01*
X136206317Y-71703084D01*
X136275897Y-71690298D01*
X136346089Y-71682241D01*
X136416699Y-71679263D01*
X136487531Y-71681715D01*
X136522970Y-71685086D01*
X136558392Y-71689947D01*
X136593772Y-71696341D01*
X136629086Y-71704311D01*
X136664309Y-71713902D01*
X136699418Y-71725157D01*
X136734388Y-71738120D01*
X136769195Y-71752836D01*
X136803813Y-71769347D01*
X136838220Y-71787698D01*
X136158332Y-72277869D01*
X135501328Y-72760290D01*
X135180729Y-73003302D01*
X134865037Y-73250028D01*
X134553981Y-73502349D01*
X134247289Y-73762151D01*
X134200001Y-73805228D01*
X134156937Y-73848705D01*
X134117843Y-73892688D01*
X134082461Y-73937282D01*
X134050536Y-73982594D01*
X134021813Y-74028727D01*
X133996035Y-74075790D01*
X133972948Y-74123886D01*
X133952294Y-74173121D01*
X133933818Y-74223602D01*
X133917265Y-74275433D01*
X133902379Y-74328721D01*
X133888903Y-74383570D01*
X133876582Y-74440088D01*
X133865161Y-74498378D01*
X133854383Y-74558547D01*
X133822497Y-74750060D01*
X133793527Y-74940457D01*
X133768525Y-75130233D01*
X133748548Y-75319886D01*
X133734647Y-75509911D01*
X133727878Y-75700804D01*
X133727497Y-75796731D01*
X133729294Y-75893061D01*
X133733401Y-75989856D01*
X133739950Y-76087179D01*
X133805022Y-76697208D01*
X133810730Y-76773639D01*
X133814798Y-76851227D01*
X133816895Y-76930307D01*
X133816690Y-77011214D01*
X133813854Y-77094284D01*
X133808056Y-77179852D01*
X133798966Y-77268253D01*
X133786252Y-77359823D01*
X133637759Y-77154674D01*
X133500575Y-76952169D01*
X133372801Y-76751105D01*
X133252538Y-76550281D01*
X133137887Y-76348496D01*
X133026949Y-76144549D01*
X132808614Y-75725360D01*
X132551309Y-74983867D01*
X130487558Y-75311288D01*
X130384241Y-75267790D01*
X130284644Y-75220406D01*
X130188781Y-75169156D01*
X130096667Y-75114060D01*
X130008316Y-75055139D01*
X129923743Y-74992413D01*
X129842962Y-74925902D01*
X129765989Y-74855627D01*
X129692836Y-74781608D01*
X129623520Y-74703865D01*
X129558055Y-74622419D01*
X129529547Y-74583022D01*
X130514688Y-74583022D01*
X130517332Y-75103589D01*
X132686254Y-74749709D01*
X132721949Y-74878132D01*
X132760320Y-75004979D01*
X132801362Y-75130318D01*
X132845068Y-75254217D01*
X132891433Y-75376744D01*
X132940451Y-75497967D01*
X132992115Y-75617953D01*
X133046421Y-75736771D01*
X133103362Y-75854489D01*
X133162933Y-75971173D01*
X133225128Y-76086892D01*
X133289940Y-76201714D01*
X133357365Y-76315707D01*
X133427396Y-76428938D01*
X133575254Y-76653386D01*
X133546228Y-76269750D01*
X133531939Y-75853301D01*
X133531882Y-75638467D01*
X133537384Y-75422264D01*
X133549071Y-75206970D01*
X133567565Y-74994863D01*
X133593494Y-74788220D01*
X133627481Y-74589320D01*
X133670152Y-74400441D01*
X133722131Y-74223861D01*
X133784043Y-74061857D01*
X133856514Y-73916708D01*
X133896904Y-73851166D01*
X133940168Y-73790692D01*
X133986384Y-73735570D01*
X134035631Y-73686086D01*
X134035627Y-73686086D01*
X134293930Y-73456579D01*
X134556217Y-73236490D01*
X134822255Y-73023021D01*
X135091813Y-72813374D01*
X135640553Y-72394350D01*
X135919272Y-72179377D01*
X136200578Y-71957033D01*
X136021404Y-72027220D01*
X135848263Y-72103207D01*
X135680414Y-72184423D01*
X135517117Y-72270295D01*
X135357629Y-72360252D01*
X135201210Y-72453723D01*
X134894613Y-72648918D01*
X134285627Y-73056314D01*
X133971379Y-73259369D01*
X133809222Y-73358735D01*
X133642721Y-73455898D01*
X133626534Y-73312629D01*
X133616417Y-73172358D01*
X133611990Y-73034814D01*
X133612872Y-72899725D01*
X133618684Y-72766817D01*
X133629047Y-72635820D01*
X133643580Y-72506460D01*
X133661903Y-72378465D01*
X133683637Y-72251562D01*
X133708402Y-72125481D01*
X133765505Y-71874691D01*
X133830174Y-71623917D01*
X133899370Y-71370981D01*
X133789652Y-71534510D01*
X133685656Y-71698686D01*
X133586899Y-71863534D01*
X133492902Y-72029080D01*
X133403184Y-72195352D01*
X133317264Y-72362374D01*
X133154896Y-72698776D01*
X133001955Y-73038496D01*
X132854595Y-73381743D01*
X132561239Y-74079654D01*
X130514688Y-74583022D01*
X129529547Y-74583022D01*
X129496455Y-74537290D01*
X129438734Y-74448499D01*
X129384907Y-74356065D01*
X129334990Y-74260009D01*
X129288995Y-74160352D01*
X128806131Y-73150966D01*
X128321283Y-73820361D01*
X128298737Y-73853786D01*
X128279987Y-73886353D01*
X128264877Y-73918077D01*
X128253253Y-73948971D01*
X128244962Y-73979051D01*
X128239849Y-74008330D01*
X128237759Y-74036822D01*
X128238538Y-74064543D01*
X128242033Y-74091506D01*
X128248088Y-74117726D01*
X128256549Y-74143216D01*
X128267263Y-74167992D01*
X128280074Y-74192067D01*
X128294829Y-74215455D01*
X128311373Y-74238172D01*
X128329551Y-74260231D01*
X128349210Y-74281647D01*
X128370196Y-74302434D01*
X128415528Y-74342177D01*
X128464314Y-74379576D01*
X128515318Y-74414744D01*
X128567307Y-74447796D01*
X128619046Y-74478846D01*
X128716836Y-74535398D01*
X129563975Y-75043680D01*
X130002024Y-75323010D01*
X130444204Y-75618515D01*
X130886372Y-75929733D01*
X131324387Y-76256200D01*
X131754105Y-76597453D01*
X132171385Y-76953028D01*
X132572085Y-77322463D01*
X132952062Y-77705295D01*
X133307174Y-78101060D01*
X133633279Y-78509295D01*
X133926235Y-78929537D01*
X134181900Y-79361323D01*
X134294454Y-79581401D01*
X134396131Y-79804190D01*
X134486415Y-80029634D01*
X134564786Y-80257675D01*
X134508246Y-80276195D01*
X134452011Y-80292759D01*
X134396123Y-80307286D01*
X134340624Y-80319697D01*
X134285555Y-80329909D01*
X134230958Y-80337844D01*
X134176874Y-80343420D01*
X134123345Y-80346558D01*
X134070414Y-80347176D01*
X134018121Y-80345195D01*
X133966507Y-80340534D01*
X133915616Y-80333112D01*
X133865488Y-80322849D01*
X133816166Y-80309665D01*
X133767690Y-80293479D01*
X133720102Y-80274211D01*
X132185518Y-79592246D01*
X133257745Y-82185823D01*
X133356827Y-82437804D01*
X133455862Y-82714317D01*
X133553332Y-83012083D01*
X133647716Y-83327821D01*
X133737496Y-83658253D01*
X133821152Y-84000097D01*
X133897166Y-84350075D01*
X133964017Y-84704905D01*
X134020187Y-85061310D01*
X134064155Y-85416008D01*
X134094404Y-85765720D01*
X134109414Y-86107166D01*
X134107665Y-86437066D01*
X134087638Y-86752140D01*
X134047813Y-87049109D01*
X133986673Y-87324693D01*
X133734543Y-87143889D01*
X133491397Y-86961109D01*
X133256173Y-86775553D01*
X133027808Y-86586424D01*
X132805241Y-86392923D01*
X132587410Y-86194251D01*
X132373252Y-85989611D01*
X132161706Y-85778203D01*
X129966989Y-83533876D01*
X129882013Y-84876803D01*
X129824464Y-85564265D01*
X129786586Y-85906461D01*
X129740606Y-86245526D01*
X129684998Y-86579877D01*
X129618238Y-86907935D01*
X129538801Y-87228117D01*
X129445161Y-87538842D01*
X129335793Y-87838529D01*
X129209173Y-88125597D01*
X129063774Y-88398464D01*
X128898073Y-88655549D01*
X128814067Y-88655549D01*
X128375890Y-88180960D01*
X127975644Y-87694632D01*
X127611078Y-87196668D01*
X127279940Y-86687175D01*
X126979978Y-86166255D01*
X126708941Y-85634014D01*
X126557254Y-85296666D01*
X126770168Y-85296666D01*
X126984780Y-85716821D01*
X127206400Y-86131789D01*
X127438685Y-86539114D01*
X127559971Y-86739142D01*
X127685296Y-86936338D01*
X127815116Y-87130395D01*
X127949889Y-87321005D01*
X128090073Y-87507862D01*
X128236125Y-87690658D01*
X128388502Y-87869085D01*
X128547661Y-88042838D01*
X128714060Y-88211608D01*
X128888156Y-88375089D01*
X127069147Y-84664312D01*
X126770168Y-85296666D01*
X126557254Y-85296666D01*
X126464577Y-85090557D01*
X126244634Y-84535988D01*
X126046860Y-83970412D01*
X125869003Y-83393934D01*
X125772758Y-83041089D01*
X125975759Y-83041089D01*
X126656400Y-85033403D01*
X126990477Y-84267538D01*
X127322322Y-83520648D01*
X127491749Y-83151955D01*
X127665826Y-82785169D01*
X127846291Y-82419343D01*
X128034879Y-82053533D01*
X128162573Y-81818335D01*
X128295545Y-81589043D01*
X128364672Y-81476637D01*
X128435913Y-81365736D01*
X128509531Y-81256351D01*
X128585791Y-81148491D01*
X128664958Y-81042166D01*
X128747297Y-80937385D01*
X128833071Y-80834159D01*
X128922545Y-80732496D01*
X129015985Y-80632407D01*
X129113654Y-80533901D01*
X129215817Y-80436988D01*
X129322738Y-80341678D01*
X129322736Y-80341016D01*
X129648843Y-80475201D01*
X129961787Y-80619847D01*
X130262512Y-80774670D01*
X130551964Y-80939388D01*
X130831087Y-81113718D01*
X131100826Y-81297377D01*
X131362125Y-81490081D01*
X131615930Y-81691549D01*
X131863185Y-81901496D01*
X132104835Y-82119641D01*
X132341824Y-82345700D01*
X132575097Y-82579390D01*
X132805599Y-82820429D01*
X133034275Y-83068533D01*
X133489927Y-83584806D01*
X133168622Y-82540280D01*
X133081281Y-82282308D01*
X132985956Y-82027227D01*
X132934490Y-81901026D01*
X132880057Y-81775852D01*
X132822333Y-81651809D01*
X132760995Y-81528997D01*
X132681284Y-81382990D01*
X132595243Y-81240261D01*
X132503134Y-81100797D01*
X132405216Y-80964586D01*
X132301749Y-80831615D01*
X132192992Y-80701872D01*
X132079207Y-80575344D01*
X131960651Y-80452017D01*
X131710273Y-80214922D01*
X131443936Y-79990484D01*
X131163721Y-79778604D01*
X130871705Y-79579181D01*
X130569970Y-79392114D01*
X130260593Y-79217301D01*
X129945655Y-79054643D01*
X129627234Y-78904038D01*
X129307411Y-78765387D01*
X128988263Y-78638587D01*
X128671872Y-78523539D01*
X128360315Y-78420141D01*
X128133395Y-78670323D01*
X127920653Y-78927275D01*
X127721277Y-79190648D01*
X127534453Y-79460097D01*
X127359369Y-79735275D01*
X127195212Y-80015834D01*
X127041168Y-80301427D01*
X126896425Y-80591708D01*
X126760170Y-80886330D01*
X126631590Y-81184946D01*
X126509872Y-81487209D01*
X126394203Y-81792772D01*
X126177760Y-82412412D01*
X125975759Y-83041089D01*
X125772758Y-83041089D01*
X125708812Y-82806657D01*
X125564035Y-82208687D01*
X125432420Y-81600129D01*
X125311715Y-80981087D01*
X125094028Y-79711969D01*
X124893587Y-80019589D01*
X124640691Y-80396795D01*
X124353457Y-80807937D01*
X124049998Y-81217365D01*
X123897846Y-81410297D01*
X123748432Y-81589432D01*
X123604019Y-81750314D01*
X123466871Y-81888488D01*
X123339255Y-81999496D01*
X123279728Y-82043421D01*
X123223433Y-82078883D01*
X123170653Y-82105327D01*
X123121670Y-82122194D01*
X123076769Y-82128927D01*
X123036231Y-82124971D01*
X123029649Y-82122867D01*
X123022939Y-82119816D01*
X123016126Y-82115869D01*
X123009233Y-82111079D01*
X123002286Y-82105499D01*
X122995307Y-82099180D01*
X122988321Y-82092176D01*
X122981351Y-82084538D01*
X122967559Y-82067569D01*
X122954121Y-82048694D01*
X122941229Y-82028331D01*
X122929075Y-82006898D01*
X122917852Y-81984814D01*
X122907751Y-81962498D01*
X122898964Y-81940368D01*
X122891682Y-81918842D01*
X122888912Y-81908670D01*
X123098413Y-81908670D01*
X123146877Y-81875040D01*
X123192441Y-81842030D01*
X123235303Y-81809519D01*
X123275663Y-81777382D01*
X123313721Y-81745498D01*
X123349676Y-81713742D01*
X123383729Y-81681992D01*
X123416078Y-81650125D01*
X123446923Y-81618017D01*
X123476464Y-81585546D01*
X123504900Y-81552589D01*
X123532432Y-81519022D01*
X123559258Y-81484723D01*
X123585578Y-81449568D01*
X123637500Y-81376199D01*
X123638162Y-81376199D01*
X123615470Y-81136787D01*
X123607945Y-81018040D01*
X123602971Y-80899825D01*
X123600552Y-80782058D01*
X123600689Y-80664660D01*
X123603386Y-80547549D01*
X123608646Y-80430644D01*
X123616471Y-80313862D01*
X123626866Y-80197123D01*
X123639831Y-80080345D01*
X123655372Y-79963447D01*
X123694187Y-79728965D01*
X123743335Y-79493026D01*
X123783400Y-79318401D01*
X125222354Y-79318401D01*
X125871908Y-82607168D01*
X125871908Y-82607175D01*
X126127891Y-81951005D01*
X126065908Y-81759548D01*
X126008251Y-81568116D01*
X125904742Y-81185048D01*
X125815015Y-80801251D01*
X125736721Y-80416175D01*
X125667512Y-80029269D01*
X125605039Y-79639984D01*
X125490907Y-78852073D01*
X125222354Y-79318401D01*
X123783400Y-79318401D01*
X124363121Y-76791631D01*
X124408769Y-76609776D01*
X124459425Y-76430929D01*
X124564039Y-76076925D01*
X124612137Y-75899101D01*
X124633851Y-75809401D01*
X124653522Y-75718952D01*
X124670781Y-75627588D01*
X124685264Y-75535144D01*
X124696603Y-75441451D01*
X124704433Y-75346343D01*
X124489093Y-75989988D01*
X124283209Y-76635392D01*
X124086937Y-77283075D01*
X123900431Y-77933556D01*
X123723848Y-78587355D01*
X123557341Y-79244990D01*
X123401066Y-79906982D01*
X123255178Y-80573850D01*
X123098413Y-81908670D01*
X122888912Y-81908670D01*
X122886098Y-81898340D01*
X122882404Y-81879279D01*
X122881325Y-81870420D01*
X122880790Y-81862079D01*
X122880824Y-81854307D01*
X122881450Y-81847158D01*
X123058721Y-80515640D01*
X123235927Y-79710388D01*
X123428869Y-78911656D01*
X123636290Y-78118333D01*
X123856936Y-77329313D01*
X124089549Y-76543487D01*
X124332876Y-75759745D01*
X124846643Y-74194084D01*
X124519613Y-73967132D01*
X124201789Y-73735534D01*
X123893525Y-73498613D01*
X123595173Y-73255691D01*
X123307089Y-73006091D01*
X123029625Y-72749137D01*
X122763135Y-72484149D01*
X122507973Y-72210452D01*
X122264493Y-71927368D01*
X122033048Y-71634220D01*
X121813991Y-71330330D01*
X121607677Y-71015022D01*
X121414459Y-70687617D01*
X121234691Y-70347438D01*
X121068727Y-69993809D01*
X120916919Y-69626052D01*
X120410903Y-68013416D01*
X120334855Y-68035170D01*
X120253093Y-68055358D01*
X120210785Y-68064433D01*
X120167906Y-68072600D01*
X120124742Y-68079685D01*
X120081579Y-68085516D01*
X120038703Y-68089921D01*
X119996400Y-68092728D01*
X119954955Y-68093763D01*
X119914654Y-68092854D01*
X119875784Y-68089829D01*
X119838630Y-68084516D01*
X119803477Y-68076741D01*
X119770612Y-68066333D01*
X119756377Y-68060430D01*
X119741977Y-68053298D01*
X119727450Y-68044993D01*
X119712835Y-68035570D01*
X119698174Y-68025082D01*
X119683504Y-68013586D01*
X119668866Y-68001135D01*
X119654299Y-67987784D01*
X119625536Y-67958603D01*
X119597530Y-67926480D01*
X119570598Y-67891854D01*
X119545055Y-67855162D01*
X119521218Y-67816841D01*
X119499402Y-67777332D01*
X119479923Y-67737070D01*
X119463096Y-67696494D01*
X119455777Y-67676225D01*
X119449239Y-67656042D01*
X119443522Y-67636000D01*
X119438666Y-67616153D01*
X119434710Y-67596556D01*
X119431694Y-67577263D01*
X119429657Y-67558330D01*
X119428638Y-67539811D01*
X119393581Y-66314792D01*
X119068266Y-66693672D01*
X118654763Y-67147392D01*
X118423251Y-67387063D01*
X118179666Y-67627141D01*
X117927332Y-67861524D01*
X117669572Y-68084110D01*
X117409712Y-68288797D01*
X117151075Y-68469485D01*
X117023255Y-68548923D01*
X116896987Y-68620073D01*
X116772687Y-68682172D01*
X116650771Y-68734458D01*
X116531655Y-68776168D01*
X116415753Y-68806539D01*
X116303481Y-68824809D01*
X116195255Y-68830216D01*
X116091491Y-68821995D01*
X115992604Y-68799386D01*
X115899009Y-68761624D01*
X115811122Y-68707948D01*
X115770066Y-68674215D01*
X115732881Y-68635922D01*
X115699437Y-68593297D01*
X115669600Y-68546566D01*
X115643239Y-68495958D01*
X115620222Y-68441698D01*
X115600418Y-68384015D01*
X115583694Y-68323134D01*
X115569918Y-68259284D01*
X115558960Y-68192691D01*
X115544964Y-68052186D01*
X115540652Y-67903434D01*
X115544968Y-67748254D01*
X115556857Y-67588462D01*
X115575264Y-67425875D01*
X115599134Y-67262309D01*
X115627412Y-67099580D01*
X115659042Y-66939507D01*
X115692970Y-66783906D01*
X115763496Y-66493385D01*
X115404639Y-66748741D01*
X114978965Y-67039398D01*
X114749453Y-67188357D01*
X114513293Y-67334612D01*
X114273840Y-67474322D01*
X114034444Y-67603642D01*
X113798459Y-67718731D01*
X113569238Y-67815745D01*
X113350132Y-67890842D01*
X113245420Y-67918971D01*
X113144494Y-67940179D01*
X113047773Y-67953987D01*
X112955677Y-67959913D01*
X112868624Y-67957479D01*
X112787033Y-67946202D01*
X112711323Y-67925603D01*
X112641915Y-67895202D01*
X112579225Y-67854518D01*
X112523674Y-67803071D01*
X112486475Y-67756310D01*
X112456300Y-67705950D01*
X112432871Y-67652184D01*
X112415910Y-67595210D01*
X112405138Y-67535220D01*
X112400279Y-67472410D01*
X112401054Y-67406975D01*
X112407185Y-67339110D01*
X112418395Y-67269010D01*
X112434404Y-67196869D01*
X112454936Y-67122883D01*
X112479712Y-67047246D01*
X112540885Y-66891799D01*
X112615699Y-66732088D01*
X112701932Y-66569672D01*
X112797359Y-66406110D01*
X112899756Y-66242960D01*
X113006900Y-66081782D01*
X113226534Y-65771577D01*
X113438471Y-65487968D01*
X113110008Y-65532996D01*
X112782674Y-65570692D01*
X112456453Y-65600822D01*
X112131326Y-65623154D01*
X111807277Y-65637455D01*
X111484288Y-65643494D01*
X111162342Y-65641036D01*
X110841420Y-65629851D01*
X110521507Y-65609705D01*
X110202583Y-65580365D01*
X109884633Y-65541600D01*
X109567638Y-65493176D01*
X109251580Y-65434862D01*
X108936444Y-65366424D01*
X108622210Y-65287630D01*
X108308862Y-65198247D01*
X108221954Y-65170892D01*
X108134400Y-65141161D01*
X108046997Y-65109050D01*
X107960542Y-65074555D01*
X107875831Y-65037673D01*
X107793660Y-64998400D01*
X107714827Y-64956732D01*
X107640127Y-64912664D01*
X107570357Y-64866193D01*
X107506314Y-64817316D01*
X107448793Y-64766028D01*
X107398592Y-64712325D01*
X107376484Y-64684567D01*
X107356506Y-64656203D01*
X107338755Y-64627235D01*
X107323333Y-64597660D01*
X107310337Y-64567478D01*
X107299868Y-64536690D01*
X107292025Y-64505294D01*
X107286909Y-64473290D01*
X107285793Y-64400283D01*
X107298944Y-64328854D01*
X107325621Y-64259004D01*
X107365084Y-64190739D01*
X107416592Y-64124060D01*
X107479404Y-64058972D01*
X107552782Y-63995478D01*
X107635983Y-63933581D01*
X107728268Y-63873285D01*
X107828897Y-63814593D01*
X108052223Y-63702034D01*
X108300037Y-63595933D01*
X108566417Y-63496316D01*
X108845440Y-63403210D01*
X109131182Y-63316642D01*
X109417721Y-63236640D01*
X109699133Y-63163230D01*
X110655055Y-62936060D01*
X109967236Y-62898858D01*
X109065818Y-62833906D01*
X108041121Y-62736770D01*
X106983465Y-62603016D01*
X106470502Y-62521022D01*
X105983169Y-62428210D01*
X105532757Y-62324027D01*
X105130555Y-62207919D01*
X104787853Y-62079330D01*
X104515941Y-61937708D01*
X104410060Y-61861835D01*
X104326110Y-61782497D01*
X104265502Y-61699623D01*
X104229649Y-61613143D01*
X104222107Y-61544024D01*
X104235083Y-61476087D01*
X104267466Y-61409360D01*
X104318146Y-61343869D01*
X104386013Y-61279642D01*
X104469958Y-61216707D01*
X104568871Y-61155089D01*
X104681642Y-61094818D01*
X104944318Y-60978422D01*
X105249110Y-60867735D01*
X105587137Y-60762976D01*
X105949523Y-60664364D01*
X106327388Y-60572115D01*
X106711855Y-60486448D01*
X107465079Y-60335733D01*
X108660097Y-60122877D01*
X107802295Y-59916141D01*
X106604832Y-59587055D01*
X105205784Y-59162285D01*
X103743229Y-58668496D01*
X103031285Y-58404053D01*
X102355243Y-58132354D01*
X101732362Y-57856732D01*
X101179902Y-57580521D01*
X100715124Y-57307055D01*
X100355285Y-57039666D01*
X100220112Y-56909291D01*
X100117646Y-56781686D01*
X100050045Y-56657267D01*
X100019467Y-56536451D01*
X100018596Y-56501144D01*
X100022671Y-56466548D01*
X100031490Y-56432680D01*
X100044852Y-56399559D01*
X100062555Y-56367200D01*
X100084398Y-56335622D01*
X100110179Y-56304841D01*
X100139697Y-56274875D01*
X100172751Y-56245742D01*
X100209140Y-56217458D01*
X100248661Y-56190041D01*
X100291113Y-56163509D01*
X100336296Y-56137878D01*
X100384007Y-56113166D01*
X100434045Y-56089390D01*
X100486208Y-56066568D01*
X100596108Y-56023853D01*
X100712093Y-55985160D01*
X100832552Y-55950628D01*
X100955875Y-55920396D01*
X101080449Y-55894600D01*
X101204664Y-55873382D01*
X101326909Y-55856878D01*
X101445571Y-55845227D01*
X101599861Y-55834818D01*
X101753471Y-55827749D01*
X102058960Y-55822727D01*
X102362666Y-55828356D01*
X102665217Y-55842829D01*
X102967241Y-55864341D01*
X103269366Y-55891085D01*
X103876430Y-55953045D01*
X103338437Y-55706805D01*
X102805529Y-55454791D01*
X102277830Y-55195568D01*
X101755464Y-54927702D01*
X101238555Y-54649759D01*
X100727227Y-54360305D01*
X100221604Y-54057906D01*
X99721811Y-53741128D01*
X99471489Y-53571848D01*
X99341213Y-53478323D01*
X99210617Y-53379817D01*
X99082017Y-53277036D01*
X98957729Y-53170687D01*
X98840071Y-53061475D01*
X98731359Y-52950107D01*
X98633910Y-52837290D01*
X98550041Y-52723729D01*
X98513923Y-52666891D01*
X98482068Y-52610132D01*
X98454766Y-52553541D01*
X98432308Y-52497205D01*
X98414982Y-52441212D01*
X98403078Y-52385653D01*
X98396885Y-52330614D01*
X98396694Y-52276183D01*
X98402793Y-52222450D01*
X98415473Y-52169502D01*
X98435023Y-52117428D01*
X98461732Y-52066316D01*
X98490714Y-52059877D01*
X98522806Y-52053750D01*
X98594624Y-52042679D01*
X98673789Y-52033609D01*
X98756908Y-52027042D01*
X98840585Y-52023483D01*
X98881572Y-52022988D01*
X98921425Y-52023435D01*
X98959720Y-52024885D01*
X98996033Y-52027402D01*
X99029939Y-52031049D01*
X99061014Y-52035889D01*
X102581956Y-52695363D01*
X100241055Y-51226926D01*
X99963408Y-51049634D01*
X99690970Y-50869366D01*
X99422873Y-50685935D01*
X99158248Y-50499156D01*
X98896228Y-50308842D01*
X98635944Y-50114808D01*
X98376528Y-49916866D01*
X98117113Y-49714832D01*
X98077158Y-49682191D01*
X98038384Y-49648110D01*
X98000763Y-49612728D01*
X97964267Y-49576186D01*
X97928868Y-49538625D01*
X97894537Y-49500185D01*
X97861247Y-49461007D01*
X97828969Y-49421231D01*
X97797676Y-49380997D01*
X97767339Y-49340447D01*
X97709422Y-49258957D01*
X97654992Y-49177886D01*
X97603826Y-49098357D01*
X97603826Y-49040579D01*
X97817358Y-49040579D01*
X97818800Y-49061315D01*
X97827139Y-49086382D01*
X97839852Y-49113734D01*
X97856720Y-49143223D01*
X97877520Y-49174700D01*
X97930032Y-49243024D01*
X97995616Y-49317517D01*
X98072502Y-49396990D01*
X98158919Y-49480255D01*
X98253094Y-49566122D01*
X98353258Y-49653403D01*
X98457639Y-49740909D01*
X98564465Y-49827451D01*
X98671965Y-49911839D01*
X98778369Y-49992886D01*
X98881905Y-50069402D01*
X98980801Y-50140199D01*
X99073287Y-50204087D01*
X99157592Y-50259878D01*
X103400846Y-52995669D01*
X103176434Y-52979271D01*
X102956812Y-52956850D01*
X102741515Y-52929127D01*
X102530078Y-52896823D01*
X102116925Y-52821354D01*
X101713632Y-52736212D01*
X100921742Y-52559975D01*
X100525704Y-52480414D01*
X100124644Y-52414247D01*
X99932237Y-52380948D01*
X99743396Y-52350386D01*
X99556539Y-52322381D01*
X99370085Y-52296756D01*
X99182453Y-52273332D01*
X98992062Y-52251932D01*
X98797329Y-52232376D01*
X98596675Y-52214487D01*
X98594281Y-52264031D01*
X98598072Y-52314498D01*
X98607765Y-52365798D01*
X98623075Y-52417837D01*
X98643720Y-52470526D01*
X98669416Y-52523772D01*
X98699879Y-52577483D01*
X98734827Y-52631567D01*
X98773974Y-52685934D01*
X98817039Y-52740491D01*
X98863736Y-52795146D01*
X98913784Y-52849809D01*
X99022793Y-52958787D01*
X99141799Y-53066693D01*
X99268534Y-53172793D01*
X99400728Y-53276353D01*
X99536114Y-53376641D01*
X99672423Y-53472922D01*
X99807388Y-53564462D01*
X99938739Y-53650530D01*
X100181529Y-53803310D01*
X100694241Y-54111491D01*
X101210789Y-54407790D01*
X101731725Y-54692662D01*
X102257599Y-54966567D01*
X102788960Y-55229960D01*
X103326360Y-55483300D01*
X103870349Y-55727044D01*
X104421477Y-55961649D01*
X104518685Y-55999953D01*
X104618000Y-56035598D01*
X104818042Y-56099563D01*
X105011790Y-56154846D01*
X105189430Y-56202750D01*
X105341149Y-56244577D01*
X105457134Y-56281629D01*
X105498660Y-56298771D01*
X105527572Y-56315208D01*
X105536915Y-56323213D01*
X105542644Y-56331103D01*
X105544606Y-56338897D01*
X105542649Y-56346617D01*
X105495686Y-56436576D01*
X105494245Y-56438822D01*
X105492297Y-56440974D01*
X105489870Y-56443033D01*
X105486992Y-56445002D01*
X105483692Y-56446882D01*
X105479996Y-56448677D01*
X105471532Y-56452017D01*
X105461824Y-56455039D01*
X105451095Y-56457761D01*
X105439570Y-56460199D01*
X105427472Y-56462373D01*
X105415026Y-56464298D01*
X105402454Y-56465992D01*
X105377832Y-56468760D01*
X105336935Y-56472295D01*
X104864388Y-56352227D01*
X104390243Y-56251678D01*
X103914394Y-56170197D01*
X103436731Y-56107335D01*
X102957145Y-56062642D01*
X102475529Y-56035670D01*
X101991773Y-56025968D01*
X101505769Y-56033086D01*
X101168146Y-56083491D01*
X101000858Y-56114093D01*
X100918317Y-56132144D01*
X100836787Y-56152562D01*
X100756473Y-56175748D01*
X100677583Y-56202101D01*
X100600323Y-56232021D01*
X100524899Y-56265909D01*
X100451517Y-56304166D01*
X100380384Y-56347190D01*
X100311707Y-56395383D01*
X100245691Y-56449144D01*
X100219280Y-56479056D01*
X100204292Y-56511978D01*
X100200171Y-56547708D01*
X100206359Y-56586044D01*
X100222300Y-56626781D01*
X100247436Y-56669719D01*
X100281213Y-56714654D01*
X100323071Y-56761383D01*
X100372456Y-56809704D01*
X100428809Y-56859415D01*
X100560195Y-56962194D01*
X100712776Y-57068098D01*
X100882097Y-57175507D01*
X101063703Y-57282800D01*
X101253142Y-57388356D01*
X101445959Y-57490554D01*
X101637699Y-57587772D01*
X102000133Y-57760785D01*
X102304810Y-57894430D01*
X103081427Y-58206582D01*
X103862648Y-58500171D01*
X104648737Y-58776039D01*
X105439957Y-59035032D01*
X106236573Y-59277995D01*
X107038847Y-59505773D01*
X107847043Y-59719211D01*
X108661425Y-59919154D01*
X108728024Y-59933972D01*
X108793996Y-59946795D01*
X108859518Y-59957796D01*
X108924768Y-59967151D01*
X109055168Y-59981615D01*
X109186623Y-59991583D01*
X109320558Y-59998451D01*
X109458400Y-60003614D01*
X109751508Y-60014404D01*
X109750905Y-60027465D01*
X109749484Y-60039991D01*
X109747268Y-60051995D01*
X109744279Y-60063488D01*
X109740539Y-60074482D01*
X109736073Y-60084989D01*
X109730902Y-60095021D01*
X109725050Y-60104589D01*
X109718539Y-60113706D01*
X109711391Y-60122383D01*
X109703630Y-60130632D01*
X109695279Y-60138466D01*
X109686360Y-60145895D01*
X109676896Y-60152932D01*
X109666909Y-60159589D01*
X109656424Y-60165877D01*
X109645461Y-60171809D01*
X109634045Y-60177396D01*
X109622197Y-60182651D01*
X109609941Y-60187584D01*
X109597299Y-60192208D01*
X109584294Y-60196536D01*
X109557288Y-60204346D01*
X109529103Y-60211109D01*
X109499922Y-60216921D01*
X109469927Y-60221877D01*
X109439300Y-60226071D01*
X108893509Y-60298714D01*
X108351780Y-60379829D01*
X107813771Y-60470323D01*
X107279142Y-60571104D01*
X106747552Y-60683077D01*
X106218659Y-60807151D01*
X105692123Y-60944232D01*
X105167602Y-61095227D01*
X105109594Y-61113552D01*
X105052661Y-61133125D01*
X104996825Y-61154044D01*
X104942107Y-61176410D01*
X104888528Y-61200323D01*
X104836111Y-61225881D01*
X104784875Y-61253186D01*
X104734843Y-61282336D01*
X104686035Y-61313433D01*
X104638474Y-61346574D01*
X104592180Y-61381861D01*
X104547175Y-61419393D01*
X104503479Y-61459269D01*
X104461115Y-61501590D01*
X104420104Y-61546456D01*
X104380466Y-61593966D01*
X104475334Y-61658614D01*
X104570477Y-61718777D01*
X104665971Y-61774696D01*
X104761890Y-61826613D01*
X104858310Y-61874770D01*
X104955303Y-61919410D01*
X105052947Y-61960776D01*
X105151313Y-61999108D01*
X105250479Y-62034651D01*
X105350517Y-62067644D01*
X105451503Y-62098332D01*
X105553511Y-62126956D01*
X105760893Y-62178982D01*
X105973258Y-62225659D01*
X106426804Y-62313031D01*
X106879932Y-62387861D01*
X107333152Y-62451994D01*
X107786977Y-62507275D01*
X108241918Y-62555548D01*
X108698487Y-62598659D01*
X109618556Y-62676773D01*
X109758276Y-62686528D01*
X109897704Y-62693204D01*
X110176062Y-62700193D01*
X110733444Y-62708854D01*
X111013987Y-62722029D01*
X111155055Y-62733344D01*
X111296779Y-62748769D01*
X111439255Y-62769024D01*
X111582578Y-62794826D01*
X111726843Y-62826896D01*
X111872144Y-62865951D01*
X109312136Y-63472343D01*
X108971863Y-63568963D01*
X108649887Y-63671108D01*
X108353049Y-63779048D01*
X108088190Y-63893051D01*
X107862150Y-64013387D01*
X107765825Y-64076014D01*
X107681770Y-64140325D01*
X107610840Y-64206354D01*
X107553891Y-64274135D01*
X107511777Y-64343701D01*
X107485353Y-64415086D01*
X107482288Y-64433205D01*
X107482079Y-64451693D01*
X107484624Y-64470512D01*
X107489823Y-64489625D01*
X107497574Y-64508995D01*
X107507776Y-64528583D01*
X107520328Y-64548353D01*
X107535128Y-64568265D01*
X107552075Y-64588284D01*
X107571068Y-64608370D01*
X107592006Y-64628486D01*
X107614787Y-64648595D01*
X107639310Y-64668659D01*
X107665474Y-64688640D01*
X107693178Y-64708501D01*
X107722320Y-64728204D01*
X107784514Y-64766985D01*
X107851247Y-64804681D01*
X107921709Y-64840992D01*
X107995089Y-64875616D01*
X108070577Y-64908252D01*
X108147363Y-64938598D01*
X108224638Y-64966353D01*
X108301591Y-64991216D01*
X108301590Y-64991216D01*
X108581550Y-65072033D01*
X108862549Y-65144419D01*
X109144539Y-65208514D01*
X109427475Y-65264460D01*
X109711311Y-65312400D01*
X109995999Y-65352473D01*
X110281493Y-65384822D01*
X110567747Y-65409588D01*
X110854714Y-65426913D01*
X111142347Y-65436938D01*
X111430601Y-65439805D01*
X111719429Y-65435654D01*
X112008783Y-65424628D01*
X112298618Y-65406868D01*
X112588887Y-65382515D01*
X112879544Y-65351711D01*
X113818815Y-65298131D01*
X113378997Y-65902973D01*
X113134101Y-66259678D01*
X113016628Y-66441583D01*
X112906746Y-66622041D01*
X112807663Y-66798188D01*
X112722583Y-66967164D01*
X112654714Y-67126106D01*
X112607261Y-67272151D01*
X112592192Y-67339443D01*
X112583430Y-67402437D01*
X112581375Y-67460776D01*
X112586429Y-67514102D01*
X112598990Y-67562058D01*
X112619462Y-67604285D01*
X112648243Y-67640425D01*
X112685736Y-67670122D01*
X112752045Y-67704388D01*
X112824358Y-67728269D01*
X112902322Y-67742260D01*
X112985585Y-67746857D01*
X113073793Y-67742559D01*
X113166595Y-67729861D01*
X113263637Y-67709260D01*
X113364568Y-67681253D01*
X113469035Y-67646337D01*
X113576684Y-67605007D01*
X113800122Y-67505097D01*
X114032061Y-67385497D01*
X114269681Y-67250179D01*
X114510161Y-67103118D01*
X114750681Y-66948287D01*
X115220558Y-66631209D01*
X115656747Y-66330735D01*
X116036683Y-66078653D01*
X115975510Y-66412139D01*
X115902872Y-66770353D01*
X115831056Y-67137217D01*
X115772347Y-67496655D01*
X115751748Y-67668566D01*
X115739033Y-67832591D01*
X115735738Y-67986721D01*
X115743398Y-68128947D01*
X115763551Y-68257260D01*
X115778791Y-68315570D01*
X115797730Y-68369649D01*
X115820560Y-68419244D01*
X115847472Y-68464104D01*
X115878660Y-68503979D01*
X115914314Y-68538617D01*
X115942581Y-68559799D01*
X115972987Y-68577767D01*
X116005424Y-68592619D01*
X116039783Y-68604452D01*
X116075955Y-68613361D01*
X116113832Y-68619445D01*
X116153305Y-68622799D01*
X116194266Y-68623521D01*
X116236605Y-68621708D01*
X116280214Y-68617455D01*
X116324985Y-68610860D01*
X116370809Y-68602020D01*
X116465181Y-68577991D01*
X116562460Y-68546141D01*
X116661778Y-68507245D01*
X116762266Y-68462078D01*
X116863054Y-68411412D01*
X116963273Y-68356023D01*
X117062054Y-68296685D01*
X117158528Y-68234172D01*
X117251826Y-68169257D01*
X117341079Y-68102716D01*
X117501423Y-67975297D01*
X117656881Y-67844436D01*
X117807992Y-67710317D01*
X117955295Y-67573125D01*
X118099332Y-67433047D01*
X118240641Y-67290265D01*
X118517235Y-66997336D01*
X119622447Y-65754539D01*
X119626529Y-65893688D01*
X119625484Y-66038764D01*
X119613126Y-66340632D01*
X119595590Y-66648019D01*
X119583092Y-66948801D01*
X119581925Y-67092928D01*
X119585849Y-67230856D01*
X119596140Y-67361073D01*
X119614077Y-67482061D01*
X119640935Y-67592305D01*
X119658109Y-67642925D01*
X119677993Y-67690291D01*
X119700745Y-67734213D01*
X119726526Y-67774502D01*
X119755495Y-67810968D01*
X119787813Y-67843423D01*
X119809142Y-67860228D01*
X119832382Y-67874341D01*
X119857435Y-67885817D01*
X119884198Y-67894712D01*
X119912574Y-67901082D01*
X119942462Y-67904984D01*
X119973762Y-67906471D01*
X120006373Y-67905600D01*
X120020439Y-67904281D01*
X120589502Y-67904281D01*
X121033340Y-69333690D01*
X121162335Y-69706262D01*
X121313753Y-70068668D01*
X121486217Y-70420894D01*
X121678354Y-70762927D01*
X121888788Y-71094756D01*
X122116145Y-71416367D01*
X122359049Y-71727748D01*
X122616126Y-72028886D01*
X122886001Y-72319770D01*
X123167298Y-72600385D01*
X123458643Y-72870720D01*
X123758661Y-73130762D01*
X124065978Y-73380499D01*
X124379217Y-73619917D01*
X124697004Y-73849004D01*
X125017965Y-74067748D01*
X125381767Y-73798534D01*
X124449771Y-72198467D01*
X123493978Y-72656848D01*
X123469448Y-72631669D01*
X123445548Y-72603224D01*
X123422998Y-72572529D01*
X123401869Y-72539932D01*
X123382233Y-72505781D01*
X123364160Y-72470423D01*
X123347720Y-72434207D01*
X123332984Y-72397481D01*
X123320024Y-72360592D01*
X123308909Y-72323887D01*
X123299711Y-72287716D01*
X123292500Y-72252426D01*
X123287347Y-72218364D01*
X123284323Y-72185878D01*
X123283498Y-72155318D01*
X123284944Y-72127029D01*
X123437080Y-70597074D01*
X122870549Y-68366641D01*
X123118253Y-68366641D01*
X123175337Y-68666925D01*
X123236582Y-68955939D01*
X123301440Y-69236426D01*
X123369360Y-69511130D01*
X123660650Y-70607000D01*
X124152112Y-70956251D01*
X124110159Y-70979063D01*
X124069167Y-71005205D01*
X124029192Y-71034488D01*
X123990288Y-71066723D01*
X123952510Y-71101721D01*
X123915912Y-71139293D01*
X123880550Y-71179250D01*
X123846478Y-71221402D01*
X123813751Y-71265561D01*
X123782423Y-71311538D01*
X123724186Y-71408188D01*
X123672204Y-71509839D01*
X123626915Y-71614980D01*
X123588758Y-71722097D01*
X123558170Y-71829679D01*
X123535589Y-71936212D01*
X123521453Y-72040184D01*
X123517689Y-72090737D01*
X123516201Y-72140082D01*
X123517043Y-72188031D01*
X123520269Y-72234395D01*
X123525936Y-72278984D01*
X123534097Y-72321609D01*
X123544808Y-72362082D01*
X123558122Y-72400213D01*
X124530618Y-71937435D01*
X125387720Y-73352050D01*
X125360005Y-73196462D01*
X125327204Y-73043719D01*
X125290414Y-72893443D01*
X125250736Y-72745255D01*
X125085102Y-72165807D01*
X125047458Y-72022377D01*
X125013517Y-71878761D01*
X124984379Y-71734582D01*
X124961141Y-71589460D01*
X124944902Y-71443016D01*
X124936762Y-71294872D01*
X124937819Y-71144649D01*
X124945041Y-71047525D01*
X125105939Y-71047525D01*
X125129137Y-71236618D01*
X125156216Y-71423069D01*
X125187025Y-71607134D01*
X125221415Y-71789071D01*
X125300333Y-72147585D01*
X125391771Y-72500666D01*
X125494526Y-72850367D01*
X125607396Y-73198743D01*
X125729181Y-73547847D01*
X125858678Y-73899734D01*
X126310145Y-74240240D01*
X126536987Y-74407819D01*
X126765208Y-74572436D01*
X126995290Y-74733209D01*
X127227713Y-74889254D01*
X127462957Y-75039687D01*
X127701503Y-75183624D01*
X127724957Y-75143332D01*
X127746173Y-75102958D01*
X127765290Y-75062515D01*
X127782445Y-75022019D01*
X127811425Y-74940921D01*
X127834218Y-74859778D01*
X127851931Y-74778706D01*
X127865667Y-74697817D01*
X127885636Y-74537049D01*
X127902970Y-74378389D01*
X127913412Y-74300136D01*
X127926512Y-74222753D01*
X127943375Y-74146354D01*
X127965108Y-74071054D01*
X127992814Y-73996967D01*
X128009253Y-73960414D01*
X128027601Y-73924207D01*
X128028922Y-73925533D01*
X128133714Y-73742415D01*
X128251010Y-73557178D01*
X128378760Y-73369422D01*
X128514909Y-73178747D01*
X129102471Y-72378879D01*
X129118046Y-72356552D01*
X129432538Y-72356552D01*
X130598028Y-74348865D01*
X130598359Y-74348534D01*
X130598524Y-74348369D01*
X130598688Y-74348203D01*
X132399839Y-73909656D01*
X133173746Y-72168039D01*
X133018705Y-72135129D01*
X132869517Y-72092845D01*
X132725693Y-72041765D01*
X132586744Y-71982468D01*
X132452183Y-71915532D01*
X132321520Y-71841535D01*
X132194269Y-71761056D01*
X132069939Y-71674673D01*
X131948044Y-71582965D01*
X131828094Y-71486510D01*
X131709601Y-71385887D01*
X131592077Y-71281673D01*
X131357983Y-71064792D01*
X131121904Y-70840492D01*
X131119167Y-70938069D01*
X131114084Y-71035040D01*
X131106511Y-71131326D01*
X131096303Y-71226845D01*
X131083317Y-71321520D01*
X131067407Y-71415270D01*
X131048430Y-71508017D01*
X131026240Y-71599680D01*
X131000694Y-71690181D01*
X130971648Y-71779439D01*
X130938956Y-71867376D01*
X130902475Y-71953911D01*
X130862060Y-72038966D01*
X130817567Y-72122462D01*
X130768851Y-72204317D01*
X130715768Y-72284454D01*
X130701449Y-72304068D01*
X130686298Y-72322956D01*
X130670359Y-72341091D01*
X130653671Y-72358443D01*
X130636278Y-72374984D01*
X130618219Y-72390687D01*
X130599537Y-72405523D01*
X130580272Y-72419464D01*
X130560467Y-72432481D01*
X130540163Y-72444547D01*
X130519401Y-72455633D01*
X130498223Y-72465710D01*
X130476669Y-72474752D01*
X130454782Y-72482729D01*
X130432603Y-72489613D01*
X130410173Y-72495376D01*
X130387534Y-72499991D01*
X130364727Y-72503427D01*
X130341794Y-72505659D01*
X130318775Y-72506656D01*
X130295713Y-72506391D01*
X130272649Y-72504836D01*
X130249624Y-72501963D01*
X130226680Y-72497743D01*
X130203858Y-72492148D01*
X130181199Y-72485150D01*
X130158745Y-72476720D01*
X130136538Y-72466831D01*
X130114618Y-72455454D01*
X130093028Y-72442561D01*
X130071808Y-72428124D01*
X130051000Y-72412114D01*
X130020522Y-72386502D01*
X129990821Y-72360289D01*
X129961853Y-72333512D01*
X129933572Y-72306208D01*
X129905935Y-72278411D01*
X129878896Y-72250158D01*
X129852411Y-72221485D01*
X129826436Y-72192427D01*
X129775837Y-72133300D01*
X129726742Y-72073065D01*
X129678795Y-72012008D01*
X129631639Y-71950416D01*
X129598206Y-72003977D01*
X129566206Y-72058058D01*
X129536145Y-72111999D01*
X129508525Y-72165142D01*
X129483850Y-72216827D01*
X129472775Y-72241918D01*
X129462625Y-72266397D01*
X129453464Y-72290182D01*
X129445353Y-72313191D01*
X129438357Y-72335342D01*
X129432538Y-72356552D01*
X129118046Y-72356552D01*
X129249841Y-72167624D01*
X129393298Y-71951055D01*
X129525846Y-71736768D01*
X129757978Y-71736768D01*
X129793044Y-71799492D01*
X129831140Y-71862766D01*
X129872074Y-71926025D01*
X129915652Y-71988702D01*
X129961679Y-72050232D01*
X129985550Y-72080389D01*
X130009961Y-72110048D01*
X130034887Y-72139137D01*
X130060304Y-72167586D01*
X130086189Y-72195323D01*
X130112516Y-72222278D01*
X130126032Y-72234937D01*
X130140010Y-72246389D01*
X130154410Y-72256660D01*
X130169192Y-72265778D01*
X130184314Y-72273767D01*
X130199734Y-72280654D01*
X130215413Y-72286464D01*
X130231310Y-72291225D01*
X130247382Y-72294961D01*
X130263590Y-72297699D01*
X130279893Y-72299465D01*
X130296249Y-72300285D01*
X130312618Y-72300185D01*
X130328958Y-72299191D01*
X130345229Y-72297329D01*
X130361390Y-72294625D01*
X130377400Y-72291106D01*
X130393217Y-72286796D01*
X130408802Y-72281723D01*
X130424113Y-72275912D01*
X130439108Y-72269390D01*
X130453748Y-72262181D01*
X130467991Y-72254313D01*
X130481796Y-72245812D01*
X130495123Y-72236703D01*
X130507930Y-72227013D01*
X130520177Y-72216767D01*
X130531822Y-72205991D01*
X130542825Y-72194713D01*
X130553144Y-72182957D01*
X130562739Y-72170749D01*
X130571569Y-72158117D01*
X130631396Y-72061543D01*
X130683543Y-71965521D01*
X130728622Y-71869643D01*
X130767248Y-71773499D01*
X130800032Y-71676681D01*
X130827589Y-71578780D01*
X130850532Y-71479386D01*
X130869474Y-71378092D01*
X130885029Y-71274488D01*
X130897810Y-71168164D01*
X130917503Y-70945726D01*
X130950586Y-70450231D01*
X132051916Y-71408683D01*
X132109349Y-71457618D01*
X132169638Y-71506628D01*
X132232569Y-71555247D01*
X132297926Y-71603007D01*
X132365497Y-71649442D01*
X132435066Y-71694084D01*
X132506421Y-71736467D01*
X132579346Y-71776123D01*
X132653627Y-71812585D01*
X132729051Y-71845387D01*
X132805403Y-71874061D01*
X132882470Y-71898141D01*
X132960036Y-71917159D01*
X133037888Y-71930648D01*
X133076854Y-71935173D01*
X133115812Y-71938141D01*
X133154734Y-71939494D01*
X133193593Y-71939172D01*
X133220428Y-71936956D01*
X133245874Y-71932014D01*
X133269948Y-71924490D01*
X133292666Y-71914526D01*
X133314042Y-71902265D01*
X133334092Y-71887851D01*
X133352831Y-71871425D01*
X133370275Y-71853130D01*
X133386438Y-71833110D01*
X133401338Y-71811507D01*
X133414988Y-71788464D01*
X133427404Y-71764124D01*
X133438602Y-71738629D01*
X133448597Y-71712123D01*
X133457404Y-71684748D01*
X133465039Y-71656646D01*
X133471517Y-71627961D01*
X133476853Y-71598836D01*
X133481063Y-71569413D01*
X133484163Y-71539836D01*
X133486167Y-71510246D01*
X133487091Y-71480786D01*
X133486951Y-71451601D01*
X133485761Y-71422831D01*
X133483538Y-71394621D01*
X133480296Y-71367113D01*
X133476050Y-71340449D01*
X133470818Y-71314772D01*
X133464612Y-71290226D01*
X133457450Y-71266953D01*
X133449347Y-71245096D01*
X133440317Y-71224798D01*
X132789294Y-69893947D01*
X133011690Y-69893947D01*
X133680421Y-71302192D01*
X134413320Y-70479999D01*
X134412656Y-70479997D01*
X133011690Y-69893947D01*
X132789294Y-69893947D01*
X132618123Y-69544032D01*
X134199010Y-70177709D01*
X134405699Y-70253758D01*
X134601184Y-70312733D01*
X134784837Y-70355746D01*
X134956028Y-70383908D01*
X135114127Y-70398330D01*
X135258503Y-70400125D01*
X135388528Y-70390403D01*
X135503571Y-70370275D01*
X135603003Y-70340853D01*
X135686194Y-70303249D01*
X135721502Y-70281726D01*
X135752514Y-70258574D01*
X135779150Y-70233931D01*
X135801332Y-70207938D01*
X135818982Y-70180733D01*
X135832021Y-70152454D01*
X135840369Y-70123241D01*
X135843948Y-70093233D01*
X135842680Y-70062568D01*
X135836486Y-70031386D01*
X135825286Y-69999825D01*
X135809003Y-69968025D01*
X135762216Y-69894540D01*
X135712329Y-69826563D01*
X135659626Y-69763799D01*
X135604386Y-69705954D01*
X135546890Y-69652733D01*
X135487421Y-69603842D01*
X135426259Y-69558986D01*
X135363685Y-69517872D01*
X135299980Y-69480203D01*
X135235426Y-69445687D01*
X135104893Y-69384933D01*
X134974335Y-69333254D01*
X134846000Y-69288294D01*
X134604998Y-69209112D01*
X134496828Y-69170178D01*
X134399878Y-69128542D01*
X134356313Y-69105975D01*
X134316396Y-69081848D01*
X134280408Y-69055868D01*
X134248631Y-69027741D01*
X134221345Y-68997171D01*
X134198832Y-68963865D01*
X134181373Y-68927527D01*
X134169248Y-68887864D01*
X135447187Y-69243068D01*
X136188268Y-69391895D01*
X136556235Y-69460542D01*
X136923891Y-69523856D01*
X137292292Y-69580720D01*
X137662492Y-69630020D01*
X138035544Y-69670637D01*
X138412504Y-69701457D01*
X138528797Y-69706245D01*
X138647603Y-69705315D01*
X138767607Y-69698792D01*
X138887493Y-69686802D01*
X139005945Y-69669471D01*
X139121647Y-69646926D01*
X139233283Y-69619291D01*
X139339538Y-69586694D01*
X139439096Y-69549260D01*
X139530640Y-69507115D01*
X139612856Y-69460386D01*
X139684427Y-69409197D01*
X139715809Y-69381969D01*
X139744037Y-69353675D01*
X139768945Y-69324328D01*
X139790370Y-69293946D01*
X139808147Y-69262543D01*
X139822112Y-69230135D01*
X139832099Y-69196739D01*
X139837945Y-69162370D01*
X139837938Y-69162372D01*
X139838094Y-69138489D01*
X139833753Y-69112944D01*
X139825141Y-69085872D01*
X139812487Y-69057409D01*
X139796017Y-69027692D01*
X139775959Y-68996856D01*
X139752539Y-68965036D01*
X139725986Y-68932370D01*
X139664386Y-68865040D01*
X139592976Y-68795952D01*
X139513574Y-68726194D01*
X139427999Y-68656852D01*
X139338067Y-68589014D01*
X139245596Y-68523767D01*
X139152405Y-68462198D01*
X139060310Y-68405394D01*
X138971130Y-68354443D01*
X138886683Y-68310431D01*
X138808785Y-68274446D01*
X138739255Y-68247575D01*
X138619824Y-68212224D01*
X138497555Y-68184908D01*
X138373023Y-68163927D01*
X138246801Y-68147581D01*
X137736486Y-68094530D01*
X137610419Y-68075848D01*
X137486103Y-68051599D01*
X137364113Y-68020080D01*
X137245023Y-67979591D01*
X137186743Y-67955452D01*
X137129404Y-67928433D01*
X137073077Y-67898322D01*
X137017832Y-67864905D01*
X136963743Y-67827970D01*
X136910880Y-67787305D01*
X136859316Y-67742698D01*
X136809122Y-67693935D01*
X137219912Y-67780555D01*
X137618935Y-67857067D01*
X138009307Y-67921549D01*
X138394145Y-67972078D01*
X138585462Y-67991510D01*
X138776563Y-68006732D01*
X138967840Y-68017506D01*
X139159680Y-68023590D01*
X139352473Y-68024743D01*
X139546610Y-68020727D01*
X139742478Y-68011300D01*
X139940469Y-67996223D01*
X140459691Y-67945622D01*
X141009291Y-67879527D01*
X141572891Y-67791805D01*
X141854822Y-67737918D01*
X142134110Y-67676325D01*
X142408710Y-67606259D01*
X142676572Y-67526955D01*
X142935649Y-67437646D01*
X143183896Y-67337565D01*
X143419263Y-67225946D01*
X143639703Y-67102023D01*
X143843170Y-66965028D01*
X144027616Y-66814197D01*
X144056086Y-66786039D01*
X144084348Y-66753541D01*
X144111883Y-66717277D01*
X144138173Y-66677823D01*
X144162700Y-66635753D01*
X144184945Y-66591641D01*
X144204389Y-66546062D01*
X144220515Y-66499591D01*
X144227172Y-66476201D01*
X144232804Y-66452802D01*
X144237348Y-66429468D01*
X144240738Y-66406270D01*
X144242909Y-66383280D01*
X144243797Y-66360569D01*
X144243337Y-66338210D01*
X144241465Y-66316274D01*
X144238114Y-66294833D01*
X144233222Y-66273959D01*
X144226721Y-66253724D01*
X144218549Y-66234199D01*
X144208640Y-66215457D01*
X144196930Y-66197569D01*
X144183353Y-66180608D01*
X144167844Y-66164644D01*
X144118397Y-66123318D01*
X144060438Y-66083436D01*
X143921051Y-66008036D01*
X143753809Y-65938515D01*
X143562838Y-65874946D01*
X143352264Y-65817399D01*
X143126211Y-65765947D01*
X142888807Y-65720662D01*
X142644176Y-65681614D01*
X142396445Y-65648876D01*
X142149739Y-65622520D01*
X141908184Y-65602616D01*
X141675905Y-65589238D01*
X141457029Y-65582455D01*
X141255681Y-65582342D01*
X141075986Y-65588967D01*
X140922071Y-65602405D01*
X139085859Y-65823993D01*
X139080385Y-65824381D01*
X139074414Y-65824318D01*
X139061181Y-65822934D01*
X139046556Y-65820022D01*
X139030938Y-65815766D01*
X139014722Y-65810347D01*
X138998306Y-65803948D01*
X138982089Y-65796750D01*
X138966466Y-65788936D01*
X138951835Y-65780688D01*
X138938594Y-65772187D01*
X138927140Y-65763617D01*
X138917869Y-65755160D01*
X138914177Y-65751030D01*
X138911180Y-65746997D01*
X138908928Y-65743083D01*
X138907470Y-65739310D01*
X138906856Y-65735703D01*
X138907135Y-65732283D01*
X138908358Y-65729073D01*
X138910573Y-65726096D01*
X138933432Y-65704993D01*
X138959868Y-65685874D01*
X138989740Y-65668610D01*
X139022903Y-65653075D01*
X139059215Y-65639139D01*
X139098533Y-65626675D01*
X139185617Y-65605649D01*
X139283009Y-65588971D01*
X139389568Y-65575617D01*
X139625610Y-65554779D01*
X139884597Y-65534932D01*
X140019836Y-65522818D01*
X140157381Y-65507877D01*
X140296088Y-65489083D01*
X140434815Y-65465412D01*
X140572418Y-65435837D01*
X140707754Y-65399335D01*
X144106988Y-64372753D01*
X144391043Y-64284215D01*
X144671129Y-64191554D01*
X144947867Y-64094490D01*
X145221876Y-63992745D01*
X145493777Y-63886038D01*
X145764190Y-63774091D01*
X146033734Y-63656626D01*
X146303030Y-63533362D01*
X146412894Y-63478223D01*
X146519473Y-63417910D01*
X146621995Y-63353432D01*
X146719686Y-63285800D01*
X146811772Y-63216025D01*
X146897482Y-63145117D01*
X146976040Y-63074088D01*
X147046675Y-63003947D01*
X147108612Y-62935704D01*
X147161079Y-62870372D01*
X147203303Y-62808960D01*
X147234510Y-62752479D01*
X147245740Y-62726403D01*
X147253927Y-62701939D01*
X147258972Y-62679213D01*
X147260780Y-62658352D01*
X147259254Y-62639481D01*
X147254297Y-62622727D01*
X147245813Y-62608216D01*
X147233705Y-62596075D01*
X147029310Y-62436664D01*
X146904549Y-62406011D01*
X146779548Y-62378534D01*
X146654298Y-62354214D01*
X146528793Y-62333032D01*
X146403025Y-62314970D01*
X146276985Y-62300009D01*
X146150666Y-62288132D01*
X146024060Y-62279319D01*
X145897159Y-62273553D01*
X145769956Y-62270815D01*
X145642443Y-62271086D01*
X145514613Y-62274348D01*
X145386456Y-62280583D01*
X145257966Y-62289772D01*
X145129135Y-62301897D01*
X144999956Y-62316940D01*
X144288652Y-62576790D01*
X143927593Y-62702986D01*
X143745416Y-62761049D01*
X143562030Y-62814191D01*
X143377349Y-62861241D01*
X143191289Y-62901025D01*
X143003766Y-62932373D01*
X142814696Y-62954110D01*
X142623994Y-62965065D01*
X142431577Y-62964066D01*
X142237359Y-62949939D01*
X142041257Y-62921513D01*
X142884110Y-62731881D01*
X143287843Y-62632973D01*
X143683243Y-62528111D01*
X144072908Y-62414877D01*
X144459433Y-62290854D01*
X144845416Y-62153622D01*
X145233453Y-62000763D01*
X147529378Y-61049586D01*
X147740328Y-60959558D01*
X147958444Y-60860648D01*
X148181128Y-60752887D01*
X148405780Y-60636309D01*
X148629800Y-60510944D01*
X148850589Y-60376825D01*
X149065546Y-60233983D01*
X149272073Y-60082451D01*
X149467570Y-59922261D01*
X149649436Y-59753444D01*
X149815073Y-59576033D01*
X149890993Y-59484114D01*
X149961881Y-59390059D01*
X150027412Y-59293871D01*
X150087260Y-59195555D01*
X150141102Y-59095114D01*
X150188611Y-58992552D01*
X150229463Y-58887874D01*
X150263333Y-58781083D01*
X150289896Y-58672184D01*
X150308828Y-58561179D01*
X150238454Y-58514999D01*
X150165629Y-58473608D01*
X150090553Y-58436881D01*
X150013424Y-58404693D01*
X149934443Y-58376920D01*
X149853808Y-58353437D01*
X149771721Y-58334118D01*
X149688379Y-58318838D01*
X149603984Y-58307473D01*
X149518733Y-58299897D01*
X149432828Y-58295986D01*
X149346467Y-58295615D01*
X149259850Y-58298658D01*
X149173177Y-58304990D01*
X149086646Y-58314487D01*
X149000459Y-58327024D01*
X146951925Y-58661061D01*
X145683912Y-58965332D01*
X139410638Y-60477426D01*
X139328470Y-60498210D01*
X139247619Y-60520633D01*
X139168022Y-60544707D01*
X139089615Y-60570444D01*
X139012336Y-60597855D01*
X138936122Y-60626952D01*
X138860910Y-60657746D01*
X138786636Y-60690250D01*
X138713239Y-60724475D01*
X138640654Y-60760432D01*
X138568820Y-60798133D01*
X138497672Y-60837590D01*
X138427148Y-60878814D01*
X138357185Y-60921817D01*
X138287720Y-60966611D01*
X138218690Y-61013207D01*
X133917226Y-63982494D01*
X130850706Y-66030368D01*
X130818292Y-67093332D01*
X130810476Y-67280840D01*
X130798646Y-67467387D01*
X130764188Y-67837969D01*
X130717404Y-68205822D01*
X130660783Y-68571692D01*
X130596814Y-68936320D01*
X130527985Y-69300453D01*
X130385698Y-70030206D01*
X130362436Y-70145005D01*
X130337049Y-70257851D01*
X130309536Y-70368929D01*
X130279896Y-70478426D01*
X130248129Y-70586528D01*
X130214233Y-70693421D01*
X130140050Y-70904323D01*
X130057342Y-71112620D01*
X129966098Y-71319801D01*
X129866313Y-71527354D01*
X129757978Y-71736768D01*
X129525846Y-71736768D01*
X129530791Y-71728774D01*
X129660266Y-71500380D01*
X129779673Y-71265475D01*
X129886958Y-71023660D01*
X129935413Y-70900036D01*
X129980069Y-70774535D01*
X130020668Y-70647107D01*
X130056955Y-70517701D01*
X130151873Y-70130190D01*
X130235373Y-69742926D01*
X130309183Y-69355725D01*
X130375033Y-68968400D01*
X130434651Y-68580764D01*
X130489765Y-68192633D01*
X130593397Y-67414138D01*
X130525032Y-67488529D01*
X130463073Y-67564392D01*
X130406422Y-67641403D01*
X130353980Y-67719235D01*
X130304651Y-67797564D01*
X130257336Y-67876063D01*
X130164359Y-68032270D01*
X130116500Y-68109328D01*
X130066265Y-68185253D01*
X130012555Y-68259721D01*
X129954273Y-68332407D01*
X129890321Y-68402984D01*
X129855876Y-68437380D01*
X129819601Y-68471127D01*
X129781360Y-68504184D01*
X129741016Y-68536511D01*
X129698430Y-68568066D01*
X129653467Y-68598810D01*
X129888280Y-67367835D01*
X129851998Y-67390914D01*
X129817370Y-67415803D01*
X129784294Y-67442398D01*
X129752663Y-67470597D01*
X129722373Y-67500294D01*
X129693321Y-67531386D01*
X129638508Y-67597341D01*
X129587390Y-67667628D01*
X129539128Y-67741417D01*
X129492888Y-67817876D01*
X129447833Y-67896175D01*
X129357933Y-68054963D01*
X129311415Y-68133791D01*
X129262738Y-68211132D01*
X129211065Y-68286156D01*
X129155560Y-68358030D01*
X129126109Y-68392527D01*
X129095386Y-68425925D01*
X129063288Y-68458119D01*
X129029708Y-68489007D01*
X128914420Y-67189239D01*
X129138189Y-67189239D01*
X129185813Y-67902952D01*
X129235752Y-67836984D01*
X129282706Y-67770197D01*
X129371094Y-67636519D01*
X129457855Y-67506639D01*
X129502773Y-67444599D01*
X129549863Y-67385278D01*
X129599984Y-67329268D01*
X129653995Y-67277157D01*
X129682728Y-67252748D01*
X129712755Y-67229536D01*
X129744185Y-67207594D01*
X129777125Y-67186996D01*
X129811682Y-67167815D01*
X129847964Y-67150125D01*
X129886077Y-67134001D01*
X129926130Y-67119515D01*
X129968230Y-67106742D01*
X130012484Y-67095756D01*
X130059000Y-67086629D01*
X130107885Y-67079437D01*
X130045045Y-67826223D01*
X130210661Y-67600685D01*
X130282284Y-67498692D01*
X130346650Y-67401928D01*
X130403908Y-67308928D01*
X130454207Y-67218225D01*
X130497697Y-67128354D01*
X130534525Y-67037847D01*
X130564843Y-66945240D01*
X130577607Y-66897691D01*
X130588799Y-66849067D01*
X130606541Y-66747861D01*
X130618221Y-66640156D01*
X130623985Y-66524486D01*
X130623985Y-66399386D01*
X130618369Y-66263389D01*
X130607286Y-66115030D01*
X130605966Y-66115695D01*
X130552976Y-66156795D01*
X130529307Y-66174853D01*
X130506994Y-66191235D01*
X130485642Y-66205932D01*
X130464856Y-66218932D01*
X130444241Y-66230225D01*
X130433874Y-66235228D01*
X130423401Y-66239800D01*
X130412773Y-66243940D01*
X130401941Y-66247646D01*
X130390855Y-66250918D01*
X130379465Y-66253754D01*
X130367723Y-66256152D01*
X130355579Y-66258111D01*
X130342983Y-66259630D01*
X130329887Y-66260708D01*
X130316240Y-66261342D01*
X130301993Y-66261533D01*
X130287097Y-66261278D01*
X130271503Y-66260577D01*
X130238020Y-66257828D01*
X130201150Y-66253276D01*
X130558340Y-65847141D01*
X130614011Y-65772395D01*
X130882459Y-65772395D01*
X132745122Y-64553328D01*
X132745122Y-64553992D01*
X138113519Y-60839902D01*
X138177424Y-60796568D01*
X138241895Y-60754637D01*
X138306942Y-60714135D01*
X138372573Y-60675086D01*
X138438798Y-60637512D01*
X138505623Y-60601440D01*
X138573060Y-60566893D01*
X138641115Y-60533895D01*
X138709798Y-60502471D01*
X138779118Y-60472644D01*
X138849083Y-60444440D01*
X138919703Y-60417882D01*
X138990985Y-60392994D01*
X139062938Y-60369801D01*
X139135572Y-60348327D01*
X139208894Y-60328595D01*
X142923643Y-59382049D01*
X142317087Y-59421074D01*
X140887678Y-59539475D01*
X140644302Y-59566772D01*
X140407193Y-59607353D01*
X140175826Y-59660269D01*
X139949677Y-59724570D01*
X139728221Y-59799308D01*
X139510934Y-59883536D01*
X139297293Y-59976303D01*
X139086773Y-60076662D01*
X138878849Y-60183664D01*
X138672998Y-60296361D01*
X138265418Y-60535042D01*
X137452062Y-61039001D01*
X131651071Y-64618813D01*
X130882459Y-65772395D01*
X130614011Y-65772395D01*
X131010114Y-65240583D01*
X131101809Y-65113428D01*
X131189474Y-64984043D01*
X131273265Y-64852523D01*
X131353338Y-64718961D01*
X131429849Y-64583454D01*
X131502955Y-64446097D01*
X131572811Y-64306984D01*
X131639573Y-64166210D01*
X131703397Y-64023870D01*
X131764440Y-63880059D01*
X131878804Y-63588405D01*
X131983913Y-63292007D01*
X132081014Y-62991625D01*
X132024758Y-63054065D01*
X131995353Y-63085877D01*
X131965084Y-63117333D01*
X131933943Y-63147872D01*
X131901921Y-63176928D01*
X131869010Y-63203940D01*
X131835201Y-63228345D01*
X131817956Y-63239394D01*
X131800484Y-63249579D01*
X131782783Y-63258832D01*
X131764852Y-63267080D01*
X131746690Y-63274255D01*
X131728296Y-63280285D01*
X131709668Y-63285100D01*
X131690806Y-63288631D01*
X131671709Y-63290805D01*
X131652375Y-63291554D01*
X131632803Y-63290806D01*
X131612993Y-63288492D01*
X131592943Y-63284541D01*
X131572652Y-63278882D01*
X131552119Y-63271446D01*
X131531343Y-63262162D01*
X131514248Y-63253046D01*
X131497686Y-63242733D01*
X131481651Y-63231283D01*
X131466137Y-63218758D01*
X131451137Y-63205220D01*
X131436647Y-63190730D01*
X131422660Y-63175349D01*
X131409170Y-63159139D01*
X131396171Y-63142162D01*
X131383658Y-63124479D01*
X131360064Y-63087242D01*
X131338339Y-63047919D01*
X131318437Y-63007004D01*
X131300310Y-62964987D01*
X131283911Y-62922363D01*
X131269192Y-62879622D01*
X131256105Y-62837257D01*
X131244604Y-62795760D01*
X131234641Y-62755624D01*
X131226167Y-62717340D01*
X131219137Y-62681402D01*
X129392188Y-63464567D01*
X129448711Y-63934809D01*
X129487428Y-64403973D01*
X129508519Y-64872098D01*
X129512160Y-65339223D01*
X129498532Y-65805386D01*
X129467812Y-66270628D01*
X129420177Y-66734986D01*
X129355808Y-67198499D01*
X129138189Y-67189239D01*
X128914420Y-67189239D01*
X128892126Y-66937887D01*
X128885795Y-66883654D01*
X128876549Y-66829463D01*
X128864495Y-66775479D01*
X128849741Y-66721869D01*
X128832393Y-66668797D01*
X128812561Y-66616430D01*
X128790350Y-66564932D01*
X128765870Y-66514471D01*
X128739226Y-66465211D01*
X128710528Y-66417318D01*
X128679882Y-66370958D01*
X128647396Y-66326296D01*
X128613178Y-66283499D01*
X128577334Y-66242731D01*
X128539974Y-66204159D01*
X128501203Y-66167949D01*
X128348958Y-66433278D01*
X128207836Y-66693157D01*
X128075009Y-66950075D01*
X127947646Y-67206520D01*
X127436256Y-68277339D01*
X126769506Y-67358573D01*
X126722376Y-67296620D01*
X126672601Y-67236876D01*
X126620313Y-67179503D01*
X126565643Y-67124666D01*
X126508720Y-67072526D01*
X126449677Y-67023246D01*
X126388643Y-66976989D01*
X126325750Y-66933918D01*
X126261128Y-66894195D01*
X126194909Y-66857984D01*
X126127223Y-66825448D01*
X126058200Y-66796748D01*
X125987973Y-66772047D01*
X125916670Y-66751510D01*
X125844424Y-66735297D01*
X125771366Y-66723573D01*
X125815857Y-66839095D01*
X125862227Y-66951202D01*
X125910417Y-67060186D01*
X125960367Y-67166336D01*
X126012019Y-67269944D01*
X126065313Y-67371300D01*
X126176592Y-67568420D01*
X126293731Y-67760020D01*
X126416257Y-67948427D01*
X126543698Y-68135966D01*
X126675580Y-68324962D01*
X126686032Y-68340778D01*
X126695751Y-68357631D01*
X126704659Y-68375397D01*
X126712674Y-68393951D01*
X126719716Y-68413167D01*
X126725705Y-68432922D01*
X126730561Y-68453088D01*
X126734202Y-68473543D01*
X126736549Y-68494160D01*
X126737521Y-68514816D01*
X126737038Y-68535383D01*
X126735018Y-68555739D01*
X126733408Y-68565799D01*
X126731383Y-68575758D01*
X126728934Y-68585602D01*
X126726051Y-68595314D01*
X126722724Y-68604880D01*
X126718942Y-68614284D01*
X126714696Y-68623509D01*
X126709976Y-68632541D01*
X125914903Y-68294536D01*
X125105939Y-71047525D01*
X124945041Y-71047525D01*
X124949172Y-70991968D01*
X125512733Y-68795265D01*
X124627040Y-70362922D01*
X124430465Y-70101314D01*
X124243580Y-69846644D01*
X123884057Y-69351139D01*
X123704008Y-69106817D01*
X123518828Y-68862456D01*
X123324812Y-68616312D01*
X123118253Y-68366641D01*
X122870549Y-68366641D01*
X122765037Y-67951242D01*
X122792004Y-67931463D01*
X122819793Y-67912443D01*
X122833749Y-67903514D01*
X122847613Y-67895129D01*
X122861288Y-67887407D01*
X122874674Y-67880466D01*
X122887672Y-67874424D01*
X122900184Y-67869399D01*
X122912110Y-67865510D01*
X122923353Y-67862875D01*
X122928687Y-67862064D01*
X122933813Y-67861612D01*
X122938718Y-67861532D01*
X122943391Y-67861839D01*
X122947818Y-67862548D01*
X122951988Y-67863674D01*
X122955888Y-67865232D01*
X122959506Y-67867236D01*
X123081876Y-67946613D01*
X124607862Y-70007717D01*
X125604017Y-68135129D01*
X125354563Y-68004345D01*
X125110308Y-67869953D01*
X124870995Y-67731943D01*
X124636366Y-67590304D01*
X124406162Y-67445027D01*
X124180127Y-67296099D01*
X123958003Y-67143511D01*
X123739531Y-66987251D01*
X123312516Y-66663675D01*
X122897020Y-66325287D01*
X122490980Y-65971999D01*
X122092336Y-65603729D01*
X121956951Y-65938748D01*
X121885211Y-66103889D01*
X121810451Y-66266892D01*
X121732426Y-66427342D01*
X121650897Y-66584820D01*
X121565619Y-66738909D01*
X121476352Y-66889190D01*
X121382852Y-67035247D01*
X121284878Y-67176662D01*
X121182187Y-67313018D01*
X121074537Y-67443895D01*
X120961686Y-67568878D01*
X120843391Y-67687549D01*
X120719410Y-67799489D01*
X120589502Y-67904281D01*
X120020439Y-67904281D01*
X120040197Y-67902428D01*
X120075133Y-67897008D01*
X120111082Y-67889399D01*
X120147942Y-67879654D01*
X120185615Y-67867829D01*
X120224001Y-67853981D01*
X120262999Y-67838166D01*
X120302510Y-67820437D01*
X120382671Y-67779468D01*
X120463683Y-67731518D01*
X120544747Y-67677033D01*
X120625064Y-67616460D01*
X120703835Y-67550244D01*
X120780260Y-67478831D01*
X120853540Y-67402665D01*
X120922876Y-67322194D01*
X121005958Y-67217087D01*
X121086073Y-67109953D01*
X121163277Y-67000905D01*
X121237627Y-66890054D01*
X121309178Y-66777514D01*
X121377988Y-66663396D01*
X121444111Y-66547813D01*
X121507605Y-66430878D01*
X121568525Y-66312702D01*
X121626928Y-66193399D01*
X121682870Y-66073080D01*
X121736408Y-65951858D01*
X121836492Y-65707155D01*
X121927631Y-65460189D01*
X121894472Y-65426833D01*
X121863155Y-65393639D01*
X121833600Y-65360459D01*
X121805726Y-65327144D01*
X121779452Y-65293545D01*
X121754699Y-65259516D01*
X121731386Y-65224907D01*
X121709432Y-65189571D01*
X121688757Y-65153358D01*
X121669281Y-65116121D01*
X121650923Y-65077712D01*
X121633603Y-65037982D01*
X121617240Y-64996784D01*
X121601754Y-64953968D01*
X121587064Y-64909386D01*
X121573091Y-64862892D01*
X121500702Y-64623261D01*
X121421553Y-64384953D01*
X121335426Y-64148515D01*
X121242103Y-63914495D01*
X121141365Y-63683440D01*
X121032996Y-63455897D01*
X120916775Y-63232413D01*
X120792487Y-63013537D01*
X120659912Y-62799816D01*
X120518833Y-62591797D01*
X120369032Y-62390028D01*
X120210290Y-62195055D01*
X120042390Y-62007427D01*
X119865113Y-61827692D01*
X119678242Y-61656395D01*
X119481559Y-61494086D01*
X119136477Y-61232486D01*
X118787255Y-60981848D01*
X118434530Y-60739736D01*
X118078937Y-60503717D01*
X116640596Y-59571888D01*
X116390776Y-59401054D01*
X116270124Y-59314081D01*
X116152150Y-59225800D01*
X116036733Y-59136009D01*
X115923755Y-59044502D01*
X115813095Y-58951076D01*
X115704632Y-58855529D01*
X115598246Y-58757656D01*
X115493817Y-58657254D01*
X115391226Y-58554120D01*
X115290352Y-58448050D01*
X115191074Y-58338841D01*
X115093273Y-58226288D01*
X114996829Y-58110190D01*
X114901620Y-57990342D01*
X113082611Y-55648779D01*
X112911114Y-55437844D01*
X112721649Y-55222276D01*
X112516199Y-55003227D01*
X112296746Y-54781845D01*
X112065275Y-54559280D01*
X111823768Y-54336684D01*
X111574210Y-54115206D01*
X111318583Y-53895997D01*
X110797058Y-53468983D01*
X110275060Y-53064843D01*
X109768457Y-52692780D01*
X109293115Y-52361992D01*
X109085046Y-52224199D01*
X108875987Y-52091470D01*
X108665817Y-51963600D01*
X108454417Y-51840381D01*
X108027436Y-51607073D01*
X107594076Y-51389897D01*
X107153368Y-51187200D01*
X106704343Y-50997332D01*
X106246031Y-50818641D01*
X105777464Y-50649477D01*
X105063394Y-50410150D01*
X104348673Y-50186683D01*
X103632898Y-49975960D01*
X102915665Y-49774864D01*
X102879048Y-49765107D01*
X103677997Y-49765107D01*
X104080615Y-49902149D01*
X104482847Y-50032223D01*
X105286333Y-50284766D01*
X105687680Y-50413886D01*
X106088826Y-50549339D01*
X106489817Y-50694450D01*
X106890700Y-50852545D01*
X107351338Y-51052544D01*
X107801156Y-51266628D01*
X108240989Y-51494866D01*
X108671676Y-51737328D01*
X109094054Y-51994084D01*
X109508959Y-52265203D01*
X109917228Y-52550755D01*
X110319700Y-52850810D01*
X110981551Y-53365094D01*
X111305849Y-53625414D01*
X111624426Y-53890788D01*
X111936306Y-54163417D01*
X112240512Y-54445503D01*
X112389432Y-54590781D01*
X112536068Y-54739248D01*
X112680297Y-54891179D01*
X112821996Y-55046852D01*
X113100580Y-55367460D01*
X113375234Y-55697540D01*
X113646679Y-56035279D01*
X113915636Y-56378863D01*
X114980997Y-57775367D01*
X115081388Y-57903415D01*
X115182988Y-58027267D01*
X115285950Y-58147161D01*
X115390428Y-58263337D01*
X115496577Y-58376033D01*
X115604551Y-58485487D01*
X115714503Y-58591937D01*
X115826587Y-58695621D01*
X115940959Y-58796779D01*
X116057771Y-58895648D01*
X116177178Y-58992466D01*
X116299334Y-59087473D01*
X116424392Y-59180906D01*
X116552508Y-59273005D01*
X116683835Y-59364006D01*
X116818527Y-59454149D01*
X118278779Y-60394164D01*
X118638940Y-60633915D01*
X118994674Y-60880759D01*
X119344750Y-61137293D01*
X119687934Y-61406112D01*
X119902785Y-61590899D01*
X120104495Y-61784567D01*
X120293691Y-61986696D01*
X120470997Y-62196865D01*
X120637041Y-62414653D01*
X120792448Y-62639641D01*
X120937844Y-62871407D01*
X121073854Y-63109532D01*
X121201106Y-63353594D01*
X121320224Y-63603174D01*
X121431835Y-63857849D01*
X121536565Y-64117201D01*
X121635039Y-64380809D01*
X121727884Y-64648252D01*
X121815725Y-64919109D01*
X121899188Y-65192960D01*
X121901172Y-65193622D01*
X121918632Y-64974519D01*
X121930721Y-64751850D01*
X121935042Y-64527197D01*
X121933542Y-64414621D01*
X121929202Y-64302141D01*
X121921722Y-64189956D01*
X121910803Y-64078263D01*
X121896147Y-63967261D01*
X121877453Y-63857145D01*
X121854422Y-63748115D01*
X121826754Y-63640368D01*
X121794151Y-63534101D01*
X121756313Y-63429512D01*
X121666858Y-63213632D01*
X121569354Y-63002300D01*
X121464108Y-62795503D01*
X121351428Y-62593233D01*
X121231620Y-62395478D01*
X121104992Y-62202227D01*
X120971851Y-62013470D01*
X120832504Y-61829197D01*
X120687258Y-61649396D01*
X120536421Y-61474057D01*
X120380298Y-61303169D01*
X120219199Y-61136722D01*
X120053429Y-60974705D01*
X119883296Y-60817108D01*
X119715919Y-60669909D01*
X120064964Y-60669909D01*
X120378805Y-61000872D01*
X120538260Y-61177574D01*
X120697483Y-61360771D01*
X120855032Y-61549723D01*
X121009464Y-61743692D01*
X121159339Y-61941938D01*
X121303214Y-62143721D01*
X121439647Y-62348302D01*
X121567198Y-62554942D01*
X121684423Y-62762903D01*
X121789882Y-62971443D01*
X121882132Y-63179824D01*
X121959732Y-63387308D01*
X122021240Y-63593154D01*
X122045509Y-63695231D01*
X122065214Y-63796623D01*
X122080997Y-63894820D01*
X122094498Y-63992536D01*
X122115443Y-64186945D01*
X122129628Y-64380703D01*
X122138635Y-64574663D01*
X122154510Y-65369571D01*
X122351612Y-65563112D01*
X122551987Y-65752545D01*
X122755622Y-65937839D01*
X122962503Y-66118962D01*
X123172616Y-66295884D01*
X123385947Y-66468573D01*
X123602484Y-66637000D01*
X123822213Y-66801132D01*
X124045120Y-66960939D01*
X124271191Y-67116389D01*
X124500413Y-67267452D01*
X124732772Y-67414097D01*
X124968256Y-67556292D01*
X125206849Y-67694008D01*
X125448540Y-67827211D01*
X125693313Y-67955873D01*
X125949296Y-67585454D01*
X125878206Y-67456196D01*
X125811309Y-67326907D01*
X125748645Y-67196874D01*
X125690252Y-67065383D01*
X125636169Y-66931722D01*
X125586434Y-66795178D01*
X125541087Y-66655037D01*
X125520070Y-66583394D01*
X125500165Y-66510585D01*
X125581935Y-66505532D01*
X125661942Y-66505268D01*
X125740218Y-66509625D01*
X125816796Y-66518434D01*
X125891706Y-66531527D01*
X125964981Y-66548736D01*
X126036653Y-66569892D01*
X126106754Y-66594828D01*
X126175314Y-66623375D01*
X126242367Y-66655366D01*
X126307944Y-66690631D01*
X126372077Y-66729002D01*
X126434798Y-66770312D01*
X126496138Y-66814392D01*
X126614806Y-66910189D01*
X126728334Y-67015047D01*
X126836977Y-67127621D01*
X126940991Y-67246565D01*
X127040630Y-67370533D01*
X127136150Y-67498179D01*
X127227804Y-67628157D01*
X127400537Y-67889726D01*
X127400868Y-67889395D01*
X127401034Y-67889229D01*
X127401201Y-67889064D01*
X128099700Y-66429887D01*
X128115583Y-66398853D01*
X128133593Y-66367556D01*
X128153547Y-66336056D01*
X128175261Y-66304418D01*
X128198553Y-66272701D01*
X128223239Y-66240969D01*
X128249136Y-66209284D01*
X128276061Y-66177707D01*
X128332263Y-66115127D01*
X128390379Y-66053725D01*
X128448945Y-65993998D01*
X128506496Y-65936441D01*
X128273300Y-65467821D01*
X128046483Y-65000084D01*
X127833479Y-64529526D01*
X127734480Y-64292031D01*
X127641722Y-64052442D01*
X127556134Y-63810294D01*
X127478646Y-63565125D01*
X127410186Y-63316472D01*
X127351683Y-63063872D01*
X127304068Y-62806860D01*
X127268269Y-62544975D01*
X127245215Y-62277753D01*
X127239494Y-62111226D01*
X127450809Y-62111226D01*
X127467357Y-62318410D01*
X127489556Y-62519657D01*
X127517166Y-62716283D01*
X127549945Y-62909607D01*
X127587655Y-63100947D01*
X127630054Y-63291620D01*
X127676903Y-63482944D01*
X127727960Y-63676237D01*
X127951978Y-64239562D01*
X128067765Y-64516826D01*
X128188584Y-64790050D01*
X128316316Y-65058407D01*
X128452847Y-65321066D01*
X128525000Y-65450000D01*
X128600059Y-65577199D01*
X128678259Y-65702558D01*
X128759040Y-65824771D01*
X127939136Y-62509424D01*
X128148647Y-62509424D01*
X128690381Y-64728616D01*
X128742797Y-64561602D01*
X128787833Y-64391667D01*
X128824606Y-64220245D01*
X128852232Y-64048772D01*
X128869828Y-63878682D01*
X128876510Y-63711411D01*
X128871394Y-63548394D01*
X128853596Y-63391065D01*
X128822234Y-63240860D01*
X128801190Y-63168877D01*
X128776423Y-63099214D01*
X128747823Y-63032048D01*
X128715279Y-62967561D01*
X128678681Y-62905930D01*
X128637919Y-62847336D01*
X128592882Y-62791958D01*
X128543460Y-62739975D01*
X128489542Y-62691567D01*
X128431017Y-62646913D01*
X128367776Y-62606192D01*
X128299707Y-62569584D01*
X128226701Y-62537268D01*
X128148647Y-62509424D01*
X127939136Y-62509424D01*
X127914599Y-62410206D01*
X128510467Y-62410206D01*
X128588789Y-62480223D01*
X128660021Y-62550708D01*
X128724497Y-62621788D01*
X128782554Y-62693589D01*
X128834525Y-62766240D01*
X128880747Y-62839866D01*
X128921554Y-62914595D01*
X128957282Y-62990553D01*
X128988266Y-63067868D01*
X129014842Y-63146666D01*
X129037344Y-63227075D01*
X129056108Y-63309221D01*
X129071469Y-63393231D01*
X129083763Y-63479232D01*
X129093324Y-63567352D01*
X129100488Y-63657716D01*
X129086002Y-63842883D01*
X129064594Y-64025694D01*
X129036597Y-64206706D01*
X129002345Y-64386478D01*
X128962171Y-64565568D01*
X128916408Y-64744533D01*
X128865389Y-64923933D01*
X128809448Y-65104326D01*
X129208307Y-66415998D01*
X129235542Y-66242309D01*
X129258322Y-66071079D01*
X129276811Y-65902068D01*
X129291175Y-65735036D01*
X129301578Y-65569745D01*
X129308184Y-65405954D01*
X129310667Y-65081919D01*
X129299941Y-64761015D01*
X129277325Y-64441328D01*
X129244136Y-64120943D01*
X129201692Y-63797945D01*
X129201690Y-63797283D01*
X129200368Y-63304497D01*
X129602635Y-63147384D01*
X129997197Y-62986449D01*
X130385341Y-62820724D01*
X130703605Y-62678230D01*
X131431535Y-62678230D01*
X131432223Y-62698135D01*
X131434137Y-62718889D01*
X131441432Y-62762316D01*
X131453000Y-62807261D01*
X131468421Y-62852472D01*
X131487277Y-62896699D01*
X131509147Y-62938691D01*
X131521081Y-62958457D01*
X131533611Y-62977196D01*
X131546685Y-62994750D01*
X131560251Y-63010964D01*
X131574256Y-63025681D01*
X131588647Y-63038744D01*
X131603372Y-63049998D01*
X131618379Y-63059286D01*
X131633615Y-63066451D01*
X131649028Y-63071337D01*
X131664565Y-63073788D01*
X131680173Y-63073648D01*
X131732274Y-63028698D01*
X131780500Y-62982222D01*
X131824963Y-62934319D01*
X131865774Y-62885091D01*
X131903042Y-62834638D01*
X131936878Y-62783061D01*
X131967392Y-62730461D01*
X131994696Y-62676938D01*
X132018898Y-62622594D01*
X132040111Y-62567529D01*
X132058444Y-62511843D01*
X132074008Y-62455639D01*
X132086913Y-62399016D01*
X132097270Y-62342075D01*
X132105189Y-62284917D01*
X132110780Y-62227642D01*
X131476442Y-62568293D01*
X131465438Y-62575782D01*
X131456079Y-62585370D01*
X131448312Y-62596902D01*
X131442086Y-62610219D01*
X131437348Y-62625168D01*
X131434044Y-62641589D01*
X131432124Y-62659329D01*
X131431535Y-62678230D01*
X130703605Y-62678230D01*
X130768354Y-62649240D01*
X131147522Y-62471027D01*
X131524132Y-62285117D01*
X131899472Y-62090541D01*
X132274827Y-61886330D01*
X132718015Y-61597107D01*
X132936822Y-61451845D01*
X133151838Y-61300939D01*
X133257471Y-61222150D01*
X133361614Y-61140484D01*
X133464084Y-61055454D01*
X133564701Y-60966572D01*
X133663283Y-60873349D01*
X133759649Y-60775297D01*
X133853618Y-60671928D01*
X133945009Y-60562752D01*
X128510467Y-62410206D01*
X127914599Y-62410206D01*
X127909200Y-62388377D01*
X133433698Y-60493299D01*
X133241940Y-60483066D01*
X133052489Y-60477970D01*
X132865143Y-60477726D01*
X132679698Y-60482044D01*
X132495951Y-60490637D01*
X132313697Y-60503217D01*
X131952859Y-60539188D01*
X131595555Y-60587654D01*
X131240158Y-60646313D01*
X130885040Y-60712863D01*
X130528573Y-60785002D01*
X130319623Y-60831101D01*
X130113386Y-60882304D01*
X129909756Y-60938568D01*
X129708624Y-60999852D01*
X129509884Y-61066112D01*
X129313428Y-61137306D01*
X129119148Y-61213391D01*
X128926936Y-61294325D01*
X128736686Y-61380065D01*
X128548289Y-61470567D01*
X128361638Y-61565791D01*
X128176625Y-61665693D01*
X127993144Y-61770230D01*
X127811086Y-61879359D01*
X127630343Y-61993039D01*
X127450809Y-62111226D01*
X127239494Y-62111226D01*
X127235836Y-62004732D01*
X127483249Y-61832912D01*
X127734772Y-61671287D01*
X127990278Y-61519665D01*
X128249645Y-61377855D01*
X128512747Y-61245665D01*
X128779462Y-61122902D01*
X129049665Y-61009375D01*
X129323233Y-60904892D01*
X129600040Y-60809261D01*
X129879963Y-60722290D01*
X130162878Y-60643788D01*
X130448662Y-60573563D01*
X130737189Y-60511423D01*
X131028336Y-60457175D01*
X131321979Y-60410628D01*
X131617994Y-60371591D01*
X131635429Y-60332873D01*
X131654473Y-60293835D01*
X131675090Y-60254806D01*
X131697246Y-60216117D01*
X131720906Y-60178099D01*
X131746034Y-60141082D01*
X131772597Y-60105396D01*
X131800559Y-60071372D01*
X131829884Y-60039339D01*
X131860540Y-60009630D01*
X131892489Y-59982573D01*
X131925699Y-59958500D01*
X131942765Y-59947685D01*
X131960133Y-59937741D01*
X131977799Y-59928707D01*
X131995757Y-59920625D01*
X132014005Y-59913537D01*
X132032537Y-59907484D01*
X132051348Y-59902508D01*
X132070436Y-59898649D01*
X132092368Y-59895730D01*
X132113535Y-59894493D01*
X132133970Y-59894867D01*
X132153701Y-59896782D01*
X132172760Y-59900167D01*
X132191177Y-59904952D01*
X132208983Y-59911067D01*
X132226208Y-59918441D01*
X132242882Y-59927004D01*
X132259037Y-59936685D01*
X132274703Y-59947414D01*
X132289909Y-59959122D01*
X132304688Y-59971736D01*
X132319069Y-59985188D01*
X132333082Y-59999407D01*
X132346759Y-60014321D01*
X132373224Y-60045958D01*
X132398709Y-60079536D01*
X132423458Y-60114491D01*
X132447714Y-60150261D01*
X132495726Y-60221995D01*
X132519970Y-60256832D01*
X132544698Y-60290232D01*
X132504648Y-59909368D01*
X132443391Y-59538069D01*
X132361645Y-59176697D01*
X132260129Y-58825611D01*
X132139561Y-58485173D01*
X132000659Y-58155743D01*
X131844141Y-57837683D01*
X131670726Y-57531352D01*
X131481132Y-57237111D01*
X131276076Y-56955321D01*
X131056278Y-56686343D01*
X130822455Y-56430538D01*
X130575326Y-56188265D01*
X130315609Y-55959887D01*
X130044021Y-55745762D01*
X129761282Y-55546253D01*
X129468110Y-55361720D01*
X129165222Y-55192523D01*
X128853337Y-55039024D01*
X128533174Y-54901582D01*
X128205450Y-54780559D01*
X127870883Y-54676315D01*
X127530193Y-54589211D01*
X127184096Y-54519608D01*
X126833312Y-54467866D01*
X126478558Y-54434346D01*
X126120553Y-54419408D01*
X125760014Y-54423414D01*
X125397661Y-54446724D01*
X125034212Y-54489699D01*
X124670384Y-54552700D01*
X124306896Y-54636086D01*
X124053652Y-54707837D01*
X123807664Y-54790297D01*
X123568982Y-54883149D01*
X123337661Y-54986075D01*
X123113754Y-55098758D01*
X122897314Y-55220882D01*
X122688394Y-55352127D01*
X122487048Y-55492178D01*
X122293328Y-55640717D01*
X122107287Y-55797427D01*
X121928980Y-55961989D01*
X121758458Y-56134087D01*
X121595776Y-56313404D01*
X121440985Y-56499623D01*
X121294141Y-56692425D01*
X121155295Y-56891493D01*
X121024501Y-57096511D01*
X120901812Y-57307161D01*
X120787281Y-57523125D01*
X120680961Y-57744087D01*
X120582906Y-57969729D01*
X120493168Y-58199733D01*
X120411802Y-58433783D01*
X120338859Y-58671560D01*
X120274394Y-58912749D01*
X120218459Y-59157030D01*
X120171107Y-59404088D01*
X120132393Y-59653604D01*
X120102368Y-59905261D01*
X120081086Y-60158743D01*
X120068600Y-60413731D01*
X120064964Y-60669909D01*
X119715919Y-60669909D01*
X119709107Y-60663919D01*
X119531169Y-60515128D01*
X117569284Y-59156493D01*
X117132903Y-58765235D01*
X116703693Y-58369357D01*
X116280699Y-57968891D01*
X115862969Y-57563866D01*
X115449548Y-57154315D01*
X115039484Y-56740268D01*
X114225610Y-55898810D01*
X114008699Y-55668097D01*
X113797771Y-55438446D01*
X113383574Y-54983104D01*
X113175158Y-54757801D01*
X112962432Y-54534335D01*
X112742823Y-54312901D01*
X112513757Y-54093690D01*
X112213492Y-53821119D01*
X111907993Y-53556833D01*
X111597234Y-53300886D01*
X111281191Y-53053330D01*
X110959839Y-52814220D01*
X110633151Y-52583608D01*
X110301103Y-52361548D01*
X109963670Y-52148094D01*
X109620826Y-51943297D01*
X109272547Y-51747212D01*
X108918806Y-51559893D01*
X108559580Y-51381391D01*
X108194842Y-51211761D01*
X107824568Y-51051056D01*
X107448732Y-50899329D01*
X107067310Y-50756633D01*
X106230678Y-50461995D01*
X105813816Y-50322799D01*
X105395721Y-50190921D01*
X104974743Y-50067786D01*
X104549230Y-49954822D01*
X104117532Y-49853453D01*
X103677997Y-49765107D01*
X102879048Y-49765107D01*
X100024100Y-49004430D01*
X99841625Y-48960297D01*
X99653319Y-48923937D01*
X99461708Y-48895049D01*
X99269315Y-48873327D01*
X99078666Y-48858469D01*
X98892287Y-48850172D01*
X98712701Y-48848132D01*
X98542435Y-48852046D01*
X98384013Y-48861612D01*
X98239960Y-48876524D01*
X98112802Y-48896481D01*
X98005062Y-48921179D01*
X97919268Y-48950315D01*
X97857942Y-48983585D01*
X97837245Y-49001676D01*
X97823611Y-49020686D01*
X97817358Y-49040579D01*
X97603826Y-49040579D01*
X97603826Y-48958789D01*
X97634781Y-48928504D01*
X97665391Y-48900931D01*
X97695665Y-48875928D01*
X97725611Y-48853356D01*
X97755236Y-48833074D01*
X97784549Y-48814940D01*
X97813558Y-48798815D01*
X97842271Y-48784557D01*
X97870697Y-48772026D01*
X97898843Y-48761080D01*
X97954328Y-48743384D01*
X98008792Y-48730342D01*
X98062299Y-48720830D01*
X98268064Y-48695549D01*
X98317764Y-48686793D01*
X98366897Y-48674809D01*
X98415528Y-48658473D01*
X98439675Y-48648321D01*
X98463722Y-48636659D01*
X98992888Y-48636659D01*
X98992395Y-48637885D01*
G37*
G36*
X124172938Y-58161385D02*
G01*
X124240423Y-58165628D01*
X124307659Y-58173104D01*
X124374554Y-58183806D01*
X124441014Y-58197731D01*
X124506947Y-58214873D01*
X124572258Y-58235227D01*
X124636855Y-58258788D01*
X124700645Y-58285551D01*
X124763533Y-58315510D01*
X124825428Y-58348662D01*
X124886235Y-58384999D01*
X124945861Y-58424519D01*
X125004214Y-58467214D01*
X125061199Y-58513081D01*
X125116724Y-58562114D01*
X125170696Y-58614309D01*
X125223020Y-58669659D01*
X125293873Y-58752024D01*
X125359960Y-58837257D01*
X125421283Y-58925159D01*
X125477843Y-59015529D01*
X125529643Y-59108166D01*
X125576683Y-59202870D01*
X125618966Y-59299441D01*
X125656493Y-59397676D01*
X125689265Y-59497377D01*
X125717284Y-59598342D01*
X125740552Y-59700372D01*
X125759069Y-59803264D01*
X125772839Y-59906819D01*
X125781862Y-60010837D01*
X125786140Y-60115116D01*
X125785674Y-60219456D01*
X125780466Y-60323656D01*
X125770518Y-60427517D01*
X125755831Y-60530836D01*
X125736407Y-60633415D01*
X125712247Y-60735052D01*
X125683353Y-60835546D01*
X125649727Y-60934697D01*
X125611369Y-61032305D01*
X125568283Y-61128169D01*
X125520468Y-61222088D01*
X125467927Y-61313862D01*
X125410662Y-61403290D01*
X125348673Y-61490172D01*
X125281964Y-61574307D01*
X125210534Y-61655494D01*
X125134386Y-61733533D01*
X125082938Y-61781447D01*
X125030104Y-61826469D01*
X124975969Y-61868601D01*
X124920620Y-61907845D01*
X124864142Y-61944204D01*
X124806622Y-61977680D01*
X124748146Y-62008277D01*
X124688800Y-62035996D01*
X124628671Y-62060840D01*
X124567843Y-62082812D01*
X124506404Y-62101915D01*
X124444439Y-62118150D01*
X124382035Y-62131520D01*
X124319278Y-62142029D01*
X124256253Y-62149677D01*
X124193048Y-62154469D01*
X124129747Y-62156406D01*
X124066438Y-62155492D01*
X124003206Y-62151728D01*
X123940137Y-62145117D01*
X123877318Y-62135662D01*
X123814834Y-62123365D01*
X123752772Y-62108229D01*
X123691218Y-62090256D01*
X123630258Y-62069449D01*
X123569978Y-62045810D01*
X123510464Y-62019343D01*
X123451802Y-61990049D01*
X123394079Y-61957931D01*
X123337380Y-61922991D01*
X123281792Y-61885233D01*
X123227401Y-61844658D01*
X123156005Y-61786295D01*
X123088361Y-61725760D01*
X123024391Y-61662991D01*
X122964017Y-61597924D01*
X122907163Y-61530497D01*
X122853750Y-61460647D01*
X122803702Y-61388310D01*
X122756940Y-61313424D01*
X122713387Y-61235926D01*
X122672965Y-61155753D01*
X122635598Y-61072841D01*
X122601208Y-60987129D01*
X122569716Y-60898552D01*
X122541046Y-60807048D01*
X122515120Y-60712554D01*
X122491861Y-60615007D01*
X122491857Y-60614346D01*
X121188123Y-59798767D01*
X121179769Y-59793035D01*
X121170903Y-59786112D01*
X121161632Y-59778158D01*
X121152063Y-59769333D01*
X121142304Y-59759794D01*
X121132463Y-59749701D01*
X121122647Y-59739213D01*
X121112964Y-59728488D01*
X121094426Y-59706965D01*
X121077710Y-59686403D01*
X121072582Y-59679705D01*
X121391851Y-59679705D01*
X122433649Y-60339840D01*
X122448513Y-60193202D01*
X122655057Y-60193202D01*
X122658764Y-60284396D01*
X122666439Y-60375383D01*
X122678082Y-60465998D01*
X122693691Y-60556075D01*
X122713265Y-60645450D01*
X122736804Y-60733958D01*
X122764305Y-60821435D01*
X122795769Y-60907714D01*
X122831193Y-60992633D01*
X122870577Y-61076025D01*
X122913920Y-61157725D01*
X122961221Y-61237570D01*
X123012478Y-61315394D01*
X123067690Y-61391033D01*
X123126857Y-61464321D01*
X123173104Y-61516377D01*
X123220995Y-61565508D01*
X123270434Y-61611702D01*
X123321325Y-61654946D01*
X123373572Y-61695230D01*
X123427079Y-61732541D01*
X123481750Y-61766869D01*
X123537489Y-61798202D01*
X123594199Y-61826528D01*
X123651786Y-61851837D01*
X123710152Y-61874115D01*
X123769202Y-61893353D01*
X123828839Y-61909537D01*
X123888969Y-61922658D01*
X123949493Y-61932703D01*
X124010318Y-61939661D01*
X124071345Y-61943520D01*
X124132480Y-61944269D01*
X124193627Y-61941897D01*
X124254689Y-61936391D01*
X124315570Y-61927741D01*
X124376174Y-61915934D01*
X124436406Y-61900960D01*
X124496169Y-61882807D01*
X124555367Y-61861462D01*
X124613903Y-61836916D01*
X124671683Y-61809156D01*
X124728610Y-61778171D01*
X124784588Y-61743949D01*
X124839521Y-61706478D01*
X124893313Y-61665749D01*
X124945867Y-61621747D01*
X125012650Y-61560028D01*
X125076216Y-61495043D01*
X125136402Y-61426967D01*
X125193046Y-61355976D01*
X125245984Y-61282244D01*
X125295055Y-61205948D01*
X125340095Y-61127262D01*
X125380941Y-61046362D01*
X125417431Y-60963423D01*
X125449402Y-60878622D01*
X125476691Y-60792132D01*
X125499136Y-60704130D01*
X125516573Y-60614790D01*
X125528840Y-60524289D01*
X125535774Y-60432802D01*
X125537212Y-60340503D01*
X125537210Y-60340502D01*
X125445356Y-60412660D01*
X125359371Y-60479098D01*
X125318145Y-60509838D01*
X125277865Y-60538746D01*
X125238359Y-60565689D01*
X125199452Y-60590533D01*
X125160972Y-60613145D01*
X125122745Y-60633391D01*
X125084597Y-60651137D01*
X125046356Y-60666250D01*
X125007846Y-60678595D01*
X124968896Y-60688039D01*
X124929332Y-60694448D01*
X124888980Y-60697689D01*
X124852685Y-60697451D01*
X124815410Y-60694106D01*
X124777416Y-60687804D01*
X124738964Y-60678693D01*
X124700314Y-60666924D01*
X124661727Y-60652646D01*
X124623464Y-60636007D01*
X124585785Y-60617157D01*
X124548951Y-60596245D01*
X124513222Y-60573421D01*
X124478860Y-60548833D01*
X124446124Y-60522630D01*
X124415276Y-60494963D01*
X124386576Y-60465980D01*
X124360285Y-60435830D01*
X124336664Y-60404663D01*
X124284539Y-60324465D01*
X124239063Y-60241620D01*
X124200263Y-60156491D01*
X124168167Y-60069439D01*
X124142803Y-59980824D01*
X124124199Y-59891009D01*
X124112383Y-59800355D01*
X124107384Y-59709223D01*
X124107873Y-59685081D01*
X124315248Y-59685081D01*
X124317362Y-59758833D01*
X124324887Y-59832445D01*
X124337833Y-59905737D01*
X124356207Y-59978530D01*
X124380019Y-60050645D01*
X124409278Y-60121903D01*
X124443991Y-60192124D01*
X124484168Y-60261129D01*
X124491377Y-60271958D01*
X124499332Y-60282731D01*
X124507995Y-60293428D01*
X124517326Y-60304032D01*
X124537833Y-60324885D01*
X124560537Y-60345144D01*
X124585120Y-60364663D01*
X124611266Y-60383296D01*
X124638659Y-60400895D01*
X124666980Y-60417315D01*
X124695914Y-60432410D01*
X124725143Y-60446033D01*
X124754351Y-60458038D01*
X124783221Y-60468279D01*
X124811435Y-60476609D01*
X124838678Y-60482881D01*
X124864632Y-60486951D01*
X124877027Y-60488114D01*
X124888980Y-60488671D01*
X124900283Y-60488552D01*
X124912087Y-60487714D01*
X124937036Y-60483964D01*
X124963498Y-60477588D01*
X124991145Y-60468754D01*
X125019649Y-60457630D01*
X125048680Y-60444382D01*
X125077912Y-60429180D01*
X125107014Y-60412189D01*
X125135659Y-60393579D01*
X125163518Y-60373516D01*
X125190263Y-60352168D01*
X125215565Y-60329703D01*
X125239096Y-60306289D01*
X125260528Y-60282093D01*
X125279531Y-60257282D01*
X125288019Y-60244699D01*
X125295778Y-60232025D01*
X125296440Y-60232684D01*
X125334565Y-60162322D01*
X125367133Y-60091467D01*
X125394213Y-60020245D01*
X125415874Y-59948785D01*
X125432187Y-59877211D01*
X125443221Y-59805653D01*
X125449046Y-59734235D01*
X125449732Y-59663086D01*
X125445349Y-59592333D01*
X125435966Y-59522102D01*
X125421653Y-59452519D01*
X125402480Y-59383713D01*
X125378516Y-59315810D01*
X125349832Y-59248937D01*
X125316497Y-59183221D01*
X125278581Y-59118789D01*
X125271676Y-59108481D01*
X125264010Y-59098161D01*
X125246563Y-59077569D01*
X125226573Y-59057191D01*
X125204374Y-59037202D01*
X125180299Y-59017779D01*
X125154682Y-58999098D01*
X125127855Y-58981336D01*
X125100152Y-58964669D01*
X125071907Y-58949273D01*
X125043453Y-58935324D01*
X125015122Y-58923000D01*
X124987249Y-58912476D01*
X124960167Y-58903928D01*
X124934208Y-58897534D01*
X124909707Y-58893468D01*
X124898107Y-58892364D01*
X124886997Y-58891909D01*
X124864271Y-58892944D01*
X124839724Y-58896435D01*
X124813692Y-58902218D01*
X124786507Y-58910131D01*
X124758504Y-58920008D01*
X124730018Y-58931686D01*
X124701382Y-58945002D01*
X124672932Y-58959792D01*
X124645001Y-58975891D01*
X124617923Y-58993137D01*
X124592034Y-59011365D01*
X124567667Y-59030412D01*
X124545156Y-59050114D01*
X124524836Y-59070308D01*
X124507041Y-59090829D01*
X124492105Y-59111513D01*
X124451241Y-59179937D01*
X124415718Y-59249654D01*
X124385546Y-59320485D01*
X124360733Y-59392251D01*
X124341288Y-59464773D01*
X124327220Y-59537871D01*
X124318537Y-59611367D01*
X124315248Y-59685081D01*
X124107873Y-59685081D01*
X124109230Y-59617975D01*
X124117948Y-59526972D01*
X124133567Y-59436576D01*
X124156115Y-59347147D01*
X124185620Y-59259048D01*
X124222110Y-59172640D01*
X124265613Y-59088284D01*
X124316158Y-59006341D01*
X124328075Y-58989277D01*
X124340617Y-58972681D01*
X124353758Y-58956545D01*
X124367471Y-58940861D01*
X124396509Y-58910814D01*
X124427520Y-58882473D01*
X124460295Y-58855772D01*
X124494623Y-58830643D01*
X124530294Y-58807020D01*
X124567098Y-58784835D01*
X124604825Y-58764023D01*
X124643263Y-58744516D01*
X124682204Y-58726247D01*
X124721436Y-58709150D01*
X124760749Y-58693157D01*
X124799933Y-58678203D01*
X124877075Y-58651139D01*
X124828108Y-58612432D01*
X124778125Y-58576667D01*
X124727204Y-58543822D01*
X124675425Y-58513877D01*
X124622867Y-58486812D01*
X124569610Y-58462608D01*
X124515734Y-58441243D01*
X124461318Y-58422698D01*
X124406441Y-58406952D01*
X124351184Y-58393984D01*
X124295626Y-58383776D01*
X124239847Y-58376306D01*
X124183925Y-58371555D01*
X124127941Y-58369502D01*
X124071975Y-58370126D01*
X124016105Y-58373409D01*
X123960411Y-58379328D01*
X123904973Y-58387865D01*
X123849871Y-58398999D01*
X123795184Y-58412710D01*
X123740992Y-58428977D01*
X123687373Y-58447780D01*
X123634409Y-58469100D01*
X123582178Y-58492915D01*
X123530759Y-58519206D01*
X123480234Y-58547953D01*
X123430680Y-58579134D01*
X123382178Y-58612731D01*
X123334808Y-58648722D01*
X123288648Y-58687088D01*
X123243778Y-58727808D01*
X123200279Y-58770862D01*
X123136354Y-58840365D01*
X123076417Y-58912463D01*
X123020465Y-58986991D01*
X122968498Y-59063783D01*
X122920515Y-59142676D01*
X122876515Y-59223505D01*
X122836496Y-59306103D01*
X122800458Y-59390307D01*
X122768399Y-59475953D01*
X122740319Y-59562874D01*
X122716215Y-59650906D01*
X122696088Y-59739884D01*
X122679936Y-59829644D01*
X122667758Y-59920021D01*
X122659553Y-60010849D01*
X122655319Y-60101964D01*
X122655057Y-60193202D01*
X122448513Y-60193202D01*
X122502441Y-59661185D01*
X121391851Y-59679705D01*
X121072582Y-59679705D01*
X121063676Y-59668073D01*
X121053184Y-59653247D01*
X121050879Y-59648834D01*
X121049634Y-59643931D01*
X121049396Y-59638579D01*
X121050112Y-59632820D01*
X121051731Y-59626694D01*
X121054199Y-59620244D01*
X121057464Y-59613509D01*
X121061474Y-59606532D01*
X121066175Y-59599353D01*
X121071516Y-59592014D01*
X121077443Y-59584556D01*
X121083904Y-59577019D01*
X121098219Y-59561878D01*
X121114040Y-59546918D01*
X121130945Y-59532470D01*
X121148516Y-59518863D01*
X121166330Y-59506426D01*
X121183969Y-59495489D01*
X121201010Y-59486382D01*
X121209176Y-59482617D01*
X121217034Y-59479434D01*
X121224533Y-59476872D01*
X121231620Y-59474973D01*
X121238243Y-59473779D01*
X121244348Y-59473331D01*
X122532869Y-59456133D01*
X122592843Y-59323613D01*
X122657337Y-59191084D01*
X122691586Y-59125338D01*
X122727334Y-59060215D01*
X122764704Y-58995923D01*
X122803819Y-58932671D01*
X122844802Y-58870667D01*
X122887776Y-58810119D01*
X122932865Y-58751236D01*
X122980190Y-58694226D01*
X123029877Y-58639297D01*
X123082046Y-58586657D01*
X123136822Y-58536516D01*
X123194328Y-58489081D01*
X123254341Y-58444228D01*
X123315506Y-58402684D01*
X123377728Y-58364443D01*
X123440914Y-58329501D01*
X123504971Y-58297853D01*
X123569807Y-58269493D01*
X123635327Y-58244415D01*
X123701438Y-58222617D01*
X123768047Y-58204091D01*
X123835061Y-58188833D01*
X123902386Y-58176838D01*
X123969930Y-58168101D01*
X124037599Y-58162616D01*
X124105299Y-58160379D01*
X124172938Y-58161385D01*
G37*
G36*
X124531127Y-71937192D02*
G01*
X124530618Y-71937435D01*
X124530469Y-71937190D01*
X124531127Y-71937192D01*
G37*
G36*
X125282561Y-57437334D02*
G01*
X125303569Y-57439759D01*
X125324215Y-57443881D01*
X125344494Y-57449624D01*
X125364400Y-57456909D01*
X125383929Y-57465659D01*
X125403074Y-57475796D01*
X125421832Y-57487244D01*
X125440197Y-57499924D01*
X125458164Y-57513759D01*
X125475728Y-57528671D01*
X125492884Y-57544584D01*
X125525951Y-57579099D01*
X125557324Y-57616683D01*
X125586963Y-57656717D01*
X125614827Y-57698580D01*
X125640875Y-57741652D01*
X125665066Y-57785313D01*
X125687360Y-57828944D01*
X125687030Y-57829275D01*
X125686700Y-57829606D01*
X125689405Y-57837041D01*
X125691562Y-57846912D01*
X125693170Y-57858804D01*
X125694223Y-57872301D01*
X125694719Y-57886989D01*
X125694652Y-57902451D01*
X125694020Y-57918271D01*
X125692818Y-57934034D01*
X125691042Y-57949324D01*
X125688689Y-57963726D01*
X125685754Y-57976824D01*
X125682234Y-57988201D01*
X125678126Y-57997443D01*
X125675849Y-58001134D01*
X125673424Y-58004134D01*
X125670849Y-58006393D01*
X125668125Y-58007858D01*
X125665250Y-58008478D01*
X125662225Y-58008200D01*
X125655683Y-58006453D01*
X125648521Y-58004205D01*
X125640832Y-58001485D01*
X125632708Y-57998319D01*
X125624244Y-57994734D01*
X125615531Y-57990759D01*
X125606664Y-57986418D01*
X125597734Y-57981741D01*
X125588835Y-57976753D01*
X125580061Y-57971483D01*
X125571503Y-57965957D01*
X125563255Y-57960202D01*
X125555410Y-57954246D01*
X125548062Y-57948115D01*
X125541302Y-57941837D01*
X125535224Y-57935438D01*
X125125781Y-57474403D01*
X125149184Y-57462774D01*
X125172260Y-57453386D01*
X125195004Y-57446160D01*
X125217412Y-57441020D01*
X125239477Y-57437887D01*
X125261195Y-57436684D01*
X125282561Y-57437334D01*
G37*
G36*
X131593525Y-59055336D02*
G01*
X131609460Y-59074334D01*
X131623537Y-59093113D01*
X131635827Y-59111681D01*
X131646401Y-59130048D01*
X131655332Y-59148225D01*
X131662689Y-59166221D01*
X131668544Y-59184046D01*
X131672967Y-59201710D01*
X131676031Y-59219224D01*
X131677806Y-59236596D01*
X131678363Y-59253837D01*
X131677773Y-59270958D01*
X131676108Y-59287967D01*
X131673438Y-59304875D01*
X131669835Y-59321691D01*
X131665369Y-59338426D01*
X131660113Y-59355090D01*
X131647509Y-59388243D01*
X131632595Y-59421229D01*
X131615937Y-59454128D01*
X131543249Y-59586440D01*
X131543912Y-59586439D01*
X131473134Y-59722699D01*
X131471598Y-59725234D01*
X131469838Y-59727385D01*
X131467855Y-59729162D01*
X131465647Y-59730572D01*
X131463212Y-59731626D01*
X131460548Y-59732330D01*
X131457655Y-59732693D01*
X131454531Y-59732725D01*
X131451175Y-59732433D01*
X131447584Y-59731825D01*
X131443758Y-59730911D01*
X131439695Y-59729699D01*
X131435393Y-59728197D01*
X131430852Y-59726414D01*
X131426070Y-59724358D01*
X131421045Y-59722038D01*
X131410261Y-59716639D01*
X131398488Y-59710284D01*
X131385716Y-59703042D01*
X131371932Y-59694980D01*
X131306447Y-59655893D01*
X131575662Y-59036106D01*
X131593525Y-59055336D01*
G37*
M02*
