%TF.GenerationSoftware,KiCad,Pcbnew,9.0.5*%
%TF.CreationDate,2026-05-06T17:23:30-07:00*%
%TF.ProjectId,Payload_Hardware_Schematic,5061796c-6f61-4645-9f48-617264776172,rev?*%
%TF.SameCoordinates,Original*%
%TF.FileFunction,Legend,Top*%
%TF.FilePolarity,Positive*%
%FSLAX46Y46*%
G04 Gerber Fmt 4.6, Leading zero omitted, Abs format (unit mm)*
G04 Created by KiCad (PCBNEW 9.0.5) date 2026-05-06 17:23:30*
%MOMM*%
%LPD*%
G01*
G04 APERTURE LIST*
%ADD10C,0.150000*%
%ADD11C,0.100000*%
%ADD12C,0.152400*%
%ADD13C,0.120000*%
%ADD14C,0.050000*%
G04 APERTURE END LIST*
D10*
X113141904Y-94655180D02*
X113141904Y-93845657D01*
X113141904Y-93845657D02*
X113094285Y-93750419D01*
X113094285Y-93750419D02*
X113046666Y-93702800D01*
X113046666Y-93702800D02*
X112951428Y-93655180D01*
X112951428Y-93655180D02*
X112760952Y-93655180D01*
X112760952Y-93655180D02*
X112665714Y-93702800D01*
X112665714Y-93702800D02*
X112618095Y-93750419D01*
X112618095Y-93750419D02*
X112570476Y-93845657D01*
X112570476Y-93845657D02*
X112570476Y-94655180D01*
X111570476Y-93655180D02*
X112141904Y-93655180D01*
X111856190Y-93655180D02*
X111856190Y-94655180D01*
X111856190Y-94655180D02*
X111951428Y-94512323D01*
X111951428Y-94512323D02*
X112046666Y-94417085D01*
X112046666Y-94417085D02*
X112141904Y-94369466D01*
X103027628Y-78903030D02*
X103070485Y-78774458D01*
X103070485Y-78774458D02*
X103113342Y-78731601D01*
X103113342Y-78731601D02*
X103199057Y-78688744D01*
X103199057Y-78688744D02*
X103327628Y-78688744D01*
X103327628Y-78688744D02*
X103413342Y-78731601D01*
X103413342Y-78731601D02*
X103456200Y-78774458D01*
X103456200Y-78774458D02*
X103499057Y-78860173D01*
X103499057Y-78860173D02*
X103499057Y-79203030D01*
X103499057Y-79203030D02*
X102599057Y-79203030D01*
X102599057Y-79203030D02*
X102599057Y-78903030D01*
X102599057Y-78903030D02*
X102641914Y-78817316D01*
X102641914Y-78817316D02*
X102684771Y-78774458D01*
X102684771Y-78774458D02*
X102770485Y-78731601D01*
X102770485Y-78731601D02*
X102856200Y-78731601D01*
X102856200Y-78731601D02*
X102941914Y-78774458D01*
X102941914Y-78774458D02*
X102984771Y-78817316D01*
X102984771Y-78817316D02*
X103027628Y-78903030D01*
X103027628Y-78903030D02*
X103027628Y-79203030D01*
X102599057Y-78131601D02*
X102599057Y-78045887D01*
X102599057Y-78045887D02*
X102641914Y-77960173D01*
X102641914Y-77960173D02*
X102684771Y-77917316D01*
X102684771Y-77917316D02*
X102770485Y-77874458D01*
X102770485Y-77874458D02*
X102941914Y-77831601D01*
X102941914Y-77831601D02*
X103156200Y-77831601D01*
X103156200Y-77831601D02*
X103327628Y-77874458D01*
X103327628Y-77874458D02*
X103413342Y-77917316D01*
X103413342Y-77917316D02*
X103456200Y-77960173D01*
X103456200Y-77960173D02*
X103499057Y-78045887D01*
X103499057Y-78045887D02*
X103499057Y-78131601D01*
X103499057Y-78131601D02*
X103456200Y-78217316D01*
X103456200Y-78217316D02*
X103413342Y-78260173D01*
X103413342Y-78260173D02*
X103327628Y-78303030D01*
X103327628Y-78303030D02*
X103156200Y-78345887D01*
X103156200Y-78345887D02*
X102941914Y-78345887D01*
X102941914Y-78345887D02*
X102770485Y-78303030D01*
X102770485Y-78303030D02*
X102684771Y-78260173D01*
X102684771Y-78260173D02*
X102641914Y-78217316D01*
X102641914Y-78217316D02*
X102599057Y-78131601D01*
X121696628Y-56043030D02*
X121739485Y-55914458D01*
X121739485Y-55914458D02*
X121782342Y-55871601D01*
X121782342Y-55871601D02*
X121868057Y-55828744D01*
X121868057Y-55828744D02*
X121996628Y-55828744D01*
X121996628Y-55828744D02*
X122082342Y-55871601D01*
X122082342Y-55871601D02*
X122125200Y-55914458D01*
X122125200Y-55914458D02*
X122168057Y-56000173D01*
X122168057Y-56000173D02*
X122168057Y-56343030D01*
X122168057Y-56343030D02*
X121268057Y-56343030D01*
X121268057Y-56343030D02*
X121268057Y-56043030D01*
X121268057Y-56043030D02*
X121310914Y-55957316D01*
X121310914Y-55957316D02*
X121353771Y-55914458D01*
X121353771Y-55914458D02*
X121439485Y-55871601D01*
X121439485Y-55871601D02*
X121525200Y-55871601D01*
X121525200Y-55871601D02*
X121610914Y-55914458D01*
X121610914Y-55914458D02*
X121653771Y-55957316D01*
X121653771Y-55957316D02*
X121696628Y-56043030D01*
X121696628Y-56043030D02*
X121696628Y-56343030D01*
X121653771Y-55314458D02*
X121610914Y-55400173D01*
X121610914Y-55400173D02*
X121568057Y-55443030D01*
X121568057Y-55443030D02*
X121482342Y-55485887D01*
X121482342Y-55485887D02*
X121439485Y-55485887D01*
X121439485Y-55485887D02*
X121353771Y-55443030D01*
X121353771Y-55443030D02*
X121310914Y-55400173D01*
X121310914Y-55400173D02*
X121268057Y-55314458D01*
X121268057Y-55314458D02*
X121268057Y-55143030D01*
X121268057Y-55143030D02*
X121310914Y-55057316D01*
X121310914Y-55057316D02*
X121353771Y-55014458D01*
X121353771Y-55014458D02*
X121439485Y-54971601D01*
X121439485Y-54971601D02*
X121482342Y-54971601D01*
X121482342Y-54971601D02*
X121568057Y-55014458D01*
X121568057Y-55014458D02*
X121610914Y-55057316D01*
X121610914Y-55057316D02*
X121653771Y-55143030D01*
X121653771Y-55143030D02*
X121653771Y-55314458D01*
X121653771Y-55314458D02*
X121696628Y-55400173D01*
X121696628Y-55400173D02*
X121739485Y-55443030D01*
X121739485Y-55443030D02*
X121825200Y-55485887D01*
X121825200Y-55485887D02*
X121996628Y-55485887D01*
X121996628Y-55485887D02*
X122082342Y-55443030D01*
X122082342Y-55443030D02*
X122125200Y-55400173D01*
X122125200Y-55400173D02*
X122168057Y-55314458D01*
X122168057Y-55314458D02*
X122168057Y-55143030D01*
X122168057Y-55143030D02*
X122125200Y-55057316D01*
X122125200Y-55057316D02*
X122082342Y-55014458D01*
X122082342Y-55014458D02*
X121996628Y-54971601D01*
X121996628Y-54971601D02*
X121825200Y-54971601D01*
X121825200Y-54971601D02*
X121739485Y-55014458D01*
X121739485Y-55014458D02*
X121696628Y-55057316D01*
X121696628Y-55057316D02*
X121653771Y-55143030D01*
X121696628Y-53503030D02*
X121739485Y-53374458D01*
X121739485Y-53374458D02*
X121782342Y-53331601D01*
X121782342Y-53331601D02*
X121868057Y-53288744D01*
X121868057Y-53288744D02*
X121996628Y-53288744D01*
X121996628Y-53288744D02*
X122082342Y-53331601D01*
X122082342Y-53331601D02*
X122125200Y-53374458D01*
X122125200Y-53374458D02*
X122168057Y-53460173D01*
X122168057Y-53460173D02*
X122168057Y-53803030D01*
X122168057Y-53803030D02*
X121268057Y-53803030D01*
X121268057Y-53803030D02*
X121268057Y-53503030D01*
X121268057Y-53503030D02*
X121310914Y-53417316D01*
X121310914Y-53417316D02*
X121353771Y-53374458D01*
X121353771Y-53374458D02*
X121439485Y-53331601D01*
X121439485Y-53331601D02*
X121525200Y-53331601D01*
X121525200Y-53331601D02*
X121610914Y-53374458D01*
X121610914Y-53374458D02*
X121653771Y-53417316D01*
X121653771Y-53417316D02*
X121696628Y-53503030D01*
X121696628Y-53503030D02*
X121696628Y-53803030D01*
X122168057Y-52860173D02*
X122168057Y-52688744D01*
X122168057Y-52688744D02*
X122125200Y-52603030D01*
X122125200Y-52603030D02*
X122082342Y-52560173D01*
X122082342Y-52560173D02*
X121953771Y-52474458D01*
X121953771Y-52474458D02*
X121782342Y-52431601D01*
X121782342Y-52431601D02*
X121439485Y-52431601D01*
X121439485Y-52431601D02*
X121353771Y-52474458D01*
X121353771Y-52474458D02*
X121310914Y-52517316D01*
X121310914Y-52517316D02*
X121268057Y-52603030D01*
X121268057Y-52603030D02*
X121268057Y-52774458D01*
X121268057Y-52774458D02*
X121310914Y-52860173D01*
X121310914Y-52860173D02*
X121353771Y-52903030D01*
X121353771Y-52903030D02*
X121439485Y-52945887D01*
X121439485Y-52945887D02*
X121653771Y-52945887D01*
X121653771Y-52945887D02*
X121739485Y-52903030D01*
X121739485Y-52903030D02*
X121782342Y-52860173D01*
X121782342Y-52860173D02*
X121825200Y-52774458D01*
X121825200Y-52774458D02*
X121825200Y-52603030D01*
X121825200Y-52603030D02*
X121782342Y-52517316D01*
X121782342Y-52517316D02*
X121739485Y-52474458D01*
X121739485Y-52474458D02*
X121653771Y-52431601D01*
X121268057Y-46268744D02*
X121268057Y-45711601D01*
X121268057Y-45711601D02*
X121610914Y-46011601D01*
X121610914Y-46011601D02*
X121610914Y-45883030D01*
X121610914Y-45883030D02*
X121653771Y-45797316D01*
X121653771Y-45797316D02*
X121696628Y-45754458D01*
X121696628Y-45754458D02*
X121782342Y-45711601D01*
X121782342Y-45711601D02*
X121996628Y-45711601D01*
X121996628Y-45711601D02*
X122082342Y-45754458D01*
X122082342Y-45754458D02*
X122125200Y-45797316D01*
X122125200Y-45797316D02*
X122168057Y-45883030D01*
X122168057Y-45883030D02*
X122168057Y-46140173D01*
X122168057Y-46140173D02*
X122125200Y-46225887D01*
X122125200Y-46225887D02*
X122082342Y-46268744D01*
X122082342Y-45325887D02*
X122125200Y-45283030D01*
X122125200Y-45283030D02*
X122168057Y-45325887D01*
X122168057Y-45325887D02*
X122125200Y-45368744D01*
X122125200Y-45368744D02*
X122082342Y-45325887D01*
X122082342Y-45325887D02*
X122168057Y-45325887D01*
X121268057Y-44983030D02*
X121268057Y-44425887D01*
X121268057Y-44425887D02*
X121610914Y-44725887D01*
X121610914Y-44725887D02*
X121610914Y-44597316D01*
X121610914Y-44597316D02*
X121653771Y-44511602D01*
X121653771Y-44511602D02*
X121696628Y-44468744D01*
X121696628Y-44468744D02*
X121782342Y-44425887D01*
X121782342Y-44425887D02*
X121996628Y-44425887D01*
X121996628Y-44425887D02*
X122082342Y-44468744D01*
X122082342Y-44468744D02*
X122125200Y-44511602D01*
X122125200Y-44511602D02*
X122168057Y-44597316D01*
X122168057Y-44597316D02*
X122168057Y-44854459D01*
X122168057Y-44854459D02*
X122125200Y-44940173D01*
X122125200Y-44940173D02*
X122082342Y-44983030D01*
X121696628Y-58583030D02*
X121739485Y-58454458D01*
X121739485Y-58454458D02*
X121782342Y-58411601D01*
X121782342Y-58411601D02*
X121868057Y-58368744D01*
X121868057Y-58368744D02*
X121996628Y-58368744D01*
X121996628Y-58368744D02*
X122082342Y-58411601D01*
X122082342Y-58411601D02*
X122125200Y-58454458D01*
X122125200Y-58454458D02*
X122168057Y-58540173D01*
X122168057Y-58540173D02*
X122168057Y-58883030D01*
X122168057Y-58883030D02*
X121268057Y-58883030D01*
X121268057Y-58883030D02*
X121268057Y-58583030D01*
X121268057Y-58583030D02*
X121310914Y-58497316D01*
X121310914Y-58497316D02*
X121353771Y-58454458D01*
X121353771Y-58454458D02*
X121439485Y-58411601D01*
X121439485Y-58411601D02*
X121525200Y-58411601D01*
X121525200Y-58411601D02*
X121610914Y-58454458D01*
X121610914Y-58454458D02*
X121653771Y-58497316D01*
X121653771Y-58497316D02*
X121696628Y-58583030D01*
X121696628Y-58583030D02*
X121696628Y-58883030D01*
X121268057Y-58068744D02*
X121268057Y-57468744D01*
X121268057Y-57468744D02*
X122168057Y-57854458D01*
X121696628Y-68743030D02*
X121739485Y-68614458D01*
X121739485Y-68614458D02*
X121782342Y-68571601D01*
X121782342Y-68571601D02*
X121868057Y-68528744D01*
X121868057Y-68528744D02*
X121996628Y-68528744D01*
X121996628Y-68528744D02*
X122082342Y-68571601D01*
X122082342Y-68571601D02*
X122125200Y-68614458D01*
X122125200Y-68614458D02*
X122168057Y-68700173D01*
X122168057Y-68700173D02*
X122168057Y-69043030D01*
X122168057Y-69043030D02*
X121268057Y-69043030D01*
X121268057Y-69043030D02*
X121268057Y-68743030D01*
X121268057Y-68743030D02*
X121310914Y-68657316D01*
X121310914Y-68657316D02*
X121353771Y-68614458D01*
X121353771Y-68614458D02*
X121439485Y-68571601D01*
X121439485Y-68571601D02*
X121525200Y-68571601D01*
X121525200Y-68571601D02*
X121610914Y-68614458D01*
X121610914Y-68614458D02*
X121653771Y-68657316D01*
X121653771Y-68657316D02*
X121696628Y-68743030D01*
X121696628Y-68743030D02*
X121696628Y-69043030D01*
X121268057Y-68228744D02*
X121268057Y-67671601D01*
X121268057Y-67671601D02*
X121610914Y-67971601D01*
X121610914Y-67971601D02*
X121610914Y-67843030D01*
X121610914Y-67843030D02*
X121653771Y-67757316D01*
X121653771Y-67757316D02*
X121696628Y-67714458D01*
X121696628Y-67714458D02*
X121782342Y-67671601D01*
X121782342Y-67671601D02*
X121996628Y-67671601D01*
X121996628Y-67671601D02*
X122082342Y-67714458D01*
X122082342Y-67714458D02*
X122125200Y-67757316D01*
X122125200Y-67757316D02*
X122168057Y-67843030D01*
X122168057Y-67843030D02*
X122168057Y-68100173D01*
X122168057Y-68100173D02*
X122125200Y-68185887D01*
X122125200Y-68185887D02*
X122082342Y-68228744D01*
X103027628Y-83856030D02*
X103070485Y-83727458D01*
X103070485Y-83727458D02*
X103113342Y-83684601D01*
X103113342Y-83684601D02*
X103199057Y-83641744D01*
X103199057Y-83641744D02*
X103327628Y-83641744D01*
X103327628Y-83641744D02*
X103413342Y-83684601D01*
X103413342Y-83684601D02*
X103456200Y-83727458D01*
X103456200Y-83727458D02*
X103499057Y-83813173D01*
X103499057Y-83813173D02*
X103499057Y-84156030D01*
X103499057Y-84156030D02*
X102599057Y-84156030D01*
X102599057Y-84156030D02*
X102599057Y-83856030D01*
X102599057Y-83856030D02*
X102641914Y-83770316D01*
X102641914Y-83770316D02*
X102684771Y-83727458D01*
X102684771Y-83727458D02*
X102770485Y-83684601D01*
X102770485Y-83684601D02*
X102856200Y-83684601D01*
X102856200Y-83684601D02*
X102941914Y-83727458D01*
X102941914Y-83727458D02*
X102984771Y-83770316D01*
X102984771Y-83770316D02*
X103027628Y-83856030D01*
X103027628Y-83856030D02*
X103027628Y-84156030D01*
X102684771Y-83298887D02*
X102641914Y-83256030D01*
X102641914Y-83256030D02*
X102599057Y-83170316D01*
X102599057Y-83170316D02*
X102599057Y-82956030D01*
X102599057Y-82956030D02*
X102641914Y-82870316D01*
X102641914Y-82870316D02*
X102684771Y-82827458D01*
X102684771Y-82827458D02*
X102770485Y-82784601D01*
X102770485Y-82784601D02*
X102856200Y-82784601D01*
X102856200Y-82784601D02*
X102984771Y-82827458D01*
X102984771Y-82827458D02*
X103499057Y-83341744D01*
X103499057Y-83341744D02*
X103499057Y-82784601D01*
X103499057Y-55320744D02*
X103070485Y-55620744D01*
X103499057Y-55835030D02*
X102599057Y-55835030D01*
X102599057Y-55835030D02*
X102599057Y-55492173D01*
X102599057Y-55492173D02*
X102641914Y-55406458D01*
X102641914Y-55406458D02*
X102684771Y-55363601D01*
X102684771Y-55363601D02*
X102770485Y-55320744D01*
X102770485Y-55320744D02*
X102899057Y-55320744D01*
X102899057Y-55320744D02*
X102984771Y-55363601D01*
X102984771Y-55363601D02*
X103027628Y-55406458D01*
X103027628Y-55406458D02*
X103070485Y-55492173D01*
X103070485Y-55492173D02*
X103070485Y-55835030D01*
X103027628Y-86523030D02*
X103070485Y-86394458D01*
X103070485Y-86394458D02*
X103113342Y-86351601D01*
X103113342Y-86351601D02*
X103199057Y-86308744D01*
X103199057Y-86308744D02*
X103327628Y-86308744D01*
X103327628Y-86308744D02*
X103413342Y-86351601D01*
X103413342Y-86351601D02*
X103456200Y-86394458D01*
X103456200Y-86394458D02*
X103499057Y-86480173D01*
X103499057Y-86480173D02*
X103499057Y-86823030D01*
X103499057Y-86823030D02*
X102599057Y-86823030D01*
X102599057Y-86823030D02*
X102599057Y-86523030D01*
X102599057Y-86523030D02*
X102641914Y-86437316D01*
X102641914Y-86437316D02*
X102684771Y-86394458D01*
X102684771Y-86394458D02*
X102770485Y-86351601D01*
X102770485Y-86351601D02*
X102856200Y-86351601D01*
X102856200Y-86351601D02*
X102941914Y-86394458D01*
X102941914Y-86394458D02*
X102984771Y-86437316D01*
X102984771Y-86437316D02*
X103027628Y-86523030D01*
X103027628Y-86523030D02*
X103027628Y-86823030D01*
X103499057Y-85451601D02*
X103499057Y-85965887D01*
X103499057Y-85708744D02*
X102599057Y-85708744D01*
X102599057Y-85708744D02*
X102727628Y-85794458D01*
X102727628Y-85794458D02*
X102813342Y-85880173D01*
X102813342Y-85880173D02*
X102856200Y-85965887D01*
X102599057Y-84894458D02*
X102599057Y-84808744D01*
X102599057Y-84808744D02*
X102641914Y-84723030D01*
X102641914Y-84723030D02*
X102684771Y-84680173D01*
X102684771Y-84680173D02*
X102770485Y-84637315D01*
X102770485Y-84637315D02*
X102941914Y-84594458D01*
X102941914Y-84594458D02*
X103156200Y-84594458D01*
X103156200Y-84594458D02*
X103327628Y-84637315D01*
X103327628Y-84637315D02*
X103413342Y-84680173D01*
X103413342Y-84680173D02*
X103456200Y-84723030D01*
X103456200Y-84723030D02*
X103499057Y-84808744D01*
X103499057Y-84808744D02*
X103499057Y-84894458D01*
X103499057Y-84894458D02*
X103456200Y-84980173D01*
X103456200Y-84980173D02*
X103413342Y-85023030D01*
X103413342Y-85023030D02*
X103327628Y-85065887D01*
X103327628Y-85065887D02*
X103156200Y-85108744D01*
X103156200Y-85108744D02*
X102941914Y-85108744D01*
X102941914Y-85108744D02*
X102770485Y-85065887D01*
X102770485Y-85065887D02*
X102684771Y-85023030D01*
X102684771Y-85023030D02*
X102641914Y-84980173D01*
X102641914Y-84980173D02*
X102599057Y-84894458D01*
X121696628Y-61123030D02*
X121739485Y-60994458D01*
X121739485Y-60994458D02*
X121782342Y-60951601D01*
X121782342Y-60951601D02*
X121868057Y-60908744D01*
X121868057Y-60908744D02*
X121996628Y-60908744D01*
X121996628Y-60908744D02*
X122082342Y-60951601D01*
X122082342Y-60951601D02*
X122125200Y-60994458D01*
X122125200Y-60994458D02*
X122168057Y-61080173D01*
X122168057Y-61080173D02*
X122168057Y-61423030D01*
X122168057Y-61423030D02*
X121268057Y-61423030D01*
X121268057Y-61423030D02*
X121268057Y-61123030D01*
X121268057Y-61123030D02*
X121310914Y-61037316D01*
X121310914Y-61037316D02*
X121353771Y-60994458D01*
X121353771Y-60994458D02*
X121439485Y-60951601D01*
X121439485Y-60951601D02*
X121525200Y-60951601D01*
X121525200Y-60951601D02*
X121610914Y-60994458D01*
X121610914Y-60994458D02*
X121653771Y-61037316D01*
X121653771Y-61037316D02*
X121696628Y-61123030D01*
X121696628Y-61123030D02*
X121696628Y-61423030D01*
X121268057Y-60137316D02*
X121268057Y-60308744D01*
X121268057Y-60308744D02*
X121310914Y-60394458D01*
X121310914Y-60394458D02*
X121353771Y-60437316D01*
X121353771Y-60437316D02*
X121482342Y-60523030D01*
X121482342Y-60523030D02*
X121653771Y-60565887D01*
X121653771Y-60565887D02*
X121996628Y-60565887D01*
X121996628Y-60565887D02*
X122082342Y-60523030D01*
X122082342Y-60523030D02*
X122125200Y-60480173D01*
X122125200Y-60480173D02*
X122168057Y-60394458D01*
X122168057Y-60394458D02*
X122168057Y-60223030D01*
X122168057Y-60223030D02*
X122125200Y-60137316D01*
X122125200Y-60137316D02*
X122082342Y-60094458D01*
X122082342Y-60094458D02*
X121996628Y-60051601D01*
X121996628Y-60051601D02*
X121782342Y-60051601D01*
X121782342Y-60051601D02*
X121696628Y-60094458D01*
X121696628Y-60094458D02*
X121653771Y-60137316D01*
X121653771Y-60137316D02*
X121610914Y-60223030D01*
X121610914Y-60223030D02*
X121610914Y-60394458D01*
X121610914Y-60394458D02*
X121653771Y-60480173D01*
X121653771Y-60480173D02*
X121696628Y-60523030D01*
X121696628Y-60523030D02*
X121782342Y-60565887D01*
X103241914Y-71625887D02*
X103241914Y-71197316D01*
X103499057Y-71711601D02*
X102599057Y-71411601D01*
X102599057Y-71411601D02*
X103499057Y-71111601D01*
X102599057Y-70383029D02*
X102599057Y-70811601D01*
X102599057Y-70811601D02*
X103027628Y-70854458D01*
X103027628Y-70854458D02*
X102984771Y-70811601D01*
X102984771Y-70811601D02*
X102941914Y-70725887D01*
X102941914Y-70725887D02*
X102941914Y-70511601D01*
X102941914Y-70511601D02*
X102984771Y-70425887D01*
X102984771Y-70425887D02*
X103027628Y-70383029D01*
X103027628Y-70383029D02*
X103113342Y-70340172D01*
X103113342Y-70340172D02*
X103327628Y-70340172D01*
X103327628Y-70340172D02*
X103413342Y-70383029D01*
X103413342Y-70383029D02*
X103456200Y-70425887D01*
X103456200Y-70425887D02*
X103499057Y-70511601D01*
X103499057Y-70511601D02*
X103499057Y-70725887D01*
X103499057Y-70725887D02*
X103456200Y-70811601D01*
X103456200Y-70811601D02*
X103413342Y-70854458D01*
X103413342Y-48208744D02*
X103456200Y-48251601D01*
X103456200Y-48251601D02*
X103499057Y-48380173D01*
X103499057Y-48380173D02*
X103499057Y-48465887D01*
X103499057Y-48465887D02*
X103456200Y-48594458D01*
X103456200Y-48594458D02*
X103370485Y-48680173D01*
X103370485Y-48680173D02*
X103284771Y-48723030D01*
X103284771Y-48723030D02*
X103113342Y-48765887D01*
X103113342Y-48765887D02*
X102984771Y-48765887D01*
X102984771Y-48765887D02*
X102813342Y-48723030D01*
X102813342Y-48723030D02*
X102727628Y-48680173D01*
X102727628Y-48680173D02*
X102641914Y-48594458D01*
X102641914Y-48594458D02*
X102599057Y-48465887D01*
X102599057Y-48465887D02*
X102599057Y-48380173D01*
X102599057Y-48380173D02*
X102641914Y-48251601D01*
X102641914Y-48251601D02*
X102684771Y-48208744D01*
X103499057Y-47351601D02*
X103499057Y-47865887D01*
X103499057Y-47608744D02*
X102599057Y-47608744D01*
X102599057Y-47608744D02*
X102727628Y-47694458D01*
X102727628Y-47694458D02*
X102813342Y-47780173D01*
X102813342Y-47780173D02*
X102856200Y-47865887D01*
X102599057Y-47051601D02*
X102599057Y-46494458D01*
X102599057Y-46494458D02*
X102941914Y-46794458D01*
X102941914Y-46794458D02*
X102941914Y-46665887D01*
X102941914Y-46665887D02*
X102984771Y-46580173D01*
X102984771Y-46580173D02*
X103027628Y-46537315D01*
X103027628Y-46537315D02*
X103113342Y-46494458D01*
X103113342Y-46494458D02*
X103327628Y-46494458D01*
X103327628Y-46494458D02*
X103413342Y-46537315D01*
X103413342Y-46537315D02*
X103456200Y-46580173D01*
X103456200Y-46580173D02*
X103499057Y-46665887D01*
X103499057Y-46665887D02*
X103499057Y-46923030D01*
X103499057Y-46923030D02*
X103456200Y-47008744D01*
X103456200Y-47008744D02*
X103413342Y-47051601D01*
X103241914Y-61465887D02*
X103241914Y-61037316D01*
X103499057Y-61551601D02*
X102599057Y-61251601D01*
X102599057Y-61251601D02*
X103499057Y-60951601D01*
X103499057Y-60180172D02*
X103499057Y-60694458D01*
X103499057Y-60437315D02*
X102599057Y-60437315D01*
X102599057Y-60437315D02*
X102727628Y-60523029D01*
X102727628Y-60523029D02*
X102813342Y-60608744D01*
X102813342Y-60608744D02*
X102856200Y-60694458D01*
X121910914Y-71625887D02*
X121910914Y-71197316D01*
X122168057Y-71711601D02*
X121268057Y-71411601D01*
X121268057Y-71411601D02*
X122168057Y-71111601D01*
X122168057Y-70340172D02*
X122168057Y-70854458D01*
X122168057Y-70597315D02*
X121268057Y-70597315D01*
X121268057Y-70597315D02*
X121396628Y-70683029D01*
X121396628Y-70683029D02*
X121482342Y-70768744D01*
X121482342Y-70768744D02*
X121525200Y-70854458D01*
X121268057Y-69525886D02*
X121268057Y-69954458D01*
X121268057Y-69954458D02*
X121696628Y-69997315D01*
X121696628Y-69997315D02*
X121653771Y-69954458D01*
X121653771Y-69954458D02*
X121610914Y-69868744D01*
X121610914Y-69868744D02*
X121610914Y-69654458D01*
X121610914Y-69654458D02*
X121653771Y-69568744D01*
X121653771Y-69568744D02*
X121696628Y-69525886D01*
X121696628Y-69525886D02*
X121782342Y-69483029D01*
X121782342Y-69483029D02*
X121996628Y-69483029D01*
X121996628Y-69483029D02*
X122082342Y-69525886D01*
X122082342Y-69525886D02*
X122125200Y-69568744D01*
X122125200Y-69568744D02*
X122168057Y-69654458D01*
X122168057Y-69654458D02*
X122168057Y-69868744D01*
X122168057Y-69868744D02*
X122125200Y-69954458D01*
X122125200Y-69954458D02*
X122082342Y-69997315D01*
X103413342Y-50748744D02*
X103456200Y-50791601D01*
X103456200Y-50791601D02*
X103499057Y-50920173D01*
X103499057Y-50920173D02*
X103499057Y-51005887D01*
X103499057Y-51005887D02*
X103456200Y-51134458D01*
X103456200Y-51134458D02*
X103370485Y-51220173D01*
X103370485Y-51220173D02*
X103284771Y-51263030D01*
X103284771Y-51263030D02*
X103113342Y-51305887D01*
X103113342Y-51305887D02*
X102984771Y-51305887D01*
X102984771Y-51305887D02*
X102813342Y-51263030D01*
X102813342Y-51263030D02*
X102727628Y-51220173D01*
X102727628Y-51220173D02*
X102641914Y-51134458D01*
X102641914Y-51134458D02*
X102599057Y-51005887D01*
X102599057Y-51005887D02*
X102599057Y-50920173D01*
X102599057Y-50920173D02*
X102641914Y-50791601D01*
X102641914Y-50791601D02*
X102684771Y-50748744D01*
X103499057Y-49891601D02*
X103499057Y-50405887D01*
X103499057Y-50148744D02*
X102599057Y-50148744D01*
X102599057Y-50148744D02*
X102727628Y-50234458D01*
X102727628Y-50234458D02*
X102813342Y-50320173D01*
X102813342Y-50320173D02*
X102856200Y-50405887D01*
X102899057Y-49120173D02*
X103499057Y-49120173D01*
X102556200Y-49334458D02*
X103199057Y-49548744D01*
X103199057Y-49548744D02*
X103199057Y-48991601D01*
X121910914Y-84198887D02*
X121910914Y-83770316D01*
X122168057Y-84284601D02*
X121268057Y-83984601D01*
X121268057Y-83984601D02*
X122168057Y-83684601D01*
X121653771Y-83256029D02*
X121610914Y-83341744D01*
X121610914Y-83341744D02*
X121568057Y-83384601D01*
X121568057Y-83384601D02*
X121482342Y-83427458D01*
X121482342Y-83427458D02*
X121439485Y-83427458D01*
X121439485Y-83427458D02*
X121353771Y-83384601D01*
X121353771Y-83384601D02*
X121310914Y-83341744D01*
X121310914Y-83341744D02*
X121268057Y-83256029D01*
X121268057Y-83256029D02*
X121268057Y-83084601D01*
X121268057Y-83084601D02*
X121310914Y-82998887D01*
X121310914Y-82998887D02*
X121353771Y-82956029D01*
X121353771Y-82956029D02*
X121439485Y-82913172D01*
X121439485Y-82913172D02*
X121482342Y-82913172D01*
X121482342Y-82913172D02*
X121568057Y-82956029D01*
X121568057Y-82956029D02*
X121610914Y-82998887D01*
X121610914Y-82998887D02*
X121653771Y-83084601D01*
X121653771Y-83084601D02*
X121653771Y-83256029D01*
X121653771Y-83256029D02*
X121696628Y-83341744D01*
X121696628Y-83341744D02*
X121739485Y-83384601D01*
X121739485Y-83384601D02*
X121825200Y-83427458D01*
X121825200Y-83427458D02*
X121996628Y-83427458D01*
X121996628Y-83427458D02*
X122082342Y-83384601D01*
X122082342Y-83384601D02*
X122125200Y-83341744D01*
X122125200Y-83341744D02*
X122168057Y-83256029D01*
X122168057Y-83256029D02*
X122168057Y-83084601D01*
X122168057Y-83084601D02*
X122125200Y-82998887D01*
X122125200Y-82998887D02*
X122082342Y-82956029D01*
X122082342Y-82956029D02*
X121996628Y-82913172D01*
X121996628Y-82913172D02*
X121825200Y-82913172D01*
X121825200Y-82913172D02*
X121739485Y-82956029D01*
X121739485Y-82956029D02*
X121696628Y-82998887D01*
X121696628Y-82998887D02*
X121653771Y-83084601D01*
X121696628Y-91603030D02*
X121739485Y-91474458D01*
X121739485Y-91474458D02*
X121782342Y-91431601D01*
X121782342Y-91431601D02*
X121868057Y-91388744D01*
X121868057Y-91388744D02*
X121996628Y-91388744D01*
X121996628Y-91388744D02*
X122082342Y-91431601D01*
X122082342Y-91431601D02*
X122125200Y-91474458D01*
X122125200Y-91474458D02*
X122168057Y-91560173D01*
X122168057Y-91560173D02*
X122168057Y-91903030D01*
X122168057Y-91903030D02*
X121268057Y-91903030D01*
X121268057Y-91903030D02*
X121268057Y-91603030D01*
X121268057Y-91603030D02*
X121310914Y-91517316D01*
X121310914Y-91517316D02*
X121353771Y-91474458D01*
X121353771Y-91474458D02*
X121439485Y-91431601D01*
X121439485Y-91431601D02*
X121525200Y-91431601D01*
X121525200Y-91431601D02*
X121610914Y-91474458D01*
X121610914Y-91474458D02*
X121653771Y-91517316D01*
X121653771Y-91517316D02*
X121696628Y-91603030D01*
X121696628Y-91603030D02*
X121696628Y-91903030D01*
X122168057Y-90531601D02*
X122168057Y-91045887D01*
X122168057Y-90788744D02*
X121268057Y-90788744D01*
X121268057Y-90788744D02*
X121396628Y-90874458D01*
X121396628Y-90874458D02*
X121482342Y-90960173D01*
X121482342Y-90960173D02*
X121525200Y-91045887D01*
X121268057Y-90231601D02*
X121268057Y-89674458D01*
X121268057Y-89674458D02*
X121610914Y-89974458D01*
X121610914Y-89974458D02*
X121610914Y-89845887D01*
X121610914Y-89845887D02*
X121653771Y-89760173D01*
X121653771Y-89760173D02*
X121696628Y-89717315D01*
X121696628Y-89717315D02*
X121782342Y-89674458D01*
X121782342Y-89674458D02*
X121996628Y-89674458D01*
X121996628Y-89674458D02*
X122082342Y-89717315D01*
X122082342Y-89717315D02*
X122125200Y-89760173D01*
X122125200Y-89760173D02*
X122168057Y-89845887D01*
X122168057Y-89845887D02*
X122168057Y-90103030D01*
X122168057Y-90103030D02*
X122125200Y-90188744D01*
X122125200Y-90188744D02*
X122082342Y-90231601D01*
X102641914Y-91050601D02*
X102599057Y-91136316D01*
X102599057Y-91136316D02*
X102599057Y-91264887D01*
X102599057Y-91264887D02*
X102641914Y-91393458D01*
X102641914Y-91393458D02*
X102727628Y-91479173D01*
X102727628Y-91479173D02*
X102813342Y-91522030D01*
X102813342Y-91522030D02*
X102984771Y-91564887D01*
X102984771Y-91564887D02*
X103113342Y-91564887D01*
X103113342Y-91564887D02*
X103284771Y-91522030D01*
X103284771Y-91522030D02*
X103370485Y-91479173D01*
X103370485Y-91479173D02*
X103456200Y-91393458D01*
X103456200Y-91393458D02*
X103499057Y-91264887D01*
X103499057Y-91264887D02*
X103499057Y-91179173D01*
X103499057Y-91179173D02*
X103456200Y-91050601D01*
X103456200Y-91050601D02*
X103413342Y-91007744D01*
X103413342Y-91007744D02*
X103113342Y-91007744D01*
X103113342Y-91007744D02*
X103113342Y-91179173D01*
X103241914Y-69085887D02*
X103241914Y-68657316D01*
X103499057Y-69171601D02*
X102599057Y-68871601D01*
X102599057Y-68871601D02*
X103499057Y-68571601D01*
X102899057Y-67885887D02*
X103499057Y-67885887D01*
X102556200Y-68100172D02*
X103199057Y-68314458D01*
X103199057Y-68314458D02*
X103199057Y-67757315D01*
X102599057Y-46057601D02*
X103499057Y-45757601D01*
X103499057Y-45757601D02*
X102599057Y-45457601D01*
X103027628Y-44857601D02*
X103070485Y-44729029D01*
X103070485Y-44729029D02*
X103113342Y-44686172D01*
X103113342Y-44686172D02*
X103199057Y-44643315D01*
X103199057Y-44643315D02*
X103327628Y-44643315D01*
X103327628Y-44643315D02*
X103413342Y-44686172D01*
X103413342Y-44686172D02*
X103456200Y-44729029D01*
X103456200Y-44729029D02*
X103499057Y-44814744D01*
X103499057Y-44814744D02*
X103499057Y-45157601D01*
X103499057Y-45157601D02*
X102599057Y-45157601D01*
X102599057Y-45157601D02*
X102599057Y-44857601D01*
X102599057Y-44857601D02*
X102641914Y-44771887D01*
X102641914Y-44771887D02*
X102684771Y-44729029D01*
X102684771Y-44729029D02*
X102770485Y-44686172D01*
X102770485Y-44686172D02*
X102856200Y-44686172D01*
X102856200Y-44686172D02*
X102941914Y-44729029D01*
X102941914Y-44729029D02*
X102984771Y-44771887D01*
X102984771Y-44771887D02*
X103027628Y-44857601D01*
X103027628Y-44857601D02*
X103027628Y-45157601D01*
X103027628Y-81316030D02*
X103070485Y-81187458D01*
X103070485Y-81187458D02*
X103113342Y-81144601D01*
X103113342Y-81144601D02*
X103199057Y-81101744D01*
X103199057Y-81101744D02*
X103327628Y-81101744D01*
X103327628Y-81101744D02*
X103413342Y-81144601D01*
X103413342Y-81144601D02*
X103456200Y-81187458D01*
X103456200Y-81187458D02*
X103499057Y-81273173D01*
X103499057Y-81273173D02*
X103499057Y-81616030D01*
X103499057Y-81616030D02*
X102599057Y-81616030D01*
X102599057Y-81616030D02*
X102599057Y-81316030D01*
X102599057Y-81316030D02*
X102641914Y-81230316D01*
X102641914Y-81230316D02*
X102684771Y-81187458D01*
X102684771Y-81187458D02*
X102770485Y-81144601D01*
X102770485Y-81144601D02*
X102856200Y-81144601D01*
X102856200Y-81144601D02*
X102941914Y-81187458D01*
X102941914Y-81187458D02*
X102984771Y-81230316D01*
X102984771Y-81230316D02*
X103027628Y-81316030D01*
X103027628Y-81316030D02*
X103027628Y-81616030D01*
X103499057Y-80244601D02*
X103499057Y-80758887D01*
X103499057Y-80501744D02*
X102599057Y-80501744D01*
X102599057Y-80501744D02*
X102727628Y-80587458D01*
X102727628Y-80587458D02*
X102813342Y-80673173D01*
X102813342Y-80673173D02*
X102856200Y-80758887D01*
X121910914Y-76705887D02*
X121910914Y-76277316D01*
X122168057Y-76791601D02*
X121268057Y-76491601D01*
X121268057Y-76491601D02*
X122168057Y-76191601D01*
X122168057Y-75420172D02*
X122168057Y-75934458D01*
X122168057Y-75677315D02*
X121268057Y-75677315D01*
X121268057Y-75677315D02*
X121396628Y-75763029D01*
X121396628Y-75763029D02*
X121482342Y-75848744D01*
X121482342Y-75848744D02*
X121525200Y-75934458D01*
X122168057Y-74563029D02*
X122168057Y-75077315D01*
X122168057Y-74820172D02*
X121268057Y-74820172D01*
X121268057Y-74820172D02*
X121396628Y-74905886D01*
X121396628Y-74905886D02*
X121482342Y-74991601D01*
X121482342Y-74991601D02*
X121525200Y-75077315D01*
X103241914Y-58925887D02*
X103241914Y-58497316D01*
X103499057Y-59011601D02*
X102599057Y-58711601D01*
X102599057Y-58711601D02*
X103499057Y-58411601D01*
X102599057Y-57940172D02*
X102599057Y-57854458D01*
X102599057Y-57854458D02*
X102641914Y-57768744D01*
X102641914Y-57768744D02*
X102684771Y-57725887D01*
X102684771Y-57725887D02*
X102770485Y-57683029D01*
X102770485Y-57683029D02*
X102941914Y-57640172D01*
X102941914Y-57640172D02*
X103156200Y-57640172D01*
X103156200Y-57640172D02*
X103327628Y-57683029D01*
X103327628Y-57683029D02*
X103413342Y-57725887D01*
X103413342Y-57725887D02*
X103456200Y-57768744D01*
X103456200Y-57768744D02*
X103499057Y-57854458D01*
X103499057Y-57854458D02*
X103499057Y-57940172D01*
X103499057Y-57940172D02*
X103456200Y-58025887D01*
X103456200Y-58025887D02*
X103413342Y-58068744D01*
X103413342Y-58068744D02*
X103327628Y-58111601D01*
X103327628Y-58111601D02*
X103156200Y-58154458D01*
X103156200Y-58154458D02*
X102941914Y-58154458D01*
X102941914Y-58154458D02*
X102770485Y-58111601D01*
X102770485Y-58111601D02*
X102684771Y-58068744D01*
X102684771Y-58068744D02*
X102641914Y-58025887D01*
X102641914Y-58025887D02*
X102599057Y-57940172D01*
X102599057Y-94014458D02*
X102599057Y-94443030D01*
X102599057Y-94443030D02*
X103027628Y-94485887D01*
X103027628Y-94485887D02*
X102984771Y-94443030D01*
X102984771Y-94443030D02*
X102941914Y-94357316D01*
X102941914Y-94357316D02*
X102941914Y-94143030D01*
X102941914Y-94143030D02*
X102984771Y-94057316D01*
X102984771Y-94057316D02*
X103027628Y-94014458D01*
X103027628Y-94014458D02*
X103113342Y-93971601D01*
X103113342Y-93971601D02*
X103327628Y-93971601D01*
X103327628Y-93971601D02*
X103413342Y-94014458D01*
X103413342Y-94014458D02*
X103456200Y-94057316D01*
X103456200Y-94057316D02*
X103499057Y-94143030D01*
X103499057Y-94143030D02*
X103499057Y-94357316D01*
X103499057Y-94357316D02*
X103456200Y-94443030D01*
X103456200Y-94443030D02*
X103413342Y-94485887D01*
X102599057Y-93714458D02*
X103499057Y-93414458D01*
X103499057Y-93414458D02*
X102599057Y-93114458D01*
X121310914Y-47870601D02*
X121268057Y-47956316D01*
X121268057Y-47956316D02*
X121268057Y-48084887D01*
X121268057Y-48084887D02*
X121310914Y-48213458D01*
X121310914Y-48213458D02*
X121396628Y-48299173D01*
X121396628Y-48299173D02*
X121482342Y-48342030D01*
X121482342Y-48342030D02*
X121653771Y-48384887D01*
X121653771Y-48384887D02*
X121782342Y-48384887D01*
X121782342Y-48384887D02*
X121953771Y-48342030D01*
X121953771Y-48342030D02*
X122039485Y-48299173D01*
X122039485Y-48299173D02*
X122125200Y-48213458D01*
X122125200Y-48213458D02*
X122168057Y-48084887D01*
X122168057Y-48084887D02*
X122168057Y-47999173D01*
X122168057Y-47999173D02*
X122125200Y-47870601D01*
X122125200Y-47870601D02*
X122082342Y-47827744D01*
X122082342Y-47827744D02*
X121782342Y-47827744D01*
X121782342Y-47827744D02*
X121782342Y-47999173D01*
X121268057Y-50834458D02*
X121268057Y-51263030D01*
X121268057Y-51263030D02*
X121696628Y-51305887D01*
X121696628Y-51305887D02*
X121653771Y-51263030D01*
X121653771Y-51263030D02*
X121610914Y-51177316D01*
X121610914Y-51177316D02*
X121610914Y-50963030D01*
X121610914Y-50963030D02*
X121653771Y-50877316D01*
X121653771Y-50877316D02*
X121696628Y-50834458D01*
X121696628Y-50834458D02*
X121782342Y-50791601D01*
X121782342Y-50791601D02*
X121996628Y-50791601D01*
X121996628Y-50791601D02*
X122082342Y-50834458D01*
X122082342Y-50834458D02*
X122125200Y-50877316D01*
X122125200Y-50877316D02*
X122168057Y-50963030D01*
X122168057Y-50963030D02*
X122168057Y-51177316D01*
X122168057Y-51177316D02*
X122125200Y-51263030D01*
X122125200Y-51263030D02*
X122082342Y-51305887D01*
X121268057Y-50534458D02*
X122168057Y-50234458D01*
X122168057Y-50234458D02*
X121268057Y-49934458D01*
X103241914Y-64005887D02*
X103241914Y-63577316D01*
X103499057Y-64091601D02*
X102599057Y-63791601D01*
X102599057Y-63791601D02*
X103499057Y-63491601D01*
X102684771Y-63234458D02*
X102641914Y-63191601D01*
X102641914Y-63191601D02*
X102599057Y-63105887D01*
X102599057Y-63105887D02*
X102599057Y-62891601D01*
X102599057Y-62891601D02*
X102641914Y-62805887D01*
X102641914Y-62805887D02*
X102684771Y-62763029D01*
X102684771Y-62763029D02*
X102770485Y-62720172D01*
X102770485Y-62720172D02*
X102856200Y-62720172D01*
X102856200Y-62720172D02*
X102984771Y-62763029D01*
X102984771Y-62763029D02*
X103499057Y-63277315D01*
X103499057Y-63277315D02*
X103499057Y-62720172D01*
X121696628Y-63663030D02*
X121739485Y-63534458D01*
X121739485Y-63534458D02*
X121782342Y-63491601D01*
X121782342Y-63491601D02*
X121868057Y-63448744D01*
X121868057Y-63448744D02*
X121996628Y-63448744D01*
X121996628Y-63448744D02*
X122082342Y-63491601D01*
X122082342Y-63491601D02*
X122125200Y-63534458D01*
X122125200Y-63534458D02*
X122168057Y-63620173D01*
X122168057Y-63620173D02*
X122168057Y-63963030D01*
X122168057Y-63963030D02*
X121268057Y-63963030D01*
X121268057Y-63963030D02*
X121268057Y-63663030D01*
X121268057Y-63663030D02*
X121310914Y-63577316D01*
X121310914Y-63577316D02*
X121353771Y-63534458D01*
X121353771Y-63534458D02*
X121439485Y-63491601D01*
X121439485Y-63491601D02*
X121525200Y-63491601D01*
X121525200Y-63491601D02*
X121610914Y-63534458D01*
X121610914Y-63534458D02*
X121653771Y-63577316D01*
X121653771Y-63577316D02*
X121696628Y-63663030D01*
X121696628Y-63663030D02*
X121696628Y-63963030D01*
X121268057Y-62634458D02*
X121268057Y-63063030D01*
X121268057Y-63063030D02*
X121696628Y-63105887D01*
X121696628Y-63105887D02*
X121653771Y-63063030D01*
X121653771Y-63063030D02*
X121610914Y-62977316D01*
X121610914Y-62977316D02*
X121610914Y-62763030D01*
X121610914Y-62763030D02*
X121653771Y-62677316D01*
X121653771Y-62677316D02*
X121696628Y-62634458D01*
X121696628Y-62634458D02*
X121782342Y-62591601D01*
X121782342Y-62591601D02*
X121996628Y-62591601D01*
X121996628Y-62591601D02*
X122082342Y-62634458D01*
X122082342Y-62634458D02*
X122125200Y-62677316D01*
X122125200Y-62677316D02*
X122168057Y-62763030D01*
X122168057Y-62763030D02*
X122168057Y-62977316D01*
X122168057Y-62977316D02*
X122125200Y-63063030D01*
X122125200Y-63063030D02*
X122082342Y-63105887D01*
X103413342Y-53288744D02*
X103456200Y-53331601D01*
X103456200Y-53331601D02*
X103499057Y-53460173D01*
X103499057Y-53460173D02*
X103499057Y-53545887D01*
X103499057Y-53545887D02*
X103456200Y-53674458D01*
X103456200Y-53674458D02*
X103370485Y-53760173D01*
X103370485Y-53760173D02*
X103284771Y-53803030D01*
X103284771Y-53803030D02*
X103113342Y-53845887D01*
X103113342Y-53845887D02*
X102984771Y-53845887D01*
X102984771Y-53845887D02*
X102813342Y-53803030D01*
X102813342Y-53803030D02*
X102727628Y-53760173D01*
X102727628Y-53760173D02*
X102641914Y-53674458D01*
X102641914Y-53674458D02*
X102599057Y-53545887D01*
X102599057Y-53545887D02*
X102599057Y-53460173D01*
X102599057Y-53460173D02*
X102641914Y-53331601D01*
X102641914Y-53331601D02*
X102684771Y-53288744D01*
X103499057Y-52431601D02*
X103499057Y-52945887D01*
X103499057Y-52688744D02*
X102599057Y-52688744D01*
X102599057Y-52688744D02*
X102727628Y-52774458D01*
X102727628Y-52774458D02*
X102813342Y-52860173D01*
X102813342Y-52860173D02*
X102856200Y-52945887D01*
X102599057Y-51617315D02*
X102599057Y-52045887D01*
X102599057Y-52045887D02*
X103027628Y-52088744D01*
X103027628Y-52088744D02*
X102984771Y-52045887D01*
X102984771Y-52045887D02*
X102941914Y-51960173D01*
X102941914Y-51960173D02*
X102941914Y-51745887D01*
X102941914Y-51745887D02*
X102984771Y-51660173D01*
X102984771Y-51660173D02*
X103027628Y-51617315D01*
X103027628Y-51617315D02*
X103113342Y-51574458D01*
X103113342Y-51574458D02*
X103327628Y-51574458D01*
X103327628Y-51574458D02*
X103413342Y-51617315D01*
X103413342Y-51617315D02*
X103456200Y-51660173D01*
X103456200Y-51660173D02*
X103499057Y-51745887D01*
X103499057Y-51745887D02*
X103499057Y-51960173D01*
X103499057Y-51960173D02*
X103456200Y-52045887D01*
X103456200Y-52045887D02*
X103413342Y-52088744D01*
X121910914Y-79245887D02*
X121910914Y-78817316D01*
X122168057Y-79331601D02*
X121268057Y-79031601D01*
X121268057Y-79031601D02*
X122168057Y-78731601D01*
X122168057Y-77960172D02*
X122168057Y-78474458D01*
X122168057Y-78217315D02*
X121268057Y-78217315D01*
X121268057Y-78217315D02*
X121396628Y-78303029D01*
X121396628Y-78303029D02*
X121482342Y-78388744D01*
X121482342Y-78388744D02*
X121525200Y-78474458D01*
X121268057Y-77403029D02*
X121268057Y-77317315D01*
X121268057Y-77317315D02*
X121310914Y-77231601D01*
X121310914Y-77231601D02*
X121353771Y-77188744D01*
X121353771Y-77188744D02*
X121439485Y-77145886D01*
X121439485Y-77145886D02*
X121610914Y-77103029D01*
X121610914Y-77103029D02*
X121825200Y-77103029D01*
X121825200Y-77103029D02*
X121996628Y-77145886D01*
X121996628Y-77145886D02*
X122082342Y-77188744D01*
X122082342Y-77188744D02*
X122125200Y-77231601D01*
X122125200Y-77231601D02*
X122168057Y-77317315D01*
X122168057Y-77317315D02*
X122168057Y-77403029D01*
X122168057Y-77403029D02*
X122125200Y-77488744D01*
X122125200Y-77488744D02*
X122082342Y-77531601D01*
X122082342Y-77531601D02*
X121996628Y-77574458D01*
X121996628Y-77574458D02*
X121825200Y-77617315D01*
X121825200Y-77617315D02*
X121610914Y-77617315D01*
X121610914Y-77617315D02*
X121439485Y-77574458D01*
X121439485Y-77574458D02*
X121353771Y-77531601D01*
X121353771Y-77531601D02*
X121310914Y-77488744D01*
X121310914Y-77488744D02*
X121268057Y-77403029D01*
X103241914Y-74165887D02*
X103241914Y-73737316D01*
X103499057Y-74251601D02*
X102599057Y-73951601D01*
X102599057Y-73951601D02*
X103499057Y-73651601D01*
X102599057Y-72965887D02*
X102599057Y-73137315D01*
X102599057Y-73137315D02*
X102641914Y-73223029D01*
X102641914Y-73223029D02*
X102684771Y-73265887D01*
X102684771Y-73265887D02*
X102813342Y-73351601D01*
X102813342Y-73351601D02*
X102984771Y-73394458D01*
X102984771Y-73394458D02*
X103327628Y-73394458D01*
X103327628Y-73394458D02*
X103413342Y-73351601D01*
X103413342Y-73351601D02*
X103456200Y-73308744D01*
X103456200Y-73308744D02*
X103499057Y-73223029D01*
X103499057Y-73223029D02*
X103499057Y-73051601D01*
X103499057Y-73051601D02*
X103456200Y-72965887D01*
X103456200Y-72965887D02*
X103413342Y-72923029D01*
X103413342Y-72923029D02*
X103327628Y-72880172D01*
X103327628Y-72880172D02*
X103113342Y-72880172D01*
X103113342Y-72880172D02*
X103027628Y-72923029D01*
X103027628Y-72923029D02*
X102984771Y-72965887D01*
X102984771Y-72965887D02*
X102941914Y-73051601D01*
X102941914Y-73051601D02*
X102941914Y-73223029D01*
X102941914Y-73223029D02*
X102984771Y-73308744D01*
X102984771Y-73308744D02*
X103027628Y-73351601D01*
X103027628Y-73351601D02*
X103113342Y-73394458D01*
X102599057Y-89448744D02*
X102599057Y-88891601D01*
X102599057Y-88891601D02*
X102941914Y-89191601D01*
X102941914Y-89191601D02*
X102941914Y-89063030D01*
X102941914Y-89063030D02*
X102984771Y-88977316D01*
X102984771Y-88977316D02*
X103027628Y-88934458D01*
X103027628Y-88934458D02*
X103113342Y-88891601D01*
X103113342Y-88891601D02*
X103327628Y-88891601D01*
X103327628Y-88891601D02*
X103413342Y-88934458D01*
X103413342Y-88934458D02*
X103456200Y-88977316D01*
X103456200Y-88977316D02*
X103499057Y-89063030D01*
X103499057Y-89063030D02*
X103499057Y-89320173D01*
X103499057Y-89320173D02*
X103456200Y-89405887D01*
X103456200Y-89405887D02*
X103413342Y-89448744D01*
X103413342Y-88505887D02*
X103456200Y-88463030D01*
X103456200Y-88463030D02*
X103499057Y-88505887D01*
X103499057Y-88505887D02*
X103456200Y-88548744D01*
X103456200Y-88548744D02*
X103413342Y-88505887D01*
X103413342Y-88505887D02*
X103499057Y-88505887D01*
X102599057Y-88163030D02*
X102599057Y-87605887D01*
X102599057Y-87605887D02*
X102941914Y-87905887D01*
X102941914Y-87905887D02*
X102941914Y-87777316D01*
X102941914Y-87777316D02*
X102984771Y-87691602D01*
X102984771Y-87691602D02*
X103027628Y-87648744D01*
X103027628Y-87648744D02*
X103113342Y-87605887D01*
X103113342Y-87605887D02*
X103327628Y-87605887D01*
X103327628Y-87605887D02*
X103413342Y-87648744D01*
X103413342Y-87648744D02*
X103456200Y-87691602D01*
X103456200Y-87691602D02*
X103499057Y-87777316D01*
X103499057Y-87777316D02*
X103499057Y-88034459D01*
X103499057Y-88034459D02*
X103456200Y-88120173D01*
X103456200Y-88120173D02*
X103413342Y-88163030D01*
X103241914Y-76705887D02*
X103241914Y-76277316D01*
X103499057Y-76791601D02*
X102599057Y-76491601D01*
X102599057Y-76491601D02*
X103499057Y-76191601D01*
X102599057Y-75977315D02*
X102599057Y-75377315D01*
X102599057Y-75377315D02*
X103499057Y-75763029D01*
X121696628Y-94143030D02*
X121739485Y-94014458D01*
X121739485Y-94014458D02*
X121782342Y-93971601D01*
X121782342Y-93971601D02*
X121868057Y-93928744D01*
X121868057Y-93928744D02*
X121996628Y-93928744D01*
X121996628Y-93928744D02*
X122082342Y-93971601D01*
X122082342Y-93971601D02*
X122125200Y-94014458D01*
X122125200Y-94014458D02*
X122168057Y-94100173D01*
X122168057Y-94100173D02*
X122168057Y-94443030D01*
X122168057Y-94443030D02*
X121268057Y-94443030D01*
X121268057Y-94443030D02*
X121268057Y-94143030D01*
X121268057Y-94143030D02*
X121310914Y-94057316D01*
X121310914Y-94057316D02*
X121353771Y-94014458D01*
X121353771Y-94014458D02*
X121439485Y-93971601D01*
X121439485Y-93971601D02*
X121525200Y-93971601D01*
X121525200Y-93971601D02*
X121610914Y-94014458D01*
X121610914Y-94014458D02*
X121653771Y-94057316D01*
X121653771Y-94057316D02*
X121696628Y-94143030D01*
X121696628Y-94143030D02*
X121696628Y-94443030D01*
X122168057Y-93071601D02*
X122168057Y-93585887D01*
X122168057Y-93328744D02*
X121268057Y-93328744D01*
X121268057Y-93328744D02*
X121396628Y-93414458D01*
X121396628Y-93414458D02*
X121482342Y-93500173D01*
X121482342Y-93500173D02*
X121525200Y-93585887D01*
X121353771Y-92728744D02*
X121310914Y-92685887D01*
X121310914Y-92685887D02*
X121268057Y-92600173D01*
X121268057Y-92600173D02*
X121268057Y-92385887D01*
X121268057Y-92385887D02*
X121310914Y-92300173D01*
X121310914Y-92300173D02*
X121353771Y-92257315D01*
X121353771Y-92257315D02*
X121439485Y-92214458D01*
X121439485Y-92214458D02*
X121525200Y-92214458D01*
X121525200Y-92214458D02*
X121653771Y-92257315D01*
X121653771Y-92257315D02*
X122168057Y-92771601D01*
X122168057Y-92771601D02*
X122168057Y-92214458D01*
X121696628Y-86523030D02*
X121739485Y-86394458D01*
X121739485Y-86394458D02*
X121782342Y-86351601D01*
X121782342Y-86351601D02*
X121868057Y-86308744D01*
X121868057Y-86308744D02*
X121996628Y-86308744D01*
X121996628Y-86308744D02*
X122082342Y-86351601D01*
X122082342Y-86351601D02*
X122125200Y-86394458D01*
X122125200Y-86394458D02*
X122168057Y-86480173D01*
X122168057Y-86480173D02*
X122168057Y-86823030D01*
X122168057Y-86823030D02*
X121268057Y-86823030D01*
X121268057Y-86823030D02*
X121268057Y-86523030D01*
X121268057Y-86523030D02*
X121310914Y-86437316D01*
X121310914Y-86437316D02*
X121353771Y-86394458D01*
X121353771Y-86394458D02*
X121439485Y-86351601D01*
X121439485Y-86351601D02*
X121525200Y-86351601D01*
X121525200Y-86351601D02*
X121610914Y-86394458D01*
X121610914Y-86394458D02*
X121653771Y-86437316D01*
X121653771Y-86437316D02*
X121696628Y-86523030D01*
X121696628Y-86523030D02*
X121696628Y-86823030D01*
X122168057Y-85451601D02*
X122168057Y-85965887D01*
X122168057Y-85708744D02*
X121268057Y-85708744D01*
X121268057Y-85708744D02*
X121396628Y-85794458D01*
X121396628Y-85794458D02*
X121482342Y-85880173D01*
X121482342Y-85880173D02*
X121525200Y-85965887D01*
X121268057Y-84637315D02*
X121268057Y-85065887D01*
X121268057Y-85065887D02*
X121696628Y-85108744D01*
X121696628Y-85108744D02*
X121653771Y-85065887D01*
X121653771Y-85065887D02*
X121610914Y-84980173D01*
X121610914Y-84980173D02*
X121610914Y-84765887D01*
X121610914Y-84765887D02*
X121653771Y-84680173D01*
X121653771Y-84680173D02*
X121696628Y-84637315D01*
X121696628Y-84637315D02*
X121782342Y-84594458D01*
X121782342Y-84594458D02*
X121996628Y-84594458D01*
X121996628Y-84594458D02*
X122082342Y-84637315D01*
X122082342Y-84637315D02*
X122125200Y-84680173D01*
X122125200Y-84680173D02*
X122168057Y-84765887D01*
X122168057Y-84765887D02*
X122168057Y-84980173D01*
X122168057Y-84980173D02*
X122125200Y-85065887D01*
X122125200Y-85065887D02*
X122082342Y-85108744D01*
X103241914Y-66545887D02*
X103241914Y-66117316D01*
X103499057Y-66631601D02*
X102599057Y-66331601D01*
X102599057Y-66331601D02*
X103499057Y-66031601D01*
X102599057Y-65817315D02*
X102599057Y-65260172D01*
X102599057Y-65260172D02*
X102941914Y-65560172D01*
X102941914Y-65560172D02*
X102941914Y-65431601D01*
X102941914Y-65431601D02*
X102984771Y-65345887D01*
X102984771Y-65345887D02*
X103027628Y-65303029D01*
X103027628Y-65303029D02*
X103113342Y-65260172D01*
X103113342Y-65260172D02*
X103327628Y-65260172D01*
X103327628Y-65260172D02*
X103413342Y-65303029D01*
X103413342Y-65303029D02*
X103456200Y-65345887D01*
X103456200Y-65345887D02*
X103499057Y-65431601D01*
X103499057Y-65431601D02*
X103499057Y-65688744D01*
X103499057Y-65688744D02*
X103456200Y-65774458D01*
X103456200Y-65774458D02*
X103413342Y-65817315D01*
X121910914Y-74165887D02*
X121910914Y-73737316D01*
X122168057Y-74251601D02*
X121268057Y-73951601D01*
X121268057Y-73951601D02*
X122168057Y-73651601D01*
X122168057Y-72880172D02*
X122168057Y-73394458D01*
X122168057Y-73137315D02*
X121268057Y-73137315D01*
X121268057Y-73137315D02*
X121396628Y-73223029D01*
X121396628Y-73223029D02*
X121482342Y-73308744D01*
X121482342Y-73308744D02*
X121525200Y-73394458D01*
X121353771Y-72537315D02*
X121310914Y-72494458D01*
X121310914Y-72494458D02*
X121268057Y-72408744D01*
X121268057Y-72408744D02*
X121268057Y-72194458D01*
X121268057Y-72194458D02*
X121310914Y-72108744D01*
X121310914Y-72108744D02*
X121353771Y-72065886D01*
X121353771Y-72065886D02*
X121439485Y-72023029D01*
X121439485Y-72023029D02*
X121525200Y-72023029D01*
X121525200Y-72023029D02*
X121653771Y-72065886D01*
X121653771Y-72065886D02*
X122168057Y-72580172D01*
X122168057Y-72580172D02*
X122168057Y-72023029D01*
X121696628Y-66203030D02*
X121739485Y-66074458D01*
X121739485Y-66074458D02*
X121782342Y-66031601D01*
X121782342Y-66031601D02*
X121868057Y-65988744D01*
X121868057Y-65988744D02*
X121996628Y-65988744D01*
X121996628Y-65988744D02*
X122082342Y-66031601D01*
X122082342Y-66031601D02*
X122125200Y-66074458D01*
X122125200Y-66074458D02*
X122168057Y-66160173D01*
X122168057Y-66160173D02*
X122168057Y-66503030D01*
X122168057Y-66503030D02*
X121268057Y-66503030D01*
X121268057Y-66503030D02*
X121268057Y-66203030D01*
X121268057Y-66203030D02*
X121310914Y-66117316D01*
X121310914Y-66117316D02*
X121353771Y-66074458D01*
X121353771Y-66074458D02*
X121439485Y-66031601D01*
X121439485Y-66031601D02*
X121525200Y-66031601D01*
X121525200Y-66031601D02*
X121610914Y-66074458D01*
X121610914Y-66074458D02*
X121653771Y-66117316D01*
X121653771Y-66117316D02*
X121696628Y-66203030D01*
X121696628Y-66203030D02*
X121696628Y-66503030D01*
X121568057Y-65217316D02*
X122168057Y-65217316D01*
X121225200Y-65431601D02*
X121868057Y-65645887D01*
X121868057Y-65645887D02*
X121868057Y-65088744D01*
X121910914Y-81658887D02*
X121910914Y-81230316D01*
X122168057Y-81744601D02*
X121268057Y-81444601D01*
X121268057Y-81444601D02*
X122168057Y-81144601D01*
X122168057Y-80801744D02*
X122168057Y-80630315D01*
X122168057Y-80630315D02*
X122125200Y-80544601D01*
X122125200Y-80544601D02*
X122082342Y-80501744D01*
X122082342Y-80501744D02*
X121953771Y-80416029D01*
X121953771Y-80416029D02*
X121782342Y-80373172D01*
X121782342Y-80373172D02*
X121439485Y-80373172D01*
X121439485Y-80373172D02*
X121353771Y-80416029D01*
X121353771Y-80416029D02*
X121310914Y-80458887D01*
X121310914Y-80458887D02*
X121268057Y-80544601D01*
X121268057Y-80544601D02*
X121268057Y-80716029D01*
X121268057Y-80716029D02*
X121310914Y-80801744D01*
X121310914Y-80801744D02*
X121353771Y-80844601D01*
X121353771Y-80844601D02*
X121439485Y-80887458D01*
X121439485Y-80887458D02*
X121653771Y-80887458D01*
X121653771Y-80887458D02*
X121739485Y-80844601D01*
X121739485Y-80844601D02*
X121782342Y-80801744D01*
X121782342Y-80801744D02*
X121825200Y-80716029D01*
X121825200Y-80716029D02*
X121825200Y-80544601D01*
X121825200Y-80544601D02*
X121782342Y-80458887D01*
X121782342Y-80458887D02*
X121739485Y-80416029D01*
X121739485Y-80416029D02*
X121653771Y-80373172D01*
X121696628Y-89063030D02*
X121739485Y-88934458D01*
X121739485Y-88934458D02*
X121782342Y-88891601D01*
X121782342Y-88891601D02*
X121868057Y-88848744D01*
X121868057Y-88848744D02*
X121996628Y-88848744D01*
X121996628Y-88848744D02*
X122082342Y-88891601D01*
X122082342Y-88891601D02*
X122125200Y-88934458D01*
X122125200Y-88934458D02*
X122168057Y-89020173D01*
X122168057Y-89020173D02*
X122168057Y-89363030D01*
X122168057Y-89363030D02*
X121268057Y-89363030D01*
X121268057Y-89363030D02*
X121268057Y-89063030D01*
X121268057Y-89063030D02*
X121310914Y-88977316D01*
X121310914Y-88977316D02*
X121353771Y-88934458D01*
X121353771Y-88934458D02*
X121439485Y-88891601D01*
X121439485Y-88891601D02*
X121525200Y-88891601D01*
X121525200Y-88891601D02*
X121610914Y-88934458D01*
X121610914Y-88934458D02*
X121653771Y-88977316D01*
X121653771Y-88977316D02*
X121696628Y-89063030D01*
X121696628Y-89063030D02*
X121696628Y-89363030D01*
X122168057Y-87991601D02*
X122168057Y-88505887D01*
X122168057Y-88248744D02*
X121268057Y-88248744D01*
X121268057Y-88248744D02*
X121396628Y-88334458D01*
X121396628Y-88334458D02*
X121482342Y-88420173D01*
X121482342Y-88420173D02*
X121525200Y-88505887D01*
X121568057Y-87220173D02*
X122168057Y-87220173D01*
X121225200Y-87434458D02*
X121868057Y-87648744D01*
X121868057Y-87648744D02*
X121868057Y-87091601D01*
X154954819Y-63261904D02*
X155764342Y-63261904D01*
X155764342Y-63261904D02*
X155859580Y-63214285D01*
X155859580Y-63214285D02*
X155907200Y-63166666D01*
X155907200Y-63166666D02*
X155954819Y-63071428D01*
X155954819Y-63071428D02*
X155954819Y-62880952D01*
X155954819Y-62880952D02*
X155907200Y-62785714D01*
X155907200Y-62785714D02*
X155859580Y-62738095D01*
X155859580Y-62738095D02*
X155764342Y-62690476D01*
X155764342Y-62690476D02*
X154954819Y-62690476D01*
X154954819Y-61738095D02*
X154954819Y-62214285D01*
X154954819Y-62214285D02*
X155431009Y-62261904D01*
X155431009Y-62261904D02*
X155383390Y-62214285D01*
X155383390Y-62214285D02*
X155335771Y-62119047D01*
X155335771Y-62119047D02*
X155335771Y-61880952D01*
X155335771Y-61880952D02*
X155383390Y-61785714D01*
X155383390Y-61785714D02*
X155431009Y-61738095D01*
X155431009Y-61738095D02*
X155526247Y-61690476D01*
X155526247Y-61690476D02*
X155764342Y-61690476D01*
X155764342Y-61690476D02*
X155859580Y-61738095D01*
X155859580Y-61738095D02*
X155907200Y-61785714D01*
X155907200Y-61785714D02*
X155954819Y-61880952D01*
X155954819Y-61880952D02*
X155954819Y-62119047D01*
X155954819Y-62119047D02*
X155907200Y-62214285D01*
X155907200Y-62214285D02*
X155859580Y-62261904D01*
X173166666Y-60874819D02*
X173166666Y-61589104D01*
X173166666Y-61589104D02*
X173119047Y-61731961D01*
X173119047Y-61731961D02*
X173023809Y-61827200D01*
X173023809Y-61827200D02*
X172880952Y-61874819D01*
X172880952Y-61874819D02*
X172785714Y-61874819D01*
X173547619Y-60874819D02*
X174166666Y-60874819D01*
X174166666Y-60874819D02*
X173833333Y-61255771D01*
X173833333Y-61255771D02*
X173976190Y-61255771D01*
X173976190Y-61255771D02*
X174071428Y-61303390D01*
X174071428Y-61303390D02*
X174119047Y-61351009D01*
X174119047Y-61351009D02*
X174166666Y-61446247D01*
X174166666Y-61446247D02*
X174166666Y-61684342D01*
X174166666Y-61684342D02*
X174119047Y-61779580D01*
X174119047Y-61779580D02*
X174071428Y-61827200D01*
X174071428Y-61827200D02*
X173976190Y-61874819D01*
X173976190Y-61874819D02*
X173690476Y-61874819D01*
X173690476Y-61874819D02*
X173595238Y-61827200D01*
X173595238Y-61827200D02*
X173547619Y-61779580D01*
X90954819Y-61333333D02*
X91669104Y-61333333D01*
X91669104Y-61333333D02*
X91811961Y-61380952D01*
X91811961Y-61380952D02*
X91907200Y-61476190D01*
X91907200Y-61476190D02*
X91954819Y-61619047D01*
X91954819Y-61619047D02*
X91954819Y-61714285D01*
X91954819Y-60333333D02*
X91954819Y-60904761D01*
X91954819Y-60619047D02*
X90954819Y-60619047D01*
X90954819Y-60619047D02*
X91097676Y-60714285D01*
X91097676Y-60714285D02*
X91192914Y-60809523D01*
X91192914Y-60809523D02*
X91240533Y-60904761D01*
X79064819Y-90213333D02*
X79779104Y-90213333D01*
X79779104Y-90213333D02*
X79921961Y-90260952D01*
X79921961Y-90260952D02*
X80017200Y-90356190D01*
X80017200Y-90356190D02*
X80064819Y-90499047D01*
X80064819Y-90499047D02*
X80064819Y-90594285D01*
X79160057Y-89784761D02*
X79112438Y-89737142D01*
X79112438Y-89737142D02*
X79064819Y-89641904D01*
X79064819Y-89641904D02*
X79064819Y-89403809D01*
X79064819Y-89403809D02*
X79112438Y-89308571D01*
X79112438Y-89308571D02*
X79160057Y-89260952D01*
X79160057Y-89260952D02*
X79255295Y-89213333D01*
X79255295Y-89213333D02*
X79350533Y-89213333D01*
X79350533Y-89213333D02*
X79493390Y-89260952D01*
X79493390Y-89260952D02*
X80064819Y-89832380D01*
X80064819Y-89832380D02*
X80064819Y-89213333D01*
X143238095Y-85204819D02*
X143238095Y-86014342D01*
X143238095Y-86014342D02*
X143285714Y-86109580D01*
X143285714Y-86109580D02*
X143333333Y-86157200D01*
X143333333Y-86157200D02*
X143428571Y-86204819D01*
X143428571Y-86204819D02*
X143619047Y-86204819D01*
X143619047Y-86204819D02*
X143714285Y-86157200D01*
X143714285Y-86157200D02*
X143761904Y-86109580D01*
X143761904Y-86109580D02*
X143809523Y-86014342D01*
X143809523Y-86014342D02*
X143809523Y-85204819D01*
X144714285Y-85538152D02*
X144714285Y-86204819D01*
X144476190Y-85157200D02*
X144238095Y-85871485D01*
X144238095Y-85871485D02*
X144857142Y-85871485D01*
X173666666Y-76874819D02*
X173666666Y-77589104D01*
X173666666Y-77589104D02*
X173619047Y-77731961D01*
X173619047Y-77731961D02*
X173523809Y-77827200D01*
X173523809Y-77827200D02*
X173380952Y-77874819D01*
X173380952Y-77874819D02*
X173285714Y-77874819D01*
X174619047Y-76874819D02*
X174142857Y-76874819D01*
X174142857Y-76874819D02*
X174095238Y-77351009D01*
X174095238Y-77351009D02*
X174142857Y-77303390D01*
X174142857Y-77303390D02*
X174238095Y-77255771D01*
X174238095Y-77255771D02*
X174476190Y-77255771D01*
X174476190Y-77255771D02*
X174571428Y-77303390D01*
X174571428Y-77303390D02*
X174619047Y-77351009D01*
X174619047Y-77351009D02*
X174666666Y-77446247D01*
X174666666Y-77446247D02*
X174666666Y-77684342D01*
X174666666Y-77684342D02*
X174619047Y-77779580D01*
X174619047Y-77779580D02*
X174571428Y-77827200D01*
X174571428Y-77827200D02*
X174476190Y-77874819D01*
X174476190Y-77874819D02*
X174238095Y-77874819D01*
X174238095Y-77874819D02*
X174142857Y-77827200D01*
X174142857Y-77827200D02*
X174095238Y-77779580D01*
X154454819Y-50261904D02*
X155264342Y-50261904D01*
X155264342Y-50261904D02*
X155359580Y-50214285D01*
X155359580Y-50214285D02*
X155407200Y-50166666D01*
X155407200Y-50166666D02*
X155454819Y-50071428D01*
X155454819Y-50071428D02*
X155454819Y-49880952D01*
X155454819Y-49880952D02*
X155407200Y-49785714D01*
X155407200Y-49785714D02*
X155359580Y-49738095D01*
X155359580Y-49738095D02*
X155264342Y-49690476D01*
X155264342Y-49690476D02*
X154454819Y-49690476D01*
X154550057Y-49261904D02*
X154502438Y-49214285D01*
X154502438Y-49214285D02*
X154454819Y-49119047D01*
X154454819Y-49119047D02*
X154454819Y-48880952D01*
X154454819Y-48880952D02*
X154502438Y-48785714D01*
X154502438Y-48785714D02*
X154550057Y-48738095D01*
X154550057Y-48738095D02*
X154645295Y-48690476D01*
X154645295Y-48690476D02*
X154740533Y-48690476D01*
X154740533Y-48690476D02*
X154883390Y-48738095D01*
X154883390Y-48738095D02*
X155454819Y-49309523D01*
X155454819Y-49309523D02*
X155454819Y-48690476D01*
D11*
X144680580Y-54478095D02*
X143871057Y-54478095D01*
X143871057Y-54478095D02*
X143775819Y-54525714D01*
X143775819Y-54525714D02*
X143728200Y-54573333D01*
X143728200Y-54573333D02*
X143680580Y-54668571D01*
X143680580Y-54668571D02*
X143680580Y-54859047D01*
X143680580Y-54859047D02*
X143728200Y-54954285D01*
X143728200Y-54954285D02*
X143775819Y-55001904D01*
X143775819Y-55001904D02*
X143871057Y-55049523D01*
X143871057Y-55049523D02*
X144680580Y-55049523D01*
X144680580Y-55954285D02*
X144680580Y-55763809D01*
X144680580Y-55763809D02*
X144632961Y-55668571D01*
X144632961Y-55668571D02*
X144585342Y-55620952D01*
X144585342Y-55620952D02*
X144442485Y-55525714D01*
X144442485Y-55525714D02*
X144252009Y-55478095D01*
X144252009Y-55478095D02*
X143871057Y-55478095D01*
X143871057Y-55478095D02*
X143775819Y-55525714D01*
X143775819Y-55525714D02*
X143728200Y-55573333D01*
X143728200Y-55573333D02*
X143680580Y-55668571D01*
X143680580Y-55668571D02*
X143680580Y-55859047D01*
X143680580Y-55859047D02*
X143728200Y-55954285D01*
X143728200Y-55954285D02*
X143775819Y-56001904D01*
X143775819Y-56001904D02*
X143871057Y-56049523D01*
X143871057Y-56049523D02*
X144109152Y-56049523D01*
X144109152Y-56049523D02*
X144204390Y-56001904D01*
X144204390Y-56001904D02*
X144252009Y-55954285D01*
X144252009Y-55954285D02*
X144299628Y-55859047D01*
X144299628Y-55859047D02*
X144299628Y-55668571D01*
X144299628Y-55668571D02*
X144252009Y-55573333D01*
X144252009Y-55573333D02*
X144204390Y-55525714D01*
X144204390Y-55525714D02*
X144109152Y-55478095D01*
D12*
%TO.C,J4*%
X168420000Y-47707400D02*
X168420000Y-50989331D01*
X168420000Y-51331469D02*
X168420000Y-53989330D01*
X168420000Y-54331468D02*
X168420000Y-57613400D01*
X168420000Y-57613400D02*
X178579999Y-57613400D01*
X178579999Y-47707400D02*
X168420000Y-47707400D01*
X178579999Y-57613400D02*
X178579999Y-47707400D01*
D13*
%TO.C,U1*%
X101991400Y-42533600D02*
X101991400Y-94654400D01*
X101991400Y-94654400D02*
X102220000Y-94883000D01*
X102220000Y-94883000D02*
X101991400Y-94654400D01*
X102220000Y-94883000D02*
X122286000Y-94883000D01*
X102474000Y-42051000D02*
X101991400Y-42533600D01*
X102474000Y-42051000D02*
X101991400Y-42533600D01*
X106030000Y-94883000D02*
X106030000Y-43067000D01*
X118730000Y-94883000D02*
X118730000Y-43067000D01*
X122286000Y-42051000D02*
X102474000Y-42051000D01*
X122286000Y-42051000D02*
X122768600Y-42533600D01*
X122286000Y-94883000D02*
X122768600Y-94400400D01*
X122286000Y-94883000D02*
X122768600Y-94400400D01*
X122768600Y-42533600D02*
X122286000Y-42051000D01*
X122768600Y-94400400D02*
X122768600Y-42533600D01*
X115682000Y-95264000D02*
X109078000Y-95264000D01*
X109078000Y-89295000D01*
X115682000Y-89295000D01*
X115682000Y-95264000D01*
%TO.C,U5*%
D11*
X146110000Y-67580000D02*
X163890000Y-67580000D01*
X163890000Y-57420000D01*
X146110000Y-57420000D01*
X146110000Y-67580000D01*
D13*
%TO.C,J3*%
X167845000Y-62420000D02*
X169115000Y-62420000D01*
X167845000Y-63690000D02*
X167845000Y-62420000D01*
X170192358Y-65800000D02*
X170505000Y-65800000D01*
X170192358Y-66660000D02*
X170505000Y-66660000D01*
X170192358Y-68340000D02*
X170505000Y-68340000D01*
X170192358Y-69200000D02*
X170505000Y-69200000D01*
X170192358Y-70880000D02*
X170505000Y-70880000D01*
X170192358Y-71740000D02*
X170505000Y-71740000D01*
X170275000Y-63260000D02*
X170505000Y-63260000D01*
X170275000Y-64120000D02*
X170505000Y-64120000D01*
X170505000Y-62310000D02*
X170505000Y-72690000D01*
X170505000Y-64960000D02*
X173265000Y-64960000D01*
X170505000Y-67500000D02*
X173265000Y-67500000D01*
X170505000Y-70040000D02*
X173265000Y-70040000D01*
X170505000Y-72690000D02*
X173265000Y-72690000D01*
X173265000Y-62310000D02*
X170505000Y-62310000D01*
X173265000Y-65800000D02*
X179265000Y-65800000D01*
X173265000Y-68340000D02*
X179265000Y-68340000D01*
X173265000Y-70880000D02*
X179265000Y-70880000D01*
X173265000Y-72690000D02*
X173265000Y-62310000D01*
X179265000Y-65800000D02*
X179265000Y-66660000D01*
X179265000Y-66660000D02*
X173265000Y-66660000D01*
X179265000Y-68340000D02*
X179265000Y-69200000D01*
X179265000Y-69200000D02*
X173265000Y-69200000D01*
X179265000Y-70880000D02*
X179265000Y-71740000D01*
X179265000Y-71740000D02*
X173265000Y-71740000D01*
X173265000Y-63260000D02*
X179265000Y-63260000D01*
X179265000Y-64120000D01*
X173265000Y-64120000D01*
X173265000Y-63260000D01*
G36*
X173265000Y-63260000D02*
G01*
X179265000Y-63260000D01*
X179265000Y-64120000D01*
X173265000Y-64120000D01*
X173265000Y-63260000D01*
G37*
%TO.C,J1*%
D11*
X76070000Y-73200000D02*
X98930000Y-73200000D01*
X98930000Y-47800000D01*
X76070000Y-47800000D01*
X76070000Y-73200000D01*
D13*
%TO.C,J2*%
X81050000Y-84390000D02*
X82380000Y-84390000D01*
X81050000Y-85500000D02*
X81050000Y-84390000D01*
X81050000Y-86960000D02*
X96410000Y-86960000D01*
X81050000Y-95590000D02*
X81050000Y-86960000D01*
X81050000Y-95590000D02*
X96410000Y-95590000D01*
X81170000Y-95590000D02*
X81170000Y-86960000D01*
X81288095Y-95590000D02*
X81288095Y-86960000D01*
X81406190Y-95590000D02*
X81406190Y-86960000D01*
X81524285Y-95590000D02*
X81524285Y-86960000D01*
X81642380Y-95590000D02*
X81642380Y-86960000D01*
X81760475Y-95590000D02*
X81760475Y-86960000D01*
X81878570Y-95590000D02*
X81878570Y-86960000D01*
X81996665Y-95590000D02*
X81996665Y-86960000D01*
X82020000Y-86960000D02*
X82020000Y-86610000D01*
X82114760Y-95590000D02*
X82114760Y-86960000D01*
X82232855Y-95590000D02*
X82232855Y-86960000D01*
X82350950Y-95590000D02*
X82350950Y-86960000D01*
X82469045Y-95590000D02*
X82469045Y-86960000D01*
X82587140Y-95590000D02*
X82587140Y-86960000D01*
X82705235Y-95590000D02*
X82705235Y-86960000D01*
X82740000Y-86960000D02*
X82740000Y-86610000D01*
X82823330Y-95590000D02*
X82823330Y-86960000D01*
X82941425Y-95590000D02*
X82941425Y-86960000D01*
X83059520Y-95590000D02*
X83059520Y-86960000D01*
X83177615Y-95590000D02*
X83177615Y-86960000D01*
X83295710Y-95590000D02*
X83295710Y-86960000D01*
X83413805Y-95590000D02*
X83413805Y-86960000D01*
X83531900Y-95590000D02*
X83531900Y-86960000D01*
X83650000Y-95590000D02*
X83650000Y-86960000D01*
X84560000Y-86960000D02*
X84560000Y-86550000D01*
X85280000Y-86960000D02*
X85280000Y-86550000D01*
X86190000Y-95590000D02*
X86190000Y-86960000D01*
X87100000Y-86960000D02*
X87100000Y-86550000D01*
X87820000Y-86960000D02*
X87820000Y-86550000D01*
X88730000Y-95590000D02*
X88730000Y-86960000D01*
X89640000Y-86960000D02*
X89640000Y-86550000D01*
X90360000Y-86960000D02*
X90360000Y-86550000D01*
X91270000Y-95590000D02*
X91270000Y-86960000D01*
X92180000Y-86960000D02*
X92180000Y-86550000D01*
X92900000Y-86960000D02*
X92900000Y-86550000D01*
X93810000Y-95590000D02*
X93810000Y-86960000D01*
X94720000Y-86960000D02*
X94720000Y-86550000D01*
X95440000Y-86960000D02*
X95440000Y-86550000D01*
X96410000Y-95590000D02*
X96410000Y-86960000D01*
D14*
%TO.C,U4*%
X126990000Y-90390000D02*
X126990000Y-72610000D01*
X128260000Y-71340000D02*
X158740000Y-71340000D01*
D13*
X132240000Y-72380000D02*
X154760000Y-72380000D01*
X132240000Y-75380000D02*
X132240000Y-72380000D01*
X152390000Y-75380000D02*
X152390000Y-72380000D01*
X154760000Y-72380000D02*
X154760000Y-75380000D01*
X154760000Y-75380000D02*
X132240000Y-75380000D01*
D14*
X158740000Y-91660000D02*
X128260000Y-91660000D01*
X160010000Y-72610000D02*
X160010000Y-90390000D01*
D11*
X149850000Y-90390000D02*
X137150000Y-90390000D01*
X137150000Y-87850000D01*
X149850000Y-87850000D01*
X149850000Y-90390000D01*
D14*
X126990000Y-72610000D02*
G75*
G02*
X128260000Y-71340000I1270000J0D01*
G01*
X128260000Y-91660000D02*
G75*
G02*
X126990000Y-90390000I0J1270000D01*
G01*
X158740000Y-71340000D02*
G75*
G02*
X160010000Y-72610000I1J-1269999D01*
G01*
X160010000Y-90390000D02*
G75*
G02*
X158740000Y-91660000I-1269999J-1D01*
G01*
D13*
%TO.C,J5*%
X168345000Y-78420000D02*
X169615000Y-78420000D01*
X168345000Y-79690000D02*
X168345000Y-78420000D01*
X170692358Y-81800000D02*
X171005000Y-81800000D01*
X170692358Y-82660000D02*
X171005000Y-82660000D01*
X170692358Y-84340000D02*
X171005000Y-84340000D01*
X170692358Y-85200000D02*
X171005000Y-85200000D01*
X170692358Y-86880000D02*
X171005000Y-86880000D01*
X170692358Y-87740000D02*
X171005000Y-87740000D01*
X170775000Y-79260000D02*
X171005000Y-79260000D01*
X170775000Y-80120000D02*
X171005000Y-80120000D01*
X171005000Y-78310000D02*
X171005000Y-88690000D01*
X171005000Y-80960000D02*
X173765000Y-80960000D01*
X171005000Y-83500000D02*
X173765000Y-83500000D01*
X171005000Y-86040000D02*
X173765000Y-86040000D01*
X171005000Y-88690000D02*
X173765000Y-88690000D01*
X173765000Y-78310000D02*
X171005000Y-78310000D01*
X173765000Y-81800000D02*
X179765000Y-81800000D01*
X173765000Y-84340000D02*
X179765000Y-84340000D01*
X173765000Y-86880000D02*
X179765000Y-86880000D01*
X173765000Y-88690000D02*
X173765000Y-78310000D01*
X179765000Y-81800000D02*
X179765000Y-82660000D01*
X179765000Y-82660000D02*
X173765000Y-82660000D01*
X179765000Y-84340000D02*
X179765000Y-85200000D01*
X179765000Y-85200000D02*
X173765000Y-85200000D01*
X179765000Y-86880000D02*
X179765000Y-87740000D01*
X179765000Y-87740000D02*
X173765000Y-87740000D01*
X173765000Y-79260000D02*
X179765000Y-79260000D01*
X179765000Y-80120000D01*
X173765000Y-80120000D01*
X173765000Y-79260000D01*
G36*
X173765000Y-79260000D02*
G01*
X179765000Y-79260000D01*
X179765000Y-80120000D01*
X173765000Y-80120000D01*
X173765000Y-79260000D01*
G37*
%TO.C,U2*%
D11*
X146110000Y-54580000D02*
X163890000Y-54580000D01*
X163890000Y-44420000D01*
X146110000Y-44420000D01*
X146110000Y-54580000D01*
%TO.C,U6*%
X126440000Y-44440000D02*
X143040000Y-44440000D01*
X126440000Y-66040000D02*
X126440000Y-44440000D01*
X143040000Y-44440000D02*
X143040000Y-66040000D01*
X143040000Y-66040000D02*
X126440000Y-66040000D01*
%TD*%
M02*
