%TF.GenerationSoftware,KiCad,Pcbnew,9.0.5*%
%TF.CreationDate,2026-05-07T09:13:55-07:00*%
%TF.ProjectId,Payload_Hardware_Schematic,5061796c-6f61-4645-9f48-617264776172,rev?*%
%TF.SameCoordinates,Original*%
%TF.FileFunction,Drillmap*%
%TF.FilePolarity,Positive*%
%FSLAX45Y45*%
G04 Gerber Fmt 4.5, Leading zero omitted, Abs format (unit mm)*
G04 Created by KiCad (PCBNEW 9.0.5) date 2026-05-07 09:13:55*
%MOMM*%
%LPD*%
G01*
G04 APERTURE LIST*
%ADD10C,0.050000*%
%ADD11C,0.200000*%
%ADD12C,0.250000*%
%ADD13C,0.304800*%
G04 APERTURE END LIST*
D10*
X18650000Y-4400000D02*
X18650000Y-9300000D01*
X18300000Y-9650000D02*
X7200000Y-9650000D01*
X18300000Y-4050000D02*
G75*
G02*
X18650000Y-4400000I0J-350000D01*
G01*
X6850000Y-4400000D02*
X6850000Y-9300000D01*
X7200000Y-4050000D02*
X18300000Y-4050000D01*
X18650000Y-9300000D02*
G75*
G02*
X18300000Y-9650000I-350000J0D01*
G01*
X6850000Y-4400000D02*
G75*
G02*
X7200000Y-4050000I350000J0D01*
G01*
X7200000Y-9650000D02*
G75*
G02*
X6850000Y-9300000I0J350000D01*
G01*
D11*
D12*
X13925000Y-4573000D02*
X14175000Y-4823000D01*
X14175000Y-4573000D02*
X13925000Y-4823000D01*
X13925000Y-6225000D02*
X14175000Y-6475000D01*
X14175000Y-6225000D02*
X13925000Y-6475000D01*
D13*
X17537100Y-5266040D02*
G75*
G02*
X17232300Y-5266040I-152400J0D01*
G01*
X17232300Y-5266040D02*
G75*
G02*
X17537100Y-5266040I152400J0D01*
G01*
D11*
X7108277Y-9963984D02*
X7108277Y-9763984D01*
X7108277Y-9763984D02*
X7155896Y-9763984D01*
X7155896Y-9763984D02*
X7184467Y-9773508D01*
X7184467Y-9773508D02*
X7203515Y-9792555D01*
X7203515Y-9792555D02*
X7213039Y-9811603D01*
X7213039Y-9811603D02*
X7222562Y-9849698D01*
X7222562Y-9849698D02*
X7222562Y-9878270D01*
X7222562Y-9878270D02*
X7213039Y-9916365D01*
X7213039Y-9916365D02*
X7203515Y-9935412D01*
X7203515Y-9935412D02*
X7184467Y-9954460D01*
X7184467Y-9954460D02*
X7155896Y-9963984D01*
X7155896Y-9963984D02*
X7108277Y-9963984D01*
X7308277Y-9963984D02*
X7308277Y-9830650D01*
X7308277Y-9868746D02*
X7317801Y-9849698D01*
X7317801Y-9849698D02*
X7327324Y-9840174D01*
X7327324Y-9840174D02*
X7346372Y-9830650D01*
X7346372Y-9830650D02*
X7365420Y-9830650D01*
X7432086Y-9963984D02*
X7432086Y-9830650D01*
X7432086Y-9763984D02*
X7422562Y-9773508D01*
X7422562Y-9773508D02*
X7432086Y-9783031D01*
X7432086Y-9783031D02*
X7441610Y-9773508D01*
X7441610Y-9773508D02*
X7432086Y-9763984D01*
X7432086Y-9763984D02*
X7432086Y-9783031D01*
X7555896Y-9963984D02*
X7536848Y-9954460D01*
X7536848Y-9954460D02*
X7527324Y-9935412D01*
X7527324Y-9935412D02*
X7527324Y-9763984D01*
X7660658Y-9963984D02*
X7641610Y-9954460D01*
X7641610Y-9954460D02*
X7632086Y-9935412D01*
X7632086Y-9935412D02*
X7632086Y-9763984D01*
X7889229Y-9963984D02*
X7889229Y-9763984D01*
X7889229Y-9763984D02*
X7955896Y-9906841D01*
X7955896Y-9906841D02*
X8022562Y-9763984D01*
X8022562Y-9763984D02*
X8022562Y-9963984D01*
X8203515Y-9963984D02*
X8203515Y-9859222D01*
X8203515Y-9859222D02*
X8193991Y-9840174D01*
X8193991Y-9840174D02*
X8174943Y-9830650D01*
X8174943Y-9830650D02*
X8136848Y-9830650D01*
X8136848Y-9830650D02*
X8117801Y-9840174D01*
X8203515Y-9954460D02*
X8184467Y-9963984D01*
X8184467Y-9963984D02*
X8136848Y-9963984D01*
X8136848Y-9963984D02*
X8117801Y-9954460D01*
X8117801Y-9954460D02*
X8108277Y-9935412D01*
X8108277Y-9935412D02*
X8108277Y-9916365D01*
X8108277Y-9916365D02*
X8117801Y-9897317D01*
X8117801Y-9897317D02*
X8136848Y-9887793D01*
X8136848Y-9887793D02*
X8184467Y-9887793D01*
X8184467Y-9887793D02*
X8203515Y-9878270D01*
X8298753Y-9830650D02*
X8298753Y-10030650D01*
X8298753Y-9840174D02*
X8317801Y-9830650D01*
X8317801Y-9830650D02*
X8355896Y-9830650D01*
X8355896Y-9830650D02*
X8374943Y-9840174D01*
X8374943Y-9840174D02*
X8384467Y-9849698D01*
X8384467Y-9849698D02*
X8393991Y-9868746D01*
X8393991Y-9868746D02*
X8393991Y-9925889D01*
X8393991Y-9925889D02*
X8384467Y-9944936D01*
X8384467Y-9944936D02*
X8374943Y-9954460D01*
X8374943Y-9954460D02*
X8355896Y-9963984D01*
X8355896Y-9963984D02*
X8317801Y-9963984D01*
X8317801Y-9963984D02*
X8298753Y-9954460D01*
X8479705Y-9944936D02*
X8489229Y-9954460D01*
X8489229Y-9954460D02*
X8479705Y-9963984D01*
X8479705Y-9963984D02*
X8470182Y-9954460D01*
X8470182Y-9954460D02*
X8479705Y-9944936D01*
X8479705Y-9944936D02*
X8479705Y-9963984D01*
X8479705Y-9840174D02*
X8489229Y-9849698D01*
X8489229Y-9849698D02*
X8479705Y-9859222D01*
X8479705Y-9859222D02*
X8470182Y-9849698D01*
X8470182Y-9849698D02*
X8479705Y-9840174D01*
X8479705Y-9840174D02*
X8479705Y-9859222D01*
X6647500Y-10192500D02*
X6847500Y-10392500D01*
X6847500Y-10192500D02*
X6647500Y-10392500D01*
X7098753Y-10203031D02*
X7108277Y-10193508D01*
X7108277Y-10193508D02*
X7127324Y-10183984D01*
X7127324Y-10183984D02*
X7174943Y-10183984D01*
X7174943Y-10183984D02*
X7193991Y-10193508D01*
X7193991Y-10193508D02*
X7203515Y-10203031D01*
X7203515Y-10203031D02*
X7213039Y-10222079D01*
X7213039Y-10222079D02*
X7213039Y-10241127D01*
X7213039Y-10241127D02*
X7203515Y-10269698D01*
X7203515Y-10269698D02*
X7089229Y-10383984D01*
X7089229Y-10383984D02*
X7213039Y-10383984D01*
X7298753Y-10364936D02*
X7308277Y-10374460D01*
X7308277Y-10374460D02*
X7298753Y-10383984D01*
X7298753Y-10383984D02*
X7289229Y-10374460D01*
X7289229Y-10374460D02*
X7298753Y-10364936D01*
X7298753Y-10364936D02*
X7298753Y-10383984D01*
X7489229Y-10183984D02*
X7393991Y-10183984D01*
X7393991Y-10183984D02*
X7384467Y-10279222D01*
X7384467Y-10279222D02*
X7393991Y-10269698D01*
X7393991Y-10269698D02*
X7413039Y-10260174D01*
X7413039Y-10260174D02*
X7460658Y-10260174D01*
X7460658Y-10260174D02*
X7479705Y-10269698D01*
X7479705Y-10269698D02*
X7489229Y-10279222D01*
X7489229Y-10279222D02*
X7498753Y-10298270D01*
X7498753Y-10298270D02*
X7498753Y-10345889D01*
X7498753Y-10345889D02*
X7489229Y-10364936D01*
X7489229Y-10364936D02*
X7479705Y-10374460D01*
X7479705Y-10374460D02*
X7460658Y-10383984D01*
X7460658Y-10383984D02*
X7413039Y-10383984D01*
X7413039Y-10383984D02*
X7393991Y-10374460D01*
X7393991Y-10374460D02*
X7384467Y-10364936D01*
X7622562Y-10183984D02*
X7641610Y-10183984D01*
X7641610Y-10183984D02*
X7660658Y-10193508D01*
X7660658Y-10193508D02*
X7670182Y-10203031D01*
X7670182Y-10203031D02*
X7679705Y-10222079D01*
X7679705Y-10222079D02*
X7689229Y-10260174D01*
X7689229Y-10260174D02*
X7689229Y-10307793D01*
X7689229Y-10307793D02*
X7679705Y-10345889D01*
X7679705Y-10345889D02*
X7670182Y-10364936D01*
X7670182Y-10364936D02*
X7660658Y-10374460D01*
X7660658Y-10374460D02*
X7641610Y-10383984D01*
X7641610Y-10383984D02*
X7622562Y-10383984D01*
X7622562Y-10383984D02*
X7603515Y-10374460D01*
X7603515Y-10374460D02*
X7593991Y-10364936D01*
X7593991Y-10364936D02*
X7584467Y-10345889D01*
X7584467Y-10345889D02*
X7574943Y-10307793D01*
X7574943Y-10307793D02*
X7574943Y-10260174D01*
X7574943Y-10260174D02*
X7584467Y-10222079D01*
X7584467Y-10222079D02*
X7593991Y-10203031D01*
X7593991Y-10203031D02*
X7603515Y-10193508D01*
X7603515Y-10193508D02*
X7622562Y-10183984D01*
X7813039Y-10183984D02*
X7832086Y-10183984D01*
X7832086Y-10183984D02*
X7851134Y-10193508D01*
X7851134Y-10193508D02*
X7860658Y-10203031D01*
X7860658Y-10203031D02*
X7870182Y-10222079D01*
X7870182Y-10222079D02*
X7879705Y-10260174D01*
X7879705Y-10260174D02*
X7879705Y-10307793D01*
X7879705Y-10307793D02*
X7870182Y-10345889D01*
X7870182Y-10345889D02*
X7860658Y-10364936D01*
X7860658Y-10364936D02*
X7851134Y-10374460D01*
X7851134Y-10374460D02*
X7832086Y-10383984D01*
X7832086Y-10383984D02*
X7813039Y-10383984D01*
X7813039Y-10383984D02*
X7793991Y-10374460D01*
X7793991Y-10374460D02*
X7784467Y-10364936D01*
X7784467Y-10364936D02*
X7774943Y-10345889D01*
X7774943Y-10345889D02*
X7765420Y-10307793D01*
X7765420Y-10307793D02*
X7765420Y-10260174D01*
X7765420Y-10260174D02*
X7774943Y-10222079D01*
X7774943Y-10222079D02*
X7784467Y-10203031D01*
X7784467Y-10203031D02*
X7793991Y-10193508D01*
X7793991Y-10193508D02*
X7813039Y-10183984D01*
X7965420Y-10383984D02*
X7965420Y-10250650D01*
X7965420Y-10269698D02*
X7974943Y-10260174D01*
X7974943Y-10260174D02*
X7993991Y-10250650D01*
X7993991Y-10250650D02*
X8022563Y-10250650D01*
X8022563Y-10250650D02*
X8041610Y-10260174D01*
X8041610Y-10260174D02*
X8051134Y-10279222D01*
X8051134Y-10279222D02*
X8051134Y-10383984D01*
X8051134Y-10279222D02*
X8060658Y-10260174D01*
X8060658Y-10260174D02*
X8079705Y-10250650D01*
X8079705Y-10250650D02*
X8108277Y-10250650D01*
X8108277Y-10250650D02*
X8127324Y-10260174D01*
X8127324Y-10260174D02*
X8136848Y-10279222D01*
X8136848Y-10279222D02*
X8136848Y-10383984D01*
X8232086Y-10383984D02*
X8232086Y-10250650D01*
X8232086Y-10269698D02*
X8241610Y-10260174D01*
X8241610Y-10260174D02*
X8260658Y-10250650D01*
X8260658Y-10250650D02*
X8289229Y-10250650D01*
X8289229Y-10250650D02*
X8308277Y-10260174D01*
X8308277Y-10260174D02*
X8317801Y-10279222D01*
X8317801Y-10279222D02*
X8317801Y-10383984D01*
X8317801Y-10279222D02*
X8327324Y-10260174D01*
X8327324Y-10260174D02*
X8346372Y-10250650D01*
X8346372Y-10250650D02*
X8374943Y-10250650D01*
X8374943Y-10250650D02*
X8393991Y-10260174D01*
X8393991Y-10260174D02*
X8403515Y-10279222D01*
X8403515Y-10279222D02*
X8403515Y-10383984D01*
X8793991Y-10174460D02*
X8622563Y-10431603D01*
X9051134Y-10183984D02*
X9070182Y-10183984D01*
X9070182Y-10183984D02*
X9089229Y-10193508D01*
X9089229Y-10193508D02*
X9098753Y-10203031D01*
X9098753Y-10203031D02*
X9108277Y-10222079D01*
X9108277Y-10222079D02*
X9117801Y-10260174D01*
X9117801Y-10260174D02*
X9117801Y-10307793D01*
X9117801Y-10307793D02*
X9108277Y-10345889D01*
X9108277Y-10345889D02*
X9098753Y-10364936D01*
X9098753Y-10364936D02*
X9089229Y-10374460D01*
X9089229Y-10374460D02*
X9070182Y-10383984D01*
X9070182Y-10383984D02*
X9051134Y-10383984D01*
X9051134Y-10383984D02*
X9032087Y-10374460D01*
X9032087Y-10374460D02*
X9022563Y-10364936D01*
X9022563Y-10364936D02*
X9013039Y-10345889D01*
X9013039Y-10345889D02*
X9003515Y-10307793D01*
X9003515Y-10307793D02*
X9003515Y-10260174D01*
X9003515Y-10260174D02*
X9013039Y-10222079D01*
X9013039Y-10222079D02*
X9022563Y-10203031D01*
X9022563Y-10203031D02*
X9032087Y-10193508D01*
X9032087Y-10193508D02*
X9051134Y-10183984D01*
X9203515Y-10364936D02*
X9213039Y-10374460D01*
X9213039Y-10374460D02*
X9203515Y-10383984D01*
X9203515Y-10383984D02*
X9193991Y-10374460D01*
X9193991Y-10374460D02*
X9203515Y-10364936D01*
X9203515Y-10364936D02*
X9203515Y-10383984D01*
X9336848Y-10183984D02*
X9355896Y-10183984D01*
X9355896Y-10183984D02*
X9374944Y-10193508D01*
X9374944Y-10193508D02*
X9384468Y-10203031D01*
X9384468Y-10203031D02*
X9393991Y-10222079D01*
X9393991Y-10222079D02*
X9403515Y-10260174D01*
X9403515Y-10260174D02*
X9403515Y-10307793D01*
X9403515Y-10307793D02*
X9393991Y-10345889D01*
X9393991Y-10345889D02*
X9384468Y-10364936D01*
X9384468Y-10364936D02*
X9374944Y-10374460D01*
X9374944Y-10374460D02*
X9355896Y-10383984D01*
X9355896Y-10383984D02*
X9336848Y-10383984D01*
X9336848Y-10383984D02*
X9317801Y-10374460D01*
X9317801Y-10374460D02*
X9308277Y-10364936D01*
X9308277Y-10364936D02*
X9298753Y-10345889D01*
X9298753Y-10345889D02*
X9289229Y-10307793D01*
X9289229Y-10307793D02*
X9289229Y-10260174D01*
X9289229Y-10260174D02*
X9298753Y-10222079D01*
X9298753Y-10222079D02*
X9308277Y-10203031D01*
X9308277Y-10203031D02*
X9317801Y-10193508D01*
X9317801Y-10193508D02*
X9336848Y-10183984D01*
X9498753Y-10383984D02*
X9536848Y-10383984D01*
X9536848Y-10383984D02*
X9555896Y-10374460D01*
X9555896Y-10374460D02*
X9565420Y-10364936D01*
X9565420Y-10364936D02*
X9584468Y-10336365D01*
X9584468Y-10336365D02*
X9593991Y-10298270D01*
X9593991Y-10298270D02*
X9593991Y-10222079D01*
X9593991Y-10222079D02*
X9584468Y-10203031D01*
X9584468Y-10203031D02*
X9574944Y-10193508D01*
X9574944Y-10193508D02*
X9555896Y-10183984D01*
X9555896Y-10183984D02*
X9517801Y-10183984D01*
X9517801Y-10183984D02*
X9498753Y-10193508D01*
X9498753Y-10193508D02*
X9489229Y-10203031D01*
X9489229Y-10203031D02*
X9479706Y-10222079D01*
X9479706Y-10222079D02*
X9479706Y-10269698D01*
X9479706Y-10269698D02*
X9489229Y-10288746D01*
X9489229Y-10288746D02*
X9498753Y-10298270D01*
X9498753Y-10298270D02*
X9517801Y-10307793D01*
X9517801Y-10307793D02*
X9555896Y-10307793D01*
X9555896Y-10307793D02*
X9574944Y-10298270D01*
X9574944Y-10298270D02*
X9584468Y-10288746D01*
X9584468Y-10288746D02*
X9593991Y-10269698D01*
X9708277Y-10269698D02*
X9689229Y-10260174D01*
X9689229Y-10260174D02*
X9679706Y-10250650D01*
X9679706Y-10250650D02*
X9670182Y-10231603D01*
X9670182Y-10231603D02*
X9670182Y-10222079D01*
X9670182Y-10222079D02*
X9679706Y-10203031D01*
X9679706Y-10203031D02*
X9689229Y-10193508D01*
X9689229Y-10193508D02*
X9708277Y-10183984D01*
X9708277Y-10183984D02*
X9746372Y-10183984D01*
X9746372Y-10183984D02*
X9765420Y-10193508D01*
X9765420Y-10193508D02*
X9774944Y-10203031D01*
X9774944Y-10203031D02*
X9784468Y-10222079D01*
X9784468Y-10222079D02*
X9784468Y-10231603D01*
X9784468Y-10231603D02*
X9774944Y-10250650D01*
X9774944Y-10250650D02*
X9765420Y-10260174D01*
X9765420Y-10260174D02*
X9746372Y-10269698D01*
X9746372Y-10269698D02*
X9708277Y-10269698D01*
X9708277Y-10269698D02*
X9689229Y-10279222D01*
X9689229Y-10279222D02*
X9679706Y-10288746D01*
X9679706Y-10288746D02*
X9670182Y-10307793D01*
X9670182Y-10307793D02*
X9670182Y-10345889D01*
X9670182Y-10345889D02*
X9679706Y-10364936D01*
X9679706Y-10364936D02*
X9689229Y-10374460D01*
X9689229Y-10374460D02*
X9708277Y-10383984D01*
X9708277Y-10383984D02*
X9746372Y-10383984D01*
X9746372Y-10383984D02*
X9765420Y-10374460D01*
X9765420Y-10374460D02*
X9774944Y-10364936D01*
X9774944Y-10364936D02*
X9784468Y-10345889D01*
X9784468Y-10345889D02*
X9784468Y-10307793D01*
X9784468Y-10307793D02*
X9774944Y-10288746D01*
X9774944Y-10288746D02*
X9765420Y-10279222D01*
X9765420Y-10279222D02*
X9746372Y-10269698D01*
X9955896Y-10250650D02*
X9955896Y-10383984D01*
X9908277Y-10174460D02*
X9860658Y-10317317D01*
X9860658Y-10317317D02*
X9984468Y-10317317D01*
X10051134Y-10183984D02*
X10051134Y-10222079D01*
X10127325Y-10183984D02*
X10127325Y-10222079D01*
X10422563Y-10460174D02*
X10413039Y-10450650D01*
X10413039Y-10450650D02*
X10393991Y-10422079D01*
X10393991Y-10422079D02*
X10384468Y-10403031D01*
X10384468Y-10403031D02*
X10374944Y-10374460D01*
X10374944Y-10374460D02*
X10365420Y-10326841D01*
X10365420Y-10326841D02*
X10365420Y-10288746D01*
X10365420Y-10288746D02*
X10374944Y-10241127D01*
X10374944Y-10241127D02*
X10384468Y-10212555D01*
X10384468Y-10212555D02*
X10393991Y-10193508D01*
X10393991Y-10193508D02*
X10413039Y-10164936D01*
X10413039Y-10164936D02*
X10422563Y-10155412D01*
X10489230Y-10203031D02*
X10498753Y-10193508D01*
X10498753Y-10193508D02*
X10517801Y-10183984D01*
X10517801Y-10183984D02*
X10565420Y-10183984D01*
X10565420Y-10183984D02*
X10584468Y-10193508D01*
X10584468Y-10193508D02*
X10593991Y-10203031D01*
X10593991Y-10203031D02*
X10603515Y-10222079D01*
X10603515Y-10222079D02*
X10603515Y-10241127D01*
X10603515Y-10241127D02*
X10593991Y-10269698D01*
X10593991Y-10269698D02*
X10479706Y-10383984D01*
X10479706Y-10383984D02*
X10603515Y-10383984D01*
X10841611Y-10383984D02*
X10841611Y-10183984D01*
X10927325Y-10383984D02*
X10927325Y-10279222D01*
X10927325Y-10279222D02*
X10917801Y-10260174D01*
X10917801Y-10260174D02*
X10898753Y-10250650D01*
X10898753Y-10250650D02*
X10870182Y-10250650D01*
X10870182Y-10250650D02*
X10851134Y-10260174D01*
X10851134Y-10260174D02*
X10841611Y-10269698D01*
X11051134Y-10383984D02*
X11032087Y-10374460D01*
X11032087Y-10374460D02*
X11022563Y-10364936D01*
X11022563Y-10364936D02*
X11013039Y-10345889D01*
X11013039Y-10345889D02*
X11013039Y-10288746D01*
X11013039Y-10288746D02*
X11022563Y-10269698D01*
X11022563Y-10269698D02*
X11032087Y-10260174D01*
X11032087Y-10260174D02*
X11051134Y-10250650D01*
X11051134Y-10250650D02*
X11079706Y-10250650D01*
X11079706Y-10250650D02*
X11098753Y-10260174D01*
X11098753Y-10260174D02*
X11108277Y-10269698D01*
X11108277Y-10269698D02*
X11117801Y-10288746D01*
X11117801Y-10288746D02*
X11117801Y-10345889D01*
X11117801Y-10345889D02*
X11108277Y-10364936D01*
X11108277Y-10364936D02*
X11098753Y-10374460D01*
X11098753Y-10374460D02*
X11079706Y-10383984D01*
X11079706Y-10383984D02*
X11051134Y-10383984D01*
X11232087Y-10383984D02*
X11213039Y-10374460D01*
X11213039Y-10374460D02*
X11203515Y-10355412D01*
X11203515Y-10355412D02*
X11203515Y-10183984D01*
X11384468Y-10374460D02*
X11365420Y-10383984D01*
X11365420Y-10383984D02*
X11327325Y-10383984D01*
X11327325Y-10383984D02*
X11308277Y-10374460D01*
X11308277Y-10374460D02*
X11298753Y-10355412D01*
X11298753Y-10355412D02*
X11298753Y-10279222D01*
X11298753Y-10279222D02*
X11308277Y-10260174D01*
X11308277Y-10260174D02*
X11327325Y-10250650D01*
X11327325Y-10250650D02*
X11365420Y-10250650D01*
X11365420Y-10250650D02*
X11384468Y-10260174D01*
X11384468Y-10260174D02*
X11393991Y-10279222D01*
X11393991Y-10279222D02*
X11393991Y-10298270D01*
X11393991Y-10298270D02*
X11298753Y-10317317D01*
X11470182Y-10374460D02*
X11489230Y-10383984D01*
X11489230Y-10383984D02*
X11527325Y-10383984D01*
X11527325Y-10383984D02*
X11546372Y-10374460D01*
X11546372Y-10374460D02*
X11555896Y-10355412D01*
X11555896Y-10355412D02*
X11555896Y-10345889D01*
X11555896Y-10345889D02*
X11546372Y-10326841D01*
X11546372Y-10326841D02*
X11527325Y-10317317D01*
X11527325Y-10317317D02*
X11498753Y-10317317D01*
X11498753Y-10317317D02*
X11479706Y-10307793D01*
X11479706Y-10307793D02*
X11470182Y-10288746D01*
X11470182Y-10288746D02*
X11470182Y-10279222D01*
X11470182Y-10279222D02*
X11479706Y-10260174D01*
X11479706Y-10260174D02*
X11498753Y-10250650D01*
X11498753Y-10250650D02*
X11527325Y-10250650D01*
X11527325Y-10250650D02*
X11546372Y-10260174D01*
X11622563Y-10460174D02*
X11632087Y-10450650D01*
X11632087Y-10450650D02*
X11651134Y-10422079D01*
X11651134Y-10422079D02*
X11660658Y-10403031D01*
X11660658Y-10403031D02*
X11670182Y-10374460D01*
X11670182Y-10374460D02*
X11679706Y-10326841D01*
X11679706Y-10326841D02*
X11679706Y-10288746D01*
X11679706Y-10288746D02*
X11670182Y-10241127D01*
X11670182Y-10241127D02*
X11660658Y-10212555D01*
X11660658Y-10212555D02*
X11651134Y-10193508D01*
X11651134Y-10193508D02*
X11632087Y-10164936D01*
X11632087Y-10164936D02*
X11622563Y-10155412D01*
X11984468Y-10460174D02*
X11974944Y-10450650D01*
X11974944Y-10450650D02*
X11955896Y-10422079D01*
X11955896Y-10422079D02*
X11946372Y-10403031D01*
X11946372Y-10403031D02*
X11936849Y-10374460D01*
X11936849Y-10374460D02*
X11927325Y-10326841D01*
X11927325Y-10326841D02*
X11927325Y-10288746D01*
X11927325Y-10288746D02*
X11936849Y-10241127D01*
X11936849Y-10241127D02*
X11946372Y-10212555D01*
X11946372Y-10212555D02*
X11955896Y-10193508D01*
X11955896Y-10193508D02*
X11974944Y-10164936D01*
X11974944Y-10164936D02*
X11984468Y-10155412D01*
X12060658Y-10250650D02*
X12060658Y-10383984D01*
X12060658Y-10269698D02*
X12070182Y-10260174D01*
X12070182Y-10260174D02*
X12089230Y-10250650D01*
X12089230Y-10250650D02*
X12117801Y-10250650D01*
X12117801Y-10250650D02*
X12136849Y-10260174D01*
X12136849Y-10260174D02*
X12146372Y-10279222D01*
X12146372Y-10279222D02*
X12146372Y-10383984D01*
X12270182Y-10383984D02*
X12251134Y-10374460D01*
X12251134Y-10374460D02*
X12241611Y-10364936D01*
X12241611Y-10364936D02*
X12232087Y-10345889D01*
X12232087Y-10345889D02*
X12232087Y-10288746D01*
X12232087Y-10288746D02*
X12241611Y-10269698D01*
X12241611Y-10269698D02*
X12251134Y-10260174D01*
X12251134Y-10260174D02*
X12270182Y-10250650D01*
X12270182Y-10250650D02*
X12298753Y-10250650D01*
X12298753Y-10250650D02*
X12317801Y-10260174D01*
X12317801Y-10260174D02*
X12327325Y-10269698D01*
X12327325Y-10269698D02*
X12336849Y-10288746D01*
X12336849Y-10288746D02*
X12336849Y-10345889D01*
X12336849Y-10345889D02*
X12327325Y-10364936D01*
X12327325Y-10364936D02*
X12317801Y-10374460D01*
X12317801Y-10374460D02*
X12298753Y-10383984D01*
X12298753Y-10383984D02*
X12270182Y-10383984D01*
X12393992Y-10250650D02*
X12470182Y-10250650D01*
X12422563Y-10183984D02*
X12422563Y-10355412D01*
X12422563Y-10355412D02*
X12432087Y-10374460D01*
X12432087Y-10374460D02*
X12451134Y-10383984D01*
X12451134Y-10383984D02*
X12470182Y-10383984D01*
X12689230Y-10250650D02*
X12689230Y-10450650D01*
X12689230Y-10260174D02*
X12708277Y-10250650D01*
X12708277Y-10250650D02*
X12746373Y-10250650D01*
X12746373Y-10250650D02*
X12765420Y-10260174D01*
X12765420Y-10260174D02*
X12774944Y-10269698D01*
X12774944Y-10269698D02*
X12784468Y-10288746D01*
X12784468Y-10288746D02*
X12784468Y-10345889D01*
X12784468Y-10345889D02*
X12774944Y-10364936D01*
X12774944Y-10364936D02*
X12765420Y-10374460D01*
X12765420Y-10374460D02*
X12746373Y-10383984D01*
X12746373Y-10383984D02*
X12708277Y-10383984D01*
X12708277Y-10383984D02*
X12689230Y-10374460D01*
X12898753Y-10383984D02*
X12879706Y-10374460D01*
X12879706Y-10374460D02*
X12870182Y-10355412D01*
X12870182Y-10355412D02*
X12870182Y-10183984D01*
X13060658Y-10383984D02*
X13060658Y-10279222D01*
X13060658Y-10279222D02*
X13051134Y-10260174D01*
X13051134Y-10260174D02*
X13032087Y-10250650D01*
X13032087Y-10250650D02*
X12993992Y-10250650D01*
X12993992Y-10250650D02*
X12974944Y-10260174D01*
X13060658Y-10374460D02*
X13041611Y-10383984D01*
X13041611Y-10383984D02*
X12993992Y-10383984D01*
X12993992Y-10383984D02*
X12974944Y-10374460D01*
X12974944Y-10374460D02*
X12965420Y-10355412D01*
X12965420Y-10355412D02*
X12965420Y-10336365D01*
X12965420Y-10336365D02*
X12974944Y-10317317D01*
X12974944Y-10317317D02*
X12993992Y-10307793D01*
X12993992Y-10307793D02*
X13041611Y-10307793D01*
X13041611Y-10307793D02*
X13060658Y-10298270D01*
X13127325Y-10250650D02*
X13203515Y-10250650D01*
X13155896Y-10183984D02*
X13155896Y-10355412D01*
X13155896Y-10355412D02*
X13165420Y-10374460D01*
X13165420Y-10374460D02*
X13184468Y-10383984D01*
X13184468Y-10383984D02*
X13203515Y-10383984D01*
X13346373Y-10374460D02*
X13327325Y-10383984D01*
X13327325Y-10383984D02*
X13289230Y-10383984D01*
X13289230Y-10383984D02*
X13270182Y-10374460D01*
X13270182Y-10374460D02*
X13260658Y-10355412D01*
X13260658Y-10355412D02*
X13260658Y-10279222D01*
X13260658Y-10279222D02*
X13270182Y-10260174D01*
X13270182Y-10260174D02*
X13289230Y-10250650D01*
X13289230Y-10250650D02*
X13327325Y-10250650D01*
X13327325Y-10250650D02*
X13346373Y-10260174D01*
X13346373Y-10260174D02*
X13355896Y-10279222D01*
X13355896Y-10279222D02*
X13355896Y-10298270D01*
X13355896Y-10298270D02*
X13260658Y-10317317D01*
X13527325Y-10383984D02*
X13527325Y-10183984D01*
X13527325Y-10374460D02*
X13508277Y-10383984D01*
X13508277Y-10383984D02*
X13470182Y-10383984D01*
X13470182Y-10383984D02*
X13451134Y-10374460D01*
X13451134Y-10374460D02*
X13441611Y-10364936D01*
X13441611Y-10364936D02*
X13432087Y-10345889D01*
X13432087Y-10345889D02*
X13432087Y-10288746D01*
X13432087Y-10288746D02*
X13441611Y-10269698D01*
X13441611Y-10269698D02*
X13451134Y-10260174D01*
X13451134Y-10260174D02*
X13470182Y-10250650D01*
X13470182Y-10250650D02*
X13508277Y-10250650D01*
X13508277Y-10250650D02*
X13527325Y-10260174D01*
X13603515Y-10460174D02*
X13613039Y-10450650D01*
X13613039Y-10450650D02*
X13632087Y-10422079D01*
X13632087Y-10422079D02*
X13641611Y-10403031D01*
X13641611Y-10403031D02*
X13651134Y-10374460D01*
X13651134Y-10374460D02*
X13660658Y-10326841D01*
X13660658Y-10326841D02*
X13660658Y-10288746D01*
X13660658Y-10288746D02*
X13651134Y-10241127D01*
X13651134Y-10241127D02*
X13641611Y-10212555D01*
X13641611Y-10212555D02*
X13632087Y-10193508D01*
X13632087Y-10193508D02*
X13613039Y-10164936D01*
X13613039Y-10164936D02*
X13603515Y-10155412D01*
X6847500Y-10612500D02*
G75*
G02*
X6647500Y-10612500I-100000J0D01*
G01*
X6647500Y-10612500D02*
G75*
G02*
X6847500Y-10612500I100000J0D01*
G01*
X7089229Y-10503984D02*
X7213039Y-10503984D01*
X7213039Y-10503984D02*
X7146372Y-10580174D01*
X7146372Y-10580174D02*
X7174943Y-10580174D01*
X7174943Y-10580174D02*
X7193991Y-10589698D01*
X7193991Y-10589698D02*
X7203515Y-10599222D01*
X7203515Y-10599222D02*
X7213039Y-10618270D01*
X7213039Y-10618270D02*
X7213039Y-10665889D01*
X7213039Y-10665889D02*
X7203515Y-10684936D01*
X7203515Y-10684936D02*
X7193991Y-10694460D01*
X7193991Y-10694460D02*
X7174943Y-10703984D01*
X7174943Y-10703984D02*
X7117801Y-10703984D01*
X7117801Y-10703984D02*
X7098753Y-10694460D01*
X7098753Y-10694460D02*
X7089229Y-10684936D01*
X7298753Y-10684936D02*
X7308277Y-10694460D01*
X7308277Y-10694460D02*
X7298753Y-10703984D01*
X7298753Y-10703984D02*
X7289229Y-10694460D01*
X7289229Y-10694460D02*
X7298753Y-10684936D01*
X7298753Y-10684936D02*
X7298753Y-10703984D01*
X7432086Y-10503984D02*
X7451134Y-10503984D01*
X7451134Y-10503984D02*
X7470182Y-10513508D01*
X7470182Y-10513508D02*
X7479705Y-10523031D01*
X7479705Y-10523031D02*
X7489229Y-10542079D01*
X7489229Y-10542079D02*
X7498753Y-10580174D01*
X7498753Y-10580174D02*
X7498753Y-10627793D01*
X7498753Y-10627793D02*
X7489229Y-10665889D01*
X7489229Y-10665889D02*
X7479705Y-10684936D01*
X7479705Y-10684936D02*
X7470182Y-10694460D01*
X7470182Y-10694460D02*
X7451134Y-10703984D01*
X7451134Y-10703984D02*
X7432086Y-10703984D01*
X7432086Y-10703984D02*
X7413039Y-10694460D01*
X7413039Y-10694460D02*
X7403515Y-10684936D01*
X7403515Y-10684936D02*
X7393991Y-10665889D01*
X7393991Y-10665889D02*
X7384467Y-10627793D01*
X7384467Y-10627793D02*
X7384467Y-10580174D01*
X7384467Y-10580174D02*
X7393991Y-10542079D01*
X7393991Y-10542079D02*
X7403515Y-10523031D01*
X7403515Y-10523031D02*
X7413039Y-10513508D01*
X7413039Y-10513508D02*
X7432086Y-10503984D01*
X7670182Y-10570650D02*
X7670182Y-10703984D01*
X7622562Y-10494460D02*
X7574943Y-10637317D01*
X7574943Y-10637317D02*
X7698753Y-10637317D01*
X7803515Y-10589698D02*
X7784467Y-10580174D01*
X7784467Y-10580174D02*
X7774943Y-10570650D01*
X7774943Y-10570650D02*
X7765420Y-10551603D01*
X7765420Y-10551603D02*
X7765420Y-10542079D01*
X7765420Y-10542079D02*
X7774943Y-10523031D01*
X7774943Y-10523031D02*
X7784467Y-10513508D01*
X7784467Y-10513508D02*
X7803515Y-10503984D01*
X7803515Y-10503984D02*
X7841610Y-10503984D01*
X7841610Y-10503984D02*
X7860658Y-10513508D01*
X7860658Y-10513508D02*
X7870182Y-10523031D01*
X7870182Y-10523031D02*
X7879705Y-10542079D01*
X7879705Y-10542079D02*
X7879705Y-10551603D01*
X7879705Y-10551603D02*
X7870182Y-10570650D01*
X7870182Y-10570650D02*
X7860658Y-10580174D01*
X7860658Y-10580174D02*
X7841610Y-10589698D01*
X7841610Y-10589698D02*
X7803515Y-10589698D01*
X7803515Y-10589698D02*
X7784467Y-10599222D01*
X7784467Y-10599222D02*
X7774943Y-10608746D01*
X7774943Y-10608746D02*
X7765420Y-10627793D01*
X7765420Y-10627793D02*
X7765420Y-10665889D01*
X7765420Y-10665889D02*
X7774943Y-10684936D01*
X7774943Y-10684936D02*
X7784467Y-10694460D01*
X7784467Y-10694460D02*
X7803515Y-10703984D01*
X7803515Y-10703984D02*
X7841610Y-10703984D01*
X7841610Y-10703984D02*
X7860658Y-10694460D01*
X7860658Y-10694460D02*
X7870182Y-10684936D01*
X7870182Y-10684936D02*
X7879705Y-10665889D01*
X7879705Y-10665889D02*
X7879705Y-10627793D01*
X7879705Y-10627793D02*
X7870182Y-10608746D01*
X7870182Y-10608746D02*
X7860658Y-10599222D01*
X7860658Y-10599222D02*
X7841610Y-10589698D01*
X7965420Y-10703984D02*
X7965420Y-10570650D01*
X7965420Y-10589698D02*
X7974943Y-10580174D01*
X7974943Y-10580174D02*
X7993991Y-10570650D01*
X7993991Y-10570650D02*
X8022563Y-10570650D01*
X8022563Y-10570650D02*
X8041610Y-10580174D01*
X8041610Y-10580174D02*
X8051134Y-10599222D01*
X8051134Y-10599222D02*
X8051134Y-10703984D01*
X8051134Y-10599222D02*
X8060658Y-10580174D01*
X8060658Y-10580174D02*
X8079705Y-10570650D01*
X8079705Y-10570650D02*
X8108277Y-10570650D01*
X8108277Y-10570650D02*
X8127324Y-10580174D01*
X8127324Y-10580174D02*
X8136848Y-10599222D01*
X8136848Y-10599222D02*
X8136848Y-10703984D01*
X8232086Y-10703984D02*
X8232086Y-10570650D01*
X8232086Y-10589698D02*
X8241610Y-10580174D01*
X8241610Y-10580174D02*
X8260658Y-10570650D01*
X8260658Y-10570650D02*
X8289229Y-10570650D01*
X8289229Y-10570650D02*
X8308277Y-10580174D01*
X8308277Y-10580174D02*
X8317801Y-10599222D01*
X8317801Y-10599222D02*
X8317801Y-10703984D01*
X8317801Y-10599222D02*
X8327324Y-10580174D01*
X8327324Y-10580174D02*
X8346372Y-10570650D01*
X8346372Y-10570650D02*
X8374943Y-10570650D01*
X8374943Y-10570650D02*
X8393991Y-10580174D01*
X8393991Y-10580174D02*
X8403515Y-10599222D01*
X8403515Y-10599222D02*
X8403515Y-10703984D01*
X8793991Y-10494460D02*
X8622563Y-10751603D01*
X9051134Y-10503984D02*
X9070182Y-10503984D01*
X9070182Y-10503984D02*
X9089229Y-10513508D01*
X9089229Y-10513508D02*
X9098753Y-10523031D01*
X9098753Y-10523031D02*
X9108277Y-10542079D01*
X9108277Y-10542079D02*
X9117801Y-10580174D01*
X9117801Y-10580174D02*
X9117801Y-10627793D01*
X9117801Y-10627793D02*
X9108277Y-10665889D01*
X9108277Y-10665889D02*
X9098753Y-10684936D01*
X9098753Y-10684936D02*
X9089229Y-10694460D01*
X9089229Y-10694460D02*
X9070182Y-10703984D01*
X9070182Y-10703984D02*
X9051134Y-10703984D01*
X9051134Y-10703984D02*
X9032087Y-10694460D01*
X9032087Y-10694460D02*
X9022563Y-10684936D01*
X9022563Y-10684936D02*
X9013039Y-10665889D01*
X9013039Y-10665889D02*
X9003515Y-10627793D01*
X9003515Y-10627793D02*
X9003515Y-10580174D01*
X9003515Y-10580174D02*
X9013039Y-10542079D01*
X9013039Y-10542079D02*
X9022563Y-10523031D01*
X9022563Y-10523031D02*
X9032087Y-10513508D01*
X9032087Y-10513508D02*
X9051134Y-10503984D01*
X9203515Y-10684936D02*
X9213039Y-10694460D01*
X9213039Y-10694460D02*
X9203515Y-10703984D01*
X9203515Y-10703984D02*
X9193991Y-10694460D01*
X9193991Y-10694460D02*
X9203515Y-10684936D01*
X9203515Y-10684936D02*
X9203515Y-10703984D01*
X9403515Y-10703984D02*
X9289229Y-10703984D01*
X9346372Y-10703984D02*
X9346372Y-10503984D01*
X9346372Y-10503984D02*
X9327325Y-10532555D01*
X9327325Y-10532555D02*
X9308277Y-10551603D01*
X9308277Y-10551603D02*
X9289229Y-10561127D01*
X9479706Y-10523031D02*
X9489229Y-10513508D01*
X9489229Y-10513508D02*
X9508277Y-10503984D01*
X9508277Y-10503984D02*
X9555896Y-10503984D01*
X9555896Y-10503984D02*
X9574944Y-10513508D01*
X9574944Y-10513508D02*
X9584468Y-10523031D01*
X9584468Y-10523031D02*
X9593991Y-10542079D01*
X9593991Y-10542079D02*
X9593991Y-10561127D01*
X9593991Y-10561127D02*
X9584468Y-10589698D01*
X9584468Y-10589698D02*
X9470182Y-10703984D01*
X9470182Y-10703984D02*
X9593991Y-10703984D01*
X9717801Y-10503984D02*
X9736849Y-10503984D01*
X9736849Y-10503984D02*
X9755896Y-10513508D01*
X9755896Y-10513508D02*
X9765420Y-10523031D01*
X9765420Y-10523031D02*
X9774944Y-10542079D01*
X9774944Y-10542079D02*
X9784468Y-10580174D01*
X9784468Y-10580174D02*
X9784468Y-10627793D01*
X9784468Y-10627793D02*
X9774944Y-10665889D01*
X9774944Y-10665889D02*
X9765420Y-10684936D01*
X9765420Y-10684936D02*
X9755896Y-10694460D01*
X9755896Y-10694460D02*
X9736849Y-10703984D01*
X9736849Y-10703984D02*
X9717801Y-10703984D01*
X9717801Y-10703984D02*
X9698753Y-10694460D01*
X9698753Y-10694460D02*
X9689229Y-10684936D01*
X9689229Y-10684936D02*
X9679706Y-10665889D01*
X9679706Y-10665889D02*
X9670182Y-10627793D01*
X9670182Y-10627793D02*
X9670182Y-10580174D01*
X9670182Y-10580174D02*
X9679706Y-10542079D01*
X9679706Y-10542079D02*
X9689229Y-10523031D01*
X9689229Y-10523031D02*
X9698753Y-10513508D01*
X9698753Y-10513508D02*
X9717801Y-10503984D01*
X9908277Y-10503984D02*
X9927325Y-10503984D01*
X9927325Y-10503984D02*
X9946372Y-10513508D01*
X9946372Y-10513508D02*
X9955896Y-10523031D01*
X9955896Y-10523031D02*
X9965420Y-10542079D01*
X9965420Y-10542079D02*
X9974944Y-10580174D01*
X9974944Y-10580174D02*
X9974944Y-10627793D01*
X9974944Y-10627793D02*
X9965420Y-10665889D01*
X9965420Y-10665889D02*
X9955896Y-10684936D01*
X9955896Y-10684936D02*
X9946372Y-10694460D01*
X9946372Y-10694460D02*
X9927325Y-10703984D01*
X9927325Y-10703984D02*
X9908277Y-10703984D01*
X9908277Y-10703984D02*
X9889229Y-10694460D01*
X9889229Y-10694460D02*
X9879706Y-10684936D01*
X9879706Y-10684936D02*
X9870182Y-10665889D01*
X9870182Y-10665889D02*
X9860658Y-10627793D01*
X9860658Y-10627793D02*
X9860658Y-10580174D01*
X9860658Y-10580174D02*
X9870182Y-10542079D01*
X9870182Y-10542079D02*
X9879706Y-10523031D01*
X9879706Y-10523031D02*
X9889229Y-10513508D01*
X9889229Y-10513508D02*
X9908277Y-10503984D01*
X10051134Y-10503984D02*
X10051134Y-10542079D01*
X10127325Y-10503984D02*
X10127325Y-10542079D01*
X10422563Y-10780174D02*
X10413039Y-10770650D01*
X10413039Y-10770650D02*
X10393991Y-10742079D01*
X10393991Y-10742079D02*
X10384468Y-10723031D01*
X10384468Y-10723031D02*
X10374944Y-10694460D01*
X10374944Y-10694460D02*
X10365420Y-10646841D01*
X10365420Y-10646841D02*
X10365420Y-10608746D01*
X10365420Y-10608746D02*
X10374944Y-10561127D01*
X10374944Y-10561127D02*
X10384468Y-10532555D01*
X10384468Y-10532555D02*
X10393991Y-10513508D01*
X10393991Y-10513508D02*
X10413039Y-10484936D01*
X10413039Y-10484936D02*
X10422563Y-10475412D01*
X10603515Y-10703984D02*
X10489230Y-10703984D01*
X10546372Y-10703984D02*
X10546372Y-10503984D01*
X10546372Y-10503984D02*
X10527325Y-10532555D01*
X10527325Y-10532555D02*
X10508277Y-10551603D01*
X10508277Y-10551603D02*
X10489230Y-10561127D01*
X10841611Y-10703984D02*
X10841611Y-10503984D01*
X10927325Y-10703984D02*
X10927325Y-10599222D01*
X10927325Y-10599222D02*
X10917801Y-10580174D01*
X10917801Y-10580174D02*
X10898753Y-10570650D01*
X10898753Y-10570650D02*
X10870182Y-10570650D01*
X10870182Y-10570650D02*
X10851134Y-10580174D01*
X10851134Y-10580174D02*
X10841611Y-10589698D01*
X11051134Y-10703984D02*
X11032087Y-10694460D01*
X11032087Y-10694460D02*
X11022563Y-10684936D01*
X11022563Y-10684936D02*
X11013039Y-10665889D01*
X11013039Y-10665889D02*
X11013039Y-10608746D01*
X11013039Y-10608746D02*
X11022563Y-10589698D01*
X11022563Y-10589698D02*
X11032087Y-10580174D01*
X11032087Y-10580174D02*
X11051134Y-10570650D01*
X11051134Y-10570650D02*
X11079706Y-10570650D01*
X11079706Y-10570650D02*
X11098753Y-10580174D01*
X11098753Y-10580174D02*
X11108277Y-10589698D01*
X11108277Y-10589698D02*
X11117801Y-10608746D01*
X11117801Y-10608746D02*
X11117801Y-10665889D01*
X11117801Y-10665889D02*
X11108277Y-10684936D01*
X11108277Y-10684936D02*
X11098753Y-10694460D01*
X11098753Y-10694460D02*
X11079706Y-10703984D01*
X11079706Y-10703984D02*
X11051134Y-10703984D01*
X11232087Y-10703984D02*
X11213039Y-10694460D01*
X11213039Y-10694460D02*
X11203515Y-10675412D01*
X11203515Y-10675412D02*
X11203515Y-10503984D01*
X11384468Y-10694460D02*
X11365420Y-10703984D01*
X11365420Y-10703984D02*
X11327325Y-10703984D01*
X11327325Y-10703984D02*
X11308277Y-10694460D01*
X11308277Y-10694460D02*
X11298753Y-10675412D01*
X11298753Y-10675412D02*
X11298753Y-10599222D01*
X11298753Y-10599222D02*
X11308277Y-10580174D01*
X11308277Y-10580174D02*
X11327325Y-10570650D01*
X11327325Y-10570650D02*
X11365420Y-10570650D01*
X11365420Y-10570650D02*
X11384468Y-10580174D01*
X11384468Y-10580174D02*
X11393991Y-10599222D01*
X11393991Y-10599222D02*
X11393991Y-10618270D01*
X11393991Y-10618270D02*
X11298753Y-10637317D01*
X11460658Y-10780174D02*
X11470182Y-10770650D01*
X11470182Y-10770650D02*
X11489230Y-10742079D01*
X11489230Y-10742079D02*
X11498753Y-10723031D01*
X11498753Y-10723031D02*
X11508277Y-10694460D01*
X11508277Y-10694460D02*
X11517801Y-10646841D01*
X11517801Y-10646841D02*
X11517801Y-10608746D01*
X11517801Y-10608746D02*
X11508277Y-10561127D01*
X11508277Y-10561127D02*
X11498753Y-10532555D01*
X11498753Y-10532555D02*
X11489230Y-10513508D01*
X11489230Y-10513508D02*
X11470182Y-10484936D01*
X11470182Y-10484936D02*
X11460658Y-10475412D01*
X11822563Y-10780174D02*
X11813039Y-10770650D01*
X11813039Y-10770650D02*
X11793991Y-10742079D01*
X11793991Y-10742079D02*
X11784468Y-10723031D01*
X11784468Y-10723031D02*
X11774944Y-10694460D01*
X11774944Y-10694460D02*
X11765420Y-10646841D01*
X11765420Y-10646841D02*
X11765420Y-10608746D01*
X11765420Y-10608746D02*
X11774944Y-10561127D01*
X11774944Y-10561127D02*
X11784468Y-10532555D01*
X11784468Y-10532555D02*
X11793991Y-10513508D01*
X11793991Y-10513508D02*
X11813039Y-10484936D01*
X11813039Y-10484936D02*
X11822563Y-10475412D01*
X11898753Y-10570650D02*
X11898753Y-10703984D01*
X11898753Y-10589698D02*
X11908277Y-10580174D01*
X11908277Y-10580174D02*
X11927325Y-10570650D01*
X11927325Y-10570650D02*
X11955896Y-10570650D01*
X11955896Y-10570650D02*
X11974944Y-10580174D01*
X11974944Y-10580174D02*
X11984468Y-10599222D01*
X11984468Y-10599222D02*
X11984468Y-10703984D01*
X12108277Y-10703984D02*
X12089230Y-10694460D01*
X12089230Y-10694460D02*
X12079706Y-10684936D01*
X12079706Y-10684936D02*
X12070182Y-10665889D01*
X12070182Y-10665889D02*
X12070182Y-10608746D01*
X12070182Y-10608746D02*
X12079706Y-10589698D01*
X12079706Y-10589698D02*
X12089230Y-10580174D01*
X12089230Y-10580174D02*
X12108277Y-10570650D01*
X12108277Y-10570650D02*
X12136849Y-10570650D01*
X12136849Y-10570650D02*
X12155896Y-10580174D01*
X12155896Y-10580174D02*
X12165420Y-10589698D01*
X12165420Y-10589698D02*
X12174944Y-10608746D01*
X12174944Y-10608746D02*
X12174944Y-10665889D01*
X12174944Y-10665889D02*
X12165420Y-10684936D01*
X12165420Y-10684936D02*
X12155896Y-10694460D01*
X12155896Y-10694460D02*
X12136849Y-10703984D01*
X12136849Y-10703984D02*
X12108277Y-10703984D01*
X12232087Y-10570650D02*
X12308277Y-10570650D01*
X12260658Y-10503984D02*
X12260658Y-10675412D01*
X12260658Y-10675412D02*
X12270182Y-10694460D01*
X12270182Y-10694460D02*
X12289230Y-10703984D01*
X12289230Y-10703984D02*
X12308277Y-10703984D01*
X12527325Y-10570650D02*
X12527325Y-10770650D01*
X12527325Y-10580174D02*
X12546372Y-10570650D01*
X12546372Y-10570650D02*
X12584468Y-10570650D01*
X12584468Y-10570650D02*
X12603515Y-10580174D01*
X12603515Y-10580174D02*
X12613039Y-10589698D01*
X12613039Y-10589698D02*
X12622563Y-10608746D01*
X12622563Y-10608746D02*
X12622563Y-10665889D01*
X12622563Y-10665889D02*
X12613039Y-10684936D01*
X12613039Y-10684936D02*
X12603515Y-10694460D01*
X12603515Y-10694460D02*
X12584468Y-10703984D01*
X12584468Y-10703984D02*
X12546372Y-10703984D01*
X12546372Y-10703984D02*
X12527325Y-10694460D01*
X12736849Y-10703984D02*
X12717801Y-10694460D01*
X12717801Y-10694460D02*
X12708277Y-10675412D01*
X12708277Y-10675412D02*
X12708277Y-10503984D01*
X12898753Y-10703984D02*
X12898753Y-10599222D01*
X12898753Y-10599222D02*
X12889230Y-10580174D01*
X12889230Y-10580174D02*
X12870182Y-10570650D01*
X12870182Y-10570650D02*
X12832087Y-10570650D01*
X12832087Y-10570650D02*
X12813039Y-10580174D01*
X12898753Y-10694460D02*
X12879706Y-10703984D01*
X12879706Y-10703984D02*
X12832087Y-10703984D01*
X12832087Y-10703984D02*
X12813039Y-10694460D01*
X12813039Y-10694460D02*
X12803515Y-10675412D01*
X12803515Y-10675412D02*
X12803515Y-10656365D01*
X12803515Y-10656365D02*
X12813039Y-10637317D01*
X12813039Y-10637317D02*
X12832087Y-10627793D01*
X12832087Y-10627793D02*
X12879706Y-10627793D01*
X12879706Y-10627793D02*
X12898753Y-10618270D01*
X12965420Y-10570650D02*
X13041611Y-10570650D01*
X12993992Y-10503984D02*
X12993992Y-10675412D01*
X12993992Y-10675412D02*
X13003515Y-10694460D01*
X13003515Y-10694460D02*
X13022563Y-10703984D01*
X13022563Y-10703984D02*
X13041611Y-10703984D01*
X13184468Y-10694460D02*
X13165420Y-10703984D01*
X13165420Y-10703984D02*
X13127325Y-10703984D01*
X13127325Y-10703984D02*
X13108277Y-10694460D01*
X13108277Y-10694460D02*
X13098753Y-10675412D01*
X13098753Y-10675412D02*
X13098753Y-10599222D01*
X13098753Y-10599222D02*
X13108277Y-10580174D01*
X13108277Y-10580174D02*
X13127325Y-10570650D01*
X13127325Y-10570650D02*
X13165420Y-10570650D01*
X13165420Y-10570650D02*
X13184468Y-10580174D01*
X13184468Y-10580174D02*
X13193992Y-10599222D01*
X13193992Y-10599222D02*
X13193992Y-10618270D01*
X13193992Y-10618270D02*
X13098753Y-10637317D01*
X13365420Y-10703984D02*
X13365420Y-10503984D01*
X13365420Y-10694460D02*
X13346373Y-10703984D01*
X13346373Y-10703984D02*
X13308277Y-10703984D01*
X13308277Y-10703984D02*
X13289230Y-10694460D01*
X13289230Y-10694460D02*
X13279706Y-10684936D01*
X13279706Y-10684936D02*
X13270182Y-10665889D01*
X13270182Y-10665889D02*
X13270182Y-10608746D01*
X13270182Y-10608746D02*
X13279706Y-10589698D01*
X13279706Y-10589698D02*
X13289230Y-10580174D01*
X13289230Y-10580174D02*
X13308277Y-10570650D01*
X13308277Y-10570650D02*
X13346373Y-10570650D01*
X13346373Y-10570650D02*
X13365420Y-10580174D01*
X13441611Y-10780174D02*
X13451134Y-10770650D01*
X13451134Y-10770650D02*
X13470182Y-10742079D01*
X13470182Y-10742079D02*
X13479706Y-10723031D01*
X13479706Y-10723031D02*
X13489230Y-10694460D01*
X13489230Y-10694460D02*
X13498753Y-10646841D01*
X13498753Y-10646841D02*
X13498753Y-10608746D01*
X13498753Y-10608746D02*
X13489230Y-10561127D01*
X13489230Y-10561127D02*
X13479706Y-10532555D01*
X13479706Y-10532555D02*
X13470182Y-10513508D01*
X13470182Y-10513508D02*
X13451134Y-10484936D01*
X13451134Y-10484936D02*
X13441611Y-10475412D01*
M02*
