%TF.GenerationSoftware,KiCad,Pcbnew,9.0.5*%
%TF.CreationDate,2026-05-07T09:14:04-07:00*%
%TF.ProjectId,Payload_Hardware_Schematic,5061796c-6f61-4645-9f48-617264776172,rev?*%
%TF.SameCoordinates,Original*%
%TF.FileFunction,Copper,L1,Top*%
%TF.FilePolarity,Positive*%
%FSLAX46Y46*%
G04 Gerber Fmt 4.6, Leading zero omitted, Abs format (unit mm)*
G04 Created by KiCad (PCBNEW 9.0.5) date 2026-05-07 09:14:04*
%MOMM*%
%LPD*%
G01*
G04 APERTURE LIST*
G04 Aperture macros list*
%AMOutline4P*
0 Free polygon, 4 corners , with rotation*
0 The origin of the aperture is its center*
0 number of corners: always 4*
0 $1 to $8 corner X, Y*
0 $9 Rotation angle, in degrees counterclockwise*
0 create outline with 4 corners*
4,1,4,$1,$2,$3,$4,$5,$6,$7,$8,$1,$2,$9*%
%AMOutline5P*
0 Free polygon, 5 corners , with rotation*
0 The origin of the aperture is its center*
0 number of corners: always 5*
0 $1 to $10 corner X, Y*
0 $11 Rotation angle, in degrees counterclockwise*
0 create outline with 5 corners*
4,1,5,$1,$2,$3,$4,$5,$6,$7,$8,$9,$10,$1,$2,$11*%
%AMOutline6P*
0 Free polygon, 6 corners , with rotation*
0 The origin of the aperture is its center*
0 number of corners: always 6*
0 $1 to $12 corner X, Y*
0 $13 Rotation angle, in degrees counterclockwise*
0 create outline with 6 corners*
4,1,6,$1,$2,$3,$4,$5,$6,$7,$8,$9,$10,$11,$12,$1,$2,$13*%
%AMOutline7P*
0 Free polygon, 7 corners , with rotation*
0 The origin of the aperture is its center*
0 number of corners: always 7*
0 $1 to $14 corner X, Y*
0 $15 Rotation angle, in degrees counterclockwise*
0 create outline with 7 corners*
4,1,7,$1,$2,$3,$4,$5,$6,$7,$8,$9,$10,$11,$12,$13,$14,$1,$2,$15*%
%AMOutline8P*
0 Free polygon, 8 corners , with rotation*
0 The origin of the aperture is its center*
0 number of corners: always 8*
0 $1 to $16 corner X, Y*
0 $17 Rotation angle, in degrees counterclockwise*
0 create outline with 8 corners*
4,1,8,$1,$2,$3,$4,$5,$6,$7,$8,$9,$10,$11,$12,$13,$14,$15,$16,$1,$2,$17*%
G04 Aperture macros list end*
%TA.AperFunction,ComponentPad*%
%ADD10C,5.600000*%
%TD*%
%TA.AperFunction,ComponentPad*%
%ADD11Outline4P,-0.762000X0.762000X0.762000X0.762000X0.762000X-0.762000X-0.762000X-0.762000X180.000000*%
%TD*%
%TA.AperFunction,ComponentPad*%
%ADD12Outline8P,-0.762000X0.350520X-0.350520X0.762000X0.350520X0.762000X0.762000X0.350520X0.762000X-0.350520X0.350520X-0.762000X-0.350520X-0.762000X-0.762000X-0.350520X180.000000*%
%TD*%
%TA.AperFunction,ComponentPad*%
%ADD13C,1.574800*%
%TD*%
%TA.AperFunction,ComponentPad*%
%ADD14R,2.000000X1.200000*%
%TD*%
%TA.AperFunction,ComponentPad*%
%ADD15C,3.810000*%
%TD*%
%TA.AperFunction,ComponentPad*%
%ADD16O,2.000000X1.200000*%
%TD*%
%TA.AperFunction,ComponentPad*%
%ADD17R,1.700000X1.700000*%
%TD*%
%TA.AperFunction,ComponentPad*%
%ADD18C,1.700000*%
%TD*%
%TA.AperFunction,ComponentPad*%
%ADD19O,1.200000X2.000000*%
%TD*%
%TA.AperFunction,WasherPad*%
%ADD20C,3.000000*%
%TD*%
%TA.AperFunction,ComponentPad*%
%ADD21C,1.905000*%
%TD*%
%TA.AperFunction,ViaPad*%
%ADD22C,0.600000*%
%TD*%
%TA.AperFunction,Conductor*%
%ADD23C,0.200000*%
%TD*%
G04 APERTURE END LIST*
D10*
%TO.P,H2,1*%
%TO.N,N/C*%
X72000000Y-93000000D03*
%TD*%
D11*
%TO.P,U1,1,B12*%
%TO.N,/SCK3*%
X120000000Y-93740000D03*
D12*
%TO.P,U1,2,B13*%
%TO.N,/SCK4*%
X120000000Y-91200000D03*
%TO.P,U1,3,B14*%
%TO.N,/MISO2*%
X120000000Y-88660000D03*
%TO.P,U1,4,B15*%
%TO.N,/MOSI2*%
X120000000Y-86120000D03*
%TO.P,U1,5,A8*%
%TO.N,/TIM1*%
X120000000Y-83580000D03*
%TO.P,U1,6,A9*%
%TO.N,/TIM2*%
X120000000Y-81040000D03*
%TO.P,U1,7,A10*%
%TO.N,unconnected-(U1-A10-Pad7)*%
X120000000Y-78500000D03*
%TO.P,U1,8,A11*%
%TO.N,/MISO4*%
X120000000Y-75960000D03*
%TO.P,U1,9,A12*%
%TO.N,unconnected-(U1-A12-Pad9)*%
X120000000Y-73420000D03*
%TO.P,U1,10,A15*%
%TO.N,unconnected-(U1-A15-Pad10)*%
X120000000Y-70880000D03*
%TO.P,U1,11,B3*%
%TO.N,/NSS3*%
X120000000Y-68340000D03*
%TO.P,U1,12,B4*%
%TO.N,/MISO3*%
X120000000Y-65800000D03*
%TO.P,U1,13,B5*%
%TO.N,/MOSI3*%
X120000000Y-63260000D03*
%TO.P,U1,14,B6*%
%TO.N,/CSIMU*%
X120000000Y-60720000D03*
%TO.P,U1,15,B7*%
%TO.N,unconnected-(U1-B7-Pad15)*%
X120000000Y-58180000D03*
%TO.P,U1,16,B8*%
%TO.N,unconnected-(U1-B8-Pad16)*%
X120000000Y-55640000D03*
%TO.P,U1,17,B9*%
%TO.N,unconnected-(U1-B9-Pad17)*%
X120000000Y-53100000D03*
%TO.P,U1,18,5V*%
%TO.N,unconnected-(U1-5V-Pad18)*%
X120000000Y-50560000D03*
%TO.P,U1,19,G*%
%TO.N,unconnected-(U1-G-Pad19)*%
X120000000Y-48020000D03*
%TO.P,U1,20,3.3V*%
%TO.N,/<NO NET>*%
X120000000Y-45480000D03*
%TO.P,U1,21,VBat*%
%TO.N,unconnected-(U1-VBat-Pad21)*%
X104760000Y-45480000D03*
%TO.P,U1,22,C13*%
%TO.N,/LED*%
X104760000Y-48020000D03*
%TO.P,U1,23,C14*%
%TO.N,/RCC_OSC32_IN*%
X104760000Y-50560000D03*
%TO.P,U1,24,C15*%
%TO.N,/RCC_OSC32_OUT*%
X104760000Y-53100000D03*
%TO.P,U1,25,NRST*%
%TO.N,unconnected-(U1-NRST-Pad25)*%
X104760000Y-55640000D03*
%TO.P,U1,26,A0*%
%TO.N,/BTN*%
X104760000Y-58180000D03*
%TO.P,U1,27,A1*%
%TO.N,/MOSI4*%
X104760000Y-60720000D03*
%TO.P,U1,28,A2*%
%TO.N,/UART_TX*%
X104760000Y-63260000D03*
%TO.P,U1,29,A3*%
%TO.N,/UART_RX*%
X104760000Y-65800000D03*
%TO.P,U1,30,A4*%
%TO.N,/NSS1*%
X104760000Y-68340000D03*
%TO.P,U1,31,A5*%
%TO.N,unconnected-(U1-A5-Pad31)*%
X104760000Y-70880000D03*
%TO.P,U1,32,A6*%
%TO.N,unconnected-(U1-A6-Pad32)*%
X104760000Y-73420000D03*
%TO.P,U1,33,A7*%
%TO.N,unconnected-(U1-A7-Pad33)*%
X104760000Y-75960000D03*
%TO.P,U1,34,B0*%
%TO.N,/FDBK1*%
X104760000Y-78500000D03*
%TO.P,U1,35,B1*%
%TO.N,/FDBK2*%
X104760000Y-81040000D03*
%TO.P,U1,36,B2*%
%TO.N,/NSS2*%
X104760000Y-83580000D03*
%TO.P,U1,37,B10*%
%TO.N,/SCK2*%
X104760000Y-86120000D03*
%TO.P,U1,38,3.3V*%
%TO.N,unconnected-(U1-3.3V-Pad38)*%
X104760000Y-88660000D03*
%TO.P,U1,39,G*%
%TO.N,/GND*%
X104760000Y-91200000D03*
%TO.P,U1,40,5V*%
%TO.N,unconnected-(U1-5V-Pad40)*%
X104760000Y-93740000D03*
%TO.P,U1,41,A13*%
%TO.N,/DIO*%
X113650000Y-49290000D03*
%TO.P,U1,42,A14*%
%TO.N,/SCK*%
X111110000Y-49290000D03*
%TD*%
D10*
%TO.P,H1,1*%
%TO.N,N/C*%
X72000000Y-44000000D03*
%TD*%
D13*
%TO.P,J4,1,Pin_1*%
%TO.N,/7.2V*%
X169527000Y-51160400D03*
%TO.P,J4,2,Pin_2*%
%TO.N,/GND*%
X169527000Y-54160399D03*
%TD*%
D14*
%TO.P,U5,1,GND*%
%TO.N,/GND*%
X161350000Y-66310000D03*
D15*
X149274840Y-62500000D03*
D16*
%TO.P,U5,2,3V3*%
%TO.N,/<NO NET>*%
X161350000Y-63770000D03*
%TO.P,U5,3,VIN*%
%TO.N,/7.2V*%
X161350000Y-61230000D03*
%TO.P,U5,4,EN*%
%TO.N,unconnected-(U5-EN-Pad4)*%
X161350000Y-58690000D03*
%TD*%
D10*
%TO.P,H4,1*%
%TO.N,N/C*%
X183000000Y-93000000D03*
%TD*%
D17*
%TO.P,J3,1,Pin_1*%
%TO.N,/FDBK1*%
X169115000Y-63690000D03*
D18*
%TO.P,J3,2,Pin_2*%
%TO.N,/TIM1*%
X169115000Y-66230000D03*
%TO.P,J3,3,Pin_3*%
%TO.N,/7.2V*%
X169115000Y-68770000D03*
%TO.P,J3,4,Pin_4*%
%TO.N,/GND*%
X169115000Y-71310000D03*
%TD*%
D14*
%TO.P,J1,1,3V*%
%TO.N,/<NO NET>*%
X96390000Y-70660000D03*
D15*
%TO.P,J1,2,GND*%
%TO.N,/GND*%
X78610000Y-70660000D03*
D16*
X96390000Y-68120000D03*
D15*
X78610000Y-50340000D03*
D16*
%TO.P,J1,3,CLK*%
%TO.N,/SCK2*%
X96390000Y-65580000D03*
%TO.P,J1,4,DAT0/MISO*%
%TO.N,/MISO2*%
X96390000Y-63040000D03*
%TO.P,J1,5,MOSI*%
%TO.N,/MOSI2*%
X96390000Y-60500000D03*
%TO.P,J1,6,DAT3/CS*%
%TO.N,/NSS2*%
X96390000Y-57960000D03*
%TO.P,J1,7,D1*%
%TO.N,unconnected-(J1-D1-Pad7)*%
X96390000Y-55420000D03*
%TO.P,J1,8,DAT2*%
%TO.N,unconnected-(J1-DAT2-Pad8)*%
X96390000Y-52880000D03*
%TO.P,J1,9,DET*%
%TO.N,unconnected-(J1-DET-Pad9)*%
X96390000Y-50340000D03*
%TD*%
D17*
%TO.P,J2,1,Pin_1*%
%TO.N,/SCK*%
X82380000Y-85500000D03*
D18*
%TO.P,J2,2,Pin_2*%
%TO.N,/DIO*%
X84920000Y-85500000D03*
%TO.P,J2,3,Pin_3*%
%TO.N,/UART_RX*%
X87460000Y-85500000D03*
%TO.P,J2,4,Pin_4*%
%TO.N,/UART_TX*%
X90000000Y-85500000D03*
%TO.P,J2,5,Pin_5*%
%TO.N,/<NO NET>*%
X92540000Y-85500000D03*
%TO.P,J2,6,Pin_6*%
%TO.N,/GND*%
X95080000Y-85500000D03*
%TD*%
D19*
%TO.P,U4,1,VIN*%
%TO.N,/<NO NET>*%
X153660000Y-73880000D03*
%TO.P,U4,2,3V3*%
%TO.N,unconnected-(U4-3V3-Pad2)*%
X151120000Y-73880000D03*
D15*
%TO.P,U4,3,GND*%
%TO.N,/GND*%
X157470000Y-89120000D03*
X157470000Y-73880000D03*
D19*
X148580000Y-73880000D03*
D15*
X129530000Y-89120000D03*
X129530000Y-73880000D03*
D19*
%TO.P,U4,4,SCL*%
%TO.N,/SCK4*%
X146040000Y-73880000D03*
%TO.P,U4,5,SDA/MOSI*%
%TO.N,/MOSI4*%
X143500000Y-73880000D03*
%TO.P,U4,6,CSAG*%
%TO.N,/CSIMU*%
X140960000Y-73880000D03*
%TO.P,U4,7,CSM*%
%TO.N,unconnected-(U4-CSM-Pad7)*%
X138420000Y-73880000D03*
%TO.P,U4,8,SDOAG*%
%TO.N,/MISO4*%
X135880000Y-73880000D03*
%TO.P,U4,9,SDOM*%
X133340000Y-73880000D03*
%TO.P,U4,10,DEN*%
%TO.N,unconnected-(U4-DEN-Pad10)*%
X138420000Y-89120000D03*
%TO.P,U4,11,INT1*%
%TO.N,unconnected-(U4-INT1-Pad11)*%
X140960000Y-89120000D03*
%TO.P,U4,12,INT2*%
%TO.N,unconnected-(U4-INT2-Pad12)*%
X143500000Y-89120000D03*
%TO.P,U4,13,DRDY*%
%TO.N,unconnected-(U4-DRDY-Pad13)*%
X146040000Y-89120000D03*
%TO.P,U4,14,INTM*%
%TO.N,unconnected-(U4-INTM-Pad14)*%
X148580000Y-89120000D03*
%TD*%
D17*
%TO.P,J5,1,Pin_1*%
%TO.N,/FDBK2*%
X169615000Y-79690000D03*
D18*
%TO.P,J5,2,Pin_2*%
%TO.N,/TIM2*%
X169615000Y-82230000D03*
%TO.P,J5,3,Pin_3*%
%TO.N,/7.2V*%
X169615000Y-84770000D03*
%TO.P,J5,4,Pin_4*%
%TO.N,/GND*%
X169615000Y-87310000D03*
%TD*%
D14*
%TO.P,U2,1,GND*%
%TO.N,/GND*%
X161350000Y-53310000D03*
D15*
X149274840Y-49500000D03*
D16*
%TO.P,U2,2,5V*%
%TO.N,/5V*%
X161350000Y-50770000D03*
%TO.P,U2,3,VIN*%
%TO.N,/7.2V*%
X161350000Y-48230000D03*
%TO.P,U2,4,EN*%
%TO.N,unconnected-(U2-EN-Pad4)*%
X161350000Y-45690000D03*
%TD*%
D20*
%TO.P,U6,*%
%TO.N,*%
X140500000Y-46980000D03*
X140500000Y-63500000D03*
D21*
%TO.P,U6,1,VIN*%
%TO.N,/<NO NET>*%
X128644000Y-46350000D03*
%TO.P,U6,2,3Vo*%
%TO.N,unconnected-(U6-3Vo-Pad2)*%
X128644000Y-48890000D03*
%TO.P,U6,3,GND*%
%TO.N,/GND*%
X128644000Y-51430000D03*
%TO.P,U6,4,SCL*%
%TO.N,/SCK3*%
X128644000Y-53970000D03*
%TO.P,U6,5,SDO*%
%TO.N,/MISO3*%
X128644000Y-56510000D03*
%TO.P,U6,6,SDA*%
%TO.N,/MOSI3*%
X128644000Y-59050000D03*
%TO.P,U6,7,CS*%
%TO.N,/NSS3*%
X128644000Y-61590000D03*
%TO.P,U6,8,INT*%
%TO.N,unconnected-(U6-INT-Pad8)*%
X128644000Y-64130000D03*
%TD*%
D10*
%TO.P,H3,1*%
%TO.N,N/C*%
X183000000Y-44000000D03*
%TD*%
D22*
%TO.N,/MISO2*%
X101638000Y-80015700D03*
%TO.N,/MOSI2*%
X109081000Y-59626200D03*
%TO.N,/SCK4*%
X143752000Y-83289400D03*
%TO.N,/<NO NET>*%
X107000000Y-69500000D03*
%TO.N,/FDBK1*%
X167000000Y-74903876D03*
%TO.N,/UART_RX*%
X87500000Y-71397400D03*
%TO.N,/TIM1*%
X127045000Y-67476000D03*
%TO.N,/CSIMU*%
X140960000Y-66750000D03*
%TO.N,/SCK*%
X99427500Y-50752500D03*
%TO.N,/DIO*%
X108292000Y-77373600D03*
%TD*%
D23*
%TO.N,/MISO2*%
X120000000Y-88660000D02*
X118936000Y-88660000D01*
X103310000Y-82310000D02*
X101638000Y-80637700D01*
X118936000Y-88660000D02*
X112586000Y-82310300D01*
X101638000Y-80637700D02*
X101638000Y-80015700D01*
X112586000Y-82310000D02*
X103310000Y-82310000D01*
X112586000Y-82310300D02*
X112586000Y-82310000D01*
%TO.N,/MOSI2*%
X97691700Y-60500000D02*
X96390000Y-60500000D01*
X98565500Y-59626200D02*
X97691700Y-60500000D01*
X109081000Y-59626200D02*
X98565500Y-59626200D01*
%TO.N,/SCK4*%
X128974000Y-83289400D02*
X143752000Y-83289400D01*
X121064000Y-91200000D02*
X128974000Y-83289400D01*
X120000000Y-91200000D02*
X121064000Y-91200000D01*
%TO.N,/MOSI4*%
X104760000Y-60720000D02*
X105824000Y-60720000D01*
X142213000Y-71291600D02*
X143500000Y-72578300D01*
X143500000Y-72578300D02*
X143500000Y-73880000D01*
X122855000Y-67070000D02*
X127077000Y-71291600D01*
X105824000Y-60720000D02*
X112174000Y-67070000D01*
X112174000Y-67070000D02*
X122855000Y-67070000D01*
X127077000Y-71291600D02*
X142213000Y-71291600D01*
%TO.N,/<NO NET>*%
X103211000Y-69500000D02*
X102051000Y-70660000D01*
X102051000Y-70660000D02*
X96390000Y-70660000D01*
X128644000Y-46552000D02*
X128644000Y-46350000D01*
X107000000Y-69500000D02*
X103211000Y-69500000D01*
%TO.N,/FDBK1*%
X164558000Y-77250000D02*
X114326000Y-77250000D01*
X167000000Y-74903876D02*
X166999752Y-74904124D01*
X113076000Y-78500000D02*
X104760000Y-78500000D01*
X166903876Y-74904124D02*
X164558000Y-77250000D01*
X166999752Y-74904124D02*
X166903876Y-74904124D01*
X114326000Y-77250000D02*
X113076000Y-78500000D01*
%TO.N,/UART_RX*%
X102927000Y-66569600D02*
X103696000Y-65800000D01*
X87500000Y-71397400D02*
X92327800Y-66569600D01*
X92327800Y-66569600D02*
X102927000Y-66569600D01*
X103696000Y-65800000D02*
X104760000Y-65800000D01*
%TO.N,/TIM1*%
X164115000Y-66230000D02*
X162869000Y-67476000D01*
X169115000Y-66230000D02*
X164115000Y-66230000D01*
X162869000Y-67476000D02*
X127045000Y-67476000D01*
%TO.N,/FDBK2*%
X107114000Y-79750000D02*
X169555000Y-79750000D01*
X104760000Y-81040000D02*
X105824000Y-81040000D01*
X105824000Y-81040000D02*
X107114000Y-79750000D01*
X169555000Y-79750000D02*
X169615000Y-79690000D01*
%TO.N,/CSIMU*%
X121064000Y-60720000D02*
X120000000Y-60720000D01*
X140960000Y-66750000D02*
X127094000Y-66750000D01*
X127094000Y-66750000D02*
X121064000Y-60720000D01*
%TO.N,/TIM2*%
X168425000Y-81040000D02*
X169615000Y-82230000D01*
X120000000Y-81040000D02*
X168425000Y-81040000D01*
%TO.N,/MOSI3*%
X128244000Y-59450000D02*
X119050000Y-59450000D01*
X128644000Y-59050000D02*
X128244000Y-59450000D01*
X119050000Y-59450000D02*
X118250000Y-60250000D01*
X118250000Y-60250000D02*
X118250000Y-61510000D01*
X118250000Y-61510000D02*
X120000000Y-63260000D01*
%TO.N,/MISO4*%
X133340000Y-75181700D02*
X133340000Y-75180200D01*
X135880000Y-73880000D02*
X135880000Y-75181700D01*
X133340000Y-75180200D02*
X132020000Y-76500000D01*
X132020000Y-76500000D02*
X121604000Y-76500000D01*
X133340000Y-73880000D02*
X133340000Y-75180200D01*
X121604000Y-76500000D02*
X121064000Y-75960000D01*
X121064000Y-75960000D02*
X120000000Y-75960000D01*
X135880000Y-75181700D02*
X133340000Y-75181700D01*
%TO.N,/7.2V*%
X169527000Y-51160400D02*
X167500000Y-51160400D01*
X167500000Y-48230000D02*
X161350000Y-48230000D01*
X167500000Y-51160400D02*
X167500000Y-48230000D01*
%TO.N,/SCK*%
X100890000Y-49290000D02*
X111110000Y-49290000D01*
X99427500Y-50752500D02*
X100890000Y-49290000D01*
%TO.N,/DIO*%
X85040000Y-86000000D02*
X85000000Y-85960000D01*
X85755000Y-77500000D02*
X84920000Y-78335000D01*
X105298000Y-77500000D02*
X108166000Y-77500000D01*
X105235000Y-77437000D02*
X105298000Y-77500000D01*
X85755000Y-77500000D02*
X104222000Y-77500000D01*
X84920000Y-85500000D02*
X85000000Y-85580000D01*
X84920000Y-78335000D02*
X84920000Y-85500000D01*
X85000000Y-85580000D02*
X85000000Y-85960000D01*
X104285000Y-77437000D02*
X105235000Y-77437000D01*
X104222000Y-77500000D02*
X104285000Y-77437000D01*
X108166000Y-77500000D02*
X108292000Y-77373600D01*
%TD*%
%TA.AperFunction,Conductor*%
%TO.N,/GND*%
G36*
X122621961Y-67690185D02*
G01*
X122642599Y-67706815D01*
X126083622Y-71147511D01*
X126639960Y-71703796D01*
X126708284Y-71772120D01*
X126708298Y-71772128D01*
X126708307Y-71772137D01*
X126711590Y-71774032D01*
X126774207Y-71810180D01*
X126774212Y-71810183D01*
X126845214Y-71851176D01*
X126845237Y-71851185D01*
X126845242Y-71851188D01*
X126845247Y-71851189D01*
X126845291Y-71851207D01*
X126845998Y-71851391D01*
X126926953Y-71873078D01*
X126926967Y-71873081D01*
X126926985Y-71873086D01*
X126997943Y-71892100D01*
X126997956Y-71892100D01*
X126997971Y-71892104D01*
X127088322Y-71892100D01*
X127890904Y-71892100D01*
X127957943Y-71911785D01*
X128003698Y-71964589D01*
X128011948Y-72008395D01*
X128825555Y-72822002D01*
X128702651Y-72911298D01*
X128561298Y-73052651D01*
X128472002Y-73175555D01*
X127661789Y-72365342D01*
X127565481Y-72486110D01*
X127421767Y-72714828D01*
X127304571Y-72958189D01*
X127304569Y-72958193D01*
X127215353Y-73213160D01*
X127215352Y-73213162D01*
X127155245Y-73476509D01*
X127155243Y-73476525D01*
X127125000Y-73744933D01*
X127125000Y-74015066D01*
X127155243Y-74283474D01*
X127155245Y-74283490D01*
X127215352Y-74546837D01*
X127215353Y-74546839D01*
X127304569Y-74801806D01*
X127304571Y-74801810D01*
X127421767Y-75045171D01*
X127565485Y-75273895D01*
X127661788Y-75394657D01*
X128472002Y-74584443D01*
X128561298Y-74707349D01*
X128702651Y-74848702D01*
X128825555Y-74937996D01*
X128015341Y-75748210D01*
X128016484Y-75768548D01*
X128000589Y-75836585D01*
X127950434Y-75885229D01*
X127892679Y-75899500D01*
X121904097Y-75899500D01*
X121837058Y-75879815D01*
X121816416Y-75863181D01*
X121551590Y-75598355D01*
X121551588Y-75598352D01*
X121432717Y-75479481D01*
X121432716Y-75479480D01*
X121345904Y-75429360D01*
X121295785Y-75400423D01*
X121250066Y-75388172D01*
X121241459Y-75384399D01*
X121221618Y-75367729D01*
X121199490Y-75354242D01*
X121193319Y-75346902D01*
X121156786Y-75299873D01*
X121144879Y-75284545D01*
X120917289Y-75056955D01*
X120675462Y-74815128D01*
X120675454Y-74815121D01*
X120675451Y-74815118D01*
X120644747Y-74791266D01*
X120640443Y-74787922D01*
X120599578Y-74731249D01*
X120595840Y-74661480D01*
X120630416Y-74600765D01*
X120640436Y-74592081D01*
X120675455Y-74564879D01*
X121144882Y-74095451D01*
X121196864Y-74028537D01*
X121251940Y-73895570D01*
X121262500Y-73811497D01*
X121262501Y-73028507D01*
X121251940Y-72944431D01*
X121196863Y-72811464D01*
X121144879Y-72744545D01*
X120928543Y-72528209D01*
X120675462Y-72275128D01*
X120675454Y-72275121D01*
X120675451Y-72275118D01*
X120644747Y-72251266D01*
X120640443Y-72247922D01*
X120599578Y-72191249D01*
X120595840Y-72121480D01*
X120630416Y-72060765D01*
X120640436Y-72052081D01*
X120675455Y-72024879D01*
X121144882Y-71555451D01*
X121196864Y-71488537D01*
X121251940Y-71355570D01*
X121262500Y-71271497D01*
X121262501Y-70488507D01*
X121251940Y-70404431D01*
X121196863Y-70271464D01*
X121144879Y-70204545D01*
X120918100Y-69977766D01*
X120675462Y-69735128D01*
X120675454Y-69735121D01*
X120675451Y-69735118D01*
X120644747Y-69711266D01*
X120640443Y-69707922D01*
X120599578Y-69651249D01*
X120595840Y-69581480D01*
X120630416Y-69520765D01*
X120640436Y-69512081D01*
X120675455Y-69484879D01*
X121144882Y-69015451D01*
X121196864Y-68948537D01*
X121251940Y-68815570D01*
X121262500Y-68731497D01*
X121262501Y-67948507D01*
X121251940Y-67864431D01*
X121242628Y-67841952D01*
X121235160Y-67772484D01*
X121266435Y-67710005D01*
X121326523Y-67674352D01*
X121357190Y-67670500D01*
X122554922Y-67670500D01*
X122621961Y-67690185D01*
G37*
%TD.AperFunction*%
%TA.AperFunction,Conductor*%
G36*
X181172054Y-41010043D02*
G01*
X181204721Y-41019005D01*
X181205490Y-41019861D01*
X181206593Y-41020185D01*
X181228749Y-41045754D01*
X181251411Y-41070983D01*
X181251595Y-41072120D01*
X181252348Y-41072989D01*
X181257168Y-41106511D01*
X181262587Y-41139953D01*
X181262128Y-41141007D01*
X181262292Y-41142147D01*
X181248207Y-41172988D01*
X181234701Y-41204017D01*
X181233575Y-41205028D01*
X181233267Y-41205703D01*
X181208445Y-41227602D01*
X181031532Y-41345811D01*
X181031518Y-41345821D01*
X180780841Y-41551546D01*
X180551546Y-41780841D01*
X180345821Y-42031518D01*
X180345811Y-42031532D01*
X180165657Y-42301151D01*
X180165646Y-42301169D01*
X180012788Y-42587145D01*
X180012786Y-42587150D01*
X179888686Y-42886752D01*
X179794548Y-43197086D01*
X179794545Y-43197097D01*
X179731287Y-43515125D01*
X179731284Y-43515142D01*
X179706666Y-43765099D01*
X179699500Y-43837857D01*
X179699500Y-44162143D01*
X179709054Y-44259152D01*
X179731284Y-44484857D01*
X179731287Y-44484874D01*
X179794545Y-44802902D01*
X179794548Y-44802913D01*
X179888686Y-45113247D01*
X180012786Y-45412849D01*
X180012788Y-45412854D01*
X180165646Y-45698830D01*
X180165657Y-45698848D01*
X180345811Y-45968467D01*
X180345821Y-45968481D01*
X180551546Y-46219158D01*
X180780841Y-46448453D01*
X180780846Y-46448457D01*
X180780847Y-46448458D01*
X181031524Y-46654183D01*
X181301158Y-46834347D01*
X181301167Y-46834352D01*
X181301169Y-46834353D01*
X181587145Y-46987211D01*
X181587147Y-46987211D01*
X181587153Y-46987215D01*
X181886754Y-47111314D01*
X182197077Y-47205449D01*
X182197083Y-47205450D01*
X182197086Y-47205451D01*
X182197097Y-47205454D01*
X182396528Y-47245122D01*
X182515132Y-47268714D01*
X182837857Y-47300500D01*
X182837860Y-47300500D01*
X183162140Y-47300500D01*
X183162143Y-47300500D01*
X183484868Y-47268714D01*
X183642295Y-47237399D01*
X183802902Y-47205454D01*
X183802913Y-47205451D01*
X183802913Y-47205450D01*
X183802923Y-47205449D01*
X184113246Y-47111314D01*
X184412847Y-46987215D01*
X184698842Y-46834347D01*
X184968476Y-46654183D01*
X185219153Y-46448458D01*
X185448458Y-46219153D01*
X185654183Y-45968476D01*
X185772398Y-45791554D01*
X185826010Y-45746749D01*
X185895335Y-45738042D01*
X185958362Y-45768196D01*
X185995082Y-45827639D01*
X185999500Y-45860445D01*
X185999500Y-91139554D01*
X185979815Y-91206593D01*
X185927011Y-91252348D01*
X185857853Y-91262292D01*
X185794297Y-91233267D01*
X185772398Y-91208445D01*
X185726366Y-91139554D01*
X185654183Y-91031524D01*
X185448458Y-90780847D01*
X185448457Y-90780846D01*
X185448453Y-90780841D01*
X185219158Y-90551546D01*
X184968481Y-90345821D01*
X184968480Y-90345820D01*
X184968476Y-90345817D01*
X184698842Y-90165653D01*
X184698837Y-90165650D01*
X184698830Y-90165646D01*
X184412854Y-90012788D01*
X184412849Y-90012786D01*
X184389554Y-90003137D01*
X184281838Y-89958519D01*
X184113247Y-89888686D01*
X183802913Y-89794548D01*
X183802902Y-89794545D01*
X183484874Y-89731287D01*
X183484857Y-89731284D01*
X183240812Y-89707248D01*
X183162143Y-89699500D01*
X182837857Y-89699500D01*
X182765099Y-89706666D01*
X182515142Y-89731284D01*
X182515125Y-89731287D01*
X182197097Y-89794545D01*
X182197086Y-89794548D01*
X181886752Y-89888686D01*
X181587150Y-90012786D01*
X181587145Y-90012788D01*
X181301169Y-90165646D01*
X181301151Y-90165657D01*
X181031532Y-90345811D01*
X181031518Y-90345821D01*
X180780841Y-90551546D01*
X180551546Y-90780841D01*
X180345821Y-91031518D01*
X180345811Y-91031532D01*
X180165657Y-91301151D01*
X180165646Y-91301169D01*
X180012788Y-91587145D01*
X180012786Y-91587150D01*
X179888686Y-91886752D01*
X179794548Y-92197086D01*
X179794545Y-92197097D01*
X179731287Y-92515125D01*
X179731284Y-92515142D01*
X179699500Y-92837860D01*
X179699500Y-93162139D01*
X179731284Y-93484857D01*
X179731287Y-93484874D01*
X179794545Y-93802902D01*
X179794548Y-93802913D01*
X179888686Y-94113247D01*
X179931070Y-94215570D01*
X179986146Y-94348536D01*
X180012786Y-94412849D01*
X180012788Y-94412854D01*
X180165646Y-94698830D01*
X180165657Y-94698848D01*
X180237718Y-94806695D01*
X180324694Y-94936864D01*
X180345811Y-94968467D01*
X180345821Y-94968481D01*
X180551546Y-95219158D01*
X180780841Y-95448453D01*
X180780846Y-95448457D01*
X180780847Y-95448458D01*
X181031524Y-95654183D01*
X181208445Y-95772398D01*
X181253250Y-95826010D01*
X181261957Y-95895335D01*
X181231803Y-95958362D01*
X181172360Y-95995082D01*
X181139554Y-95999500D01*
X73860446Y-95999500D01*
X73793407Y-95979815D01*
X73747652Y-95927011D01*
X73737708Y-95857853D01*
X73766733Y-95794297D01*
X73791555Y-95772398D01*
X73968476Y-95654183D01*
X74219153Y-95448458D01*
X74448458Y-95219153D01*
X74654183Y-94968476D01*
X74834347Y-94698842D01*
X74987215Y-94412847D01*
X75111314Y-94113246D01*
X75205449Y-93802923D01*
X75205451Y-93802913D01*
X75205454Y-93802902D01*
X75255105Y-93553285D01*
X75268714Y-93484868D01*
X75300500Y-93162143D01*
X75300500Y-92837857D01*
X75268714Y-92515132D01*
X75234773Y-92344498D01*
X75205454Y-92197097D01*
X75205451Y-92197086D01*
X75205450Y-92197083D01*
X75205449Y-92197077D01*
X75111314Y-91886754D01*
X74987215Y-91587153D01*
X74977353Y-91568703D01*
X74834353Y-91301169D01*
X74834352Y-91301167D01*
X74834347Y-91301158D01*
X74654183Y-91031524D01*
X74448458Y-90780847D01*
X74448457Y-90780846D01*
X74448453Y-90780841D01*
X74219158Y-90551546D01*
X73968481Y-90345821D01*
X73968480Y-90345820D01*
X73968476Y-90345817D01*
X73698842Y-90165653D01*
X73698837Y-90165650D01*
X73698830Y-90165646D01*
X73412854Y-90012788D01*
X73412849Y-90012786D01*
X73389554Y-90003137D01*
X73281838Y-89958519D01*
X73113247Y-89888686D01*
X72802913Y-89794548D01*
X72802902Y-89794545D01*
X72484874Y-89731287D01*
X72484857Y-89731284D01*
X72240812Y-89707248D01*
X72162143Y-89699500D01*
X71837857Y-89699500D01*
X71765099Y-89706666D01*
X71515142Y-89731284D01*
X71515125Y-89731287D01*
X71197097Y-89794545D01*
X71197086Y-89794548D01*
X70886752Y-89888686D01*
X70587150Y-90012786D01*
X70587145Y-90012788D01*
X70301169Y-90165646D01*
X70301151Y-90165657D01*
X70031532Y-90345811D01*
X70031518Y-90345821D01*
X69780841Y-90551546D01*
X69551546Y-90780841D01*
X69345821Y-91031518D01*
X69345811Y-91031532D01*
X69227602Y-91208445D01*
X69173990Y-91253250D01*
X69104665Y-91261957D01*
X69041638Y-91231803D01*
X69004918Y-91172360D01*
X69000500Y-91139554D01*
X69000500Y-84602135D01*
X81029500Y-84602135D01*
X81029500Y-86397870D01*
X81029501Y-86397876D01*
X81035908Y-86457483D01*
X81086202Y-86592328D01*
X81086206Y-86592335D01*
X81172452Y-86707544D01*
X81172455Y-86707547D01*
X81287664Y-86793793D01*
X81287671Y-86793797D01*
X81422517Y-86844091D01*
X81422516Y-86844091D01*
X81429444Y-86844835D01*
X81482127Y-86850500D01*
X83277872Y-86850499D01*
X83337483Y-86844091D01*
X83472331Y-86793796D01*
X83587546Y-86707546D01*
X83673796Y-86592331D01*
X83722810Y-86460916D01*
X83764681Y-86404984D01*
X83830145Y-86380566D01*
X83898418Y-86395417D01*
X83926673Y-86416569D01*
X84040213Y-86530109D01*
X84212179Y-86655048D01*
X84212181Y-86655049D01*
X84212184Y-86655051D01*
X84401588Y-86751557D01*
X84603757Y-86817246D01*
X84813713Y-86850500D01*
X84813714Y-86850500D01*
X85026286Y-86850500D01*
X85026287Y-86850500D01*
X85236243Y-86817246D01*
X85438412Y-86751557D01*
X85627816Y-86655051D01*
X85709681Y-86595573D01*
X85799786Y-86530109D01*
X85799788Y-86530106D01*
X85799792Y-86530104D01*
X85950104Y-86379792D01*
X85950106Y-86379788D01*
X85950109Y-86379786D01*
X86075048Y-86207820D01*
X86075047Y-86207820D01*
X86075051Y-86207816D01*
X86079514Y-86199054D01*
X86127488Y-86148259D01*
X86195308Y-86131463D01*
X86261444Y-86153999D01*
X86300486Y-86199056D01*
X86304951Y-86207820D01*
X86429890Y-86379786D01*
X86580213Y-86530109D01*
X86752179Y-86655048D01*
X86752181Y-86655049D01*
X86752184Y-86655051D01*
X86941588Y-86751557D01*
X87143757Y-86817246D01*
X87353713Y-86850500D01*
X87353714Y-86850500D01*
X87566286Y-86850500D01*
X87566287Y-86850500D01*
X87776243Y-86817246D01*
X87978412Y-86751557D01*
X88167816Y-86655051D01*
X88249681Y-86595573D01*
X88339786Y-86530109D01*
X88339788Y-86530106D01*
X88339792Y-86530104D01*
X88490104Y-86379792D01*
X88490106Y-86379788D01*
X88490109Y-86379786D01*
X88615048Y-86207820D01*
X88615047Y-86207820D01*
X88615051Y-86207816D01*
X88619514Y-86199054D01*
X88667488Y-86148259D01*
X88735308Y-86131463D01*
X88801444Y-86153999D01*
X88840486Y-86199056D01*
X88844951Y-86207820D01*
X88969890Y-86379786D01*
X89120213Y-86530109D01*
X89292179Y-86655048D01*
X89292181Y-86655049D01*
X89292184Y-86655051D01*
X89481588Y-86751557D01*
X89683757Y-86817246D01*
X89893713Y-86850500D01*
X89893714Y-86850500D01*
X90106286Y-86850500D01*
X90106287Y-86850500D01*
X90316243Y-86817246D01*
X90518412Y-86751557D01*
X90707816Y-86655051D01*
X90789681Y-86595573D01*
X90879786Y-86530109D01*
X90879788Y-86530106D01*
X90879792Y-86530104D01*
X91030104Y-86379792D01*
X91030106Y-86379788D01*
X91030109Y-86379786D01*
X91155048Y-86207820D01*
X91155047Y-86207820D01*
X91155051Y-86207816D01*
X91159514Y-86199054D01*
X91207488Y-86148259D01*
X91275308Y-86131463D01*
X91341444Y-86153999D01*
X91380486Y-86199056D01*
X91384951Y-86207820D01*
X91509890Y-86379786D01*
X91660213Y-86530109D01*
X91832179Y-86655048D01*
X91832181Y-86655049D01*
X91832184Y-86655051D01*
X92021588Y-86751557D01*
X92223757Y-86817246D01*
X92433713Y-86850500D01*
X92433714Y-86850500D01*
X92646286Y-86850500D01*
X92646287Y-86850500D01*
X92856243Y-86817246D01*
X93058412Y-86751557D01*
X93247816Y-86655051D01*
X93329681Y-86595573D01*
X93419786Y-86530109D01*
X93419788Y-86530106D01*
X93419792Y-86530104D01*
X93570104Y-86379792D01*
X93570106Y-86379788D01*
X93570109Y-86379786D01*
X93655890Y-86261717D01*
X93695051Y-86207816D01*
X93699793Y-86198508D01*
X93747763Y-86147711D01*
X93815583Y-86130911D01*
X93881719Y-86153445D01*
X93920763Y-86198500D01*
X93925373Y-86207547D01*
X93964728Y-86261716D01*
X94597037Y-85629408D01*
X94614075Y-85692993D01*
X94679901Y-85807007D01*
X94772993Y-85900099D01*
X94887007Y-85965925D01*
X94950590Y-85982962D01*
X94318282Y-86615269D01*
X94318282Y-86615270D01*
X94372449Y-86654624D01*
X94561782Y-86751095D01*
X94763870Y-86816757D01*
X94973754Y-86850000D01*
X95186246Y-86850000D01*
X95396127Y-86816757D01*
X95396130Y-86816757D01*
X95598217Y-86751095D01*
X95787554Y-86654622D01*
X95841716Y-86615270D01*
X95841717Y-86615270D01*
X95209408Y-85982962D01*
X95272993Y-85965925D01*
X95387007Y-85900099D01*
X95480099Y-85807007D01*
X95545925Y-85692993D01*
X95562962Y-85629409D01*
X96195270Y-86261717D01*
X96195270Y-86261716D01*
X96234622Y-86207554D01*
X96331095Y-86018217D01*
X96396757Y-85816130D01*
X96396757Y-85816127D01*
X96430000Y-85606246D01*
X96430000Y-85393753D01*
X96396757Y-85183872D01*
X96396757Y-85183869D01*
X96331095Y-84981782D01*
X96234624Y-84792449D01*
X96195270Y-84738282D01*
X96195269Y-84738282D01*
X95562962Y-85370590D01*
X95545925Y-85307007D01*
X95480099Y-85192993D01*
X95387007Y-85099901D01*
X95272993Y-85034075D01*
X95209409Y-85017037D01*
X95841716Y-84384728D01*
X95787550Y-84345375D01*
X95598217Y-84248904D01*
X95396129Y-84183242D01*
X95186246Y-84150000D01*
X94973754Y-84150000D01*
X94763872Y-84183242D01*
X94763869Y-84183242D01*
X94561782Y-84248904D01*
X94372439Y-84345380D01*
X94318282Y-84384727D01*
X94318282Y-84384728D01*
X94950591Y-85017037D01*
X94887007Y-85034075D01*
X94772993Y-85099901D01*
X94679901Y-85192993D01*
X94614075Y-85307007D01*
X94597037Y-85370591D01*
X93964728Y-84738282D01*
X93964727Y-84738282D01*
X93925380Y-84792440D01*
X93925376Y-84792446D01*
X93920760Y-84801505D01*
X93872781Y-84852297D01*
X93804959Y-84869087D01*
X93738826Y-84846543D01*
X93699794Y-84801493D01*
X93695051Y-84792184D01*
X93695049Y-84792181D01*
X93695048Y-84792179D01*
X93570109Y-84620213D01*
X93419786Y-84469890D01*
X93247820Y-84344951D01*
X93058414Y-84248444D01*
X93058413Y-84248443D01*
X93058412Y-84248443D01*
X92856243Y-84182754D01*
X92856241Y-84182753D01*
X92856240Y-84182753D01*
X92694957Y-84157208D01*
X92646287Y-84149500D01*
X92433713Y-84149500D01*
X92385042Y-84157208D01*
X92223760Y-84182753D01*
X92021585Y-84248444D01*
X91832179Y-84344951D01*
X91660213Y-84469890D01*
X91509890Y-84620213D01*
X91384949Y-84792182D01*
X91380484Y-84800946D01*
X91332509Y-84851742D01*
X91264688Y-84868536D01*
X91198553Y-84845998D01*
X91159516Y-84800946D01*
X91155050Y-84792182D01*
X91030109Y-84620213D01*
X90879786Y-84469890D01*
X90707820Y-84344951D01*
X90518414Y-84248444D01*
X90518413Y-84248443D01*
X90518412Y-84248443D01*
X90316243Y-84182754D01*
X90316241Y-84182753D01*
X90316240Y-84182753D01*
X90154957Y-84157208D01*
X90106287Y-84149500D01*
X89893713Y-84149500D01*
X89845042Y-84157208D01*
X89683760Y-84182753D01*
X89481585Y-84248444D01*
X89292179Y-84344951D01*
X89120213Y-84469890D01*
X88969890Y-84620213D01*
X88844949Y-84792182D01*
X88840484Y-84800946D01*
X88792509Y-84851742D01*
X88724688Y-84868536D01*
X88658553Y-84845998D01*
X88619516Y-84800946D01*
X88615050Y-84792182D01*
X88490109Y-84620213D01*
X88339786Y-84469890D01*
X88167820Y-84344951D01*
X87978414Y-84248444D01*
X87978413Y-84248443D01*
X87978412Y-84248443D01*
X87776243Y-84182754D01*
X87776241Y-84182753D01*
X87776240Y-84182753D01*
X87614957Y-84157208D01*
X87566287Y-84149500D01*
X87353713Y-84149500D01*
X87305042Y-84157208D01*
X87143760Y-84182753D01*
X86941585Y-84248444D01*
X86752179Y-84344951D01*
X86580213Y-84469890D01*
X86429890Y-84620213D01*
X86304949Y-84792182D01*
X86300484Y-84800946D01*
X86252509Y-84851742D01*
X86184688Y-84868536D01*
X86118553Y-84845998D01*
X86079516Y-84800946D01*
X86075050Y-84792182D01*
X85950109Y-84620213D01*
X85799786Y-84469890D01*
X85627815Y-84344948D01*
X85627814Y-84344947D01*
X85588205Y-84324765D01*
X85537409Y-84276791D01*
X85520500Y-84214281D01*
X85520500Y-78635097D01*
X85540185Y-78568058D01*
X85556819Y-78547416D01*
X85967416Y-78136819D01*
X86028739Y-78103334D01*
X86055097Y-78100500D01*
X103373500Y-78100500D01*
X103440539Y-78120185D01*
X103486294Y-78172989D01*
X103497499Y-78224499D01*
X103497499Y-78568058D01*
X103497499Y-78891491D01*
X103497499Y-78891494D01*
X103508059Y-78975566D01*
X103508060Y-78975570D01*
X103563136Y-79108535D01*
X103563137Y-79108536D01*
X103615121Y-79175455D01*
X103615125Y-79175459D01*
X103615126Y-79175460D01*
X104084537Y-79644871D01*
X104084556Y-79644888D01*
X104119555Y-79672077D01*
X104160421Y-79728749D01*
X104164159Y-79798519D01*
X104129583Y-79859234D01*
X104119555Y-79867924D01*
X104084547Y-79895119D01*
X104084539Y-79895126D01*
X103615128Y-80364537D01*
X103615111Y-80364556D01*
X103563136Y-80431461D01*
X103563135Y-80431462D01*
X103508061Y-80564426D01*
X103508059Y-80564433D01*
X103497500Y-80648499D01*
X103497499Y-80648506D01*
X103497499Y-81348821D01*
X103477814Y-81415861D01*
X103425010Y-81461615D01*
X103355852Y-81471559D01*
X103292296Y-81442534D01*
X103285810Y-81436494D01*
X102375794Y-80526315D01*
X102342314Y-80464989D01*
X102347305Y-80395298D01*
X102348922Y-80391189D01*
X102407737Y-80249197D01*
X102438500Y-80094542D01*
X102438500Y-79936858D01*
X102438500Y-79936855D01*
X102438499Y-79936853D01*
X102430198Y-79895121D01*
X102407737Y-79782203D01*
X102372389Y-79696864D01*
X102347397Y-79636527D01*
X102347390Y-79636514D01*
X102259789Y-79505411D01*
X102259786Y-79505407D01*
X102148292Y-79393913D01*
X102148288Y-79393910D01*
X102017185Y-79306309D01*
X102017172Y-79306302D01*
X101871501Y-79245964D01*
X101871489Y-79245961D01*
X101716845Y-79215200D01*
X101716842Y-79215200D01*
X101559158Y-79215200D01*
X101559155Y-79215200D01*
X101404510Y-79245961D01*
X101404498Y-79245964D01*
X101258827Y-79306302D01*
X101258814Y-79306309D01*
X101127711Y-79393910D01*
X101127707Y-79393913D01*
X101016213Y-79505407D01*
X101016210Y-79505411D01*
X100928609Y-79636514D01*
X100928602Y-79636527D01*
X100868264Y-79782198D01*
X100868261Y-79782210D01*
X100837500Y-79936853D01*
X100837500Y-80094546D01*
X100868261Y-80249189D01*
X100868264Y-80249201D01*
X100928602Y-80394872D01*
X100928609Y-80394885D01*
X101016602Y-80526574D01*
X101022252Y-80544620D01*
X101032477Y-80560530D01*
X101036928Y-80591489D01*
X101037480Y-80593251D01*
X101037500Y-80595465D01*
X101037500Y-80632387D01*
X101037491Y-80716704D01*
X101037497Y-80716746D01*
X101055900Y-80785426D01*
X101055901Y-80785437D01*
X101055903Y-80785437D01*
X101078403Y-80869437D01*
X101078420Y-80869478D01*
X101078422Y-80869482D01*
X101078423Y-80869484D01*
X101094625Y-80897547D01*
X101119741Y-80941049D01*
X101119743Y-80941058D01*
X101119745Y-80941058D01*
X101157445Y-81006369D01*
X101157476Y-81006409D01*
X101157480Y-81006416D01*
X101218765Y-81067701D01*
X102829464Y-82678689D01*
X102829480Y-82678716D01*
X102891071Y-82740307D01*
X102899175Y-82748412D01*
X102941242Y-82790487D01*
X102941255Y-82790497D01*
X102941282Y-82790518D01*
X102941284Y-82790520D01*
X103010522Y-82830494D01*
X103010529Y-82830502D01*
X103010531Y-82830500D01*
X103078167Y-82869557D01*
X103078210Y-82869575D01*
X103078214Y-82869576D01*
X103078216Y-82869577D01*
X103153820Y-82889834D01*
X103153831Y-82889841D01*
X103153832Y-82889838D01*
X103230889Y-82910493D01*
X103230894Y-82910493D01*
X103230941Y-82910499D01*
X103230943Y-82910500D01*
X103230944Y-82910500D01*
X103309946Y-82910500D01*
X103389003Y-82910507D01*
X103389005Y-82910506D01*
X103397097Y-82910507D01*
X103397220Y-82910500D01*
X103402810Y-82910500D01*
X103469849Y-82930185D01*
X103515604Y-82982989D01*
X103525548Y-83052147D01*
X103517372Y-83081946D01*
X103511120Y-83097041D01*
X103508060Y-83104429D01*
X103508059Y-83104433D01*
X103497500Y-83188499D01*
X103497499Y-83188506D01*
X103497499Y-83971494D01*
X103508059Y-84055566D01*
X103508060Y-84055570D01*
X103563136Y-84188535D01*
X103574738Y-84203470D01*
X103615121Y-84255455D01*
X103615125Y-84255459D01*
X103615126Y-84255460D01*
X104084537Y-84724871D01*
X104084556Y-84724888D01*
X104119555Y-84752077D01*
X104160421Y-84808749D01*
X104164159Y-84878519D01*
X104129583Y-84939234D01*
X104119555Y-84947924D01*
X104084547Y-84975119D01*
X104084539Y-84975126D01*
X103615128Y-85444537D01*
X103615111Y-85444556D01*
X103563136Y-85511461D01*
X103563135Y-85511462D01*
X103508061Y-85644426D01*
X103508059Y-85644433D01*
X103497500Y-85728499D01*
X103497499Y-85728506D01*
X103497499Y-86511494D01*
X103508059Y-86595566D01*
X103508060Y-86595570D01*
X103563136Y-86728535D01*
X103574738Y-86743470D01*
X103615121Y-86795455D01*
X103615125Y-86795459D01*
X103615126Y-86795460D01*
X104084537Y-87264871D01*
X104084556Y-87264888D01*
X104119555Y-87292077D01*
X104160421Y-87348749D01*
X104164159Y-87418519D01*
X104129583Y-87479234D01*
X104119555Y-87487924D01*
X104084547Y-87515119D01*
X104084539Y-87515126D01*
X103615128Y-87984537D01*
X103615111Y-87984556D01*
X103563136Y-88051461D01*
X103563135Y-88051462D01*
X103508061Y-88184426D01*
X103508059Y-88184433D01*
X103497500Y-88268499D01*
X103497499Y-88268506D01*
X103497499Y-89051494D01*
X103508059Y-89135566D01*
X103508060Y-89135570D01*
X103563136Y-89268535D01*
X103566681Y-89273098D01*
X103615121Y-89335455D01*
X103615125Y-89335459D01*
X103615126Y-89335460D01*
X104084537Y-89804871D01*
X104084556Y-89804888D01*
X104119963Y-89832394D01*
X104160829Y-89889066D01*
X104164567Y-89958836D01*
X104129991Y-90019551D01*
X104119963Y-90028240D01*
X104084887Y-90055488D01*
X104084869Y-90055504D01*
X103615503Y-90524870D01*
X103615492Y-90524883D01*
X103563570Y-90591721D01*
X103563570Y-90591722D01*
X103508549Y-90724555D01*
X103498000Y-90808538D01*
X103498000Y-90950000D01*
X104471184Y-90950000D01*
X104455124Y-90966060D01*
X104404964Y-91052939D01*
X104379000Y-91149840D01*
X104379000Y-91250160D01*
X104404964Y-91347061D01*
X104455124Y-91433940D01*
X104471184Y-91450000D01*
X103498001Y-91450000D01*
X103498001Y-91591454D01*
X103508548Y-91675444D01*
X103563570Y-91808277D01*
X103615499Y-91875124D01*
X103615504Y-91875130D01*
X104084870Y-92344496D01*
X104084880Y-92344505D01*
X104119961Y-92371756D01*
X104160828Y-92428428D01*
X104164569Y-92498197D01*
X104129995Y-92558913D01*
X104119964Y-92567606D01*
X104084548Y-92595118D01*
X104084539Y-92595126D01*
X103615128Y-93064537D01*
X103615111Y-93064556D01*
X103563136Y-93131461D01*
X103563135Y-93131462D01*
X103508061Y-93264426D01*
X103508059Y-93264433D01*
X103497500Y-93348499D01*
X103497499Y-93348506D01*
X103497499Y-94131494D01*
X103508059Y-94215566D01*
X103508060Y-94215570D01*
X103563136Y-94348535D01*
X103574738Y-94363470D01*
X103615121Y-94415455D01*
X103615125Y-94415459D01*
X103615126Y-94415460D01*
X104084537Y-94884871D01*
X104084556Y-94884888D01*
X104151461Y-94936863D01*
X104151462Y-94936864D01*
X104224179Y-94966983D01*
X104284430Y-94991940D01*
X104368503Y-95002500D01*
X105151493Y-95002501D01*
X105235569Y-94991940D01*
X105368536Y-94936863D01*
X105435455Y-94884879D01*
X105904882Y-94415451D01*
X105956864Y-94348537D01*
X106011940Y-94215570D01*
X106022500Y-94131497D01*
X106022501Y-93348507D01*
X106011940Y-93264431D01*
X105956863Y-93131464D01*
X105904879Y-93064545D01*
X105678191Y-92837857D01*
X105435462Y-92595128D01*
X105435454Y-92595121D01*
X105435451Y-92595118D01*
X105400035Y-92567605D01*
X105359170Y-92510932D01*
X105355432Y-92441163D01*
X105390008Y-92380448D01*
X105400038Y-92371756D01*
X105435127Y-92344498D01*
X105904496Y-91875129D01*
X105904507Y-91875116D01*
X105956429Y-91808278D01*
X105956429Y-91808277D01*
X106011450Y-91675444D01*
X106021999Y-91591461D01*
X106022000Y-91591455D01*
X106022000Y-91450000D01*
X105048816Y-91450000D01*
X105064876Y-91433940D01*
X105115036Y-91347061D01*
X105141000Y-91250160D01*
X105141000Y-91149840D01*
X105115036Y-91052939D01*
X105064876Y-90966060D01*
X105048816Y-90950000D01*
X106021999Y-90950000D01*
X106021999Y-90808545D01*
X106011451Y-90724555D01*
X105956429Y-90591722D01*
X105904500Y-90524875D01*
X105904495Y-90524869D01*
X105435126Y-90055500D01*
X105400037Y-90028243D01*
X105359171Y-89971571D01*
X105355430Y-89901801D01*
X105390004Y-89841085D01*
X105400035Y-89832394D01*
X105435455Y-89804879D01*
X105904882Y-89335451D01*
X105956864Y-89268537D01*
X106011940Y-89135570D01*
X106022500Y-89051497D01*
X106022501Y-88268507D01*
X106011940Y-88184431D01*
X105956863Y-88051464D01*
X105904879Y-87984545D01*
X105689879Y-87769545D01*
X105435462Y-87515128D01*
X105435454Y-87515121D01*
X105435451Y-87515118D01*
X105404747Y-87491266D01*
X105400443Y-87487922D01*
X105359578Y-87431249D01*
X105355840Y-87361480D01*
X105390416Y-87300765D01*
X105400436Y-87292081D01*
X105435455Y-87264879D01*
X105904882Y-86795451D01*
X105956864Y-86728537D01*
X106011940Y-86595570D01*
X106022500Y-86511497D01*
X106022501Y-85728507D01*
X106011940Y-85644431D01*
X105956863Y-85511464D01*
X105904879Y-85444545D01*
X105748746Y-85288412D01*
X105435462Y-84975128D01*
X105435454Y-84975121D01*
X105435451Y-84975118D01*
X105404747Y-84951266D01*
X105400443Y-84947922D01*
X105359578Y-84891249D01*
X105355840Y-84821480D01*
X105390416Y-84760765D01*
X105400436Y-84752081D01*
X105435455Y-84724879D01*
X105904882Y-84255451D01*
X105956864Y-84188537D01*
X106011940Y-84055570D01*
X106022500Y-83971497D01*
X106022501Y-83188507D01*
X106011940Y-83104431D01*
X106002628Y-83081952D01*
X105995160Y-83012484D01*
X106026435Y-82950005D01*
X106086523Y-82914352D01*
X106117190Y-82910500D01*
X112285613Y-82910500D01*
X112352652Y-82930185D01*
X112373290Y-82946815D01*
X118503736Y-89076972D01*
X118567284Y-89140520D01*
X118567291Y-89140524D01*
X118567295Y-89140528D01*
X118570439Y-89142343D01*
X118621650Y-89171908D01*
X118621651Y-89171909D01*
X118652092Y-89189484D01*
X118704216Y-89219577D01*
X118704220Y-89219578D01*
X118704224Y-89219580D01*
X118704227Y-89219580D01*
X118704229Y-89219582D01*
X118704860Y-89219751D01*
X118705094Y-89219814D01*
X118705117Y-89219820D01*
X118740848Y-89229393D01*
X118800508Y-89265756D01*
X118806679Y-89273095D01*
X118855121Y-89335455D01*
X118855125Y-89335459D01*
X118855126Y-89335460D01*
X119324537Y-89804871D01*
X119324556Y-89804888D01*
X119359555Y-89832077D01*
X119400421Y-89888749D01*
X119404159Y-89958519D01*
X119369583Y-90019234D01*
X119359555Y-90027924D01*
X119324547Y-90055119D01*
X119324539Y-90055126D01*
X118855128Y-90524537D01*
X118855111Y-90524556D01*
X118803136Y-90591461D01*
X118803135Y-90591462D01*
X118748061Y-90724426D01*
X118748059Y-90724433D01*
X118737500Y-90808499D01*
X118737499Y-90808506D01*
X118737499Y-91591494D01*
X118748059Y-91675566D01*
X118748060Y-91675570D01*
X118803136Y-91808535D01*
X118803137Y-91808536D01*
X118855121Y-91875455D01*
X118855125Y-91875459D01*
X118855126Y-91875460D01*
X119247977Y-92268311D01*
X119281462Y-92329634D01*
X119276478Y-92399326D01*
X119234606Y-92455259D01*
X119173552Y-92479281D01*
X119130519Y-92483907D01*
X118995671Y-92534202D01*
X118995664Y-92534206D01*
X118880455Y-92620452D01*
X118880452Y-92620455D01*
X118794206Y-92735664D01*
X118794202Y-92735671D01*
X118743908Y-92870517D01*
X118737501Y-92930116D01*
X118737501Y-92930123D01*
X118737500Y-92930135D01*
X118737500Y-94549870D01*
X118737501Y-94549876D01*
X118743908Y-94609483D01*
X118794202Y-94744328D01*
X118794206Y-94744335D01*
X118880452Y-94859544D01*
X118880455Y-94859547D01*
X118995664Y-94945793D01*
X118995671Y-94945797D01*
X119130517Y-94996091D01*
X119130516Y-94996091D01*
X119137444Y-94996835D01*
X119190127Y-95002500D01*
X120809872Y-95002499D01*
X120869483Y-94996091D01*
X121004331Y-94945796D01*
X121119546Y-94859546D01*
X121205796Y-94744331D01*
X121256091Y-94609483D01*
X121262500Y-94549873D01*
X121262499Y-92930128D01*
X121256091Y-92870517D01*
X121205796Y-92735669D01*
X121205795Y-92735668D01*
X121205793Y-92735664D01*
X121119547Y-92620455D01*
X121119544Y-92620452D01*
X121004335Y-92534206D01*
X121004328Y-92534202D01*
X120869482Y-92483908D01*
X120869484Y-92483908D01*
X120826446Y-92479281D01*
X120761895Y-92452542D01*
X120722048Y-92395149D01*
X120719555Y-92325324D01*
X120752020Y-92268312D01*
X121144882Y-91875451D01*
X121193325Y-91813092D01*
X121211575Y-91799932D01*
X121226711Y-91783284D01*
X121246294Y-91774898D01*
X121249996Y-91772229D01*
X121259155Y-91769391D01*
X121294955Y-91759799D01*
X121295770Y-91759587D01*
X121295800Y-91759569D01*
X121295806Y-91759568D01*
X121356803Y-91724347D01*
X121432716Y-91680520D01*
X121432718Y-91680517D01*
X121432721Y-91680516D01*
X121432730Y-91680507D01*
X121432734Y-91680505D01*
X121472315Y-91640920D01*
X121544520Y-91568716D01*
X121544521Y-91568713D01*
X121550893Y-91562342D01*
X121550925Y-91562304D01*
X124128101Y-88984933D01*
X127125000Y-88984933D01*
X127125000Y-89255066D01*
X127155243Y-89523474D01*
X127155245Y-89523490D01*
X127215352Y-89786837D01*
X127215353Y-89786839D01*
X127304569Y-90041806D01*
X127304571Y-90041810D01*
X127421767Y-90285171D01*
X127565485Y-90513895D01*
X127661788Y-90634657D01*
X128472002Y-89824443D01*
X128561298Y-89947349D01*
X128702651Y-90088702D01*
X128825555Y-90177996D01*
X128015341Y-90988210D01*
X128136104Y-91084514D01*
X128364828Y-91228232D01*
X128608189Y-91345428D01*
X128608193Y-91345430D01*
X128863160Y-91434646D01*
X128863162Y-91434647D01*
X129126509Y-91494754D01*
X129126525Y-91494756D01*
X129394933Y-91524999D01*
X129394934Y-91525000D01*
X129665066Y-91525000D01*
X129665066Y-91524999D01*
X129933474Y-91494756D01*
X129933490Y-91494754D01*
X130196837Y-91434647D01*
X130196839Y-91434646D01*
X130451806Y-91345430D01*
X130451810Y-91345428D01*
X130695171Y-91228232D01*
X130923895Y-91084515D01*
X131044657Y-90988209D01*
X130234444Y-90177997D01*
X130357349Y-90088702D01*
X130498702Y-89947349D01*
X130587997Y-89824444D01*
X131398209Y-90634657D01*
X131494515Y-90513895D01*
X131638232Y-90285171D01*
X131755428Y-90041810D01*
X131755430Y-90041806D01*
X131844646Y-89786839D01*
X131844647Y-89786837D01*
X131904754Y-89523490D01*
X131904756Y-89523474D01*
X131934999Y-89255066D01*
X131935000Y-89255066D01*
X131935000Y-88984934D01*
X131934999Y-88984933D01*
X131904756Y-88716525D01*
X131904754Y-88716513D01*
X131890968Y-88656110D01*
X131890968Y-88656109D01*
X131885782Y-88633389D01*
X137319500Y-88633389D01*
X137319500Y-89606610D01*
X137339246Y-89731286D01*
X137346598Y-89777701D01*
X137400127Y-89942445D01*
X137478768Y-90096788D01*
X137580586Y-90236928D01*
X137703072Y-90359414D01*
X137843212Y-90461232D01*
X137997555Y-90539873D01*
X138162299Y-90593402D01*
X138333389Y-90620500D01*
X138333390Y-90620500D01*
X138506610Y-90620500D01*
X138506611Y-90620500D01*
X138677701Y-90593402D01*
X138842445Y-90539873D01*
X138996788Y-90461232D01*
X139136928Y-90359414D01*
X139259414Y-90236928D01*
X139361232Y-90096788D01*
X139439873Y-89942445D01*
X139493402Y-89777701D01*
X139520500Y-89606611D01*
X139520500Y-88633389D01*
X139859500Y-88633389D01*
X139859500Y-89606610D01*
X139879246Y-89731286D01*
X139886598Y-89777701D01*
X139940127Y-89942445D01*
X140018768Y-90096788D01*
X140120586Y-90236928D01*
X140243072Y-90359414D01*
X140383212Y-90461232D01*
X140537555Y-90539873D01*
X140702299Y-90593402D01*
X140873389Y-90620500D01*
X140873390Y-90620500D01*
X141046610Y-90620500D01*
X141046611Y-90620500D01*
X141217701Y-90593402D01*
X141382445Y-90539873D01*
X141536788Y-90461232D01*
X141676928Y-90359414D01*
X141799414Y-90236928D01*
X141901232Y-90096788D01*
X141979873Y-89942445D01*
X142033402Y-89777701D01*
X142060500Y-89606611D01*
X142060500Y-88633389D01*
X142399500Y-88633389D01*
X142399500Y-89606610D01*
X142419246Y-89731286D01*
X142426598Y-89777701D01*
X142480127Y-89942445D01*
X142558768Y-90096788D01*
X142660586Y-90236928D01*
X142783072Y-90359414D01*
X142923212Y-90461232D01*
X143077555Y-90539873D01*
X143242299Y-90593402D01*
X143413389Y-90620500D01*
X143413390Y-90620500D01*
X143586610Y-90620500D01*
X143586611Y-90620500D01*
X143757701Y-90593402D01*
X143922445Y-90539873D01*
X144076788Y-90461232D01*
X144216928Y-90359414D01*
X144339414Y-90236928D01*
X144441232Y-90096788D01*
X144519873Y-89942445D01*
X144573402Y-89777701D01*
X144600500Y-89606611D01*
X144600500Y-88633389D01*
X144939500Y-88633389D01*
X144939500Y-89606610D01*
X144959246Y-89731286D01*
X144966598Y-89777701D01*
X145020127Y-89942445D01*
X145098768Y-90096788D01*
X145200586Y-90236928D01*
X145323072Y-90359414D01*
X145463212Y-90461232D01*
X145617555Y-90539873D01*
X145782299Y-90593402D01*
X145953389Y-90620500D01*
X145953390Y-90620500D01*
X146126610Y-90620500D01*
X146126611Y-90620500D01*
X146297701Y-90593402D01*
X146462445Y-90539873D01*
X146616788Y-90461232D01*
X146756928Y-90359414D01*
X146879414Y-90236928D01*
X146981232Y-90096788D01*
X147059873Y-89942445D01*
X147113402Y-89777701D01*
X147140500Y-89606611D01*
X147140500Y-88633389D01*
X147479500Y-88633389D01*
X147479500Y-89606610D01*
X147499246Y-89731286D01*
X147506598Y-89777701D01*
X147560127Y-89942445D01*
X147638768Y-90096788D01*
X147740586Y-90236928D01*
X147863072Y-90359414D01*
X148003212Y-90461232D01*
X148157555Y-90539873D01*
X148322299Y-90593402D01*
X148493389Y-90620500D01*
X148493390Y-90620500D01*
X148666610Y-90620500D01*
X148666611Y-90620500D01*
X148837701Y-90593402D01*
X149002445Y-90539873D01*
X149156788Y-90461232D01*
X149296928Y-90359414D01*
X149419414Y-90236928D01*
X149521232Y-90096788D01*
X149599873Y-89942445D01*
X149653402Y-89777701D01*
X149680500Y-89606611D01*
X149680500Y-88984933D01*
X155065000Y-88984933D01*
X155065000Y-89255066D01*
X155095243Y-89523474D01*
X155095245Y-89523490D01*
X155155352Y-89786837D01*
X155155353Y-89786839D01*
X155244569Y-90041806D01*
X155244571Y-90041810D01*
X155361767Y-90285171D01*
X155505485Y-90513895D01*
X155601788Y-90634657D01*
X156412002Y-89824443D01*
X156501298Y-89947349D01*
X156642651Y-90088702D01*
X156765555Y-90177996D01*
X155955341Y-90988210D01*
X156076104Y-91084514D01*
X156304828Y-91228232D01*
X156548189Y-91345428D01*
X156548193Y-91345430D01*
X156803160Y-91434646D01*
X156803162Y-91434647D01*
X157066509Y-91494754D01*
X157066525Y-91494756D01*
X157334933Y-91524999D01*
X157334934Y-91525000D01*
X157605066Y-91525000D01*
X157605066Y-91524999D01*
X157873474Y-91494756D01*
X157873490Y-91494754D01*
X158136837Y-91434647D01*
X158136839Y-91434646D01*
X158391806Y-91345430D01*
X158391810Y-91345428D01*
X158635171Y-91228232D01*
X158863895Y-91084515D01*
X158984657Y-90988209D01*
X158174444Y-90177997D01*
X158297349Y-90088702D01*
X158438702Y-89947349D01*
X158527996Y-89824444D01*
X159338209Y-90634657D01*
X159434515Y-90513895D01*
X159578232Y-90285171D01*
X159695428Y-90041810D01*
X159695430Y-90041806D01*
X159784646Y-89786839D01*
X159784647Y-89786837D01*
X159844754Y-89523490D01*
X159844756Y-89523474D01*
X159874999Y-89255066D01*
X159875000Y-89255066D01*
X159875000Y-88984934D01*
X159874999Y-88984933D01*
X159844756Y-88716525D01*
X159844754Y-88716509D01*
X159784647Y-88453162D01*
X159784643Y-88453150D01*
X159772685Y-88418977D01*
X159772681Y-88418965D01*
X159695430Y-88198193D01*
X159695428Y-88198189D01*
X159578232Y-87954828D01*
X159434514Y-87726104D01*
X159338210Y-87605341D01*
X158527996Y-88415554D01*
X158438702Y-88292651D01*
X158297349Y-88151298D01*
X158174443Y-88062001D01*
X158984656Y-87251789D01*
X158984656Y-87251788D01*
X158863895Y-87155485D01*
X158635171Y-87011767D01*
X158391810Y-86894571D01*
X158391806Y-86894569D01*
X158136839Y-86805353D01*
X158136837Y-86805352D01*
X157873490Y-86745245D01*
X157873474Y-86745243D01*
X157605066Y-86715000D01*
X157334934Y-86715000D01*
X157066525Y-86745243D01*
X157066509Y-86745245D01*
X156803162Y-86805352D01*
X156803160Y-86805353D01*
X156548193Y-86894569D01*
X156548189Y-86894571D01*
X156304828Y-87011767D01*
X156076110Y-87155481D01*
X155955342Y-87251789D01*
X156765555Y-88062002D01*
X156642651Y-88151298D01*
X156501298Y-88292651D01*
X156412002Y-88415555D01*
X155601789Y-87605342D01*
X155505481Y-87726110D01*
X155361767Y-87954828D01*
X155244571Y-88198189D01*
X155244569Y-88198193D01*
X155155353Y-88453160D01*
X155155352Y-88453162D01*
X155095245Y-88716509D01*
X155095243Y-88716525D01*
X155065000Y-88984933D01*
X149680500Y-88984933D01*
X149680500Y-88633389D01*
X149653402Y-88462299D01*
X149599873Y-88297555D01*
X149521232Y-88143212D01*
X149419414Y-88003072D01*
X149296928Y-87880586D01*
X149156788Y-87778768D01*
X149002445Y-87700127D01*
X148837701Y-87646598D01*
X148837699Y-87646597D01*
X148837698Y-87646597D01*
X148706271Y-87625781D01*
X148666611Y-87619500D01*
X148493389Y-87619500D01*
X148453728Y-87625781D01*
X148322302Y-87646597D01*
X148157552Y-87700128D01*
X148003211Y-87778768D01*
X147923256Y-87836859D01*
X147863072Y-87880586D01*
X147863070Y-87880588D01*
X147863069Y-87880588D01*
X147740588Y-88003069D01*
X147740588Y-88003070D01*
X147740586Y-88003072D01*
X147705428Y-88051463D01*
X147638768Y-88143211D01*
X147560128Y-88297552D01*
X147506597Y-88462302D01*
X147479500Y-88633389D01*
X147140500Y-88633389D01*
X147113402Y-88462299D01*
X147059873Y-88297555D01*
X146981232Y-88143212D01*
X146879414Y-88003072D01*
X146756928Y-87880586D01*
X146616788Y-87778768D01*
X146462445Y-87700127D01*
X146297701Y-87646598D01*
X146297699Y-87646597D01*
X146297698Y-87646597D01*
X146166271Y-87625781D01*
X146126611Y-87619500D01*
X145953389Y-87619500D01*
X145913728Y-87625781D01*
X145782302Y-87646597D01*
X145617552Y-87700128D01*
X145463211Y-87778768D01*
X145383256Y-87836859D01*
X145323072Y-87880586D01*
X145323070Y-87880588D01*
X145323069Y-87880588D01*
X145200588Y-88003069D01*
X145200588Y-88003070D01*
X145200586Y-88003072D01*
X145165428Y-88051463D01*
X145098768Y-88143211D01*
X145020128Y-88297552D01*
X144966597Y-88462302D01*
X144939500Y-88633389D01*
X144600500Y-88633389D01*
X144573402Y-88462299D01*
X144519873Y-88297555D01*
X144441232Y-88143212D01*
X144339414Y-88003072D01*
X144216928Y-87880586D01*
X144076788Y-87778768D01*
X143922445Y-87700127D01*
X143757701Y-87646598D01*
X143757699Y-87646597D01*
X143757698Y-87646597D01*
X143626271Y-87625781D01*
X143586611Y-87619500D01*
X143413389Y-87619500D01*
X143373728Y-87625781D01*
X143242302Y-87646597D01*
X143077552Y-87700128D01*
X142923211Y-87778768D01*
X142843256Y-87836859D01*
X142783072Y-87880586D01*
X142783070Y-87880588D01*
X142783069Y-87880588D01*
X142660588Y-88003069D01*
X142660588Y-88003070D01*
X142660586Y-88003072D01*
X142625428Y-88051463D01*
X142558768Y-88143211D01*
X142480128Y-88297552D01*
X142426597Y-88462302D01*
X142399500Y-88633389D01*
X142060500Y-88633389D01*
X142033402Y-88462299D01*
X141979873Y-88297555D01*
X141901232Y-88143212D01*
X141799414Y-88003072D01*
X141676928Y-87880586D01*
X141536788Y-87778768D01*
X141382445Y-87700127D01*
X141217701Y-87646598D01*
X141217699Y-87646597D01*
X141217698Y-87646597D01*
X141086271Y-87625781D01*
X141046611Y-87619500D01*
X140873389Y-87619500D01*
X140833728Y-87625781D01*
X140702302Y-87646597D01*
X140537552Y-87700128D01*
X140383211Y-87778768D01*
X140303256Y-87836859D01*
X140243072Y-87880586D01*
X140243070Y-87880588D01*
X140243069Y-87880588D01*
X140120588Y-88003069D01*
X140120588Y-88003070D01*
X140120586Y-88003072D01*
X140085428Y-88051463D01*
X140018768Y-88143211D01*
X139940128Y-88297552D01*
X139886597Y-88462302D01*
X139859500Y-88633389D01*
X139520500Y-88633389D01*
X139493402Y-88462299D01*
X139439873Y-88297555D01*
X139361232Y-88143212D01*
X139259414Y-88003072D01*
X139136928Y-87880586D01*
X138996788Y-87778768D01*
X138842445Y-87700127D01*
X138677701Y-87646598D01*
X138677699Y-87646597D01*
X138677698Y-87646597D01*
X138546271Y-87625781D01*
X138506611Y-87619500D01*
X138333389Y-87619500D01*
X138293728Y-87625781D01*
X138162302Y-87646597D01*
X137997552Y-87700128D01*
X137843211Y-87778768D01*
X137763256Y-87836859D01*
X137703072Y-87880586D01*
X137703070Y-87880588D01*
X137703069Y-87880588D01*
X137580588Y-88003069D01*
X137580588Y-88003070D01*
X137580586Y-88003072D01*
X137545428Y-88051463D01*
X137478768Y-88143211D01*
X137400128Y-88297552D01*
X137346597Y-88462302D01*
X137319500Y-88633389D01*
X131885782Y-88633389D01*
X131844647Y-88453162D01*
X131844646Y-88453160D01*
X131755430Y-88198193D01*
X131755428Y-88198189D01*
X131638232Y-87954828D01*
X131494514Y-87726104D01*
X131398210Y-87605341D01*
X130587996Y-88415554D01*
X130498702Y-88292651D01*
X130357349Y-88151298D01*
X130234443Y-88062001D01*
X131044657Y-87251788D01*
X130923895Y-87155485D01*
X130695171Y-87011767D01*
X130451810Y-86894571D01*
X130451806Y-86894569D01*
X130196839Y-86805353D01*
X130196837Y-86805352D01*
X129933490Y-86745245D01*
X129933474Y-86745243D01*
X129665066Y-86715000D01*
X129394934Y-86715000D01*
X129126525Y-86745243D01*
X129126509Y-86745245D01*
X128863162Y-86805352D01*
X128863160Y-86805353D01*
X128608193Y-86894569D01*
X128608189Y-86894571D01*
X128364828Y-87011767D01*
X128136110Y-87155481D01*
X128015342Y-87251789D01*
X128825555Y-88062002D01*
X128702651Y-88151298D01*
X128561298Y-88292651D01*
X128472002Y-88415555D01*
X127661789Y-87605342D01*
X127565481Y-87726110D01*
X127421767Y-87954828D01*
X127304571Y-88198189D01*
X127304569Y-88198193D01*
X127215353Y-88453160D01*
X127215352Y-88453162D01*
X127155245Y-88716509D01*
X127155243Y-88716525D01*
X127125000Y-88984933D01*
X124128101Y-88984933D01*
X128280780Y-84831940D01*
X129186430Y-83926222D01*
X129247752Y-83892735D01*
X129274115Y-83889900D01*
X143172234Y-83889900D01*
X143239273Y-83909585D01*
X143241125Y-83910798D01*
X143372814Y-83998790D01*
X143372827Y-83998797D01*
X143518498Y-84059135D01*
X143518503Y-84059137D01*
X143673153Y-84089899D01*
X143673156Y-84089900D01*
X143673158Y-84089900D01*
X143830844Y-84089900D01*
X143830845Y-84089899D01*
X143985497Y-84059137D01*
X144131179Y-83998794D01*
X144262289Y-83911189D01*
X144373789Y-83799689D01*
X144461394Y-83668579D01*
X144521737Y-83522897D01*
X144552500Y-83368242D01*
X144552500Y-83210558D01*
X144552500Y-83210555D01*
X144552499Y-83210553D01*
X144548114Y-83188507D01*
X144521737Y-83055903D01*
X144520181Y-83052147D01*
X144461397Y-82910227D01*
X144461390Y-82910214D01*
X144373789Y-82779111D01*
X144373786Y-82779107D01*
X144262292Y-82667613D01*
X144262288Y-82667610D01*
X144131185Y-82580009D01*
X144131172Y-82580002D01*
X143985501Y-82519664D01*
X143985489Y-82519661D01*
X143830845Y-82488900D01*
X143830842Y-82488900D01*
X143673158Y-82488900D01*
X143673155Y-82488900D01*
X143518510Y-82519661D01*
X143518498Y-82519664D01*
X143372827Y-82580002D01*
X143372814Y-82580009D01*
X143241125Y-82668002D01*
X143174447Y-82688880D01*
X143172234Y-82688900D01*
X129053050Y-82688900D01*
X129053035Y-82688896D01*
X128947625Y-82688900D01*
X128894943Y-82688900D01*
X128894941Y-82688900D01*
X128894921Y-82688901D01*
X128894914Y-82688902D01*
X128808148Y-82712155D01*
X128808031Y-82712187D01*
X128807444Y-82712345D01*
X128742216Y-82729823D01*
X128742205Y-82729828D01*
X128742194Y-82729832D01*
X128739665Y-82731292D01*
X128739662Y-82731293D01*
X128673127Y-82769709D01*
X128672860Y-82769864D01*
X128672851Y-82769870D01*
X128605284Y-82808880D01*
X128605275Y-82808888D01*
X128605266Y-82808894D01*
X128604270Y-82809889D01*
X128604268Y-82809891D01*
X128552577Y-82861586D01*
X128552576Y-82861587D01*
X128489665Y-82924499D01*
X128489640Y-82924527D01*
X121105215Y-90309513D01*
X121043893Y-90343000D01*
X120974201Y-90338018D01*
X120929849Y-90309516D01*
X120675462Y-90055128D01*
X120675454Y-90055121D01*
X120675451Y-90055118D01*
X120640852Y-90028240D01*
X120640443Y-90027922D01*
X120599578Y-89971249D01*
X120595840Y-89901480D01*
X120630416Y-89840765D01*
X120640436Y-89832081D01*
X120675455Y-89804879D01*
X121144882Y-89335451D01*
X121196864Y-89268537D01*
X121251940Y-89135570D01*
X121262500Y-89051497D01*
X121262501Y-88268507D01*
X121251940Y-88184431D01*
X121196863Y-88051464D01*
X121144879Y-87984545D01*
X120929879Y-87769545D01*
X120675462Y-87515128D01*
X120675454Y-87515121D01*
X120675451Y-87515118D01*
X120644747Y-87491266D01*
X120640443Y-87487922D01*
X120599578Y-87431249D01*
X120595840Y-87361480D01*
X120630416Y-87300765D01*
X120640436Y-87292081D01*
X120675455Y-87264879D01*
X121144882Y-86795451D01*
X121196864Y-86728537D01*
X121251940Y-86595570D01*
X121262500Y-86511497D01*
X121262501Y-85728507D01*
X121251940Y-85644431D01*
X121196863Y-85511464D01*
X121144879Y-85444545D01*
X120988746Y-85288412D01*
X120675462Y-84975128D01*
X120675454Y-84975121D01*
X120675451Y-84975118D01*
X120644747Y-84951266D01*
X120640443Y-84947922D01*
X120599578Y-84891249D01*
X120595840Y-84821480D01*
X120630416Y-84760765D01*
X120640436Y-84752081D01*
X120675455Y-84724879D01*
X121144882Y-84255451D01*
X121196864Y-84188537D01*
X121251940Y-84055570D01*
X121262500Y-83971497D01*
X121262501Y-83188507D01*
X121251940Y-83104431D01*
X121196863Y-82971464D01*
X121144879Y-82904545D01*
X120913507Y-82673173D01*
X120675462Y-82435128D01*
X120675454Y-82435121D01*
X120675451Y-82435118D01*
X120644747Y-82411266D01*
X120640443Y-82407922D01*
X120599578Y-82351249D01*
X120595840Y-82281480D01*
X120630416Y-82220765D01*
X120640436Y-82212081D01*
X120675455Y-82184879D01*
X121144882Y-81715451D01*
X121165875Y-81688426D01*
X121222547Y-81647563D01*
X121263798Y-81640500D01*
X168124903Y-81640500D01*
X168154343Y-81649144D01*
X168184330Y-81655668D01*
X168189345Y-81659422D01*
X168191942Y-81660185D01*
X168212584Y-81676819D01*
X168281241Y-81745476D01*
X168314726Y-81806799D01*
X168311492Y-81871473D01*
X168297753Y-81913757D01*
X168264500Y-82123713D01*
X168264500Y-82336286D01*
X168293543Y-82519661D01*
X168297754Y-82546243D01*
X168351662Y-82712155D01*
X168363444Y-82748414D01*
X168459951Y-82937820D01*
X168584890Y-83109786D01*
X168735213Y-83260109D01*
X168907182Y-83385050D01*
X168915946Y-83389516D01*
X168966742Y-83437491D01*
X168983536Y-83505312D01*
X168960998Y-83571447D01*
X168915946Y-83610484D01*
X168907182Y-83614949D01*
X168735213Y-83739890D01*
X168584890Y-83890213D01*
X168459951Y-84062179D01*
X168363444Y-84251585D01*
X168297753Y-84453760D01*
X168264500Y-84663713D01*
X168264500Y-84876286D01*
X168280153Y-84975119D01*
X168297754Y-85086243D01*
X168332439Y-85192993D01*
X168363444Y-85288414D01*
X168459951Y-85477820D01*
X168584890Y-85649786D01*
X168735213Y-85800109D01*
X168907179Y-85925048D01*
X168907181Y-85925049D01*
X168907184Y-85925051D01*
X168916493Y-85929794D01*
X168967290Y-85977766D01*
X168984087Y-86045587D01*
X168961552Y-86111722D01*
X168916505Y-86150760D01*
X168907446Y-86155376D01*
X168907440Y-86155380D01*
X168853282Y-86194727D01*
X168853282Y-86194728D01*
X169485591Y-86827037D01*
X169422007Y-86844075D01*
X169307993Y-86909901D01*
X169214901Y-87002993D01*
X169149075Y-87117007D01*
X169132037Y-87180591D01*
X168499728Y-86548282D01*
X168499727Y-86548282D01*
X168460380Y-86602439D01*
X168363904Y-86791782D01*
X168298242Y-86993869D01*
X168298242Y-86993872D01*
X168265000Y-87203753D01*
X168265000Y-87416246D01*
X168298242Y-87626127D01*
X168298242Y-87626130D01*
X168363904Y-87828217D01*
X168460375Y-88017550D01*
X168499728Y-88071716D01*
X169132037Y-87439408D01*
X169149075Y-87502993D01*
X169214901Y-87617007D01*
X169307993Y-87710099D01*
X169422007Y-87775925D01*
X169485590Y-87792962D01*
X168853282Y-88425269D01*
X168853282Y-88425270D01*
X168907449Y-88464624D01*
X169096782Y-88561095D01*
X169298870Y-88626757D01*
X169508754Y-88660000D01*
X169721246Y-88660000D01*
X169931127Y-88626757D01*
X169931130Y-88626757D01*
X170133217Y-88561095D01*
X170322554Y-88464622D01*
X170376716Y-88425270D01*
X170376717Y-88425270D01*
X169744408Y-87792962D01*
X169807993Y-87775925D01*
X169922007Y-87710099D01*
X170015099Y-87617007D01*
X170080925Y-87502993D01*
X170097962Y-87439408D01*
X170730270Y-88071717D01*
X170730270Y-88071716D01*
X170769622Y-88017554D01*
X170866095Y-87828217D01*
X170931757Y-87626130D01*
X170931757Y-87626127D01*
X170965000Y-87416246D01*
X170965000Y-87203753D01*
X170931757Y-86993872D01*
X170931757Y-86993869D01*
X170866095Y-86791782D01*
X170769624Y-86602449D01*
X170730270Y-86548282D01*
X170730269Y-86548282D01*
X170097962Y-87180590D01*
X170080925Y-87117007D01*
X170015099Y-87002993D01*
X169922007Y-86909901D01*
X169807993Y-86844075D01*
X169744409Y-86827037D01*
X170376716Y-86194728D01*
X170322547Y-86155373D01*
X170322547Y-86155372D01*
X170313500Y-86150763D01*
X170262706Y-86102788D01*
X170245912Y-86034966D01*
X170268451Y-85968832D01*
X170313508Y-85929793D01*
X170322816Y-85925051D01*
X170421224Y-85853554D01*
X170494786Y-85800109D01*
X170494788Y-85800106D01*
X170494792Y-85800104D01*
X170645104Y-85649792D01*
X170645106Y-85649788D01*
X170645109Y-85649786D01*
X170770048Y-85477820D01*
X170770047Y-85477820D01*
X170770051Y-85477816D01*
X170866557Y-85288412D01*
X170932246Y-85086243D01*
X170965500Y-84876287D01*
X170965500Y-84663713D01*
X170932246Y-84453757D01*
X170866557Y-84251588D01*
X170770051Y-84062184D01*
X170770049Y-84062181D01*
X170770048Y-84062179D01*
X170645109Y-83890213D01*
X170494786Y-83739890D01*
X170322820Y-83614951D01*
X170322115Y-83614591D01*
X170314054Y-83610485D01*
X170263259Y-83562512D01*
X170246463Y-83494692D01*
X170268999Y-83428556D01*
X170314054Y-83389515D01*
X170322816Y-83385051D01*
X170345952Y-83368242D01*
X170494786Y-83260109D01*
X170494788Y-83260106D01*
X170494792Y-83260104D01*
X170645104Y-83109792D01*
X170645106Y-83109788D01*
X170645109Y-83109786D01*
X170770048Y-82937820D01*
X170770047Y-82937820D01*
X170770051Y-82937816D01*
X170866557Y-82748412D01*
X170932246Y-82546243D01*
X170965500Y-82336287D01*
X170965500Y-82123713D01*
X170932246Y-81913757D01*
X170866557Y-81711588D01*
X170770051Y-81522184D01*
X170770049Y-81522181D01*
X170770048Y-81522179D01*
X170645109Y-81350213D01*
X170531569Y-81236673D01*
X170498084Y-81175350D01*
X170503068Y-81105658D01*
X170544940Y-81049725D01*
X170575915Y-81032810D01*
X170707331Y-80983796D01*
X170822546Y-80897546D01*
X170908796Y-80782331D01*
X170959091Y-80647483D01*
X170965500Y-80587873D01*
X170965499Y-78792128D01*
X170959091Y-78732517D01*
X170908796Y-78597669D01*
X170908795Y-78597668D01*
X170908793Y-78597664D01*
X170822547Y-78482455D01*
X170822544Y-78482452D01*
X170707335Y-78396206D01*
X170707328Y-78396202D01*
X170572482Y-78345908D01*
X170572483Y-78345908D01*
X170512883Y-78339501D01*
X170512881Y-78339500D01*
X170512873Y-78339500D01*
X170512864Y-78339500D01*
X168717129Y-78339500D01*
X168717123Y-78339501D01*
X168657516Y-78345908D01*
X168522671Y-78396202D01*
X168522664Y-78396206D01*
X168407455Y-78482452D01*
X168407452Y-78482455D01*
X168321206Y-78597664D01*
X168321202Y-78597671D01*
X168270908Y-78732517D01*
X168264501Y-78792116D01*
X168264501Y-78792123D01*
X168264500Y-78792135D01*
X168264500Y-79025500D01*
X168244815Y-79092539D01*
X168192011Y-79138294D01*
X168140500Y-79149500D01*
X121365475Y-79149500D01*
X121298436Y-79129815D01*
X121252681Y-79077011D01*
X121242737Y-79007853D01*
X121250912Y-78978053D01*
X121251405Y-78976859D01*
X121251940Y-78975570D01*
X121262500Y-78891497D01*
X121262501Y-78108507D01*
X121251940Y-78024431D01*
X121250914Y-78021956D01*
X121250662Y-78019605D01*
X121249812Y-78016395D01*
X121250302Y-78016265D01*
X121243443Y-77952488D01*
X121274716Y-77890007D01*
X121334804Y-77854353D01*
X121365474Y-77850500D01*
X164471331Y-77850500D01*
X164471347Y-77850501D01*
X164478943Y-77850501D01*
X164637054Y-77850501D01*
X164637057Y-77850501D01*
X164789785Y-77809577D01*
X164848941Y-77775423D01*
X164926716Y-77730520D01*
X165038520Y-77618716D01*
X165038520Y-77618714D01*
X165048724Y-77608511D01*
X165048727Y-77608506D01*
X166916541Y-75740695D01*
X166977864Y-75707210D01*
X167004222Y-75704376D01*
X167078844Y-75704376D01*
X167078845Y-75704375D01*
X167233497Y-75673613D01*
X167379179Y-75613270D01*
X167510289Y-75525665D01*
X167621789Y-75414165D01*
X167709394Y-75283055D01*
X167718631Y-75260756D01*
X167757521Y-75166865D01*
X167769737Y-75137373D01*
X167800500Y-74982718D01*
X167800500Y-74825034D01*
X167800500Y-74825031D01*
X167800499Y-74825029D01*
X167788188Y-74763137D01*
X167769737Y-74670379D01*
X167740902Y-74600765D01*
X167709397Y-74524703D01*
X167709390Y-74524690D01*
X167621789Y-74393587D01*
X167621786Y-74393583D01*
X167510292Y-74282089D01*
X167510288Y-74282086D01*
X167379185Y-74194485D01*
X167379172Y-74194478D01*
X167233501Y-74134140D01*
X167233489Y-74134137D01*
X167078845Y-74103376D01*
X167078842Y-74103376D01*
X166921158Y-74103376D01*
X166921155Y-74103376D01*
X166766510Y-74134137D01*
X166766498Y-74134140D01*
X166620827Y-74194478D01*
X166620814Y-74194485D01*
X166489711Y-74282086D01*
X166489707Y-74282089D01*
X166378213Y-74393583D01*
X166378210Y-74393587D01*
X166290609Y-74524690D01*
X166290602Y-74524703D01*
X166230263Y-74670376D01*
X166230262Y-74670381D01*
X166223168Y-74706043D01*
X166190782Y-74767953D01*
X166189232Y-74769530D01*
X164345584Y-76613181D01*
X164284261Y-76646666D01*
X164257903Y-76649500D01*
X133019171Y-76649500D01*
X132952132Y-76629815D01*
X132906377Y-76577011D01*
X132896433Y-76507853D01*
X132925458Y-76444297D01*
X132931496Y-76437812D01*
X133550891Y-75818511D01*
X133612216Y-75785032D01*
X133638565Y-75782200D01*
X135959055Y-75782200D01*
X135959057Y-75782200D01*
X136111784Y-75741277D01*
X136248716Y-75662220D01*
X136360520Y-75550416D01*
X136439577Y-75413484D01*
X136480500Y-75260757D01*
X136480500Y-75260748D01*
X136481561Y-75252697D01*
X136484635Y-75253101D01*
X136500185Y-75200145D01*
X136531609Y-75166870D01*
X136596928Y-75119414D01*
X136719414Y-74996928D01*
X136821232Y-74856788D01*
X136899873Y-74702445D01*
X136953402Y-74537701D01*
X136980500Y-74366611D01*
X136980500Y-73393389D01*
X137319500Y-73393389D01*
X137319500Y-74366610D01*
X137346579Y-74537585D01*
X137346598Y-74537701D01*
X137400127Y-74702445D01*
X137478768Y-74856788D01*
X137580586Y-74996928D01*
X137703072Y-75119414D01*
X137843212Y-75221232D01*
X137997555Y-75299873D01*
X138162299Y-75353402D01*
X138333389Y-75380500D01*
X138333390Y-75380500D01*
X138506610Y-75380500D01*
X138506611Y-75380500D01*
X138677701Y-75353402D01*
X138842445Y-75299873D01*
X138996788Y-75221232D01*
X139136928Y-75119414D01*
X139259414Y-74996928D01*
X139361232Y-74856788D01*
X139439873Y-74702445D01*
X139493402Y-74537701D01*
X139520500Y-74366611D01*
X139520500Y-73393389D01*
X139859500Y-73393389D01*
X139859500Y-74366610D01*
X139886579Y-74537585D01*
X139886598Y-74537701D01*
X139940127Y-74702445D01*
X140018768Y-74856788D01*
X140120586Y-74996928D01*
X140243072Y-75119414D01*
X140383212Y-75221232D01*
X140537555Y-75299873D01*
X140702299Y-75353402D01*
X140873389Y-75380500D01*
X140873390Y-75380500D01*
X141046610Y-75380500D01*
X141046611Y-75380500D01*
X141217701Y-75353402D01*
X141382445Y-75299873D01*
X141536788Y-75221232D01*
X141676928Y-75119414D01*
X141799414Y-74996928D01*
X141901232Y-74856788D01*
X141979873Y-74702445D01*
X142033402Y-74537701D01*
X142060500Y-74366611D01*
X142060500Y-73393389D01*
X142033402Y-73222299D01*
X141979873Y-73057555D01*
X141901232Y-72903212D01*
X141799414Y-72763072D01*
X141676928Y-72640586D01*
X141536788Y-72538768D01*
X141474480Y-72507021D01*
X141382447Y-72460128D01*
X141382446Y-72460127D01*
X141382445Y-72460127D01*
X141217701Y-72406598D01*
X141217699Y-72406597D01*
X141217698Y-72406597D01*
X141086271Y-72385781D01*
X141046611Y-72379500D01*
X140873389Y-72379500D01*
X140833728Y-72385781D01*
X140702302Y-72406597D01*
X140537552Y-72460128D01*
X140383211Y-72538768D01*
X140316960Y-72586903D01*
X140243072Y-72640586D01*
X140243070Y-72640588D01*
X140243069Y-72640588D01*
X140120588Y-72763069D01*
X140120588Y-72763070D01*
X140120586Y-72763072D01*
X140085428Y-72811463D01*
X140018768Y-72903211D01*
X139940128Y-73057552D01*
X139886597Y-73222302D01*
X139859500Y-73393389D01*
X139520500Y-73393389D01*
X139493402Y-73222299D01*
X139439873Y-73057555D01*
X139361232Y-72903212D01*
X139259414Y-72763072D01*
X139136928Y-72640586D01*
X138996788Y-72538768D01*
X138934480Y-72507021D01*
X138842447Y-72460128D01*
X138842446Y-72460127D01*
X138842445Y-72460127D01*
X138677701Y-72406598D01*
X138677699Y-72406597D01*
X138677698Y-72406597D01*
X138546271Y-72385781D01*
X138506611Y-72379500D01*
X138333389Y-72379500D01*
X138293728Y-72385781D01*
X138162302Y-72406597D01*
X137997552Y-72460128D01*
X137843211Y-72538768D01*
X137776960Y-72586903D01*
X137703072Y-72640586D01*
X137703070Y-72640588D01*
X137703069Y-72640588D01*
X137580588Y-72763069D01*
X137580588Y-72763070D01*
X137580586Y-72763072D01*
X137545428Y-72811463D01*
X137478768Y-72903211D01*
X137400128Y-73057552D01*
X137346597Y-73222302D01*
X137319500Y-73393389D01*
X136980500Y-73393389D01*
X136953402Y-73222299D01*
X136899873Y-73057555D01*
X136821232Y-72903212D01*
X136719414Y-72763072D01*
X136596928Y-72640586D01*
X136456788Y-72538768D01*
X136394480Y-72507021D01*
X136302447Y-72460128D01*
X136302446Y-72460127D01*
X136302445Y-72460127D01*
X136137701Y-72406598D01*
X136137699Y-72406597D01*
X136137698Y-72406597D01*
X136006271Y-72385781D01*
X135966611Y-72379500D01*
X135793389Y-72379500D01*
X135753728Y-72385781D01*
X135622302Y-72406597D01*
X135457552Y-72460128D01*
X135303211Y-72538768D01*
X135236960Y-72586903D01*
X135163072Y-72640586D01*
X135163070Y-72640588D01*
X135163069Y-72640588D01*
X135040588Y-72763069D01*
X135040588Y-72763070D01*
X135040586Y-72763072D01*
X135005428Y-72811463D01*
X134938768Y-72903211D01*
X134860128Y-73057552D01*
X134806597Y-73222302D01*
X134779500Y-73393389D01*
X134779500Y-74366609D01*
X134790776Y-74437802D01*
X134788380Y-74456342D01*
X134791041Y-74474847D01*
X134783995Y-74490274D01*
X134781822Y-74507095D01*
X134769782Y-74521397D01*
X134762016Y-74538403D01*
X134747748Y-74547572D01*
X134736826Y-74560547D01*
X134718965Y-74566069D01*
X134703238Y-74576177D01*
X134671534Y-74580735D01*
X134670074Y-74581187D01*
X134668303Y-74581200D01*
X134551697Y-74581200D01*
X134484658Y-74561515D01*
X134438903Y-74508711D01*
X134428959Y-74439553D01*
X134429224Y-74437802D01*
X134440500Y-74366609D01*
X134440500Y-73393389D01*
X134413421Y-73222420D01*
X134413402Y-73222299D01*
X134359873Y-73057555D01*
X134281232Y-72903212D01*
X134179414Y-72763072D01*
X134056928Y-72640586D01*
X133916788Y-72538768D01*
X133854480Y-72507021D01*
X133762447Y-72460128D01*
X133762446Y-72460127D01*
X133762445Y-72460127D01*
X133597701Y-72406598D01*
X133597699Y-72406597D01*
X133597698Y-72406597D01*
X133466271Y-72385781D01*
X133426611Y-72379500D01*
X133253389Y-72379500D01*
X133213728Y-72385781D01*
X133082302Y-72406597D01*
X132917552Y-72460128D01*
X132763211Y-72538768D01*
X132696960Y-72586903D01*
X132623072Y-72640586D01*
X132623070Y-72640588D01*
X132623069Y-72640588D01*
X132500588Y-72763069D01*
X132500588Y-72763070D01*
X132500586Y-72763072D01*
X132465428Y-72811463D01*
X132398768Y-72903211D01*
X132320128Y-73057552D01*
X132266597Y-73222302D01*
X132239500Y-73393389D01*
X132239500Y-74366610D01*
X132266579Y-74537585D01*
X132266598Y-74537701D01*
X132320127Y-74702445D01*
X132398768Y-74856788D01*
X132500586Y-74996928D01*
X132500593Y-74996935D01*
X132503750Y-75000632D01*
X132502665Y-75001558D01*
X132533082Y-75057262D01*
X132528098Y-75126954D01*
X132499591Y-75171308D01*
X131807609Y-75863188D01*
X131746283Y-75896668D01*
X131719934Y-75899500D01*
X131167320Y-75899500D01*
X131100281Y-75879815D01*
X131054526Y-75827011D01*
X131043515Y-75768548D01*
X131044657Y-75748209D01*
X130234444Y-74937997D01*
X130357349Y-74848702D01*
X130498702Y-74707349D01*
X130587997Y-74584444D01*
X131398209Y-75394657D01*
X131494515Y-75273895D01*
X131638232Y-75045171D01*
X131755428Y-74801810D01*
X131755430Y-74801806D01*
X131844646Y-74546839D01*
X131844647Y-74546837D01*
X131904754Y-74283490D01*
X131904756Y-74283474D01*
X131934999Y-74015066D01*
X131935000Y-74015066D01*
X131935000Y-73744934D01*
X131934999Y-73744933D01*
X131904756Y-73476525D01*
X131904754Y-73476509D01*
X131844647Y-73213162D01*
X131844646Y-73213160D01*
X131755430Y-72958193D01*
X131755428Y-72958189D01*
X131638232Y-72714828D01*
X131494514Y-72486104D01*
X131398210Y-72365341D01*
X130587996Y-73175554D01*
X130498702Y-73052651D01*
X130357349Y-72911298D01*
X130234443Y-72822001D01*
X131048916Y-72007529D01*
X131061186Y-71955014D01*
X131111342Y-71906371D01*
X131169095Y-71892100D01*
X141912952Y-71892100D01*
X141979991Y-71911785D01*
X142000623Y-71928409D01*
X142660320Y-72587954D01*
X142693812Y-72649273D01*
X142688836Y-72718965D01*
X142663191Y-72758879D01*
X142663755Y-72759361D01*
X142660590Y-72763066D01*
X142558768Y-72903211D01*
X142480128Y-73057552D01*
X142426597Y-73222302D01*
X142399500Y-73393389D01*
X142399500Y-74366610D01*
X142426579Y-74537585D01*
X142426598Y-74537701D01*
X142480127Y-74702445D01*
X142558768Y-74856788D01*
X142660586Y-74996928D01*
X142783072Y-75119414D01*
X142923212Y-75221232D01*
X143077555Y-75299873D01*
X143242299Y-75353402D01*
X143413389Y-75380500D01*
X143413390Y-75380500D01*
X143586610Y-75380500D01*
X143586611Y-75380500D01*
X143757701Y-75353402D01*
X143922445Y-75299873D01*
X144076788Y-75221232D01*
X144216928Y-75119414D01*
X144339414Y-74996928D01*
X144441232Y-74856788D01*
X144519873Y-74702445D01*
X144573402Y-74537701D01*
X144600500Y-74366611D01*
X144600500Y-73393389D01*
X144939500Y-73393389D01*
X144939500Y-74366610D01*
X144966579Y-74537585D01*
X144966598Y-74537701D01*
X145020127Y-74702445D01*
X145098768Y-74856788D01*
X145200586Y-74996928D01*
X145323072Y-75119414D01*
X145463212Y-75221232D01*
X145617555Y-75299873D01*
X145782299Y-75353402D01*
X145953389Y-75380500D01*
X145953390Y-75380500D01*
X146126610Y-75380500D01*
X146126611Y-75380500D01*
X146297701Y-75353402D01*
X146462445Y-75299873D01*
X146616788Y-75221232D01*
X146756928Y-75119414D01*
X146879414Y-74996928D01*
X146981232Y-74856788D01*
X147059873Y-74702445D01*
X147113402Y-74537701D01*
X147140500Y-74366611D01*
X147140500Y-73393428D01*
X147480000Y-73393428D01*
X147480000Y-74366571D01*
X147507086Y-74537585D01*
X147507086Y-74537588D01*
X147522235Y-74584211D01*
X147522236Y-74584211D01*
X148180000Y-73926447D01*
X148180000Y-73932661D01*
X148207259Y-74034394D01*
X148259920Y-74125606D01*
X148334394Y-74200080D01*
X148425606Y-74252741D01*
X148527339Y-74280000D01*
X148533552Y-74280000D01*
X147778958Y-75034593D01*
X147863397Y-75119032D01*
X148003475Y-75220804D01*
X148157742Y-75299408D01*
X148322415Y-75352914D01*
X148493429Y-75380000D01*
X148666571Y-75380000D01*
X148837584Y-75352914D01*
X149002257Y-75299408D01*
X149156524Y-75220804D01*
X149296601Y-75119033D01*
X149381041Y-75034592D01*
X148626448Y-74280000D01*
X148632661Y-74280000D01*
X148734394Y-74252741D01*
X148825606Y-74200080D01*
X148900080Y-74125606D01*
X148952741Y-74034394D01*
X148980000Y-73932661D01*
X148980000Y-73926448D01*
X149637762Y-74584211D01*
X149637763Y-74584211D01*
X149652913Y-74537585D01*
X149652914Y-74537582D01*
X149680000Y-74366571D01*
X149680000Y-73393428D01*
X149679994Y-73393389D01*
X150019500Y-73393389D01*
X150019500Y-74366610D01*
X150046579Y-74537585D01*
X150046598Y-74537701D01*
X150100127Y-74702445D01*
X150178768Y-74856788D01*
X150280586Y-74996928D01*
X150403072Y-75119414D01*
X150543212Y-75221232D01*
X150697555Y-75299873D01*
X150862299Y-75353402D01*
X151033389Y-75380500D01*
X151033390Y-75380500D01*
X151206610Y-75380500D01*
X151206611Y-75380500D01*
X151377701Y-75353402D01*
X151542445Y-75299873D01*
X151696788Y-75221232D01*
X151836928Y-75119414D01*
X151959414Y-74996928D01*
X152061232Y-74856788D01*
X152139873Y-74702445D01*
X152193402Y-74537701D01*
X152220500Y-74366611D01*
X152220500Y-73393389D01*
X152559500Y-73393389D01*
X152559500Y-74366610D01*
X152586579Y-74537585D01*
X152586598Y-74537701D01*
X152640127Y-74702445D01*
X152718768Y-74856788D01*
X152820586Y-74996928D01*
X152943072Y-75119414D01*
X153083212Y-75221232D01*
X153237555Y-75299873D01*
X153402299Y-75353402D01*
X153573389Y-75380500D01*
X153573390Y-75380500D01*
X153746610Y-75380500D01*
X153746611Y-75380500D01*
X153917701Y-75353402D01*
X154082445Y-75299873D01*
X154236788Y-75221232D01*
X154376928Y-75119414D01*
X154499414Y-74996928D01*
X154601232Y-74856788D01*
X154679873Y-74702445D01*
X154733402Y-74537701D01*
X154760500Y-74366611D01*
X154760500Y-73744933D01*
X155065000Y-73744933D01*
X155065000Y-74015066D01*
X155095243Y-74283474D01*
X155095245Y-74283490D01*
X155155352Y-74546837D01*
X155155353Y-74546839D01*
X155244569Y-74801806D01*
X155244571Y-74801810D01*
X155361767Y-75045171D01*
X155505485Y-75273895D01*
X155601788Y-75394657D01*
X156412002Y-74584443D01*
X156501298Y-74707349D01*
X156642651Y-74848702D01*
X156765555Y-74937996D01*
X155955341Y-75748210D01*
X156076104Y-75844514D01*
X156304828Y-75988232D01*
X156548189Y-76105428D01*
X156548193Y-76105430D01*
X156803160Y-76194646D01*
X156803162Y-76194647D01*
X157066509Y-76254754D01*
X157066525Y-76254756D01*
X157334933Y-76284999D01*
X157334934Y-76285000D01*
X157605066Y-76285000D01*
X157605066Y-76284999D01*
X157873474Y-76254756D01*
X157873490Y-76254754D01*
X158136837Y-76194647D01*
X158136839Y-76194646D01*
X158391806Y-76105430D01*
X158391810Y-76105428D01*
X158635171Y-75988232D01*
X158863895Y-75844515D01*
X158984657Y-75748209D01*
X158174444Y-74937997D01*
X158297349Y-74848702D01*
X158438702Y-74707349D01*
X158527996Y-74584444D01*
X159338209Y-75394657D01*
X159434515Y-75273895D01*
X159578232Y-75045171D01*
X159695428Y-74801810D01*
X159695430Y-74801806D01*
X159784646Y-74546839D01*
X159784647Y-74546837D01*
X159844754Y-74283490D01*
X159844756Y-74283474D01*
X159874999Y-74015066D01*
X159875000Y-74015066D01*
X159875000Y-73744934D01*
X159874999Y-73744933D01*
X159844756Y-73476525D01*
X159844754Y-73476509D01*
X159784647Y-73213162D01*
X159784646Y-73213160D01*
X159695430Y-72958193D01*
X159695428Y-72958189D01*
X159578232Y-72714828D01*
X159434514Y-72486103D01*
X159409969Y-72455325D01*
X159409968Y-72455324D01*
X159338210Y-72365341D01*
X158527996Y-73175554D01*
X158438702Y-73052651D01*
X158297349Y-72911298D01*
X158174443Y-72822001D01*
X158984657Y-72011788D01*
X158863895Y-71915485D01*
X158635171Y-71771767D01*
X158391810Y-71654571D01*
X158391806Y-71654569D01*
X158136839Y-71565353D01*
X158136837Y-71565352D01*
X157873490Y-71505245D01*
X157873474Y-71505243D01*
X157605066Y-71475000D01*
X157334934Y-71475000D01*
X157066525Y-71505243D01*
X157066509Y-71505245D01*
X156803162Y-71565352D01*
X156803160Y-71565353D01*
X156548193Y-71654569D01*
X156548189Y-71654571D01*
X156304828Y-71771767D01*
X156076110Y-71915481D01*
X155955342Y-72011789D01*
X156765555Y-72822002D01*
X156642651Y-72911298D01*
X156501298Y-73052651D01*
X156412002Y-73175555D01*
X155601789Y-72365342D01*
X155505481Y-72486110D01*
X155361767Y-72714828D01*
X155244571Y-72958189D01*
X155244569Y-72958193D01*
X155155353Y-73213160D01*
X155155352Y-73213162D01*
X155095245Y-73476509D01*
X155095243Y-73476525D01*
X155065000Y-73744933D01*
X154760500Y-73744933D01*
X154760500Y-73393389D01*
X154733402Y-73222299D01*
X154679873Y-73057555D01*
X154601232Y-72903212D01*
X154499414Y-72763072D01*
X154376928Y-72640586D01*
X154236788Y-72538768D01*
X154174480Y-72507021D01*
X154082447Y-72460128D01*
X154082446Y-72460127D01*
X154082445Y-72460127D01*
X153917701Y-72406598D01*
X153917699Y-72406597D01*
X153917698Y-72406597D01*
X153786271Y-72385781D01*
X153746611Y-72379500D01*
X153573389Y-72379500D01*
X153533728Y-72385781D01*
X153402302Y-72406597D01*
X153237552Y-72460128D01*
X153083211Y-72538768D01*
X153016960Y-72586903D01*
X152943072Y-72640586D01*
X152943070Y-72640588D01*
X152943069Y-72640588D01*
X152820588Y-72763069D01*
X152820588Y-72763070D01*
X152820586Y-72763072D01*
X152785428Y-72811463D01*
X152718768Y-72903211D01*
X152640128Y-73057552D01*
X152586597Y-73222302D01*
X152559500Y-73393389D01*
X152220500Y-73393389D01*
X152193402Y-73222299D01*
X152139873Y-73057555D01*
X152061232Y-72903212D01*
X151959414Y-72763072D01*
X151836928Y-72640586D01*
X151696788Y-72538768D01*
X151634480Y-72507021D01*
X151542447Y-72460128D01*
X151542446Y-72460127D01*
X151542445Y-72460127D01*
X151377701Y-72406598D01*
X151377699Y-72406597D01*
X151377698Y-72406597D01*
X151246271Y-72385781D01*
X151206611Y-72379500D01*
X151033389Y-72379500D01*
X150993728Y-72385781D01*
X150862302Y-72406597D01*
X150697552Y-72460128D01*
X150543211Y-72538768D01*
X150476960Y-72586903D01*
X150403072Y-72640586D01*
X150403070Y-72640588D01*
X150403069Y-72640588D01*
X150280588Y-72763069D01*
X150280588Y-72763070D01*
X150280586Y-72763072D01*
X150245428Y-72811463D01*
X150178768Y-72903211D01*
X150100128Y-73057552D01*
X150046597Y-73222302D01*
X150019500Y-73393389D01*
X149679994Y-73393389D01*
X149652914Y-73222420D01*
X149652914Y-73222417D01*
X149637762Y-73175788D01*
X149637762Y-73175787D01*
X148980000Y-73833550D01*
X148980000Y-73827339D01*
X148952741Y-73725606D01*
X148900080Y-73634394D01*
X148825606Y-73559920D01*
X148734394Y-73507259D01*
X148632661Y-73480000D01*
X148626449Y-73480000D01*
X149381041Y-72725406D01*
X149296598Y-72640964D01*
X149156524Y-72539195D01*
X149002257Y-72460591D01*
X148837584Y-72407085D01*
X148666571Y-72380000D01*
X148493429Y-72380000D01*
X148322415Y-72407085D01*
X148157742Y-72460591D01*
X148003471Y-72539198D01*
X147863398Y-72640966D01*
X147778958Y-72725406D01*
X148533552Y-73480000D01*
X148527339Y-73480000D01*
X148425606Y-73507259D01*
X148334394Y-73559920D01*
X148259920Y-73634394D01*
X148207259Y-73725606D01*
X148180000Y-73827339D01*
X148180000Y-73833552D01*
X147522236Y-73175788D01*
X147522235Y-73175788D01*
X147507086Y-73222414D01*
X147480000Y-73393428D01*
X147140500Y-73393428D01*
X147140500Y-73393389D01*
X147113402Y-73222299D01*
X147059873Y-73057555D01*
X146981232Y-72903212D01*
X146879414Y-72763072D01*
X146756928Y-72640586D01*
X146616788Y-72538768D01*
X146554480Y-72507021D01*
X146462447Y-72460128D01*
X146462446Y-72460127D01*
X146462445Y-72460127D01*
X146297701Y-72406598D01*
X146297699Y-72406597D01*
X146297698Y-72406597D01*
X146166271Y-72385781D01*
X146126611Y-72379500D01*
X145953389Y-72379500D01*
X145913728Y-72385781D01*
X145782302Y-72406597D01*
X145617552Y-72460128D01*
X145463211Y-72538768D01*
X145396960Y-72586903D01*
X145323072Y-72640586D01*
X145323070Y-72640588D01*
X145323069Y-72640588D01*
X145200588Y-72763069D01*
X145200588Y-72763070D01*
X145200586Y-72763072D01*
X145165428Y-72811463D01*
X145098768Y-72903211D01*
X145020128Y-73057552D01*
X144966597Y-73222302D01*
X144939500Y-73393389D01*
X144600500Y-73393389D01*
X144573402Y-73222299D01*
X144519873Y-73057555D01*
X144441232Y-72903212D01*
X144339414Y-72763072D01*
X144216928Y-72640586D01*
X144197894Y-72626757D01*
X144151613Y-72593131D01*
X144148451Y-72589031D01*
X144143733Y-72586903D01*
X144127335Y-72561647D01*
X144108948Y-72537801D01*
X144107743Y-72531470D01*
X144105686Y-72528301D01*
X144102588Y-72507105D01*
X144101555Y-72507242D01*
X144101525Y-72507020D01*
X144101520Y-72507021D01*
X144101512Y-72506959D01*
X144101506Y-72506874D01*
X144100492Y-72499179D01*
X144100492Y-72499173D01*
X144078551Y-72417329D01*
X144059577Y-72346516D01*
X144059575Y-72346512D01*
X144059573Y-72346505D01*
X144059552Y-72346453D01*
X144018357Y-72275120D01*
X144018350Y-72275108D01*
X143980518Y-72209580D01*
X143980481Y-72209533D01*
X143980478Y-72209530D01*
X143980477Y-72209528D01*
X143924866Y-72153930D01*
X143868716Y-72097780D01*
X143862788Y-72091852D01*
X143862668Y-72091747D01*
X143057305Y-71286572D01*
X142641548Y-70870912D01*
X142581716Y-70811080D01*
X142581684Y-70811061D01*
X142581662Y-70811039D01*
X142548299Y-70791782D01*
X142516100Y-70773197D01*
X142444784Y-70732023D01*
X142444783Y-70732022D01*
X142444782Y-70732022D01*
X142444725Y-70731997D01*
X142364920Y-70710623D01*
X142364909Y-70710620D01*
X142292057Y-70691100D01*
X142292056Y-70691100D01*
X142292045Y-70691097D01*
X142291989Y-70691089D01*
X142208769Y-70691100D01*
X127377078Y-70691100D01*
X127310039Y-70671415D01*
X127289401Y-70654785D01*
X123281860Y-66647624D01*
X123281858Y-66647622D01*
X123223716Y-66589480D01*
X123223701Y-66589471D01*
X123223693Y-66589463D01*
X123157792Y-66551419D01*
X123157792Y-66551417D01*
X123157787Y-66551416D01*
X123126147Y-66533149D01*
X123086785Y-66510423D01*
X123086754Y-66510410D01*
X123005032Y-66488517D01*
X123005014Y-66488513D01*
X122934057Y-66469500D01*
X122934044Y-66469500D01*
X122934029Y-66469496D01*
X122933997Y-66469496D01*
X122843678Y-66469500D01*
X121357190Y-66469500D01*
X121290151Y-66449815D01*
X121244396Y-66397011D01*
X121234452Y-66327853D01*
X121242627Y-66298053D01*
X121251940Y-66275570D01*
X121262500Y-66191497D01*
X121262501Y-65408507D01*
X121251940Y-65324431D01*
X121196863Y-65191464D01*
X121144879Y-65124545D01*
X120911872Y-64891538D01*
X120675462Y-64655128D01*
X120675454Y-64655121D01*
X120675451Y-64655118D01*
X120644747Y-64631266D01*
X120640443Y-64627922D01*
X120599578Y-64571249D01*
X120595840Y-64501480D01*
X120630416Y-64440765D01*
X120640436Y-64432081D01*
X120675455Y-64404879D01*
X121144882Y-63935451D01*
X121196864Y-63868537D01*
X121251940Y-63735570D01*
X121262500Y-63651497D01*
X121262501Y-62868507D01*
X121251940Y-62784431D01*
X121196863Y-62651464D01*
X121144879Y-62584545D01*
X120911872Y-62351538D01*
X120675462Y-62115128D01*
X120675454Y-62115121D01*
X120675451Y-62115118D01*
X120644747Y-62091266D01*
X120640443Y-62087922D01*
X120599578Y-62031249D01*
X120595840Y-61961480D01*
X120630416Y-61900765D01*
X120640436Y-61892081D01*
X120675455Y-61864879D01*
X120929868Y-61610464D01*
X120991191Y-61576980D01*
X121060882Y-61581964D01*
X121105230Y-61610465D01*
X126366178Y-66871413D01*
X126399663Y-66932736D01*
X126394679Y-67002428D01*
X126381600Y-67027984D01*
X126335608Y-67096816D01*
X126335602Y-67096827D01*
X126275264Y-67242498D01*
X126275261Y-67242510D01*
X126244500Y-67397153D01*
X126244500Y-67554846D01*
X126275261Y-67709489D01*
X126275264Y-67709501D01*
X126335602Y-67855172D01*
X126335609Y-67855185D01*
X126423210Y-67986288D01*
X126423213Y-67986292D01*
X126534707Y-68097786D01*
X126534711Y-68097789D01*
X126665814Y-68185390D01*
X126665827Y-68185397D01*
X126811498Y-68245735D01*
X126811503Y-68245737D01*
X126966153Y-68276499D01*
X126966156Y-68276500D01*
X126966158Y-68276500D01*
X127123844Y-68276500D01*
X127123845Y-68276499D01*
X127278497Y-68245737D01*
X127424179Y-68185394D01*
X127443235Y-68172661D01*
X127555875Y-68097398D01*
X127622553Y-68076520D01*
X127624766Y-68076500D01*
X162782331Y-68076500D01*
X162782347Y-68076501D01*
X162789943Y-68076501D01*
X162948054Y-68076501D01*
X162948057Y-68076501D01*
X163100785Y-68035577D01*
X163150904Y-68006639D01*
X163237716Y-67956520D01*
X163349520Y-67844716D01*
X163349520Y-67844714D01*
X163359728Y-67834507D01*
X163359729Y-67834504D01*
X164327416Y-66866819D01*
X164388739Y-66833334D01*
X164415097Y-66830500D01*
X167829281Y-66830500D01*
X167896320Y-66850185D01*
X167939765Y-66898205D01*
X167959947Y-66937814D01*
X167959948Y-66937815D01*
X168084890Y-67109786D01*
X168235213Y-67260109D01*
X168407182Y-67385050D01*
X168415946Y-67389516D01*
X168466742Y-67437491D01*
X168483536Y-67505312D01*
X168460998Y-67571447D01*
X168415946Y-67610484D01*
X168407182Y-67614949D01*
X168235213Y-67739890D01*
X168084890Y-67890213D01*
X167959951Y-68062179D01*
X167863444Y-68251585D01*
X167797753Y-68453760D01*
X167764500Y-68663713D01*
X167764500Y-68876287D01*
X167768177Y-68899500D01*
X167786541Y-69015451D01*
X167797754Y-69086243D01*
X167856324Y-69266503D01*
X167863444Y-69288414D01*
X167959951Y-69477820D01*
X168084890Y-69649786D01*
X168235213Y-69800109D01*
X168407179Y-69925048D01*
X168407181Y-69925049D01*
X168407184Y-69925051D01*
X168416493Y-69929794D01*
X168467290Y-69977766D01*
X168484087Y-70045587D01*
X168461552Y-70111722D01*
X168416505Y-70150760D01*
X168407446Y-70155376D01*
X168407440Y-70155380D01*
X168353282Y-70194727D01*
X168353282Y-70194728D01*
X168985591Y-70827037D01*
X168922007Y-70844075D01*
X168807993Y-70909901D01*
X168714901Y-71002993D01*
X168649075Y-71117007D01*
X168632037Y-71180591D01*
X167999728Y-70548282D01*
X167999727Y-70548282D01*
X167960380Y-70602439D01*
X167863904Y-70791782D01*
X167798242Y-70993869D01*
X167798242Y-70993872D01*
X167765000Y-71203753D01*
X167765000Y-71416246D01*
X167798242Y-71626127D01*
X167798242Y-71626130D01*
X167863904Y-71828217D01*
X167960375Y-72017550D01*
X167999728Y-72071716D01*
X168632037Y-71439408D01*
X168649075Y-71502993D01*
X168714901Y-71617007D01*
X168807993Y-71710099D01*
X168922007Y-71775925D01*
X168985590Y-71792962D01*
X168353282Y-72425269D01*
X168353282Y-72425270D01*
X168407449Y-72464624D01*
X168596782Y-72561095D01*
X168798870Y-72626757D01*
X169008754Y-72660000D01*
X169221246Y-72660000D01*
X169431127Y-72626757D01*
X169431130Y-72626757D01*
X169633217Y-72561095D01*
X169822554Y-72464622D01*
X169876716Y-72425270D01*
X169876717Y-72425270D01*
X169244408Y-71792962D01*
X169307993Y-71775925D01*
X169422007Y-71710099D01*
X169515099Y-71617007D01*
X169580925Y-71502993D01*
X169597962Y-71439408D01*
X170230270Y-72071717D01*
X170230270Y-72071716D01*
X170269622Y-72017554D01*
X170366095Y-71828217D01*
X170431757Y-71626130D01*
X170431757Y-71626127D01*
X170465000Y-71416246D01*
X170465000Y-71203753D01*
X170431757Y-70993872D01*
X170431757Y-70993869D01*
X170366095Y-70791782D01*
X170269624Y-70602449D01*
X170230270Y-70548282D01*
X170230269Y-70548282D01*
X169597962Y-71180590D01*
X169580925Y-71117007D01*
X169515099Y-71002993D01*
X169422007Y-70909901D01*
X169307993Y-70844075D01*
X169244409Y-70827037D01*
X169876716Y-70194728D01*
X169822547Y-70155373D01*
X169822547Y-70155372D01*
X169813500Y-70150763D01*
X169762706Y-70102788D01*
X169745912Y-70034966D01*
X169768451Y-69968832D01*
X169813508Y-69929793D01*
X169822816Y-69925051D01*
X169949995Y-69832651D01*
X169994786Y-69800109D01*
X169994788Y-69800106D01*
X169994792Y-69800104D01*
X170145104Y-69649792D01*
X170145106Y-69649788D01*
X170145109Y-69649786D01*
X170270048Y-69477820D01*
X170270047Y-69477820D01*
X170270051Y-69477816D01*
X170366557Y-69288412D01*
X170432246Y-69086243D01*
X170465500Y-68876287D01*
X170465500Y-68663713D01*
X170432246Y-68453757D01*
X170366557Y-68251588D01*
X170270051Y-68062184D01*
X170270049Y-68062181D01*
X170270048Y-68062179D01*
X170145109Y-67890213D01*
X169994786Y-67739890D01*
X169822820Y-67614951D01*
X169822115Y-67614591D01*
X169814054Y-67610485D01*
X169763259Y-67562512D01*
X169746463Y-67494692D01*
X169768999Y-67428556D01*
X169814054Y-67389515D01*
X169822816Y-67385051D01*
X169844789Y-67369086D01*
X169994786Y-67260109D01*
X169994788Y-67260106D01*
X169994792Y-67260104D01*
X170145104Y-67109792D01*
X170145106Y-67109788D01*
X170145109Y-67109786D01*
X170270048Y-66937820D01*
X170270047Y-66937820D01*
X170270051Y-66937816D01*
X170366557Y-66748412D01*
X170432246Y-66546243D01*
X170465500Y-66336287D01*
X170465500Y-66123713D01*
X170432246Y-65913757D01*
X170366557Y-65711588D01*
X170270051Y-65522184D01*
X170270049Y-65522181D01*
X170270048Y-65522179D01*
X170145109Y-65350213D01*
X170031569Y-65236673D01*
X169998084Y-65175350D01*
X170003068Y-65105658D01*
X170044940Y-65049725D01*
X170075915Y-65032810D01*
X170207331Y-64983796D01*
X170322546Y-64897546D01*
X170408796Y-64782331D01*
X170459091Y-64647483D01*
X170465500Y-64587873D01*
X170465499Y-62792128D01*
X170459091Y-62732517D01*
X170435587Y-62669500D01*
X170408797Y-62597671D01*
X170408793Y-62597664D01*
X170322547Y-62482455D01*
X170322544Y-62482452D01*
X170207335Y-62396206D01*
X170207328Y-62396202D01*
X170072482Y-62345908D01*
X170072483Y-62345908D01*
X170012883Y-62339501D01*
X170012881Y-62339500D01*
X170012873Y-62339500D01*
X170012864Y-62339500D01*
X168217129Y-62339500D01*
X168217123Y-62339501D01*
X168157516Y-62345908D01*
X168022671Y-62396202D01*
X168022664Y-62396206D01*
X167907455Y-62482452D01*
X167907452Y-62482455D01*
X167821206Y-62597664D01*
X167821202Y-62597671D01*
X167770908Y-62732517D01*
X167765327Y-62784431D01*
X167764501Y-62792123D01*
X167764500Y-62792135D01*
X167764500Y-64587870D01*
X167764501Y-64587876D01*
X167770908Y-64647483D01*
X167821202Y-64782328D01*
X167821206Y-64782335D01*
X167907452Y-64897544D01*
X167907455Y-64897547D01*
X168022664Y-64983793D01*
X168022671Y-64983797D01*
X168154082Y-65032810D01*
X168210016Y-65074681D01*
X168234433Y-65140145D01*
X168219582Y-65208418D01*
X168198431Y-65236673D01*
X168084889Y-65350215D01*
X167959948Y-65522184D01*
X167959947Y-65522185D01*
X167939765Y-65561795D01*
X167891791Y-65612591D01*
X167829281Y-65629500D01*
X164194057Y-65629500D01*
X164035943Y-65629500D01*
X163883215Y-65670423D01*
X163883214Y-65670423D01*
X163883212Y-65670424D01*
X163883209Y-65670425D01*
X163833096Y-65699359D01*
X163833095Y-65699360D01*
X163789689Y-65724420D01*
X163746285Y-65749479D01*
X163746282Y-65749481D01*
X163061681Y-66434083D01*
X163000358Y-66467568D01*
X162930666Y-66462584D01*
X162874733Y-66420712D01*
X162850316Y-66355248D01*
X162850000Y-66346402D01*
X162850000Y-65662172D01*
X162849999Y-65662155D01*
X162843598Y-65602627D01*
X162843596Y-65602620D01*
X162793354Y-65467913D01*
X162793350Y-65467906D01*
X162707191Y-65352814D01*
X162707184Y-65352807D01*
X162680626Y-65332925D01*
X162680625Y-65332925D01*
X161750000Y-66263550D01*
X161750000Y-66257339D01*
X161722741Y-66155606D01*
X161670080Y-66064394D01*
X161595606Y-65989920D01*
X161504394Y-65937259D01*
X161402661Y-65910000D01*
X161396448Y-65910000D01*
X162096448Y-65210000D01*
X160603551Y-65210000D01*
X161303552Y-65910000D01*
X161297339Y-65910000D01*
X161195606Y-65937259D01*
X161104394Y-65989920D01*
X161029920Y-66064394D01*
X160977259Y-66155606D01*
X160950000Y-66257339D01*
X160950000Y-66263551D01*
X160019373Y-65332924D01*
X159992812Y-65352809D01*
X159992807Y-65352815D01*
X159906649Y-65467906D01*
X159906645Y-65467913D01*
X159856403Y-65602620D01*
X159856401Y-65602627D01*
X159850000Y-65662155D01*
X159850000Y-66751500D01*
X159830315Y-66818539D01*
X159777511Y-66864294D01*
X159726000Y-66875500D01*
X141884500Y-66875500D01*
X141817461Y-66855815D01*
X141771706Y-66803011D01*
X141760500Y-66751500D01*
X141760500Y-66671155D01*
X141760499Y-66671153D01*
X141736682Y-66551417D01*
X141729737Y-66516503D01*
X141718143Y-66488513D01*
X141669397Y-66370827D01*
X141669390Y-66370814D01*
X141581789Y-66239711D01*
X141581786Y-66239707D01*
X141470292Y-66128213D01*
X141470288Y-66128210D01*
X141339185Y-66040609D01*
X141339172Y-66040602D01*
X141193501Y-65980264D01*
X141193489Y-65980261D01*
X141038845Y-65949500D01*
X141038842Y-65949500D01*
X140881158Y-65949500D01*
X140881155Y-65949500D01*
X140726510Y-65980261D01*
X140726498Y-65980264D01*
X140580827Y-66040602D01*
X140580814Y-66040609D01*
X140449125Y-66128602D01*
X140382447Y-66149480D01*
X140380234Y-66149500D01*
X127394098Y-66149500D01*
X127327059Y-66129815D01*
X127306417Y-66113181D01*
X121551590Y-60358355D01*
X121544521Y-60351286D01*
X121544520Y-60351284D01*
X121455414Y-60262178D01*
X121425977Y-60208266D01*
X121421932Y-60200858D01*
X121426916Y-60131166D01*
X121454282Y-60094610D01*
X121468788Y-60075232D01*
X121516468Y-60057448D01*
X121534252Y-60050816D01*
X121543098Y-60050500D01*
X127538286Y-60050500D01*
X127605325Y-60070185D01*
X127625967Y-60086819D01*
X127697434Y-60158286D01*
X127756029Y-60200858D01*
X127781938Y-60219682D01*
X127824603Y-60275013D01*
X127830582Y-60344626D01*
X127797976Y-60406421D01*
X127781938Y-60420318D01*
X127697432Y-60481715D01*
X127535716Y-60643431D01*
X127535716Y-60643432D01*
X127535714Y-60643434D01*
X127528611Y-60653211D01*
X127401283Y-60828461D01*
X127297450Y-61032244D01*
X127226778Y-61249750D01*
X127226778Y-61249753D01*
X127191000Y-61475646D01*
X127191000Y-61704353D01*
X127226778Y-61930246D01*
X127226778Y-61930249D01*
X127297450Y-62147755D01*
X127386777Y-62323069D01*
X127401283Y-62351538D01*
X127535714Y-62536566D01*
X127697434Y-62698286D01*
X127744549Y-62732517D01*
X127781938Y-62759682D01*
X127824603Y-62815013D01*
X127830582Y-62884626D01*
X127797976Y-62946421D01*
X127781938Y-62960318D01*
X127697432Y-63021715D01*
X127535716Y-63183431D01*
X127535716Y-63183432D01*
X127535714Y-63183434D01*
X127528611Y-63193211D01*
X127401283Y-63368461D01*
X127297450Y-63572244D01*
X127226778Y-63789750D01*
X127226778Y-63789753D01*
X127191000Y-64015646D01*
X127191000Y-64244353D01*
X127226778Y-64470246D01*
X127226778Y-64470249D01*
X127297450Y-64687755D01*
X127386777Y-64863069D01*
X127401283Y-64891538D01*
X127535714Y-65076566D01*
X127697434Y-65238286D01*
X127882462Y-65372717D01*
X128008731Y-65437054D01*
X128086244Y-65476549D01*
X128303751Y-65547221D01*
X128303752Y-65547221D01*
X128303755Y-65547222D01*
X128529646Y-65583000D01*
X128529647Y-65583000D01*
X128758353Y-65583000D01*
X128758354Y-65583000D01*
X128984245Y-65547222D01*
X128984248Y-65547221D01*
X128984249Y-65547221D01*
X129201755Y-65476549D01*
X129201755Y-65476548D01*
X129201758Y-65476548D01*
X129405538Y-65372717D01*
X129590566Y-65238286D01*
X129752286Y-65076566D01*
X129886717Y-64891538D01*
X129990548Y-64687758D01*
X130014577Y-64613803D01*
X130061221Y-64470249D01*
X130061221Y-64470248D01*
X130061222Y-64470245D01*
X130097000Y-64244354D01*
X130097000Y-64015646D01*
X130061222Y-63789755D01*
X130061221Y-63789751D01*
X130061221Y-63789750D01*
X129990549Y-63572244D01*
X129960007Y-63512302D01*
X129899880Y-63394297D01*
X129886926Y-63368872D01*
X138499500Y-63368872D01*
X138499500Y-63631127D01*
X138520385Y-63789753D01*
X138533730Y-63891116D01*
X138566833Y-64014657D01*
X138601602Y-64144418D01*
X138601605Y-64144428D01*
X138701953Y-64386690D01*
X138701958Y-64386700D01*
X138833075Y-64613803D01*
X138992718Y-64821851D01*
X138992726Y-64821860D01*
X139178140Y-65007274D01*
X139178148Y-65007281D01*
X139178149Y-65007282D01*
X139213087Y-65034091D01*
X139386196Y-65166924D01*
X139613299Y-65298041D01*
X139613309Y-65298046D01*
X139855571Y-65398394D01*
X139855581Y-65398398D01*
X140108884Y-65466270D01*
X140368880Y-65500500D01*
X140368887Y-65500500D01*
X140631113Y-65500500D01*
X140631120Y-65500500D01*
X140891116Y-65466270D01*
X141144419Y-65398398D01*
X141386697Y-65298043D01*
X141613803Y-65166924D01*
X141821851Y-65007282D01*
X141821855Y-65007277D01*
X141821860Y-65007274D01*
X142007274Y-64821860D01*
X142007277Y-64821855D01*
X142007282Y-64821851D01*
X142166924Y-64613803D01*
X142298043Y-64386697D01*
X142314574Y-64346788D01*
X142345424Y-64272311D01*
X142398394Y-64144428D01*
X142398398Y-64144419D01*
X142466270Y-63891116D01*
X142500500Y-63631120D01*
X142500500Y-63368880D01*
X142466270Y-63108884D01*
X142398398Y-62855581D01*
X142395740Y-62849164D01*
X142298046Y-62613309D01*
X142298041Y-62613299D01*
X142188437Y-62423459D01*
X142166924Y-62386197D01*
X142150607Y-62364933D01*
X146869840Y-62364933D01*
X146869840Y-62635066D01*
X146900083Y-62903474D01*
X146900085Y-62903490D01*
X146960192Y-63166837D01*
X146960193Y-63166839D01*
X147049409Y-63421806D01*
X147049411Y-63421810D01*
X147166607Y-63665171D01*
X147310325Y-63893895D01*
X147406628Y-64014657D01*
X148216842Y-63204443D01*
X148306138Y-63327349D01*
X148447491Y-63468702D01*
X148570395Y-63557996D01*
X147760181Y-64368210D01*
X147880944Y-64464514D01*
X148109668Y-64608232D01*
X148353029Y-64725428D01*
X148353033Y-64725430D01*
X148608000Y-64814646D01*
X148608002Y-64814647D01*
X148871349Y-64874754D01*
X148871365Y-64874756D01*
X149139773Y-64904999D01*
X149139774Y-64905000D01*
X149409906Y-64905000D01*
X149409906Y-64904999D01*
X149678314Y-64874756D01*
X149678330Y-64874754D01*
X149941677Y-64814647D01*
X149941679Y-64814646D01*
X150196646Y-64725430D01*
X150196650Y-64725428D01*
X150440011Y-64608232D01*
X150668735Y-64464515D01*
X150789497Y-64368209D01*
X149979284Y-63557997D01*
X150102189Y-63468702D01*
X150243542Y-63327349D01*
X150332837Y-63204444D01*
X151143049Y-64014657D01*
X151239355Y-63893895D01*
X151371625Y-63683389D01*
X159849500Y-63683389D01*
X159849500Y-63856610D01*
X159874688Y-64015646D01*
X159876598Y-64027701D01*
X159930127Y-64192445D01*
X160008768Y-64346788D01*
X160110586Y-64486928D01*
X160233072Y-64609414D01*
X160373212Y-64711232D01*
X160527555Y-64789873D01*
X160692299Y-64843402D01*
X160863389Y-64870500D01*
X160863390Y-64870500D01*
X161836610Y-64870500D01*
X161836611Y-64870500D01*
X162007701Y-64843402D01*
X162172445Y-64789873D01*
X162326788Y-64711232D01*
X162466928Y-64609414D01*
X162589414Y-64486928D01*
X162691232Y-64346788D01*
X162769873Y-64192445D01*
X162823402Y-64027701D01*
X162850500Y-63856611D01*
X162850500Y-63683389D01*
X162823402Y-63512299D01*
X162769873Y-63347555D01*
X162691232Y-63193212D01*
X162589414Y-63053072D01*
X162466928Y-62930586D01*
X162326788Y-62828768D01*
X162172445Y-62750127D01*
X162007701Y-62696598D01*
X162007699Y-62696597D01*
X162007698Y-62696597D01*
X161876271Y-62675781D01*
X161836611Y-62669500D01*
X160863389Y-62669500D01*
X160823728Y-62675781D01*
X160692302Y-62696597D01*
X160527552Y-62750128D01*
X160373211Y-62828768D01*
X160318516Y-62868507D01*
X160233072Y-62930586D01*
X160233070Y-62930588D01*
X160233069Y-62930588D01*
X160110588Y-63053069D01*
X160110588Y-63053070D01*
X160110586Y-63053072D01*
X160070036Y-63108884D01*
X160008768Y-63193211D01*
X159930128Y-63347552D01*
X159876597Y-63512302D01*
X159849500Y-63683389D01*
X151371625Y-63683389D01*
X151383070Y-63665174D01*
X151402555Y-63624715D01*
X151402556Y-63624713D01*
X151500268Y-63421810D01*
X151500270Y-63421806D01*
X151589486Y-63166839D01*
X151589487Y-63166837D01*
X151649594Y-62903490D01*
X151649596Y-62903474D01*
X151679839Y-62635066D01*
X151679840Y-62635066D01*
X151679840Y-62364934D01*
X151679839Y-62364933D01*
X151649596Y-62096525D01*
X151649594Y-62096509D01*
X151589487Y-61833162D01*
X151589486Y-61833160D01*
X151500270Y-61578193D01*
X151500268Y-61578189D01*
X151383072Y-61334828D01*
X151301174Y-61204489D01*
X151262782Y-61143389D01*
X159849500Y-61143389D01*
X159849500Y-61316610D01*
X159874688Y-61475646D01*
X159876598Y-61487701D01*
X159930127Y-61652445D01*
X160008768Y-61806788D01*
X160110586Y-61946928D01*
X160233072Y-62069414D01*
X160373212Y-62171232D01*
X160527555Y-62249873D01*
X160692299Y-62303402D01*
X160863389Y-62330500D01*
X160863390Y-62330500D01*
X161836610Y-62330500D01*
X161836611Y-62330500D01*
X162007701Y-62303402D01*
X162172445Y-62249873D01*
X162326788Y-62171232D01*
X162466928Y-62069414D01*
X162589414Y-61946928D01*
X162691232Y-61806788D01*
X162769873Y-61652445D01*
X162823402Y-61487701D01*
X162850500Y-61316611D01*
X162850500Y-61143389D01*
X162823402Y-60972299D01*
X162769873Y-60807555D01*
X162691232Y-60653212D01*
X162589414Y-60513072D01*
X162466928Y-60390586D01*
X162326788Y-60288768D01*
X162172445Y-60210127D01*
X162007701Y-60156598D01*
X162007699Y-60156597D01*
X162007698Y-60156597D01*
X161876271Y-60135781D01*
X161836611Y-60129500D01*
X160863389Y-60129500D01*
X160823728Y-60135781D01*
X160692302Y-60156597D01*
X160527552Y-60210128D01*
X160373211Y-60288768D01*
X160296330Y-60344626D01*
X160233072Y-60390586D01*
X160233070Y-60390588D01*
X160233069Y-60390588D01*
X160110588Y-60513069D01*
X160110588Y-60513070D01*
X160110586Y-60513072D01*
X160094305Y-60535481D01*
X160008768Y-60653211D01*
X159930128Y-60807552D01*
X159876597Y-60972302D01*
X159849500Y-61143389D01*
X151262782Y-61143389D01*
X151239354Y-61106104D01*
X151143050Y-60985341D01*
X150332836Y-61795554D01*
X150243542Y-61672651D01*
X150102189Y-61531298D01*
X149979283Y-61442001D01*
X150789497Y-60631788D01*
X150668735Y-60535485D01*
X150440011Y-60391767D01*
X150196650Y-60274571D01*
X150196646Y-60274569D01*
X149941679Y-60185353D01*
X149941677Y-60185352D01*
X149678330Y-60125245D01*
X149678314Y-60125243D01*
X149409906Y-60095000D01*
X149139774Y-60095000D01*
X148871365Y-60125243D01*
X148871349Y-60125245D01*
X148608002Y-60185352D01*
X148608000Y-60185353D01*
X148353033Y-60274569D01*
X148353029Y-60274571D01*
X148109668Y-60391767D01*
X147880950Y-60535481D01*
X147760182Y-60631789D01*
X148570395Y-61442002D01*
X148447491Y-61531298D01*
X148306138Y-61672651D01*
X148216842Y-61795555D01*
X147406629Y-60985342D01*
X147310321Y-61106110D01*
X147166607Y-61334828D01*
X147049411Y-61578189D01*
X147049409Y-61578193D01*
X146960193Y-61833160D01*
X146960192Y-61833162D01*
X146900085Y-62096509D01*
X146900083Y-62096525D01*
X146869840Y-62364933D01*
X142150607Y-62364933D01*
X142024500Y-62200588D01*
X142007282Y-62178149D01*
X142007281Y-62178148D01*
X142007274Y-62178140D01*
X141821860Y-61992726D01*
X141821851Y-61992718D01*
X141613803Y-61833075D01*
X141386700Y-61701958D01*
X141386690Y-61701953D01*
X141144428Y-61601605D01*
X141144421Y-61601603D01*
X141144419Y-61601602D01*
X140891116Y-61533730D01*
X140833339Y-61526123D01*
X140631127Y-61499500D01*
X140631120Y-61499500D01*
X140368880Y-61499500D01*
X140368872Y-61499500D01*
X140137772Y-61529926D01*
X140108884Y-61533730D01*
X139902411Y-61589054D01*
X139855581Y-61601602D01*
X139855571Y-61601605D01*
X139613309Y-61701953D01*
X139613299Y-61701958D01*
X139386196Y-61833075D01*
X139178148Y-61992718D01*
X138992718Y-62178148D01*
X138833075Y-62386196D01*
X138701958Y-62613299D01*
X138701953Y-62613309D01*
X138601605Y-62855571D01*
X138601602Y-62855581D01*
X138557087Y-63021716D01*
X138533730Y-63108885D01*
X138499500Y-63368872D01*
X129886926Y-63368872D01*
X129886718Y-63368463D01*
X129866523Y-63340667D01*
X129752286Y-63183434D01*
X129590566Y-63021714D01*
X129506059Y-62960316D01*
X129463396Y-62904988D01*
X129457417Y-62835375D01*
X129490023Y-62773580D01*
X129506056Y-62759685D01*
X129590566Y-62698286D01*
X129752286Y-62536566D01*
X129886717Y-62351538D01*
X129990548Y-62147758D01*
X130012813Y-62079234D01*
X130061221Y-61930249D01*
X130061221Y-61930248D01*
X130061222Y-61930245D01*
X130097000Y-61704354D01*
X130097000Y-61475646D01*
X130061222Y-61249755D01*
X130061221Y-61249751D01*
X130061221Y-61249750D01*
X129990549Y-61032244D01*
X129960007Y-60972302D01*
X129886717Y-60828462D01*
X129752286Y-60643434D01*
X129590566Y-60481714D01*
X129506059Y-60420316D01*
X129463396Y-60364988D01*
X129457417Y-60295375D01*
X129490023Y-60233580D01*
X129506056Y-60219685D01*
X129590566Y-60158286D01*
X129752286Y-59996566D01*
X129886717Y-59811538D01*
X129990548Y-59607758D01*
X130010175Y-59547353D01*
X130061221Y-59390249D01*
X130061221Y-59390248D01*
X130061222Y-59390245D01*
X130097000Y-59164354D01*
X130097000Y-58935646D01*
X130061222Y-58709755D01*
X130061220Y-58709751D01*
X130061220Y-58709746D01*
X130037530Y-58636834D01*
X130026663Y-58603389D01*
X159849500Y-58603389D01*
X159849500Y-58776611D01*
X159849612Y-58777318D01*
X159874688Y-58935646D01*
X159876598Y-58947701D01*
X159930127Y-59112445D01*
X160008768Y-59266788D01*
X160110586Y-59406928D01*
X160233072Y-59529414D01*
X160373212Y-59631232D01*
X160527555Y-59709873D01*
X160692299Y-59763402D01*
X160863389Y-59790500D01*
X160863390Y-59790500D01*
X161836610Y-59790500D01*
X161836611Y-59790500D01*
X162007701Y-59763402D01*
X162172445Y-59709873D01*
X162326788Y-59631232D01*
X162466928Y-59529414D01*
X162589414Y-59406928D01*
X162691232Y-59266788D01*
X162769873Y-59112445D01*
X162823402Y-58947701D01*
X162850500Y-58776611D01*
X162850500Y-58603389D01*
X162823402Y-58432299D01*
X162769873Y-58267555D01*
X162691232Y-58113212D01*
X162589414Y-57973072D01*
X162466928Y-57850586D01*
X162326788Y-57748768D01*
X162172445Y-57670127D01*
X162007701Y-57616598D01*
X162007699Y-57616597D01*
X162007698Y-57616597D01*
X161876271Y-57595781D01*
X161836611Y-57589500D01*
X160863389Y-57589500D01*
X160823728Y-57595781D01*
X160692302Y-57616597D01*
X160527552Y-57670128D01*
X160373211Y-57748768D01*
X160318516Y-57788507D01*
X160233072Y-57850586D01*
X160233070Y-57850588D01*
X160233069Y-57850588D01*
X160110588Y-57973069D01*
X160110588Y-57973070D01*
X160110586Y-57973072D01*
X160066859Y-58033256D01*
X160008768Y-58113211D01*
X159930128Y-58267552D01*
X159876597Y-58432302D01*
X159854552Y-58571493D01*
X159849500Y-58603389D01*
X130026663Y-58603389D01*
X129990549Y-58492244D01*
X129960007Y-58432302D01*
X129886717Y-58288462D01*
X129752286Y-58103434D01*
X129590566Y-57941714D01*
X129506059Y-57880316D01*
X129463396Y-57824988D01*
X129457417Y-57755375D01*
X129490023Y-57693580D01*
X129506056Y-57679685D01*
X129590566Y-57618286D01*
X129752286Y-57456566D01*
X129886717Y-57271538D01*
X129990548Y-57067758D01*
X130028404Y-56951249D01*
X130061221Y-56850249D01*
X130061221Y-56850248D01*
X130061222Y-56850245D01*
X130097000Y-56624354D01*
X130097000Y-56395646D01*
X130061222Y-56169755D01*
X130061221Y-56169751D01*
X130061221Y-56169750D01*
X129990549Y-55952244D01*
X129990548Y-55952242D01*
X129886717Y-55748462D01*
X129752286Y-55563434D01*
X129590566Y-55401714D01*
X129506059Y-55340316D01*
X129488882Y-55318039D01*
X129469278Y-55297867D01*
X129467834Y-55290744D01*
X129463396Y-55284988D01*
X129460988Y-55256958D01*
X129455402Y-55229389D01*
X129458038Y-55222616D01*
X129457417Y-55215375D01*
X129470544Y-55190496D01*
X129480751Y-55164280D01*
X129488193Y-55157046D01*
X129490023Y-55153580D01*
X129506056Y-55139685D01*
X129590566Y-55078286D01*
X129752286Y-54916566D01*
X129886717Y-54731538D01*
X129990548Y-54527758D01*
X130030585Y-54404536D01*
X130061221Y-54310249D01*
X130061221Y-54310248D01*
X130061222Y-54310245D01*
X130097000Y-54084354D01*
X130097000Y-53855646D01*
X130061222Y-53629755D01*
X130061221Y-53629751D01*
X130061221Y-53629750D01*
X129990549Y-53412244D01*
X129965285Y-53362661D01*
X129886717Y-53208462D01*
X129752286Y-53023434D01*
X129590566Y-52861714D01*
X129505634Y-52800007D01*
X129462969Y-52744676D01*
X129456990Y-52675063D01*
X129461630Y-52662155D01*
X159850000Y-52662155D01*
X159850000Y-53957844D01*
X159856401Y-54017372D01*
X159856403Y-54017379D01*
X159906645Y-54152086D01*
X159906649Y-54152093D01*
X159992808Y-54267185D01*
X159992813Y-54267191D01*
X160019372Y-54287073D01*
X160019373Y-54287073D01*
X160950000Y-53356447D01*
X160950000Y-53362661D01*
X160977259Y-53464394D01*
X161029920Y-53555606D01*
X161104394Y-53630080D01*
X161195606Y-53682741D01*
X161297339Y-53710000D01*
X161303552Y-53710000D01*
X160603551Y-54409999D01*
X160603552Y-54410000D01*
X162096448Y-54410000D01*
X162096448Y-54409999D01*
X161396448Y-53710000D01*
X161402661Y-53710000D01*
X161504394Y-53682741D01*
X161595606Y-53630080D01*
X161670080Y-53555606D01*
X161722741Y-53464394D01*
X161750000Y-53362661D01*
X161750000Y-53356449D01*
X162680624Y-54287073D01*
X162707189Y-54267187D01*
X162707190Y-54267186D01*
X162793352Y-54152088D01*
X162793354Y-54152086D01*
X162828044Y-54059078D01*
X168239600Y-54059078D01*
X168239600Y-54261719D01*
X168271299Y-54461862D01*
X168333921Y-54654591D01*
X168425916Y-54835143D01*
X168456545Y-54877298D01*
X168456546Y-54877299D01*
X169016765Y-54317079D01*
X169029950Y-54366284D01*
X169100174Y-54487914D01*
X169199485Y-54587225D01*
X169321115Y-54657449D01*
X169370319Y-54670633D01*
X168810099Y-55230852D01*
X168810099Y-55230853D01*
X168852254Y-55261481D01*
X169032807Y-55353477D01*
X169225536Y-55416099D01*
X169225535Y-55416099D01*
X169425680Y-55447799D01*
X169628320Y-55447799D01*
X169828463Y-55416099D01*
X170021192Y-55353477D01*
X170201747Y-55261480D01*
X170201751Y-55261478D01*
X170243899Y-55230853D01*
X170243900Y-55230853D01*
X169683680Y-54670633D01*
X169732885Y-54657449D01*
X169854515Y-54587225D01*
X169953826Y-54487914D01*
X170024050Y-54366284D01*
X170037234Y-54317079D01*
X170597453Y-54877299D01*
X170597454Y-54877298D01*
X170628079Y-54835150D01*
X170628081Y-54835146D01*
X170720078Y-54654591D01*
X170782700Y-54461862D01*
X170814400Y-54261719D01*
X170814400Y-54059078D01*
X170782700Y-53858935D01*
X170720078Y-53666206D01*
X170628082Y-53485653D01*
X170597453Y-53443498D01*
X170037233Y-54003717D01*
X170024050Y-53954514D01*
X169953826Y-53832884D01*
X169854515Y-53733573D01*
X169732885Y-53663349D01*
X169683680Y-53650164D01*
X170243900Y-53089945D01*
X170243899Y-53089944D01*
X170201744Y-53059315D01*
X170021192Y-52967320D01*
X169828463Y-52904698D01*
X169828464Y-52904698D01*
X169628320Y-52872999D01*
X169425680Y-52872999D01*
X169225536Y-52904698D01*
X169032807Y-52967320D01*
X168852250Y-53059318D01*
X168810099Y-53089943D01*
X168810098Y-53089944D01*
X169370319Y-53650164D01*
X169321115Y-53663349D01*
X169199485Y-53733573D01*
X169100174Y-53832884D01*
X169029950Y-53954514D01*
X169016766Y-54003718D01*
X168456545Y-53443497D01*
X168456544Y-53443498D01*
X168425919Y-53485649D01*
X168333921Y-53666206D01*
X168271299Y-53858935D01*
X168239600Y-54059078D01*
X162828044Y-54059078D01*
X162843596Y-54017382D01*
X162843598Y-54017372D01*
X162849999Y-53957844D01*
X162850000Y-53957827D01*
X162850000Y-52662172D01*
X162849999Y-52662155D01*
X162843598Y-52602627D01*
X162843596Y-52602620D01*
X162821764Y-52544085D01*
X172072499Y-52544085D01*
X172072499Y-52776714D01*
X172085176Y-52872999D01*
X172102862Y-53007330D01*
X172124999Y-53089945D01*
X172163067Y-53232020D01*
X172252082Y-53446921D01*
X172252087Y-53446932D01*
X172368386Y-53648366D01*
X172368397Y-53648382D01*
X172509995Y-53832917D01*
X172510001Y-53832924D01*
X172674474Y-53997397D01*
X172674481Y-53997403D01*
X172754858Y-54059078D01*
X172859025Y-54139008D01*
X172859032Y-54139012D01*
X173060466Y-54255311D01*
X173060471Y-54255313D01*
X173060474Y-54255315D01*
X173121916Y-54280765D01*
X173275378Y-54344331D01*
X173275379Y-54344331D01*
X173275381Y-54344332D01*
X173500069Y-54404537D01*
X173730692Y-54434900D01*
X173730699Y-54434900D01*
X173963299Y-54434900D01*
X173963306Y-54434900D01*
X174193929Y-54404537D01*
X174418617Y-54344332D01*
X174633524Y-54255315D01*
X174834973Y-54139008D01*
X175019518Y-53997402D01*
X175184001Y-53832919D01*
X175325607Y-53648374D01*
X175441914Y-53446925D01*
X175530931Y-53232018D01*
X175591136Y-53007330D01*
X175621499Y-52776707D01*
X175621499Y-52544093D01*
X175591136Y-52313470D01*
X175530931Y-52088782D01*
X175510968Y-52040588D01*
X175454806Y-51904999D01*
X175441914Y-51873875D01*
X175441912Y-51873872D01*
X175441910Y-51873867D01*
X175325611Y-51672433D01*
X175325607Y-51672426D01*
X175253710Y-51578728D01*
X175184002Y-51487882D01*
X175183996Y-51487875D01*
X175019523Y-51323402D01*
X175019516Y-51323396D01*
X174834981Y-51181798D01*
X174834979Y-51181796D01*
X174834973Y-51181792D01*
X174834968Y-51181789D01*
X174834965Y-51181787D01*
X174633531Y-51065488D01*
X174633520Y-51065483D01*
X174418619Y-50976468D01*
X174306273Y-50946365D01*
X174193929Y-50916263D01*
X174142679Y-50909515D01*
X173963313Y-50885900D01*
X173963306Y-50885900D01*
X173730692Y-50885900D01*
X173730684Y-50885900D01*
X173525693Y-50912889D01*
X173500069Y-50916263D01*
X173448802Y-50930000D01*
X173275378Y-50976468D01*
X173060477Y-51065483D01*
X173060466Y-51065488D01*
X172859032Y-51181787D01*
X172859016Y-51181798D01*
X172674481Y-51323396D01*
X172674474Y-51323402D01*
X172510001Y-51487875D01*
X172509995Y-51487882D01*
X172368397Y-51672417D01*
X172368386Y-51672433D01*
X172252087Y-51873867D01*
X172252082Y-51873878D01*
X172163067Y-52088779D01*
X172117913Y-52257298D01*
X172105262Y-52304515D01*
X172102862Y-52313471D01*
X172072499Y-52544085D01*
X162821764Y-52544085D01*
X162793354Y-52467913D01*
X162793350Y-52467906D01*
X162707191Y-52352814D01*
X162707184Y-52352807D01*
X162680626Y-52332925D01*
X162680625Y-52332925D01*
X161750000Y-53263550D01*
X161750000Y-53257339D01*
X161722741Y-53155606D01*
X161670080Y-53064394D01*
X161595606Y-52989920D01*
X161504394Y-52937259D01*
X161402661Y-52910000D01*
X161396448Y-52910000D01*
X162096448Y-52210000D01*
X160603551Y-52210000D01*
X161303552Y-52910000D01*
X161297339Y-52910000D01*
X161195606Y-52937259D01*
X161104394Y-52989920D01*
X161029920Y-53064394D01*
X160977259Y-53155606D01*
X160950000Y-53257339D01*
X160950000Y-53263551D01*
X160019373Y-52332924D01*
X159992812Y-52352809D01*
X159992807Y-52352815D01*
X159906649Y-52467906D01*
X159906645Y-52467913D01*
X159856403Y-52602620D01*
X159856401Y-52602627D01*
X159850000Y-52662155D01*
X129461630Y-52662155D01*
X129469129Y-52641297D01*
X129478732Y-52623305D01*
X129479099Y-52618651D01*
X128773409Y-51912962D01*
X128836993Y-51895925D01*
X128951007Y-51830099D01*
X129044099Y-51737007D01*
X129109925Y-51622993D01*
X129126962Y-51559410D01*
X129832651Y-52265099D01*
X129832651Y-52265098D01*
X129886288Y-52191276D01*
X129990082Y-51987568D01*
X130060734Y-51770125D01*
X130060734Y-51770124D01*
X130096500Y-51544313D01*
X130096500Y-51315686D01*
X130060734Y-51089875D01*
X130060734Y-51089874D01*
X129990082Y-50872431D01*
X129886292Y-50668731D01*
X129886288Y-50668725D01*
X129832651Y-50594900D01*
X129832651Y-50594899D01*
X129126962Y-51300589D01*
X129109925Y-51237007D01*
X129044099Y-51122993D01*
X128951007Y-51029901D01*
X128836993Y-50964075D01*
X128773408Y-50947037D01*
X129479099Y-50241347D01*
X129477772Y-50224493D01*
X129462970Y-50205297D01*
X129456991Y-50135683D01*
X129489597Y-50073888D01*
X129505633Y-50059993D01*
X129590566Y-49998286D01*
X129752286Y-49836566D01*
X129886717Y-49651538D01*
X129990548Y-49447758D01*
X130001151Y-49415126D01*
X130017460Y-49364933D01*
X146869840Y-49364933D01*
X146869840Y-49635066D01*
X146900083Y-49903474D01*
X146900085Y-49903490D01*
X146960192Y-50166837D01*
X146960193Y-50166839D01*
X147049407Y-50421799D01*
X147049411Y-50421810D01*
X147166607Y-50665171D01*
X147310325Y-50893895D01*
X147406628Y-51014657D01*
X148216842Y-50204443D01*
X148306138Y-50327349D01*
X148447491Y-50468702D01*
X148570395Y-50557996D01*
X147760181Y-51368210D01*
X147880944Y-51464514D01*
X148109668Y-51608232D01*
X148353029Y-51725428D01*
X148353033Y-51725430D01*
X148608000Y-51814646D01*
X148608002Y-51814647D01*
X148871349Y-51874754D01*
X148871365Y-51874756D01*
X149139773Y-51904999D01*
X149139774Y-51905000D01*
X149409906Y-51905000D01*
X149409906Y-51904999D01*
X149678314Y-51874756D01*
X149678330Y-51874754D01*
X149941677Y-51814647D01*
X149941679Y-51814646D01*
X150196646Y-51725430D01*
X150196650Y-51725428D01*
X150440011Y-51608232D01*
X150668735Y-51464515D01*
X150789497Y-51368209D01*
X149979284Y-50557997D01*
X150102189Y-50468702D01*
X150243542Y-50327349D01*
X150332837Y-50204444D01*
X151143049Y-51014657D01*
X151239355Y-50893895D01*
X151371625Y-50683389D01*
X159849500Y-50683389D01*
X159849500Y-50856610D01*
X159873293Y-51006839D01*
X159876598Y-51027701D01*
X159930127Y-51192445D01*
X160008768Y-51346788D01*
X160110586Y-51486928D01*
X160233072Y-51609414D01*
X160373212Y-51711232D01*
X160527555Y-51789873D01*
X160692299Y-51843402D01*
X160863389Y-51870500D01*
X160863390Y-51870500D01*
X161836610Y-51870500D01*
X161836611Y-51870500D01*
X162007701Y-51843402D01*
X162172445Y-51789873D01*
X162326788Y-51711232D01*
X162466928Y-51609414D01*
X162589414Y-51486928D01*
X162691232Y-51346788D01*
X162769873Y-51192445D01*
X162823402Y-51027701D01*
X162850500Y-50856611D01*
X162850500Y-50683389D01*
X162823402Y-50512299D01*
X162769873Y-50347555D01*
X162691232Y-50193212D01*
X162589414Y-50053072D01*
X162466928Y-49930586D01*
X162326788Y-49828768D01*
X162172445Y-49750127D01*
X162007701Y-49696598D01*
X162007699Y-49696597D01*
X162007698Y-49696597D01*
X161876271Y-49675781D01*
X161836611Y-49669500D01*
X160863389Y-49669500D01*
X160823728Y-49675781D01*
X160692302Y-49696597D01*
X160527552Y-49750128D01*
X160373211Y-49828768D01*
X160339098Y-49853553D01*
X160233072Y-49930586D01*
X160233070Y-49930588D01*
X160233069Y-49930588D01*
X160110588Y-50053069D01*
X160110588Y-50053070D01*
X160110586Y-50053072D01*
X160087801Y-50084433D01*
X160008768Y-50193211D01*
X159930128Y-50347552D01*
X159876597Y-50512302D01*
X159849500Y-50683389D01*
X151371625Y-50683389D01*
X151383070Y-50665174D01*
X151402555Y-50624715D01*
X151402556Y-50624713D01*
X151500268Y-50421810D01*
X151500273Y-50421799D01*
X151589486Y-50166839D01*
X151589487Y-50166837D01*
X151649594Y-49903490D01*
X151649596Y-49903474D01*
X151679839Y-49635066D01*
X151679840Y-49635066D01*
X151679840Y-49364934D01*
X151679839Y-49364933D01*
X151649596Y-49096525D01*
X151649594Y-49096509D01*
X151589487Y-48833162D01*
X151589486Y-48833160D01*
X151500270Y-48578193D01*
X151500268Y-48578189D01*
X151383072Y-48334828D01*
X151301174Y-48204489D01*
X151262782Y-48143389D01*
X159849500Y-48143389D01*
X159849500Y-48316610D01*
X159876531Y-48487282D01*
X159876598Y-48487701D01*
X159930127Y-48652445D01*
X160008768Y-48806788D01*
X160110586Y-48946928D01*
X160233072Y-49069414D01*
X160373212Y-49171232D01*
X160527555Y-49249873D01*
X160692299Y-49303402D01*
X160863389Y-49330500D01*
X160863390Y-49330500D01*
X161836610Y-49330500D01*
X161836611Y-49330500D01*
X162007701Y-49303402D01*
X162172445Y-49249873D01*
X162326788Y-49171232D01*
X162466928Y-49069414D01*
X162589414Y-48946928D01*
X162636868Y-48881613D01*
X162692197Y-48838949D01*
X162737185Y-48830500D01*
X166775500Y-48830500D01*
X166842539Y-48850185D01*
X166888294Y-48902989D01*
X166899500Y-48954500D01*
X166899500Y-51239457D01*
X166935628Y-51374286D01*
X166940423Y-51392183D01*
X166940426Y-51392190D01*
X167019475Y-51529109D01*
X167019479Y-51529114D01*
X167019480Y-51529116D01*
X167131284Y-51640920D01*
X167131286Y-51640921D01*
X167131290Y-51640924D01*
X167242051Y-51704871D01*
X167268216Y-51719977D01*
X167420943Y-51760900D01*
X167579057Y-51760900D01*
X168311540Y-51760900D01*
X168378579Y-51780585D01*
X168422025Y-51828606D01*
X168425490Y-51835407D01*
X168544639Y-51999404D01*
X168687995Y-52142760D01*
X168780545Y-52210000D01*
X168851994Y-52261910D01*
X169032618Y-52353943D01*
X169225416Y-52416587D01*
X169425640Y-52448300D01*
X169425641Y-52448300D01*
X169628359Y-52448300D01*
X169628360Y-52448300D01*
X169827268Y-52416795D01*
X169828579Y-52416588D01*
X169828579Y-52416587D01*
X169828584Y-52416587D01*
X170021382Y-52353943D01*
X170202006Y-52261910D01*
X170338049Y-52163070D01*
X170366004Y-52142760D01*
X170366006Y-52142757D01*
X170366010Y-52142755D01*
X170509355Y-51999410D01*
X170509357Y-51999406D01*
X170509360Y-51999404D01*
X170579301Y-51903137D01*
X170628510Y-51835406D01*
X170720543Y-51654782D01*
X170783187Y-51461984D01*
X170814900Y-51261760D01*
X170814900Y-51059040D01*
X170783187Y-50858816D01*
X170720543Y-50666018D01*
X170628510Y-50485394D01*
X170591816Y-50434888D01*
X170509360Y-50321395D01*
X170366004Y-50178039D01*
X170202009Y-50058892D01*
X170202008Y-50058891D01*
X170202006Y-50058890D01*
X170021382Y-49966857D01*
X169828584Y-49904213D01*
X169828582Y-49904212D01*
X169828580Y-49904212D01*
X169688782Y-49882070D01*
X169628360Y-49872500D01*
X169425640Y-49872500D01*
X169379224Y-49879851D01*
X169225419Y-49904212D01*
X169225416Y-49904213D01*
X169044523Y-49962989D01*
X169032615Y-49966858D01*
X168851990Y-50058892D01*
X168687995Y-50178039D01*
X168544639Y-50321395D01*
X168425490Y-50485392D01*
X168422025Y-50492194D01*
X168411575Y-50503257D01*
X168405253Y-50517103D01*
X168388071Y-50528144D01*
X168374051Y-50542990D01*
X168358371Y-50547231D01*
X168346475Y-50554877D01*
X168311540Y-50559900D01*
X168224500Y-50559900D01*
X168157461Y-50540215D01*
X168111706Y-50487411D01*
X168100500Y-50435900D01*
X168100500Y-48150945D01*
X168100500Y-48150943D01*
X168059577Y-47998216D01*
X168044614Y-47972299D01*
X167980524Y-47861290D01*
X167980518Y-47861282D01*
X167868717Y-47749481D01*
X167868709Y-47749475D01*
X167731790Y-47670426D01*
X167731786Y-47670424D01*
X167731784Y-47670423D01*
X167579057Y-47629500D01*
X167579056Y-47629500D01*
X162737185Y-47629500D01*
X162670146Y-47609815D01*
X162636867Y-47578386D01*
X162589414Y-47513072D01*
X162466928Y-47390586D01*
X162326788Y-47288768D01*
X162172445Y-47210127D01*
X162007701Y-47156598D01*
X162007699Y-47156597D01*
X162007698Y-47156597D01*
X161876271Y-47135781D01*
X161836611Y-47129500D01*
X160863389Y-47129500D01*
X160823728Y-47135781D01*
X160692302Y-47156597D01*
X160527552Y-47210128D01*
X160373211Y-47288768D01*
X160357064Y-47300500D01*
X160233072Y-47390586D01*
X160233070Y-47390588D01*
X160233069Y-47390588D01*
X160110588Y-47513069D01*
X160110588Y-47513070D01*
X160110586Y-47513072D01*
X160087801Y-47544433D01*
X160008768Y-47653211D01*
X159930128Y-47807552D01*
X159876597Y-47972302D01*
X159849500Y-48143389D01*
X151262782Y-48143389D01*
X151239354Y-48106104D01*
X151143050Y-47985341D01*
X150332836Y-48795554D01*
X150243542Y-48672651D01*
X150102189Y-48531298D01*
X149979283Y-48442001D01*
X150789497Y-47631788D01*
X150668735Y-47535485D01*
X150440011Y-47391767D01*
X150196650Y-47274571D01*
X150196646Y-47274569D01*
X149941679Y-47185353D01*
X149941677Y-47185352D01*
X149678330Y-47125245D01*
X149678314Y-47125243D01*
X149409906Y-47095000D01*
X149139774Y-47095000D01*
X148871365Y-47125243D01*
X148871349Y-47125245D01*
X148608002Y-47185352D01*
X148608000Y-47185353D01*
X148353033Y-47274569D01*
X148353029Y-47274571D01*
X148109668Y-47391767D01*
X147880950Y-47535481D01*
X147760182Y-47631789D01*
X148570395Y-48442002D01*
X148447491Y-48531298D01*
X148306138Y-48672651D01*
X148216842Y-48795555D01*
X147406629Y-47985342D01*
X147310321Y-48106110D01*
X147166607Y-48334828D01*
X147049411Y-48578189D01*
X147049409Y-48578193D01*
X146960193Y-48833160D01*
X146960192Y-48833162D01*
X146900085Y-49096509D01*
X146900083Y-49096525D01*
X146869840Y-49364933D01*
X130017460Y-49364933D01*
X130031039Y-49323141D01*
X130061221Y-49230249D01*
X130061221Y-49230248D01*
X130061222Y-49230245D01*
X130097000Y-49004354D01*
X130097000Y-48775646D01*
X130061222Y-48549755D01*
X130061221Y-48549751D01*
X130061221Y-48549750D01*
X129990549Y-48332244D01*
X129938453Y-48230000D01*
X129886717Y-48128462D01*
X129752286Y-47943434D01*
X129590566Y-47781714D01*
X129506059Y-47720316D01*
X129463396Y-47664988D01*
X129457417Y-47595375D01*
X129490023Y-47533580D01*
X129506056Y-47519685D01*
X129590566Y-47458286D01*
X129752286Y-47296566D01*
X129886717Y-47111538D01*
X129990548Y-46907758D01*
X130001151Y-46875126D01*
X130009681Y-46848872D01*
X138499500Y-46848872D01*
X138499500Y-47111127D01*
X138512535Y-47210128D01*
X138533730Y-47371116D01*
X138580170Y-47544433D01*
X138601602Y-47624418D01*
X138601605Y-47624428D01*
X138701953Y-47866690D01*
X138701958Y-47866700D01*
X138833075Y-48093803D01*
X138992718Y-48301851D01*
X138992726Y-48301860D01*
X139178140Y-48487274D01*
X139178148Y-48487281D01*
X139386196Y-48646924D01*
X139613299Y-48778041D01*
X139613309Y-48778046D01*
X139855571Y-48878394D01*
X139855581Y-48878398D01*
X140108884Y-48946270D01*
X140368880Y-48980500D01*
X140368887Y-48980500D01*
X140631113Y-48980500D01*
X140631120Y-48980500D01*
X140891116Y-48946270D01*
X141144419Y-48878398D01*
X141386697Y-48778043D01*
X141613803Y-48646924D01*
X141821851Y-48487282D01*
X141821855Y-48487277D01*
X141821860Y-48487274D01*
X142007274Y-48301860D01*
X142007277Y-48301855D01*
X142007282Y-48301851D01*
X142166924Y-48093803D01*
X142298043Y-47866697D01*
X142398398Y-47624419D01*
X142466270Y-47371116D01*
X142500500Y-47111120D01*
X142500500Y-46848880D01*
X142466270Y-46588884D01*
X142398398Y-46335581D01*
X142369903Y-46266788D01*
X142298046Y-46093309D01*
X142298041Y-46093299D01*
X142166924Y-45866196D01*
X142019448Y-45674004D01*
X142007281Y-45658148D01*
X142007274Y-45658140D01*
X141952523Y-45603389D01*
X159849500Y-45603389D01*
X159849500Y-45776611D01*
X159876598Y-45947701D01*
X159930127Y-46112445D01*
X160008768Y-46266788D01*
X160110586Y-46406928D01*
X160233072Y-46529414D01*
X160373212Y-46631232D01*
X160527555Y-46709873D01*
X160692299Y-46763402D01*
X160863389Y-46790500D01*
X160863390Y-46790500D01*
X161836610Y-46790500D01*
X161836611Y-46790500D01*
X162007701Y-46763402D01*
X162172445Y-46709873D01*
X162326788Y-46631232D01*
X162466928Y-46529414D01*
X162589414Y-46406928D01*
X162691232Y-46266788D01*
X162769873Y-46112445D01*
X162823402Y-45947701D01*
X162850500Y-45776611D01*
X162850500Y-45603389D01*
X162823402Y-45432299D01*
X162769873Y-45267555D01*
X162691232Y-45113212D01*
X162589414Y-44973072D01*
X162466928Y-44850586D01*
X162326788Y-44748768D01*
X162172445Y-44670127D01*
X162007701Y-44616598D01*
X162007699Y-44616597D01*
X162007698Y-44616597D01*
X161876271Y-44595781D01*
X161836611Y-44589500D01*
X160863389Y-44589500D01*
X160823728Y-44595781D01*
X160692302Y-44616597D01*
X160527552Y-44670128D01*
X160373211Y-44748768D01*
X160298703Y-44802902D01*
X160233072Y-44850586D01*
X160233070Y-44850588D01*
X160233069Y-44850588D01*
X160110588Y-44973069D01*
X160110588Y-44973070D01*
X160110586Y-44973072D01*
X160087801Y-45004433D01*
X160008768Y-45113211D01*
X159930128Y-45267552D01*
X159876597Y-45432302D01*
X159870196Y-45472718D01*
X159849500Y-45603389D01*
X141952523Y-45603389D01*
X141821860Y-45472726D01*
X141821851Y-45472718D01*
X141613803Y-45313075D01*
X141386700Y-45181958D01*
X141386690Y-45181953D01*
X141144428Y-45081605D01*
X141144421Y-45081603D01*
X141144419Y-45081602D01*
X140891116Y-45013730D01*
X140833339Y-45006123D01*
X140631127Y-44979500D01*
X140631120Y-44979500D01*
X140368880Y-44979500D01*
X140368872Y-44979500D01*
X140137772Y-45009926D01*
X140108884Y-45013730D01*
X139855581Y-45081602D01*
X139855571Y-45081605D01*
X139613309Y-45181953D01*
X139613299Y-45181958D01*
X139386196Y-45313075D01*
X139178148Y-45472718D01*
X138992718Y-45658148D01*
X138833075Y-45866196D01*
X138701958Y-46093299D01*
X138701953Y-46093309D01*
X138601605Y-46335571D01*
X138601602Y-46335581D01*
X138582485Y-46406929D01*
X138533730Y-46588885D01*
X138499500Y-46848872D01*
X130009681Y-46848872D01*
X130023448Y-46806503D01*
X130061221Y-46690249D01*
X130061221Y-46690248D01*
X130061222Y-46690245D01*
X130097000Y-46464354D01*
X130097000Y-46235646D01*
X130061222Y-46009755D01*
X130061221Y-46009751D01*
X130061221Y-46009750D01*
X129990549Y-45792244D01*
X129942952Y-45698830D01*
X129886717Y-45588462D01*
X129752286Y-45403434D01*
X129590566Y-45241714D01*
X129405538Y-45107283D01*
X129355136Y-45081602D01*
X129201755Y-45003450D01*
X128984248Y-44932778D01*
X128814826Y-44905944D01*
X128758354Y-44897000D01*
X128529646Y-44897000D01*
X128454349Y-44908926D01*
X128303753Y-44932778D01*
X128303750Y-44932778D01*
X128086244Y-45003450D01*
X127882461Y-45107283D01*
X127779688Y-45181953D01*
X127697434Y-45241714D01*
X127697432Y-45241716D01*
X127697431Y-45241716D01*
X127535716Y-45403431D01*
X127535716Y-45403432D01*
X127535714Y-45403434D01*
X127514740Y-45432302D01*
X127401283Y-45588461D01*
X127297450Y-45792244D01*
X127226778Y-46009750D01*
X127226778Y-46009753D01*
X127191000Y-46235646D01*
X127191000Y-46464353D01*
X127226778Y-46690246D01*
X127226778Y-46690249D01*
X127297450Y-46907755D01*
X127297452Y-46907758D01*
X127401283Y-47111538D01*
X127535714Y-47296566D01*
X127697434Y-47458286D01*
X127766923Y-47508773D01*
X127781938Y-47519682D01*
X127824603Y-47575013D01*
X127830582Y-47644626D01*
X127797976Y-47706421D01*
X127781938Y-47720318D01*
X127697432Y-47781715D01*
X127535716Y-47943431D01*
X127535716Y-47943432D01*
X127535714Y-47943434D01*
X127477980Y-48022896D01*
X127401283Y-48128461D01*
X127297450Y-48332244D01*
X127226778Y-48549750D01*
X127226778Y-48549753D01*
X127203703Y-48695443D01*
X127191000Y-48775646D01*
X127191000Y-49004354D01*
X127201304Y-49069411D01*
X127226778Y-49230246D01*
X127226778Y-49230249D01*
X127297450Y-49447755D01*
X127374998Y-49599951D01*
X127401283Y-49651538D01*
X127535714Y-49836566D01*
X127697434Y-49998286D01*
X127697437Y-49998288D01*
X127782362Y-50059990D01*
X127825028Y-50115320D01*
X127831007Y-50184933D01*
X127810242Y-50224285D01*
X127808899Y-50241347D01*
X128514590Y-50947037D01*
X128451007Y-50964075D01*
X128336993Y-51029901D01*
X128243901Y-51122993D01*
X128178075Y-51237007D01*
X128161037Y-51300590D01*
X127455347Y-50594899D01*
X127455346Y-50594900D01*
X127401713Y-50668719D01*
X127297917Y-50872431D01*
X127227265Y-51089874D01*
X127227265Y-51089875D01*
X127191500Y-51315686D01*
X127191500Y-51544313D01*
X127227265Y-51770124D01*
X127227265Y-51770125D01*
X127297917Y-51987568D01*
X127401711Y-52191276D01*
X127455347Y-52265098D01*
X127455347Y-52265099D01*
X128161037Y-51559409D01*
X128178075Y-51622993D01*
X128243901Y-51737007D01*
X128336993Y-51830099D01*
X128451007Y-51895925D01*
X128514590Y-51912962D01*
X127808899Y-52618651D01*
X127810226Y-52635505D01*
X127825029Y-52654702D01*
X127831008Y-52724316D01*
X127798402Y-52786111D01*
X127782364Y-52800007D01*
X127697440Y-52861709D01*
X127697431Y-52861716D01*
X127535716Y-53023431D01*
X127535716Y-53023432D01*
X127535714Y-53023434D01*
X127509645Y-53059315D01*
X127401283Y-53208461D01*
X127297450Y-53412244D01*
X127226778Y-53629750D01*
X127226778Y-53629753D01*
X127203703Y-53775443D01*
X127191000Y-53855646D01*
X127191000Y-54084354D01*
X127208889Y-54197299D01*
X127226778Y-54310246D01*
X127226778Y-54310249D01*
X127297450Y-54527755D01*
X127363533Y-54657449D01*
X127401283Y-54731538D01*
X127535714Y-54916566D01*
X127697434Y-55078286D01*
X127704301Y-55083275D01*
X127781938Y-55139682D01*
X127824603Y-55195013D01*
X127830582Y-55264626D01*
X127797976Y-55326421D01*
X127781938Y-55340318D01*
X127697432Y-55401715D01*
X127535716Y-55563431D01*
X127535716Y-55563432D01*
X127535714Y-55563434D01*
X127477980Y-55642896D01*
X127401283Y-55748461D01*
X127297450Y-55952244D01*
X127226778Y-56169750D01*
X127226778Y-56169753D01*
X127191000Y-56395646D01*
X127191000Y-56624353D01*
X127226778Y-56850246D01*
X127226778Y-56850249D01*
X127297450Y-57067755D01*
X127297452Y-57067758D01*
X127401283Y-57271538D01*
X127535714Y-57456566D01*
X127697434Y-57618286D01*
X127766923Y-57668773D01*
X127781938Y-57679682D01*
X127824603Y-57735013D01*
X127830582Y-57804626D01*
X127797976Y-57866421D01*
X127781938Y-57880318D01*
X127697432Y-57941715D01*
X127535716Y-58103431D01*
X127535716Y-58103432D01*
X127535714Y-58103434D01*
X127528611Y-58113211D01*
X127401283Y-58288461D01*
X127297450Y-58492244D01*
X127226778Y-58709750D01*
X127226777Y-58709754D01*
X127221212Y-58744897D01*
X127191283Y-58808032D01*
X127131972Y-58844964D01*
X127098739Y-58849500D01*
X121357190Y-58849500D01*
X121290151Y-58829815D01*
X121244396Y-58777011D01*
X121234452Y-58707853D01*
X121242627Y-58678053D01*
X121251940Y-58655570D01*
X121262500Y-58571497D01*
X121262501Y-57788507D01*
X121251940Y-57704431D01*
X121196863Y-57571464D01*
X121144879Y-57504545D01*
X120911872Y-57271538D01*
X120675462Y-57035128D01*
X120675454Y-57035121D01*
X120675451Y-57035118D01*
X120644747Y-57011266D01*
X120640443Y-57007922D01*
X120599578Y-56951249D01*
X120595840Y-56881480D01*
X120630416Y-56820765D01*
X120640436Y-56812081D01*
X120675455Y-56784879D01*
X121144882Y-56315451D01*
X121196864Y-56248537D01*
X121251940Y-56115570D01*
X121262500Y-56031497D01*
X121262501Y-55248507D01*
X121251940Y-55164431D01*
X121196863Y-55031464D01*
X121144879Y-54964545D01*
X120911872Y-54731538D01*
X120675462Y-54495128D01*
X120675454Y-54495121D01*
X120675451Y-54495118D01*
X120644747Y-54471266D01*
X120640443Y-54467922D01*
X120599578Y-54411249D01*
X120595840Y-54341480D01*
X120630416Y-54280765D01*
X120640436Y-54272081D01*
X120675455Y-54244879D01*
X121144882Y-53775451D01*
X121196864Y-53708537D01*
X121251940Y-53575570D01*
X121262500Y-53491497D01*
X121262501Y-52708507D01*
X121251940Y-52624431D01*
X121196863Y-52491464D01*
X121144879Y-52424545D01*
X120911610Y-52191276D01*
X120675462Y-51955128D01*
X120675454Y-51955121D01*
X120675451Y-51955118D01*
X120643118Y-51930000D01*
X120640443Y-51927922D01*
X120599578Y-51871249D01*
X120595840Y-51801480D01*
X120630416Y-51740765D01*
X120640436Y-51732081D01*
X120675455Y-51704879D01*
X121144882Y-51235451D01*
X121196864Y-51168537D01*
X121251940Y-51035570D01*
X121262500Y-50951497D01*
X121262501Y-50168507D01*
X121251940Y-50084431D01*
X121196863Y-49951464D01*
X121144879Y-49884545D01*
X120911872Y-49651538D01*
X120675462Y-49415128D01*
X120675454Y-49415121D01*
X120675451Y-49415118D01*
X120644747Y-49391266D01*
X120640443Y-49387922D01*
X120599578Y-49331249D01*
X120595840Y-49261480D01*
X120630416Y-49200765D01*
X120640436Y-49192081D01*
X120675455Y-49164879D01*
X121144882Y-48695451D01*
X121196864Y-48628537D01*
X121251940Y-48495570D01*
X121262500Y-48411497D01*
X121262501Y-47628507D01*
X121251940Y-47544431D01*
X121196863Y-47411464D01*
X121144879Y-47344545D01*
X120911447Y-47111113D01*
X120675462Y-46875128D01*
X120675454Y-46875121D01*
X120675451Y-46875118D01*
X120641666Y-46848872D01*
X120640443Y-46847922D01*
X120599578Y-46791249D01*
X120595840Y-46721480D01*
X120630416Y-46660765D01*
X120640436Y-46652081D01*
X120675455Y-46624879D01*
X121144882Y-46155451D01*
X121196864Y-46088537D01*
X121251940Y-45955570D01*
X121262500Y-45871497D01*
X121262501Y-45088507D01*
X121251940Y-45004431D01*
X121196863Y-44871464D01*
X121144879Y-44804545D01*
X120929834Y-44589500D01*
X120675462Y-44335128D01*
X120675443Y-44335111D01*
X120608538Y-44283136D01*
X120608537Y-44283135D01*
X120475573Y-44228061D01*
X120475571Y-44228060D01*
X120475570Y-44228060D01*
X120475569Y-44228059D01*
X120475566Y-44228059D01*
X120391500Y-44217500D01*
X120391493Y-44217499D01*
X119608505Y-44217499D01*
X119524433Y-44228059D01*
X119524429Y-44228060D01*
X119391464Y-44283136D01*
X119324545Y-44335121D01*
X119324539Y-44335126D01*
X118855128Y-44804537D01*
X118855111Y-44804556D01*
X118803136Y-44871461D01*
X118803135Y-44871462D01*
X118748061Y-45004426D01*
X118748059Y-45004433D01*
X118737500Y-45088499D01*
X118737499Y-45088506D01*
X118737499Y-45871494D01*
X118748059Y-45955566D01*
X118748060Y-45955570D01*
X118803136Y-46088535D01*
X118806837Y-46093299D01*
X118855121Y-46155455D01*
X118855125Y-46155459D01*
X118855126Y-46155460D01*
X119324537Y-46624871D01*
X119324556Y-46624888D01*
X119359555Y-46652077D01*
X119400421Y-46708749D01*
X119404159Y-46778519D01*
X119369583Y-46839234D01*
X119359555Y-46847924D01*
X119324547Y-46875119D01*
X119324539Y-46875126D01*
X118855128Y-47344537D01*
X118855111Y-47344556D01*
X118803136Y-47411461D01*
X118803135Y-47411462D01*
X118748061Y-47544426D01*
X118748059Y-47544433D01*
X118737500Y-47628499D01*
X118737499Y-47628506D01*
X118737499Y-48411494D01*
X118748059Y-48495566D01*
X118748060Y-48495570D01*
X118803136Y-48628535D01*
X118813264Y-48641572D01*
X118855121Y-48695455D01*
X118855125Y-48695459D01*
X118855126Y-48695460D01*
X119324537Y-49164871D01*
X119324556Y-49164888D01*
X119359555Y-49192077D01*
X119400421Y-49248749D01*
X119404159Y-49318519D01*
X119369583Y-49379234D01*
X119359555Y-49387924D01*
X119324547Y-49415119D01*
X119324539Y-49415126D01*
X118855128Y-49884537D01*
X118855111Y-49884556D01*
X118803136Y-49951461D01*
X118803135Y-49951462D01*
X118748061Y-50084426D01*
X118748059Y-50084433D01*
X118737500Y-50168499D01*
X118737499Y-50168506D01*
X118737499Y-50951494D01*
X118748059Y-51035566D01*
X118748060Y-51035570D01*
X118803136Y-51168535D01*
X118813439Y-51181798D01*
X118855121Y-51235455D01*
X118855125Y-51235459D01*
X118855126Y-51235460D01*
X119324537Y-51704871D01*
X119324556Y-51704888D01*
X119359555Y-51732077D01*
X119400421Y-51788749D01*
X119404159Y-51858519D01*
X119369583Y-51919234D01*
X119359555Y-51927924D01*
X119324547Y-51955119D01*
X119324539Y-51955126D01*
X118855128Y-52424537D01*
X118855111Y-52424556D01*
X118803136Y-52491461D01*
X118803135Y-52491462D01*
X118748061Y-52624426D01*
X118748059Y-52624433D01*
X118737500Y-52708499D01*
X118737499Y-52708506D01*
X118737499Y-53491494D01*
X118748059Y-53575566D01*
X118748060Y-53575570D01*
X118803136Y-53708535D01*
X118804274Y-53710000D01*
X118855121Y-53775455D01*
X118855125Y-53775459D01*
X118855126Y-53775460D01*
X119324537Y-54244871D01*
X119324556Y-54244888D01*
X119359555Y-54272077D01*
X119400421Y-54328749D01*
X119404159Y-54398519D01*
X119369583Y-54459234D01*
X119359555Y-54467924D01*
X119324547Y-54495119D01*
X119324539Y-54495126D01*
X118855128Y-54964537D01*
X118855111Y-54964556D01*
X118803136Y-55031461D01*
X118803135Y-55031462D01*
X118748061Y-55164426D01*
X118748059Y-55164433D01*
X118737500Y-55248499D01*
X118737499Y-55248506D01*
X118737499Y-56031494D01*
X118748059Y-56115566D01*
X118748060Y-56115570D01*
X118803136Y-56248535D01*
X118811585Y-56259411D01*
X118855121Y-56315455D01*
X118855125Y-56315459D01*
X118855126Y-56315460D01*
X119324537Y-56784871D01*
X119324556Y-56784888D01*
X119359555Y-56812077D01*
X119400421Y-56868749D01*
X119404159Y-56938519D01*
X119369583Y-56999234D01*
X119359555Y-57007924D01*
X119324547Y-57035119D01*
X119324539Y-57035126D01*
X118855128Y-57504537D01*
X118855111Y-57504556D01*
X118803136Y-57571461D01*
X118803135Y-57571462D01*
X118748061Y-57704426D01*
X118748059Y-57704433D01*
X118737500Y-57788499D01*
X118737499Y-57788506D01*
X118737499Y-58571494D01*
X118748059Y-58655566D01*
X118748061Y-58655573D01*
X118798489Y-58777318D01*
X118805958Y-58846787D01*
X118774682Y-58909266D01*
X118745928Y-58932157D01*
X118681287Y-58969477D01*
X118681282Y-58969481D01*
X117769481Y-59881282D01*
X117769479Y-59881285D01*
X117719361Y-59968094D01*
X117719359Y-59968096D01*
X117690425Y-60018209D01*
X117690424Y-60018210D01*
X117690423Y-60018215D01*
X117649499Y-60170943D01*
X117649499Y-60170945D01*
X117649499Y-60339046D01*
X117649500Y-60339059D01*
X117649500Y-61423330D01*
X117649499Y-61423348D01*
X117649499Y-61589054D01*
X117649498Y-61589054D01*
X117690423Y-61741785D01*
X117719358Y-61791900D01*
X117719359Y-61791904D01*
X117719360Y-61791904D01*
X117769479Y-61878714D01*
X117769481Y-61878717D01*
X117888349Y-61997585D01*
X117888355Y-61997590D01*
X118701180Y-62810415D01*
X118734665Y-62871738D01*
X118737499Y-62898096D01*
X118737499Y-63651494D01*
X118748059Y-63735566D01*
X118748060Y-63735570D01*
X118803136Y-63868535D01*
X118811585Y-63879411D01*
X118855121Y-63935455D01*
X118855125Y-63935459D01*
X118855126Y-63935460D01*
X119324537Y-64404871D01*
X119324556Y-64404888D01*
X119359555Y-64432077D01*
X119400421Y-64488749D01*
X119404159Y-64558519D01*
X119369583Y-64619234D01*
X119359555Y-64627924D01*
X119324547Y-64655119D01*
X119324539Y-64655126D01*
X118855128Y-65124537D01*
X118855111Y-65124556D01*
X118803136Y-65191461D01*
X118803135Y-65191462D01*
X118748061Y-65324426D01*
X118748059Y-65324433D01*
X118737500Y-65408499D01*
X118737499Y-65408506D01*
X118737499Y-66191494D01*
X118748059Y-66275566D01*
X118748060Y-66275570D01*
X118757371Y-66298047D01*
X118764840Y-66367516D01*
X118733565Y-66429995D01*
X118673477Y-66465648D01*
X118642810Y-66469500D01*
X112474097Y-66469500D01*
X112407058Y-66449815D01*
X112386416Y-66433181D01*
X106391616Y-60438381D01*
X106358131Y-60377058D01*
X106363115Y-60307366D01*
X106404987Y-60251433D01*
X106470451Y-60227016D01*
X106479297Y-60226700D01*
X108501234Y-60226700D01*
X108568273Y-60246385D01*
X108570125Y-60247598D01*
X108701814Y-60335590D01*
X108701827Y-60335597D01*
X108847498Y-60395935D01*
X108847503Y-60395937D01*
X108935240Y-60413389D01*
X109002153Y-60426699D01*
X109002156Y-60426700D01*
X109002158Y-60426700D01*
X109159844Y-60426700D01*
X109159845Y-60426699D01*
X109314497Y-60395937D01*
X109460179Y-60335594D01*
X109591289Y-60247989D01*
X109702789Y-60136489D01*
X109790394Y-60005379D01*
X109794045Y-59996566D01*
X109850735Y-59859701D01*
X109850737Y-59859697D01*
X109881500Y-59705042D01*
X109881500Y-59547358D01*
X109881500Y-59547355D01*
X109881499Y-59547353D01*
X109853567Y-59406930D01*
X109850737Y-59392703D01*
X109794728Y-59257484D01*
X109790397Y-59247027D01*
X109790390Y-59247014D01*
X109702789Y-59115911D01*
X109702786Y-59115907D01*
X109591292Y-59004413D01*
X109591288Y-59004410D01*
X109460185Y-58916809D01*
X109460172Y-58916802D01*
X109314501Y-58856464D01*
X109314489Y-58856461D01*
X109159845Y-58825700D01*
X109159842Y-58825700D01*
X109002158Y-58825700D01*
X109002155Y-58825700D01*
X108847510Y-58856461D01*
X108847498Y-58856464D01*
X108701827Y-58916802D01*
X108701814Y-58916809D01*
X108570125Y-59004802D01*
X108503447Y-59025680D01*
X108501234Y-59025700D01*
X106025974Y-59025700D01*
X105958935Y-59006015D01*
X105913180Y-58953211D01*
X105903236Y-58884053D01*
X105928050Y-58825628D01*
X105948414Y-58799414D01*
X105956864Y-58788537D01*
X106011940Y-58655570D01*
X106022500Y-58571497D01*
X106022501Y-57788507D01*
X106011940Y-57704431D01*
X105956863Y-57571464D01*
X105904879Y-57504545D01*
X105671872Y-57271538D01*
X105435462Y-57035128D01*
X105435454Y-57035121D01*
X105435451Y-57035118D01*
X105404747Y-57011266D01*
X105400443Y-57007922D01*
X105359578Y-56951249D01*
X105355840Y-56881480D01*
X105390416Y-56820765D01*
X105400436Y-56812081D01*
X105435455Y-56784879D01*
X105904882Y-56315451D01*
X105956864Y-56248537D01*
X106011940Y-56115570D01*
X106022500Y-56031497D01*
X106022501Y-55248507D01*
X106011940Y-55164431D01*
X105956863Y-55031464D01*
X105904879Y-54964545D01*
X105671872Y-54731538D01*
X105435462Y-54495128D01*
X105435454Y-54495121D01*
X105435451Y-54495118D01*
X105404747Y-54471266D01*
X105400443Y-54467922D01*
X105359578Y-54411249D01*
X105355840Y-54341480D01*
X105390416Y-54280765D01*
X105400436Y-54272081D01*
X105435455Y-54244879D01*
X105904882Y-53775451D01*
X105956864Y-53708537D01*
X106011940Y-53575570D01*
X106022500Y-53491497D01*
X106022501Y-52708507D01*
X106011940Y-52624431D01*
X105956863Y-52491464D01*
X105904879Y-52424545D01*
X105671610Y-52191276D01*
X105435462Y-51955128D01*
X105435454Y-51955121D01*
X105435451Y-51955118D01*
X105403118Y-51930000D01*
X105400443Y-51927922D01*
X105359578Y-51871249D01*
X105355840Y-51801480D01*
X105390416Y-51740765D01*
X105400436Y-51732081D01*
X105435455Y-51704879D01*
X105904882Y-51235451D01*
X105956864Y-51168537D01*
X106011940Y-51035570D01*
X106022500Y-50951497D01*
X106022501Y-50168507D01*
X106011940Y-50084431D01*
X106002628Y-50061952D01*
X105995160Y-49992484D01*
X106026435Y-49930005D01*
X106086523Y-49894352D01*
X106117190Y-49890500D01*
X109846202Y-49890500D01*
X109913241Y-49910185D01*
X109944125Y-49938427D01*
X109965121Y-49965455D01*
X109965125Y-49965459D01*
X109965126Y-49965460D01*
X110434537Y-50434871D01*
X110434556Y-50434888D01*
X110501461Y-50486863D01*
X110501462Y-50486864D01*
X110574179Y-50516983D01*
X110634430Y-50541940D01*
X110718503Y-50552500D01*
X111501493Y-50552501D01*
X111585569Y-50541940D01*
X111718536Y-50486863D01*
X111785455Y-50434879D01*
X112254882Y-49965451D01*
X112282076Y-49930444D01*
X112338748Y-49889579D01*
X112408517Y-49885840D01*
X112469233Y-49920414D01*
X112477920Y-49930439D01*
X112505121Y-49965455D01*
X112505125Y-49965459D01*
X112505126Y-49965460D01*
X112974537Y-50434871D01*
X112974556Y-50434888D01*
X113041461Y-50486863D01*
X113041462Y-50486864D01*
X113114179Y-50516983D01*
X113174430Y-50541940D01*
X113258503Y-50552500D01*
X114041493Y-50552501D01*
X114125569Y-50541940D01*
X114258536Y-50486863D01*
X114325455Y-50434879D01*
X114794882Y-49965451D01*
X114846864Y-49898537D01*
X114901940Y-49765570D01*
X114912500Y-49681497D01*
X114912501Y-48898507D01*
X114901940Y-48814431D01*
X114846863Y-48681464D01*
X114794879Y-48614545D01*
X114591827Y-48411493D01*
X114325462Y-48145128D01*
X114325443Y-48145111D01*
X114258538Y-48093136D01*
X114258537Y-48093135D01*
X114125573Y-48038061D01*
X114125571Y-48038060D01*
X114125570Y-48038060D01*
X114125569Y-48038059D01*
X114125566Y-48038059D01*
X114041500Y-48027500D01*
X114041493Y-48027499D01*
X113258505Y-48027499D01*
X113174433Y-48038059D01*
X113174429Y-48038060D01*
X113041464Y-48093136D01*
X112974545Y-48145121D01*
X112974539Y-48145126D01*
X112505128Y-48614537D01*
X112505115Y-48614551D01*
X112477921Y-48649557D01*
X112421248Y-48690421D01*
X112351478Y-48694158D01*
X112290764Y-48659582D01*
X112282074Y-48649553D01*
X112265747Y-48628536D01*
X112254879Y-48614545D01*
X112051827Y-48411493D01*
X111785462Y-48145128D01*
X111785443Y-48145111D01*
X111718538Y-48093136D01*
X111718537Y-48093135D01*
X111585573Y-48038061D01*
X111585571Y-48038060D01*
X111585570Y-48038060D01*
X111585569Y-48038059D01*
X111585566Y-48038059D01*
X111501500Y-48027500D01*
X111501493Y-48027499D01*
X110718505Y-48027499D01*
X110634433Y-48038059D01*
X110634429Y-48038060D01*
X110501464Y-48093136D01*
X110434545Y-48145121D01*
X110434539Y-48145126D01*
X109965128Y-48614537D01*
X109965120Y-48614546D01*
X109963205Y-48617011D01*
X109944124Y-48641573D01*
X109887453Y-48682437D01*
X109846202Y-48689500D01*
X106117190Y-48689500D01*
X106050151Y-48669815D01*
X106004396Y-48617011D01*
X105994452Y-48547853D01*
X106002627Y-48518053D01*
X106011940Y-48495570D01*
X106022500Y-48411497D01*
X106022501Y-47628507D01*
X106011940Y-47544431D01*
X105956863Y-47411464D01*
X105904879Y-47344545D01*
X105671447Y-47111113D01*
X105435462Y-46875128D01*
X105435454Y-46875121D01*
X105435451Y-46875118D01*
X105401666Y-46848872D01*
X105400443Y-46847922D01*
X105359578Y-46791249D01*
X105355840Y-46721480D01*
X105390416Y-46660765D01*
X105400436Y-46652081D01*
X105435455Y-46624879D01*
X105904882Y-46155451D01*
X105956864Y-46088537D01*
X106011940Y-45955570D01*
X106022500Y-45871497D01*
X106022501Y-45088507D01*
X106011940Y-45004431D01*
X105956863Y-44871464D01*
X105904879Y-44804545D01*
X105689834Y-44589500D01*
X105435462Y-44335128D01*
X105435443Y-44335111D01*
X105368538Y-44283136D01*
X105368537Y-44283135D01*
X105235573Y-44228061D01*
X105235571Y-44228060D01*
X105235570Y-44228060D01*
X105235569Y-44228059D01*
X105235566Y-44228059D01*
X105151500Y-44217500D01*
X105151493Y-44217499D01*
X104368505Y-44217499D01*
X104284433Y-44228059D01*
X104284429Y-44228060D01*
X104151464Y-44283136D01*
X104084545Y-44335121D01*
X104084539Y-44335126D01*
X103615128Y-44804537D01*
X103615111Y-44804556D01*
X103563136Y-44871461D01*
X103563135Y-44871462D01*
X103508061Y-45004426D01*
X103508059Y-45004433D01*
X103497500Y-45088499D01*
X103497499Y-45088506D01*
X103497499Y-45871494D01*
X103508059Y-45955566D01*
X103508060Y-45955570D01*
X103563136Y-46088535D01*
X103566837Y-46093299D01*
X103615121Y-46155455D01*
X103615125Y-46155459D01*
X103615126Y-46155460D01*
X104084537Y-46624871D01*
X104084556Y-46624888D01*
X104119555Y-46652077D01*
X104160421Y-46708749D01*
X104164159Y-46778519D01*
X104129583Y-46839234D01*
X104119555Y-46847924D01*
X104084547Y-46875119D01*
X104084539Y-46875126D01*
X103615128Y-47344537D01*
X103615111Y-47344556D01*
X103563136Y-47411461D01*
X103563135Y-47411462D01*
X103508061Y-47544426D01*
X103508059Y-47544433D01*
X103497500Y-47628499D01*
X103497499Y-47628506D01*
X103497499Y-48411494D01*
X103508059Y-48495566D01*
X103508060Y-48495570D01*
X103517371Y-48518047D01*
X103524840Y-48587516D01*
X103493565Y-48649995D01*
X103433477Y-48685648D01*
X103402810Y-48689500D01*
X100810940Y-48689500D01*
X100770019Y-48700464D01*
X100770019Y-48700465D01*
X100732751Y-48710451D01*
X100658214Y-48730423D01*
X100658209Y-48730426D01*
X100521290Y-48809475D01*
X100521282Y-48809481D01*
X99412839Y-49917925D01*
X99351516Y-49951410D01*
X99349350Y-49951861D01*
X99194008Y-49982761D01*
X99193998Y-49982764D01*
X99048327Y-50043102D01*
X99048314Y-50043109D01*
X98917211Y-50130710D01*
X98917207Y-50130713D01*
X98805713Y-50242207D01*
X98805710Y-50242211D01*
X98718109Y-50373314D01*
X98718102Y-50373327D01*
X98657764Y-50518998D01*
X98657761Y-50519010D01*
X98627000Y-50673653D01*
X98627000Y-50831346D01*
X98657761Y-50985989D01*
X98657764Y-50986001D01*
X98718102Y-51131672D01*
X98718109Y-51131685D01*
X98805710Y-51262788D01*
X98805713Y-51262792D01*
X98917207Y-51374286D01*
X98917211Y-51374289D01*
X99048314Y-51461890D01*
X99048327Y-51461897D01*
X99181251Y-51516955D01*
X99194003Y-51522237D01*
X99304986Y-51544313D01*
X99348653Y-51552999D01*
X99348656Y-51553000D01*
X99348658Y-51553000D01*
X99506344Y-51553000D01*
X99506345Y-51552999D01*
X99660997Y-51522237D01*
X99806462Y-51461984D01*
X99806672Y-51461897D01*
X99806672Y-51461896D01*
X99806679Y-51461894D01*
X99937789Y-51374289D01*
X100049289Y-51262789D01*
X100136894Y-51131679D01*
X100197237Y-50985997D01*
X100219827Y-50872431D01*
X100228138Y-50830650D01*
X100260523Y-50768739D01*
X100262018Y-50767216D01*
X101102416Y-49926819D01*
X101163739Y-49893334D01*
X101190097Y-49890500D01*
X103402810Y-49890500D01*
X103469849Y-49910185D01*
X103515604Y-49962989D01*
X103525548Y-50032147D01*
X103517372Y-50061946D01*
X103512427Y-50073888D01*
X103508060Y-50084429D01*
X103508059Y-50084433D01*
X103497500Y-50168499D01*
X103497499Y-50168506D01*
X103497499Y-50951494D01*
X103508059Y-51035566D01*
X103508060Y-51035570D01*
X103563136Y-51168535D01*
X103573439Y-51181798D01*
X103615121Y-51235455D01*
X103615125Y-51235459D01*
X103615126Y-51235460D01*
X104084537Y-51704871D01*
X104084556Y-51704888D01*
X104119555Y-51732077D01*
X104160421Y-51788749D01*
X104164159Y-51858519D01*
X104129583Y-51919234D01*
X104119555Y-51927924D01*
X104084547Y-51955119D01*
X104084539Y-51955126D01*
X103615128Y-52424537D01*
X103615111Y-52424556D01*
X103563136Y-52491461D01*
X103563135Y-52491462D01*
X103508061Y-52624426D01*
X103508059Y-52624433D01*
X103497500Y-52708499D01*
X103497499Y-52708506D01*
X103497499Y-53491494D01*
X103508059Y-53575566D01*
X103508060Y-53575570D01*
X103563136Y-53708535D01*
X103564274Y-53710000D01*
X103615121Y-53775455D01*
X103615125Y-53775459D01*
X103615126Y-53775460D01*
X104084537Y-54244871D01*
X104084556Y-54244888D01*
X104119555Y-54272077D01*
X104160421Y-54328749D01*
X104164159Y-54398519D01*
X104129583Y-54459234D01*
X104119555Y-54467924D01*
X104084547Y-54495119D01*
X104084539Y-54495126D01*
X103615128Y-54964537D01*
X103615111Y-54964556D01*
X103563136Y-55031461D01*
X103563135Y-55031462D01*
X103508061Y-55164426D01*
X103508059Y-55164433D01*
X103497500Y-55248499D01*
X103497499Y-55248506D01*
X103497499Y-56031494D01*
X103508059Y-56115566D01*
X103508060Y-56115570D01*
X103563136Y-56248535D01*
X103571585Y-56259411D01*
X103615121Y-56315455D01*
X103615125Y-56315459D01*
X103615126Y-56315460D01*
X104084537Y-56784871D01*
X104084556Y-56784888D01*
X104119555Y-56812077D01*
X104160421Y-56868749D01*
X104164159Y-56938519D01*
X104129583Y-56999234D01*
X104119555Y-57007924D01*
X104084547Y-57035119D01*
X104084539Y-57035126D01*
X103615128Y-57504537D01*
X103615111Y-57504556D01*
X103563136Y-57571461D01*
X103563135Y-57571462D01*
X103508061Y-57704426D01*
X103508059Y-57704433D01*
X103497500Y-57788499D01*
X103497499Y-57788506D01*
X103497499Y-58571494D01*
X103508059Y-58655566D01*
X103508060Y-58655570D01*
X103563137Y-58788538D01*
X103591951Y-58825629D01*
X103617533Y-58890647D01*
X103603903Y-58959174D01*
X103555388Y-59009454D01*
X103494027Y-59025700D01*
X98652170Y-59025700D01*
X98652154Y-59025699D01*
X98644558Y-59025699D01*
X98486443Y-59025699D01*
X98356566Y-59060500D01*
X98333715Y-59066623D01*
X98333713Y-59066624D01*
X98308320Y-59081283D01*
X98308321Y-59081284D01*
X98196787Y-59145677D01*
X98196782Y-59145681D01*
X97682084Y-59660380D01*
X97620761Y-59693865D01*
X97551069Y-59688881D01*
X97511104Y-59663196D01*
X97510632Y-59663750D01*
X97506935Y-59660593D01*
X97506928Y-59660586D01*
X97366788Y-59558768D01*
X97212445Y-59480127D01*
X97047701Y-59426598D01*
X97047699Y-59426597D01*
X97047698Y-59426597D01*
X96916271Y-59405781D01*
X96876611Y-59399500D01*
X95903389Y-59399500D01*
X95863728Y-59405781D01*
X95732302Y-59426597D01*
X95567552Y-59480128D01*
X95413211Y-59558768D01*
X95345787Y-59607755D01*
X95273072Y-59660586D01*
X95273070Y-59660588D01*
X95273069Y-59660588D01*
X95150588Y-59783069D01*
X95150588Y-59783070D01*
X95150586Y-59783072D01*
X95129904Y-59811538D01*
X95048768Y-59923211D01*
X94970128Y-60077552D01*
X94916597Y-60242302D01*
X94897166Y-60364988D01*
X94889500Y-60413389D01*
X94889500Y-60586611D01*
X94897677Y-60638239D01*
X94915872Y-60753121D01*
X94916598Y-60757701D01*
X94970127Y-60922445D01*
X95048768Y-61076788D01*
X95150586Y-61216928D01*
X95273072Y-61339414D01*
X95413212Y-61441232D01*
X95567555Y-61519873D01*
X95732299Y-61573402D01*
X95903389Y-61600500D01*
X95903390Y-61600500D01*
X96876610Y-61600500D01*
X96876611Y-61600500D01*
X97047701Y-61573402D01*
X97212445Y-61519873D01*
X97366788Y-61441232D01*
X97506928Y-61339414D01*
X97629414Y-61216928D01*
X97676866Y-61151616D01*
X97732196Y-61108950D01*
X97762910Y-61103181D01*
X97762697Y-61101562D01*
X97770754Y-61100501D01*
X97770757Y-61100501D01*
X97923485Y-61059577D01*
X97975612Y-61029481D01*
X98060416Y-60980520D01*
X98172220Y-60868716D01*
X98172220Y-60868714D01*
X98182424Y-60858511D01*
X98182427Y-60858506D01*
X98777916Y-60263019D01*
X98839239Y-60229534D01*
X98865597Y-60226700D01*
X103373500Y-60226700D01*
X103440539Y-60246385D01*
X103486294Y-60299189D01*
X103497500Y-60350700D01*
X103497499Y-61111491D01*
X103497499Y-61111494D01*
X103508059Y-61195566D01*
X103508060Y-61195570D01*
X103563136Y-61328535D01*
X103563137Y-61328536D01*
X103615121Y-61395455D01*
X103615125Y-61395459D01*
X103615126Y-61395460D01*
X104084537Y-61864871D01*
X104084556Y-61864888D01*
X104119555Y-61892077D01*
X104160421Y-61948749D01*
X104164159Y-62018519D01*
X104129583Y-62079234D01*
X104119555Y-62087924D01*
X104084547Y-62115119D01*
X104084539Y-62115126D01*
X103615128Y-62584537D01*
X103615111Y-62584556D01*
X103563136Y-62651461D01*
X103563135Y-62651462D01*
X103508061Y-62784426D01*
X103508059Y-62784433D01*
X103497500Y-62868499D01*
X103497499Y-62868506D01*
X103497499Y-63651494D01*
X103508059Y-63735566D01*
X103508060Y-63735570D01*
X103563136Y-63868535D01*
X103571585Y-63879411D01*
X103615121Y-63935455D01*
X103615125Y-63935459D01*
X103615126Y-63935460D01*
X104084537Y-64404871D01*
X104084556Y-64404888D01*
X104119555Y-64432077D01*
X104160421Y-64488749D01*
X104164159Y-64558519D01*
X104129583Y-64619234D01*
X104119555Y-64627924D01*
X104084547Y-64655119D01*
X104084539Y-64655126D01*
X103615128Y-65124537D01*
X103615118Y-65124549D01*
X103566676Y-65186905D01*
X103548500Y-65200010D01*
X103533454Y-65216614D01*
X103513744Y-65225071D01*
X103510003Y-65227770D01*
X103501031Y-65230557D01*
X103500286Y-65230757D01*
X103464216Y-65240423D01*
X103464114Y-65240481D01*
X103463997Y-65240513D01*
X103463905Y-65240565D01*
X103463905Y-65240566D01*
X103395254Y-65280235D01*
X103395255Y-65280236D01*
X103395167Y-65280287D01*
X103327284Y-65319480D01*
X103327198Y-65319565D01*
X103327097Y-65319624D01*
X103327007Y-65319713D01*
X103327005Y-65319715D01*
X103272048Y-65374714D01*
X103272016Y-65374747D01*
X103210103Y-65436660D01*
X103209756Y-65437054D01*
X102935441Y-65711585D01*
X102750561Y-65896611D01*
X102714453Y-65932747D01*
X102653143Y-65966256D01*
X102626737Y-65969100D01*
X97987776Y-65969100D01*
X97920737Y-65949415D01*
X97874982Y-65896611D01*
X97865038Y-65827453D01*
X97865303Y-65825703D01*
X97890500Y-65666611D01*
X97890500Y-65493389D01*
X97880680Y-65431388D01*
X97863402Y-65322299D01*
X97809873Y-65157555D01*
X97731232Y-65003212D01*
X97629414Y-64863072D01*
X97506928Y-64740586D01*
X97366788Y-64638768D01*
X97212445Y-64560127D01*
X97047701Y-64506598D01*
X97047699Y-64506597D01*
X97047698Y-64506597D01*
X96916271Y-64485781D01*
X96876611Y-64479500D01*
X95903389Y-64479500D01*
X95863728Y-64485781D01*
X95732302Y-64506597D01*
X95567552Y-64560128D01*
X95413211Y-64638768D01*
X95390694Y-64655128D01*
X95273072Y-64740586D01*
X95273070Y-64740588D01*
X95273069Y-64740588D01*
X95150588Y-64863069D01*
X95150588Y-64863070D01*
X95150586Y-64863072D01*
X95106859Y-64923256D01*
X95048768Y-65003211D01*
X94970128Y-65157552D01*
X94916597Y-65322302D01*
X94889500Y-65493389D01*
X94889500Y-65666611D01*
X94889499Y-65666611D01*
X94914697Y-65825703D01*
X94905742Y-65894996D01*
X94860746Y-65948448D01*
X94793994Y-65969087D01*
X94792224Y-65969100D01*
X92248742Y-65969100D01*
X92096013Y-66010023D01*
X92058702Y-66031566D01*
X92058701Y-66031566D01*
X91959087Y-66089077D01*
X91959082Y-66089081D01*
X87485339Y-70562825D01*
X87424016Y-70596310D01*
X87421850Y-70596761D01*
X87266508Y-70627661D01*
X87266498Y-70627664D01*
X87120827Y-70688002D01*
X87120814Y-70688009D01*
X86989711Y-70775610D01*
X86989707Y-70775613D01*
X86878213Y-70887107D01*
X86878210Y-70887111D01*
X86790609Y-71018214D01*
X86790602Y-71018227D01*
X86730264Y-71163898D01*
X86730261Y-71163910D01*
X86699500Y-71318553D01*
X86699500Y-71476246D01*
X86730261Y-71630889D01*
X86730264Y-71630901D01*
X86790602Y-71776572D01*
X86790609Y-71776585D01*
X86878210Y-71907688D01*
X86878213Y-71907692D01*
X86989707Y-72019186D01*
X86989711Y-72019189D01*
X87120814Y-72106790D01*
X87120827Y-72106797D01*
X87243237Y-72157500D01*
X87266503Y-72167137D01*
X87421153Y-72197899D01*
X87421156Y-72197900D01*
X87421158Y-72197900D01*
X87578844Y-72197900D01*
X87578845Y-72197899D01*
X87733497Y-72167137D01*
X87879179Y-72106794D01*
X88010289Y-72019189D01*
X88121789Y-71907689D01*
X88209394Y-71776579D01*
X88269737Y-71630897D01*
X88298054Y-71488538D01*
X88300638Y-71475550D01*
X88333023Y-71413639D01*
X88334518Y-71412116D01*
X92540216Y-67206419D01*
X92601539Y-67172934D01*
X92627897Y-67170100D01*
X95084903Y-67170100D01*
X95151942Y-67189785D01*
X95197697Y-67242589D01*
X95207641Y-67311747D01*
X95178616Y-67375303D01*
X95172584Y-67381781D01*
X95150967Y-67403397D01*
X95049195Y-67543475D01*
X94970591Y-67697742D01*
X94917085Y-67862415D01*
X94890000Y-68033428D01*
X94890000Y-68206571D01*
X94917085Y-68377584D01*
X94970591Y-68542257D01*
X95049195Y-68696524D01*
X95150967Y-68836602D01*
X95235405Y-68921040D01*
X95990000Y-68166445D01*
X95990000Y-68172661D01*
X96017259Y-68274394D01*
X96069920Y-68365606D01*
X96144394Y-68440080D01*
X96235606Y-68492741D01*
X96337339Y-68520000D01*
X96343552Y-68520000D01*
X95685787Y-69177762D01*
X95732419Y-69192914D01*
X95903429Y-69220000D01*
X96876571Y-69220000D01*
X97047582Y-69192914D01*
X97047585Y-69192913D01*
X97094211Y-69177763D01*
X97094211Y-69177762D01*
X96436448Y-68520000D01*
X96442661Y-68520000D01*
X96544394Y-68492741D01*
X96635606Y-68440080D01*
X96710080Y-68365606D01*
X96762741Y-68274394D01*
X96790000Y-68172661D01*
X96790000Y-68166449D01*
X97544592Y-68921041D01*
X97544593Y-68921041D01*
X97629033Y-68836601D01*
X97730804Y-68696524D01*
X97809408Y-68542257D01*
X97862914Y-68377584D01*
X97890000Y-68206571D01*
X97890000Y-68033428D01*
X97862914Y-67862415D01*
X97809408Y-67697742D01*
X97730804Y-67543475D01*
X97629032Y-67403397D01*
X97607416Y-67381781D01*
X97573931Y-67320458D01*
X97578915Y-67250766D01*
X97620787Y-67194833D01*
X97686251Y-67170416D01*
X97695097Y-67170100D01*
X102848061Y-67170100D01*
X102848177Y-67170131D01*
X102928531Y-67170100D01*
X103006057Y-67170100D01*
X103006060Y-67170100D01*
X103006281Y-67170070D01*
X103006292Y-67170070D01*
X103083406Y-67149374D01*
X103083407Y-67149380D01*
X103083449Y-67149362D01*
X103158784Y-67129177D01*
X103158793Y-67129171D01*
X103158993Y-67129088D01*
X103159003Y-67129086D01*
X103226880Y-67089861D01*
X103295716Y-67050120D01*
X103295722Y-67050113D01*
X103295896Y-67049981D01*
X103295898Y-67049978D01*
X103295903Y-67049976D01*
X103350950Y-66994885D01*
X103407520Y-66938316D01*
X103407521Y-66938313D01*
X103413144Y-66932691D01*
X103413480Y-66932305D01*
X103654919Y-66690678D01*
X103716226Y-66657171D01*
X103785920Y-66662128D01*
X103830313Y-66690646D01*
X104084537Y-66944871D01*
X104084556Y-66944888D01*
X104119555Y-66972077D01*
X104160421Y-67028749D01*
X104164159Y-67098519D01*
X104129583Y-67159234D01*
X104119555Y-67167924D01*
X104084547Y-67195119D01*
X104084539Y-67195126D01*
X103615128Y-67664537D01*
X103615111Y-67664556D01*
X103563136Y-67731461D01*
X103563135Y-67731462D01*
X103508061Y-67864426D01*
X103508059Y-67864433D01*
X103497500Y-67948499D01*
X103497499Y-67948506D01*
X103497499Y-68345352D01*
X103497499Y-68731493D01*
X103501085Y-68760046D01*
X103498407Y-68776572D01*
X103500791Y-68793147D01*
X103492935Y-68810348D01*
X103489911Y-68829014D01*
X103478722Y-68841470D01*
X103471766Y-68856703D01*
X103455857Y-68866926D01*
X103443222Y-68880994D01*
X103426641Y-68885702D01*
X103412988Y-68894477D01*
X103378053Y-68899500D01*
X103297670Y-68899500D01*
X103297654Y-68899499D01*
X103290058Y-68899499D01*
X103131943Y-68899499D01*
X103055579Y-68919961D01*
X102979214Y-68940423D01*
X102979209Y-68940426D01*
X102842290Y-69019475D01*
X102842282Y-69019481D01*
X101838584Y-70023181D01*
X101777261Y-70056666D01*
X101750903Y-70059500D01*
X98006977Y-70059500D01*
X97939938Y-70039815D01*
X97894183Y-69987011D01*
X97886733Y-69959865D01*
X97885876Y-69960068D01*
X97884092Y-69952520D01*
X97875615Y-69929793D01*
X97833796Y-69817669D01*
X97833795Y-69817668D01*
X97833793Y-69817664D01*
X97747547Y-69702455D01*
X97747544Y-69702452D01*
X97632335Y-69616206D01*
X97632328Y-69616202D01*
X97497482Y-69565908D01*
X97497483Y-69565908D01*
X97437883Y-69559501D01*
X97437881Y-69559500D01*
X97437873Y-69559500D01*
X97437864Y-69559500D01*
X95342129Y-69559500D01*
X95342123Y-69559501D01*
X95282516Y-69565908D01*
X95147671Y-69616202D01*
X95147664Y-69616206D01*
X95032455Y-69702452D01*
X95032452Y-69702455D01*
X94946206Y-69817664D01*
X94946202Y-69817671D01*
X94895908Y-69952517D01*
X94889501Y-70012116D01*
X94889500Y-70012135D01*
X94889500Y-71307870D01*
X94889501Y-71307876D01*
X94895908Y-71367483D01*
X94946202Y-71502328D01*
X94946206Y-71502335D01*
X95032452Y-71617544D01*
X95032455Y-71617547D01*
X95147664Y-71703793D01*
X95147671Y-71703797D01*
X95282517Y-71754091D01*
X95282516Y-71754091D01*
X95289444Y-71754835D01*
X95342127Y-71760500D01*
X97437872Y-71760499D01*
X97497483Y-71754091D01*
X97632331Y-71703796D01*
X97747546Y-71617546D01*
X97833796Y-71502331D01*
X97884091Y-71367483D01*
X97884091Y-71367481D01*
X97885874Y-71359938D01*
X97888146Y-71360474D01*
X97910429Y-71306688D01*
X97967823Y-71266843D01*
X98006976Y-71260500D01*
X101964331Y-71260500D01*
X101964347Y-71260501D01*
X101971943Y-71260501D01*
X102130054Y-71260501D01*
X102130057Y-71260501D01*
X102282785Y-71219577D01*
X102332904Y-71190639D01*
X102419716Y-71140520D01*
X102531520Y-71028716D01*
X102531520Y-71028714D01*
X102541728Y-71018507D01*
X102541729Y-71018504D01*
X103316341Y-70243893D01*
X103377661Y-70210411D01*
X103447353Y-70215395D01*
X103503286Y-70257267D01*
X103527703Y-70322731D01*
X103518582Y-70379025D01*
X103508061Y-70404426D01*
X103508059Y-70404433D01*
X103497500Y-70488499D01*
X103497499Y-70488506D01*
X103497499Y-71271494D01*
X103508059Y-71355566D01*
X103508060Y-71355570D01*
X103563136Y-71488535D01*
X103573851Y-71502328D01*
X103615121Y-71555455D01*
X103615125Y-71555459D01*
X103615126Y-71555460D01*
X104084537Y-72024871D01*
X104084556Y-72024888D01*
X104119555Y-72052077D01*
X104160421Y-72108749D01*
X104164159Y-72178519D01*
X104129583Y-72239234D01*
X104119555Y-72247924D01*
X104084547Y-72275119D01*
X104084539Y-72275126D01*
X103615128Y-72744537D01*
X103615111Y-72744556D01*
X103563136Y-72811461D01*
X103563135Y-72811462D01*
X103508061Y-72944426D01*
X103508059Y-72944433D01*
X103497500Y-73028499D01*
X103497499Y-73028506D01*
X103497499Y-73811494D01*
X103508059Y-73895566D01*
X103508060Y-73895570D01*
X103563136Y-74028535D01*
X103574738Y-74043470D01*
X103615121Y-74095455D01*
X103615125Y-74095459D01*
X103615126Y-74095460D01*
X104084537Y-74564871D01*
X104084556Y-74564888D01*
X104119555Y-74592077D01*
X104160421Y-74648749D01*
X104164159Y-74718519D01*
X104129583Y-74779234D01*
X104119555Y-74787924D01*
X104084547Y-74815119D01*
X104084539Y-74815126D01*
X103615128Y-75284537D01*
X103615111Y-75284556D01*
X103563136Y-75351461D01*
X103563135Y-75351462D01*
X103508061Y-75484426D01*
X103508059Y-75484433D01*
X103497500Y-75568499D01*
X103497499Y-75568506D01*
X103497499Y-76351494D01*
X103508059Y-76435566D01*
X103508060Y-76435570D01*
X103563136Y-76568535D01*
X103574738Y-76583470D01*
X103615121Y-76635455D01*
X103615125Y-76635459D01*
X103615126Y-76635460D01*
X103667485Y-76687819D01*
X103700970Y-76749142D01*
X103695986Y-76818834D01*
X103654114Y-76874767D01*
X103588650Y-76899184D01*
X103579804Y-76899500D01*
X85675940Y-76899500D01*
X85635019Y-76910464D01*
X85635019Y-76910465D01*
X85597751Y-76920451D01*
X85523214Y-76940423D01*
X85523209Y-76940426D01*
X85386290Y-77019475D01*
X85386282Y-77019481D01*
X84439479Y-77966284D01*
X84424548Y-77992147D01*
X84405910Y-78024430D01*
X84370036Y-78086563D01*
X84361991Y-78100500D01*
X84360423Y-78103215D01*
X84319499Y-78255943D01*
X84319499Y-78255945D01*
X84319499Y-78424046D01*
X84319500Y-78424059D01*
X84319500Y-84214281D01*
X84299815Y-84281320D01*
X84251795Y-84324765D01*
X84212185Y-84344947D01*
X84212184Y-84344948D01*
X84040215Y-84469889D01*
X83926673Y-84583431D01*
X83865350Y-84616915D01*
X83795658Y-84611931D01*
X83739725Y-84570059D01*
X83722810Y-84539082D01*
X83673797Y-84407671D01*
X83673793Y-84407664D01*
X83587547Y-84292455D01*
X83587544Y-84292452D01*
X83472335Y-84206206D01*
X83472328Y-84206202D01*
X83337482Y-84155908D01*
X83337483Y-84155908D01*
X83277883Y-84149501D01*
X83277881Y-84149500D01*
X83277873Y-84149500D01*
X83277864Y-84149500D01*
X81482129Y-84149500D01*
X81482123Y-84149501D01*
X81422516Y-84155908D01*
X81287671Y-84206202D01*
X81287664Y-84206206D01*
X81172455Y-84292452D01*
X81172452Y-84292455D01*
X81086206Y-84407664D01*
X81086202Y-84407671D01*
X81035908Y-84542517D01*
X81029501Y-84602116D01*
X81029500Y-84602135D01*
X69000500Y-84602135D01*
X69000500Y-70524933D01*
X76205000Y-70524933D01*
X76205000Y-70795066D01*
X76235243Y-71063474D01*
X76235245Y-71063490D01*
X76295352Y-71326837D01*
X76295353Y-71326839D01*
X76384569Y-71581806D01*
X76384571Y-71581810D01*
X76501767Y-71825171D01*
X76645485Y-72053895D01*
X76741788Y-72174657D01*
X77552002Y-71364443D01*
X77641298Y-71487349D01*
X77782651Y-71628702D01*
X77905555Y-71717996D01*
X77095341Y-72528210D01*
X77216104Y-72624514D01*
X77444828Y-72768232D01*
X77688189Y-72885428D01*
X77688193Y-72885430D01*
X77943160Y-72974646D01*
X77943162Y-72974647D01*
X78206509Y-73034754D01*
X78206525Y-73034756D01*
X78474933Y-73064999D01*
X78474934Y-73065000D01*
X78745066Y-73065000D01*
X78745066Y-73064999D01*
X79013474Y-73034756D01*
X79013490Y-73034754D01*
X79276837Y-72974647D01*
X79276839Y-72974646D01*
X79531806Y-72885430D01*
X79531810Y-72885428D01*
X79775171Y-72768232D01*
X80003895Y-72624515D01*
X80124657Y-72528209D01*
X79314444Y-71717997D01*
X79437349Y-71628702D01*
X79578702Y-71487349D01*
X79667996Y-71364444D01*
X80478209Y-72174657D01*
X80574515Y-72053895D01*
X80718232Y-71825171D01*
X80835428Y-71581810D01*
X80835430Y-71581806D01*
X80924646Y-71326839D01*
X80924647Y-71326837D01*
X80984754Y-71063490D01*
X80984756Y-71063474D01*
X81014999Y-70795066D01*
X81015000Y-70795066D01*
X81015000Y-70524934D01*
X81014999Y-70524933D01*
X80984756Y-70256525D01*
X80984754Y-70256509D01*
X80924647Y-69993162D01*
X80924646Y-69993160D01*
X80835430Y-69738193D01*
X80835428Y-69738189D01*
X80718232Y-69494828D01*
X80574514Y-69266104D01*
X80478210Y-69145341D01*
X79667996Y-69955554D01*
X79578702Y-69832651D01*
X79437349Y-69691298D01*
X79314443Y-69602001D01*
X80124657Y-68791788D01*
X80003895Y-68695485D01*
X79775171Y-68551767D01*
X79531810Y-68434571D01*
X79531806Y-68434569D01*
X79276839Y-68345353D01*
X79276837Y-68345352D01*
X79013490Y-68285245D01*
X79013474Y-68285243D01*
X78745066Y-68255000D01*
X78474934Y-68255000D01*
X78206525Y-68285243D01*
X78206509Y-68285245D01*
X77943162Y-68345352D01*
X77943160Y-68345353D01*
X77688193Y-68434569D01*
X77688189Y-68434571D01*
X77444828Y-68551767D01*
X77216110Y-68695481D01*
X77095342Y-68791789D01*
X77905555Y-69602002D01*
X77782651Y-69691298D01*
X77641298Y-69832651D01*
X77552002Y-69955555D01*
X76741789Y-69145342D01*
X76645481Y-69266110D01*
X76501767Y-69494828D01*
X76384571Y-69738189D01*
X76384569Y-69738193D01*
X76295353Y-69993160D01*
X76295352Y-69993162D01*
X76235245Y-70256509D01*
X76235243Y-70256525D01*
X76205000Y-70524933D01*
X69000500Y-70524933D01*
X69000500Y-62953389D01*
X94889500Y-62953389D01*
X94889500Y-63126611D01*
X94916598Y-63297701D01*
X94970127Y-63462445D01*
X95048768Y-63616788D01*
X95150586Y-63756928D01*
X95273072Y-63879414D01*
X95413212Y-63981232D01*
X95567555Y-64059873D01*
X95732299Y-64113402D01*
X95903389Y-64140500D01*
X95903390Y-64140500D01*
X96876610Y-64140500D01*
X96876611Y-64140500D01*
X97047701Y-64113402D01*
X97212445Y-64059873D01*
X97366788Y-63981232D01*
X97506928Y-63879414D01*
X97629414Y-63756928D01*
X97731232Y-63616788D01*
X97809873Y-63462445D01*
X97863402Y-63297701D01*
X97890500Y-63126611D01*
X97890500Y-62953389D01*
X97863402Y-62782299D01*
X97809873Y-62617555D01*
X97731232Y-62463212D01*
X97629414Y-62323072D01*
X97506928Y-62200586D01*
X97366788Y-62098768D01*
X97212445Y-62020127D01*
X97047701Y-61966598D01*
X97047699Y-61966597D01*
X97047698Y-61966597D01*
X96916271Y-61945781D01*
X96876611Y-61939500D01*
X95903389Y-61939500D01*
X95863728Y-61945781D01*
X95732302Y-61966597D01*
X95567552Y-62020128D01*
X95413211Y-62098768D01*
X95390694Y-62115128D01*
X95273072Y-62200586D01*
X95273070Y-62200588D01*
X95273069Y-62200588D01*
X95150588Y-62323069D01*
X95150588Y-62323070D01*
X95150586Y-62323072D01*
X95106859Y-62383256D01*
X95048768Y-62463211D01*
X94970128Y-62617552D01*
X94916597Y-62782302D01*
X94897406Y-62903474D01*
X94889500Y-62953389D01*
X69000500Y-62953389D01*
X69000500Y-57873389D01*
X94889500Y-57873389D01*
X94889500Y-58046611D01*
X94916598Y-58217701D01*
X94970127Y-58382445D01*
X95048768Y-58536788D01*
X95150586Y-58676928D01*
X95273072Y-58799414D01*
X95413212Y-58901232D01*
X95567555Y-58979873D01*
X95732299Y-59033402D01*
X95903389Y-59060500D01*
X95903390Y-59060500D01*
X96876610Y-59060500D01*
X96876611Y-59060500D01*
X97047701Y-59033402D01*
X97212445Y-58979873D01*
X97366788Y-58901232D01*
X97506928Y-58799414D01*
X97629414Y-58676928D01*
X97731232Y-58536788D01*
X97809873Y-58382445D01*
X97863402Y-58217701D01*
X97890500Y-58046611D01*
X97890500Y-57873389D01*
X97863402Y-57702299D01*
X97809873Y-57537555D01*
X97731232Y-57383212D01*
X97629414Y-57243072D01*
X97506928Y-57120586D01*
X97366788Y-57018768D01*
X97212445Y-56940127D01*
X97047701Y-56886598D01*
X97047699Y-56886597D01*
X97047698Y-56886597D01*
X96916271Y-56865781D01*
X96876611Y-56859500D01*
X95903389Y-56859500D01*
X95863728Y-56865781D01*
X95732302Y-56886597D01*
X95567552Y-56940128D01*
X95413211Y-57018768D01*
X95390694Y-57035128D01*
X95273072Y-57120586D01*
X95273070Y-57120588D01*
X95273069Y-57120588D01*
X95150588Y-57243069D01*
X95150588Y-57243070D01*
X95150586Y-57243072D01*
X95129904Y-57271538D01*
X95048768Y-57383211D01*
X94970128Y-57537552D01*
X94916597Y-57702302D01*
X94902944Y-57788505D01*
X94889500Y-57873389D01*
X69000500Y-57873389D01*
X69000500Y-55333389D01*
X94889500Y-55333389D01*
X94889500Y-55506611D01*
X94916598Y-55677701D01*
X94970127Y-55842445D01*
X95048768Y-55996788D01*
X95150586Y-56136928D01*
X95273072Y-56259414D01*
X95413212Y-56361232D01*
X95567555Y-56439873D01*
X95732299Y-56493402D01*
X95903389Y-56520500D01*
X95903390Y-56520500D01*
X96876610Y-56520500D01*
X96876611Y-56520500D01*
X97047701Y-56493402D01*
X97212445Y-56439873D01*
X97366788Y-56361232D01*
X97506928Y-56259414D01*
X97629414Y-56136928D01*
X97731232Y-55996788D01*
X97809873Y-55842445D01*
X97863402Y-55677701D01*
X97890500Y-55506611D01*
X97890500Y-55333389D01*
X97863402Y-55162299D01*
X97809873Y-54997555D01*
X97731232Y-54843212D01*
X97629414Y-54703072D01*
X97506928Y-54580586D01*
X97366788Y-54478768D01*
X97280691Y-54434900D01*
X97212447Y-54400128D01*
X97212446Y-54400127D01*
X97212445Y-54400127D01*
X97047701Y-54346598D01*
X97047699Y-54346597D01*
X97047698Y-54346597D01*
X96916271Y-54325781D01*
X96876611Y-54319500D01*
X95903389Y-54319500D01*
X95863728Y-54325781D01*
X95732302Y-54346597D01*
X95567552Y-54400128D01*
X95413211Y-54478768D01*
X95390694Y-54495128D01*
X95273072Y-54580586D01*
X95273070Y-54580588D01*
X95273069Y-54580588D01*
X95150588Y-54703069D01*
X95150588Y-54703070D01*
X95150586Y-54703072D01*
X95129904Y-54731538D01*
X95048768Y-54843211D01*
X94970128Y-54997552D01*
X94916597Y-55162302D01*
X94900889Y-55261480D01*
X94889500Y-55333389D01*
X69000500Y-55333389D01*
X69000500Y-52793389D01*
X94889500Y-52793389D01*
X94889500Y-52966611D01*
X94916598Y-53137701D01*
X94970127Y-53302445D01*
X95048768Y-53456788D01*
X95150586Y-53596928D01*
X95273072Y-53719414D01*
X95413212Y-53821232D01*
X95567555Y-53899873D01*
X95732299Y-53953402D01*
X95903389Y-53980500D01*
X95903390Y-53980500D01*
X96876610Y-53980500D01*
X96876611Y-53980500D01*
X97047701Y-53953402D01*
X97212445Y-53899873D01*
X97366788Y-53821232D01*
X97506928Y-53719414D01*
X97629414Y-53596928D01*
X97731232Y-53456788D01*
X97809873Y-53302445D01*
X97863402Y-53137701D01*
X97890500Y-52966611D01*
X97890500Y-52793389D01*
X97863402Y-52622299D01*
X97809873Y-52457555D01*
X97731232Y-52303212D01*
X97629414Y-52163072D01*
X97506928Y-52040586D01*
X97366788Y-51938768D01*
X97212445Y-51860127D01*
X97047701Y-51806598D01*
X97047699Y-51806597D01*
X97047698Y-51806597D01*
X96916271Y-51785781D01*
X96876611Y-51779500D01*
X95903389Y-51779500D01*
X95863728Y-51785781D01*
X95732302Y-51806597D01*
X95567552Y-51860128D01*
X95413211Y-51938768D01*
X95390694Y-51955128D01*
X95273072Y-52040586D01*
X95273070Y-52040588D01*
X95273069Y-52040588D01*
X95150588Y-52163069D01*
X95150588Y-52163070D01*
X95150586Y-52163072D01*
X95130095Y-52191276D01*
X95048768Y-52303211D01*
X94970128Y-52457552D01*
X94916597Y-52622302D01*
X94901954Y-52714756D01*
X94889500Y-52793389D01*
X69000500Y-52793389D01*
X69000500Y-50204933D01*
X76205000Y-50204933D01*
X76205000Y-50475066D01*
X76235243Y-50743474D01*
X76235245Y-50743490D01*
X76295352Y-51006837D01*
X76295353Y-51006839D01*
X76384569Y-51261806D01*
X76384571Y-51261810D01*
X76501767Y-51505171D01*
X76645485Y-51733895D01*
X76741788Y-51854657D01*
X77552002Y-51044443D01*
X77641298Y-51167349D01*
X77782651Y-51308702D01*
X77905555Y-51397996D01*
X77095341Y-52208210D01*
X77216104Y-52304514D01*
X77444828Y-52448232D01*
X77688189Y-52565428D01*
X77688193Y-52565430D01*
X77943160Y-52654646D01*
X77943162Y-52654647D01*
X78206509Y-52714754D01*
X78206525Y-52714756D01*
X78474933Y-52744999D01*
X78474934Y-52745000D01*
X78745066Y-52745000D01*
X78745066Y-52744999D01*
X79013474Y-52714756D01*
X79013490Y-52714754D01*
X79219965Y-52667627D01*
X79219973Y-52667626D01*
X79276840Y-52654646D01*
X79531806Y-52565430D01*
X79531810Y-52565428D01*
X79775171Y-52448232D01*
X80003895Y-52304515D01*
X80124657Y-52208209D01*
X79314444Y-51397997D01*
X79437349Y-51308702D01*
X79578702Y-51167349D01*
X79667996Y-51044444D01*
X80478209Y-51854657D01*
X80574515Y-51733895D01*
X80718232Y-51505171D01*
X80835428Y-51261810D01*
X80835430Y-51261806D01*
X80924646Y-51006839D01*
X80924647Y-51006837D01*
X80984754Y-50743490D01*
X80984756Y-50743474D01*
X81014999Y-50475066D01*
X81015000Y-50475066D01*
X81015000Y-50253389D01*
X94889500Y-50253389D01*
X94889500Y-50426610D01*
X94914776Y-50586201D01*
X94916598Y-50597701D01*
X94947742Y-50693553D01*
X94970128Y-50762447D01*
X95018106Y-50856610D01*
X95048768Y-50916788D01*
X95150586Y-51056928D01*
X95273072Y-51179414D01*
X95413212Y-51281232D01*
X95567555Y-51359873D01*
X95732299Y-51413402D01*
X95903389Y-51440500D01*
X95903390Y-51440500D01*
X96876610Y-51440500D01*
X96876611Y-51440500D01*
X97047701Y-51413402D01*
X97212445Y-51359873D01*
X97366788Y-51281232D01*
X97506928Y-51179414D01*
X97629414Y-51056928D01*
X97731232Y-50916788D01*
X97809873Y-50762445D01*
X97863402Y-50597701D01*
X97890500Y-50426611D01*
X97890500Y-50253389D01*
X97863402Y-50082299D01*
X97809873Y-49917555D01*
X97731232Y-49763212D01*
X97629414Y-49623072D01*
X97506928Y-49500586D01*
X97366788Y-49398768D01*
X97300384Y-49364934D01*
X97212447Y-49320128D01*
X97212446Y-49320127D01*
X97212445Y-49320127D01*
X97047701Y-49266598D01*
X97047699Y-49266597D01*
X97047698Y-49266597D01*
X96916271Y-49245781D01*
X96876611Y-49239500D01*
X95903389Y-49239500D01*
X95863728Y-49245781D01*
X95732302Y-49266597D01*
X95567552Y-49320128D01*
X95413211Y-49398768D01*
X95345787Y-49447755D01*
X95273072Y-49500586D01*
X95273070Y-49500588D01*
X95273069Y-49500588D01*
X95150588Y-49623069D01*
X95150588Y-49623070D01*
X95150586Y-49623072D01*
X95141872Y-49635066D01*
X95048768Y-49763211D01*
X94970128Y-49917552D01*
X94916597Y-50082302D01*
X94889500Y-50253389D01*
X81015000Y-50253389D01*
X81015000Y-50204934D01*
X81014999Y-50204933D01*
X80984756Y-49936525D01*
X80984754Y-49936509D01*
X80924647Y-49673162D01*
X80924646Y-49673160D01*
X80835430Y-49418193D01*
X80835428Y-49418189D01*
X80718232Y-49174828D01*
X80574514Y-48946104D01*
X80478210Y-48825341D01*
X79667996Y-49635554D01*
X79578702Y-49512651D01*
X79437349Y-49371298D01*
X79314443Y-49282001D01*
X80124657Y-48471788D01*
X80003895Y-48375485D01*
X79775171Y-48231767D01*
X79531810Y-48114571D01*
X79531806Y-48114569D01*
X79276839Y-48025353D01*
X79276837Y-48025352D01*
X79013490Y-47965245D01*
X79013474Y-47965243D01*
X78745066Y-47935000D01*
X78474934Y-47935000D01*
X78206525Y-47965243D01*
X78206509Y-47965245D01*
X77943162Y-48025352D01*
X77943160Y-48025353D01*
X77688193Y-48114569D01*
X77688189Y-48114571D01*
X77444828Y-48231767D01*
X77216110Y-48375481D01*
X77095342Y-48471789D01*
X77905555Y-49282002D01*
X77782651Y-49371298D01*
X77641298Y-49512651D01*
X77552002Y-49635555D01*
X76741789Y-48825342D01*
X76645481Y-48946110D01*
X76501767Y-49174828D01*
X76384571Y-49418189D01*
X76384569Y-49418193D01*
X76295353Y-49673160D01*
X76295352Y-49673162D01*
X76235245Y-49936509D01*
X76235243Y-49936525D01*
X76205000Y-50204933D01*
X69000500Y-50204933D01*
X69000500Y-45860445D01*
X69020185Y-45793406D01*
X69072989Y-45747651D01*
X69142147Y-45737707D01*
X69205703Y-45766732D01*
X69227602Y-45791555D01*
X69345804Y-45968458D01*
X69345821Y-45968481D01*
X69551546Y-46219158D01*
X69780841Y-46448453D01*
X69780846Y-46448457D01*
X69780847Y-46448458D01*
X70031524Y-46654183D01*
X70301158Y-46834347D01*
X70301167Y-46834352D01*
X70301169Y-46834353D01*
X70587145Y-46987211D01*
X70587147Y-46987211D01*
X70587153Y-46987215D01*
X70886754Y-47111314D01*
X71197077Y-47205449D01*
X71197083Y-47205450D01*
X71197086Y-47205451D01*
X71197097Y-47205454D01*
X71396528Y-47245122D01*
X71515132Y-47268714D01*
X71837857Y-47300500D01*
X71837860Y-47300500D01*
X72162140Y-47300500D01*
X72162143Y-47300500D01*
X72484868Y-47268714D01*
X72642295Y-47237399D01*
X72802902Y-47205454D01*
X72802913Y-47205451D01*
X72802913Y-47205450D01*
X72802923Y-47205449D01*
X73113246Y-47111314D01*
X73412847Y-46987215D01*
X73698842Y-46834347D01*
X73968476Y-46654183D01*
X74219153Y-46448458D01*
X74448458Y-46219153D01*
X74654183Y-45968476D01*
X74834347Y-45698842D01*
X74987215Y-45412847D01*
X75111314Y-45113246D01*
X75205449Y-44802923D01*
X75205451Y-44802913D01*
X75205454Y-44802902D01*
X75242511Y-44616598D01*
X75268714Y-44484868D01*
X75300500Y-44162143D01*
X75300500Y-43837857D01*
X75268714Y-43515132D01*
X75245122Y-43396528D01*
X75205454Y-43197097D01*
X75205451Y-43197086D01*
X75205450Y-43197083D01*
X75205449Y-43197077D01*
X75111314Y-42886754D01*
X74987215Y-42587153D01*
X74877765Y-42382388D01*
X74834353Y-42301169D01*
X74834352Y-42301167D01*
X74834347Y-42301158D01*
X74654183Y-42031524D01*
X74448458Y-41780847D01*
X74448457Y-41780846D01*
X74448453Y-41780841D01*
X74219158Y-41551546D01*
X73968481Y-41345821D01*
X73968480Y-41345820D01*
X73968476Y-41345817D01*
X73791554Y-41227601D01*
X73746750Y-41173990D01*
X73738043Y-41104665D01*
X73768197Y-41041638D01*
X73827640Y-41004918D01*
X73860446Y-41000500D01*
X181139554Y-41000500D01*
X181172054Y-41010043D01*
G37*
%TD.AperFunction*%
%TD*%
M02*
