%TF.GenerationSoftware,KiCad,Pcbnew,9.0.5*%
%TF.CreationDate,2026-05-06T17:23:30-07:00*%
%TF.ProjectId,Payload_Hardware_Schematic,5061796c-6f61-4645-9f48-617264776172,rev?*%
%TF.SameCoordinates,Original*%
%TF.FileFunction,Copper,L2,Bot*%
%TF.FilePolarity,Positive*%
%FSLAX46Y46*%
G04 Gerber Fmt 4.6, Leading zero omitted, Abs format (unit mm)*
G04 Created by KiCad (PCBNEW 9.0.5) date 2026-05-06 17:23:30*
%MOMM*%
%LPD*%
G01*
G04 APERTURE LIST*
G04 Aperture macros list*
%AMOutline4P*
0 Free polygon, 4 corners , with rotation*
0 The origin of the aperture is its center*
0 number of corners: always 4*
0 $1 to $8 corner X, Y*
0 $9 Rotation angle, in degrees counterclockwise*
0 create outline with 4 corners*
4,1,4,$1,$2,$3,$4,$5,$6,$7,$8,$1,$2,$9*%
%AMOutline5P*
0 Free polygon, 5 corners , with rotation*
0 The origin of the aperture is its center*
0 number of corners: always 5*
0 $1 to $10 corner X, Y*
0 $11 Rotation angle, in degrees counterclockwise*
0 create outline with 5 corners*
4,1,5,$1,$2,$3,$4,$5,$6,$7,$8,$9,$10,$1,$2,$11*%
%AMOutline6P*
0 Free polygon, 6 corners , with rotation*
0 The origin of the aperture is its center*
0 number of corners: always 6*
0 $1 to $12 corner X, Y*
0 $13 Rotation angle, in degrees counterclockwise*
0 create outline with 6 corners*
4,1,6,$1,$2,$3,$4,$5,$6,$7,$8,$9,$10,$11,$12,$1,$2,$13*%
%AMOutline7P*
0 Free polygon, 7 corners , with rotation*
0 The origin of the aperture is its center*
0 number of corners: always 7*
0 $1 to $14 corner X, Y*
0 $15 Rotation angle, in degrees counterclockwise*
0 create outline with 7 corners*
4,1,7,$1,$2,$3,$4,$5,$6,$7,$8,$9,$10,$11,$12,$13,$14,$1,$2,$15*%
%AMOutline8P*
0 Free polygon, 8 corners , with rotation*
0 The origin of the aperture is its center*
0 number of corners: always 8*
0 $1 to $16 corner X, Y*
0 $17 Rotation angle, in degrees counterclockwise*
0 create outline with 8 corners*
4,1,8,$1,$2,$3,$4,$5,$6,$7,$8,$9,$10,$11,$12,$13,$14,$15,$16,$1,$2,$17*%
G04 Aperture macros list end*
%TA.AperFunction,ComponentPad*%
%ADD10C,1.574800*%
%TD*%
%TA.AperFunction,ComponentPad*%
%ADD11C,5.600000*%
%TD*%
%TA.AperFunction,ComponentPad*%
%ADD12Outline4P,-0.762000X0.762000X0.762000X0.762000X0.762000X-0.762000X-0.762000X-0.762000X180.000000*%
%TD*%
%TA.AperFunction,ComponentPad*%
%ADD13Outline8P,-0.762000X0.350520X-0.350520X0.762000X0.350520X0.762000X0.762000X0.350520X0.762000X-0.350520X0.350520X-0.762000X-0.350520X-0.762000X-0.762000X-0.350520X180.000000*%
%TD*%
%TA.AperFunction,ComponentPad*%
%ADD14R,2.000000X1.200000*%
%TD*%
%TA.AperFunction,ComponentPad*%
%ADD15C,3.810000*%
%TD*%
%TA.AperFunction,ComponentPad*%
%ADD16O,2.000000X1.200000*%
%TD*%
%TA.AperFunction,ComponentPad*%
%ADD17R,1.700000X1.700000*%
%TD*%
%TA.AperFunction,ComponentPad*%
%ADD18C,1.700000*%
%TD*%
%TA.AperFunction,ComponentPad*%
%ADD19O,1.200000X2.000000*%
%TD*%
%TA.AperFunction,WasherPad*%
%ADD20C,3.000000*%
%TD*%
%TA.AperFunction,ComponentPad*%
%ADD21C,1.905000*%
%TD*%
%TA.AperFunction,ViaPad*%
%ADD22C,0.600000*%
%TD*%
%TA.AperFunction,Conductor*%
%ADD23C,0.200000*%
%TD*%
G04 APERTURE END LIST*
D10*
%TO.P,J4,1,Pin_1*%
%TO.N,/7.2V*%
X169527000Y-51160400D03*
%TO.P,J4,2,Pin_2*%
%TO.N,/GND*%
X169527000Y-54160399D03*
%TD*%
D11*
%TO.P,H2,1*%
%TO.N,N/C*%
X72000000Y-93000000D03*
%TD*%
D12*
%TO.P,U1,1,B12*%
%TO.N,/SCK3*%
X120000000Y-93740000D03*
D13*
%TO.P,U1,2,B13*%
%TO.N,/SCK4*%
X120000000Y-91200000D03*
%TO.P,U1,3,B14*%
%TO.N,/MISO2*%
X120000000Y-88660000D03*
%TO.P,U1,4,B15*%
%TO.N,/MOSI2*%
X120000000Y-86120000D03*
%TO.P,U1,5,A8*%
%TO.N,/TIM1*%
X120000000Y-83580000D03*
%TO.P,U1,6,A9*%
%TO.N,/TIM2*%
X120000000Y-81040000D03*
%TO.P,U1,7,A10*%
%TO.N,unconnected-(U1-A10-Pad7)*%
X120000000Y-78500000D03*
%TO.P,U1,8,A11*%
%TO.N,/MISO4*%
X120000000Y-75960000D03*
%TO.P,U1,9,A12*%
%TO.N,unconnected-(U1-A12-Pad9)*%
X120000000Y-73420000D03*
%TO.P,U1,10,A15*%
%TO.N,unconnected-(U1-A15-Pad10)*%
X120000000Y-70880000D03*
%TO.P,U1,11,B3*%
%TO.N,/NSS3*%
X120000000Y-68340000D03*
%TO.P,U1,12,B4*%
%TO.N,/MISO3*%
X120000000Y-65800000D03*
%TO.P,U1,13,B5*%
%TO.N,/MOSI3*%
X120000000Y-63260000D03*
%TO.P,U1,14,B6*%
%TO.N,/CSIMU*%
X120000000Y-60720000D03*
%TO.P,U1,15,B7*%
%TO.N,unconnected-(U1-B7-Pad15)*%
X120000000Y-58180000D03*
%TO.P,U1,16,B8*%
%TO.N,unconnected-(U1-B8-Pad16)*%
X120000000Y-55640000D03*
%TO.P,U1,17,B9*%
%TO.N,unconnected-(U1-B9-Pad17)*%
X120000000Y-53100000D03*
%TO.P,U1,18,5V*%
%TO.N,unconnected-(U1-5V-Pad18)*%
X120000000Y-50560000D03*
%TO.P,U1,19,G*%
%TO.N,unconnected-(U1-G-Pad19)*%
X120000000Y-48020000D03*
%TO.P,U1,20,3.3V*%
%TO.N,/<NO NET>*%
X120000000Y-45480000D03*
%TO.P,U1,21,VBat*%
%TO.N,unconnected-(U1-VBat-Pad21)*%
X104760000Y-45480000D03*
%TO.P,U1,22,C13*%
%TO.N,/LED*%
X104760000Y-48020000D03*
%TO.P,U1,23,C14*%
%TO.N,/RCC_OSC32_IN*%
X104760000Y-50560000D03*
%TO.P,U1,24,C15*%
%TO.N,/RCC_OSC32_OUT*%
X104760000Y-53100000D03*
%TO.P,U1,25,NRST*%
%TO.N,unconnected-(U1-NRST-Pad25)*%
X104760000Y-55640000D03*
%TO.P,U1,26,A0*%
%TO.N,/BTN*%
X104760000Y-58180000D03*
%TO.P,U1,27,A1*%
%TO.N,/MOSI4*%
X104760000Y-60720000D03*
%TO.P,U1,28,A2*%
%TO.N,/UART_TX*%
X104760000Y-63260000D03*
%TO.P,U1,29,A3*%
%TO.N,/UART_RX*%
X104760000Y-65800000D03*
%TO.P,U1,30,A4*%
%TO.N,/NSS1*%
X104760000Y-68340000D03*
%TO.P,U1,31,A5*%
%TO.N,unconnected-(U1-A5-Pad31)*%
X104760000Y-70880000D03*
%TO.P,U1,32,A6*%
%TO.N,unconnected-(U1-A6-Pad32)*%
X104760000Y-73420000D03*
%TO.P,U1,33,A7*%
%TO.N,unconnected-(U1-A7-Pad33)*%
X104760000Y-75960000D03*
%TO.P,U1,34,B0*%
%TO.N,/FDBK1*%
X104760000Y-78500000D03*
%TO.P,U1,35,B1*%
%TO.N,/FDBK2*%
X104760000Y-81040000D03*
%TO.P,U1,36,B2*%
%TO.N,/NSS2*%
X104760000Y-83580000D03*
%TO.P,U1,37,B10*%
%TO.N,/SCK2*%
X104760000Y-86120000D03*
%TO.P,U1,38,3.3V*%
%TO.N,unconnected-(U1-3.3V-Pad38)*%
X104760000Y-88660000D03*
%TO.P,U1,39,G*%
%TO.N,/GND*%
X104760000Y-91200000D03*
%TO.P,U1,40,5V*%
%TO.N,unconnected-(U1-5V-Pad40)*%
X104760000Y-93740000D03*
%TO.P,U1,41,A13*%
%TO.N,/DIO*%
X113650000Y-49290000D03*
%TO.P,U1,42,A14*%
%TO.N,/SCK*%
X111110000Y-49290000D03*
%TD*%
D11*
%TO.P,H1,1*%
%TO.N,N/C*%
X72000000Y-44000000D03*
%TD*%
D14*
%TO.P,U5,1,GND*%
%TO.N,/GND*%
X161350000Y-66310000D03*
D15*
X149274840Y-62500000D03*
D16*
%TO.P,U5,2,3V3*%
%TO.N,/<NO NET>*%
X161350000Y-63770000D03*
%TO.P,U5,3,VIN*%
%TO.N,/7.2V*%
X161350000Y-61230000D03*
%TO.P,U5,4,EN*%
%TO.N,unconnected-(U5-EN-Pad4)*%
X161350000Y-58690000D03*
%TD*%
D11*
%TO.P,H4,1*%
%TO.N,N/C*%
X183000000Y-93000000D03*
%TD*%
D17*
%TO.P,J3,1,Pin_1*%
%TO.N,/FDBK1*%
X169115000Y-63690000D03*
D18*
%TO.P,J3,2,Pin_2*%
%TO.N,/TIM1*%
X169115000Y-66230000D03*
%TO.P,J3,3,Pin_3*%
%TO.N,/7.2V*%
X169115000Y-68770000D03*
%TO.P,J3,4,Pin_4*%
%TO.N,/GND*%
X169115000Y-71310000D03*
%TD*%
D14*
%TO.P,J1,1,3V*%
%TO.N,/<NO NET>*%
X96390000Y-70660000D03*
D15*
%TO.P,J1,2,GND*%
%TO.N,/GND*%
X78610000Y-70660000D03*
D16*
X96390000Y-68120000D03*
D15*
X78610000Y-50340000D03*
D16*
%TO.P,J1,3,CLK*%
%TO.N,/SCK2*%
X96390000Y-65580000D03*
%TO.P,J1,4,DAT0/MISO*%
%TO.N,/MISO2*%
X96390000Y-63040000D03*
%TO.P,J1,5,MOSI*%
%TO.N,/MOSI2*%
X96390000Y-60500000D03*
%TO.P,J1,6,DAT3/CS*%
%TO.N,/NSS2*%
X96390000Y-57960000D03*
%TO.P,J1,7,D1*%
%TO.N,unconnected-(J1-D1-Pad7)*%
X96390000Y-55420000D03*
%TO.P,J1,8,DAT2*%
%TO.N,unconnected-(J1-DAT2-Pad8)*%
X96390000Y-52880000D03*
%TO.P,J1,9,DET*%
%TO.N,unconnected-(J1-DET-Pad9)*%
X96390000Y-50340000D03*
%TD*%
D17*
%TO.P,J2,1,Pin_1*%
%TO.N,/SCK*%
X82380000Y-85500000D03*
D18*
%TO.P,J2,2,Pin_2*%
%TO.N,/DIO*%
X84920000Y-85500000D03*
%TO.P,J2,3,Pin_3*%
%TO.N,/UART_RX*%
X87460000Y-85500000D03*
%TO.P,J2,4,Pin_4*%
%TO.N,/UART_TX*%
X90000000Y-85500000D03*
%TO.P,J2,5,Pin_5*%
%TO.N,/<NO NET>*%
X92540000Y-85500000D03*
%TO.P,J2,6,Pin_6*%
%TO.N,/GND*%
X95080000Y-85500000D03*
%TD*%
D19*
%TO.P,U4,1,VIN*%
%TO.N,/<NO NET>*%
X153660000Y-73880000D03*
%TO.P,U4,2,3V3*%
%TO.N,unconnected-(U4-3V3-Pad2)*%
X151120000Y-73880000D03*
D15*
%TO.P,U4,3,GND*%
%TO.N,/GND*%
X157470000Y-89120000D03*
X157470000Y-73880000D03*
D19*
X148580000Y-73880000D03*
D15*
X129530000Y-89120000D03*
X129530000Y-73880000D03*
D19*
%TO.P,U4,4,SCL*%
%TO.N,/SCK4*%
X146040000Y-73880000D03*
%TO.P,U4,5,SDA/MOSI*%
%TO.N,/MOSI4*%
X143500000Y-73880000D03*
%TO.P,U4,6,CSAG*%
%TO.N,/CSIMU*%
X140960000Y-73880000D03*
%TO.P,U4,7,CSM*%
%TO.N,unconnected-(U4-CSM-Pad7)*%
X138420000Y-73880000D03*
%TO.P,U4,8,SDOAG*%
%TO.N,/MISO4*%
X135880000Y-73880000D03*
%TO.P,U4,9,SDOM*%
X133340000Y-73880000D03*
%TO.P,U4,10,DEN*%
%TO.N,unconnected-(U4-DEN-Pad10)*%
X138420000Y-89120000D03*
%TO.P,U4,11,INT1*%
%TO.N,unconnected-(U4-INT1-Pad11)*%
X140960000Y-89120000D03*
%TO.P,U4,12,INT2*%
%TO.N,unconnected-(U4-INT2-Pad12)*%
X143500000Y-89120000D03*
%TO.P,U4,13,DRDY*%
%TO.N,unconnected-(U4-DRDY-Pad13)*%
X146040000Y-89120000D03*
%TO.P,U4,14,INTM*%
%TO.N,unconnected-(U4-INTM-Pad14)*%
X148580000Y-89120000D03*
%TD*%
D17*
%TO.P,J5,1,Pin_1*%
%TO.N,/FDBK2*%
X169615000Y-79690000D03*
D18*
%TO.P,J5,2,Pin_2*%
%TO.N,/TIM2*%
X169615000Y-82230000D03*
%TO.P,J5,3,Pin_3*%
%TO.N,/7.2V*%
X169615000Y-84770000D03*
%TO.P,J5,4,Pin_4*%
%TO.N,/GND*%
X169615000Y-87310000D03*
%TD*%
D14*
%TO.P,U2,1,GND*%
%TO.N,/GND*%
X161350000Y-53310000D03*
D15*
X149274840Y-49500000D03*
D16*
%TO.P,U2,2,5V*%
%TO.N,/5V*%
X161350000Y-50770000D03*
%TO.P,U2,3,VIN*%
%TO.N,/7.2V*%
X161350000Y-48230000D03*
%TO.P,U2,4,EN*%
%TO.N,unconnected-(U2-EN-Pad4)*%
X161350000Y-45690000D03*
%TD*%
D20*
%TO.P,U6,*%
%TO.N,*%
X140500000Y-46980000D03*
X140500000Y-63500000D03*
D21*
%TO.P,U6,1,VIN*%
%TO.N,/<NO NET>*%
X128644000Y-46350000D03*
%TO.P,U6,2,3Vo*%
%TO.N,unconnected-(U6-3Vo-Pad2)*%
X128644000Y-48890000D03*
%TO.P,U6,3,GND*%
%TO.N,/GND*%
X128644000Y-51430000D03*
%TO.P,U6,4,SCL*%
%TO.N,/SCK3*%
X128644000Y-53970000D03*
%TO.P,U6,5,SDO*%
%TO.N,/MISO3*%
X128644000Y-56510000D03*
%TO.P,U6,6,SDA*%
%TO.N,/MOSI3*%
X128644000Y-59050000D03*
%TO.P,U6,7,CS*%
%TO.N,/NSS3*%
X128644000Y-61590000D03*
%TO.P,U6,8,INT*%
%TO.N,unconnected-(U6-INT-Pad8)*%
X128644000Y-64130000D03*
%TD*%
D11*
%TO.P,H3,1*%
%TO.N,N/C*%
X183000000Y-44000000D03*
%TD*%
D22*
%TO.N,/MISO2*%
X101638000Y-80015700D03*
%TO.N,/MOSI2*%
X109081000Y-59626200D03*
%TO.N,/SCK4*%
X143752000Y-83289400D03*
%TO.N,/<NO NET>*%
X107000000Y-69500000D03*
%TO.N,/FDBK1*%
X167000000Y-74903876D03*
%TO.N,/UART_RX*%
X87500000Y-71397400D03*
%TO.N,/TIM1*%
X127045000Y-67476000D03*
%TO.N,/CSIMU*%
X140960000Y-66750000D03*
%TO.N,/SCK*%
X99427500Y-50752500D03*
%TO.N,/DIO*%
X108292000Y-77373600D03*
%TD*%
D23*
%TO.N,/SCK2*%
X104760000Y-85175200D02*
X104760000Y-86120000D01*
X98500000Y-78915200D02*
X104760000Y-85175200D01*
X98500000Y-65580000D02*
X98500000Y-78915200D01*
X96390000Y-65580000D02*
X98500000Y-65580000D01*
%TO.N,/MISO2*%
X97691700Y-63040000D02*
X96390000Y-63040000D01*
X101638000Y-80015700D02*
X101638000Y-66986000D01*
X101638000Y-66986000D02*
X97691700Y-63040000D01*
%TO.N,/MOSI2*%
X120000000Y-86120000D02*
X120000000Y-85500000D01*
X109081000Y-74581300D02*
X109081000Y-59626200D01*
X120000000Y-85500000D02*
X109081000Y-74581300D01*
%TO.N,/NSS3*%
X120000000Y-68340000D02*
X121894000Y-68340000D01*
X121894000Y-68340000D02*
X128644000Y-61590000D01*
%TO.N,/SCK4*%
X146040000Y-81001400D02*
X146040000Y-73880000D01*
X143752000Y-83289400D02*
X146040000Y-81001400D01*
%TO.N,/<NO NET>*%
X96390000Y-70660000D02*
X95088300Y-70660000D01*
X143752000Y-50752500D02*
X156770000Y-63770000D01*
X120000000Y-45480000D02*
X127572000Y-45480000D01*
X161350000Y-63770000D02*
X159782000Y-63770000D01*
X107000000Y-50860000D02*
X112380000Y-45480000D01*
X128543000Y-46451000D02*
X132844000Y-50752500D01*
X153660000Y-73880000D02*
X153660000Y-69891900D01*
X156770000Y-63770000D02*
X159782000Y-63770000D01*
X128644000Y-46350000D02*
X128543000Y-46451000D01*
X107000000Y-69500000D02*
X107000000Y-50860000D01*
X112380000Y-45480000D02*
X120000000Y-45480000D01*
X92540000Y-85500000D02*
X92540000Y-73208300D01*
X132844000Y-50752500D02*
X143752000Y-50752500D01*
X153660000Y-69891900D02*
X159782000Y-63770000D01*
X92540000Y-73208300D02*
X92660000Y-73088300D01*
X92660000Y-73088300D02*
X95088300Y-70660000D01*
X127572000Y-45480000D02*
X128543000Y-46451000D01*
%TO.N,/FDBK1*%
X167000000Y-74903876D02*
X167000000Y-63690000D01*
X167000000Y-63690000D02*
X169115000Y-63690000D01*
%TO.N,/UART_RX*%
X87500000Y-85540000D02*
X87500000Y-85920000D01*
X87500000Y-85920000D02*
X87580000Y-86000000D01*
X87500000Y-71397400D02*
X87460000Y-71437400D01*
X87460000Y-85500000D02*
X87500000Y-85540000D01*
X87460000Y-71437400D02*
X87460000Y-85500000D01*
%TO.N,/TIM1*%
X122000000Y-83580000D02*
X122000000Y-72521000D01*
X122000000Y-72521000D02*
X127045000Y-67476000D01*
X120000000Y-83580000D02*
X122000000Y-83580000D01*
%TO.N,/CSIMU*%
X140960000Y-66750000D02*
X140960000Y-73880000D01*
%TO.N,/UART_TX*%
X90000000Y-85880000D02*
X90120000Y-86000000D01*
X98500000Y-57000000D02*
X95000000Y-57000000D01*
X104760000Y-63260000D02*
X98500000Y-57000000D01*
X95000000Y-57000000D02*
X90000000Y-62000000D01*
X90000000Y-85880000D02*
X90000000Y-85500000D01*
X90000000Y-62000000D02*
X90000000Y-85500000D01*
%TO.N,/MISO3*%
X128644000Y-56510000D02*
X120000000Y-65154000D01*
X120000000Y-65154000D02*
X120000000Y-65800000D01*
%TO.N,/NSS2*%
X96390000Y-57960000D02*
X97691700Y-57960000D01*
X102470000Y-80345500D02*
X104760000Y-82635200D01*
X104760000Y-82635200D02*
X104760000Y-83580000D01*
X97691700Y-57960000D02*
X102470000Y-62738600D01*
X102470000Y-62738600D02*
X102470000Y-80345500D01*
%TO.N,/SCK3*%
X123750000Y-72639700D02*
X131000000Y-65389700D01*
X131000000Y-65389700D02*
X131000000Y-56326000D01*
X123750000Y-93740000D02*
X123750000Y-72639700D01*
X131000000Y-56326000D02*
X128644000Y-53970000D01*
X120000000Y-93740000D02*
X123750000Y-93740000D01*
%TO.N,/7.2V*%
X172000000Y-71655000D02*
X172000000Y-82385000D01*
X171500000Y-53133400D02*
X171500000Y-66385000D01*
X159500000Y-48230000D02*
X161350000Y-48230000D01*
X171500000Y-66385000D02*
X169115000Y-68770000D01*
X161350000Y-61230000D02*
X159500000Y-61230000D01*
X169115000Y-68770000D02*
X172000000Y-71655000D01*
X159500000Y-61230000D02*
X159500000Y-48230000D01*
X169527000Y-51160400D02*
X171500000Y-53133400D01*
X172000000Y-82385000D02*
X169615000Y-84770000D01*
%TO.N,/SCK*%
X82380000Y-64620000D02*
X82500000Y-64500000D01*
X82380000Y-85940000D02*
X82380000Y-85500000D01*
X86817600Y-60182400D02*
X95500000Y-51500000D01*
X82410000Y-85970000D02*
X82440000Y-85940000D01*
X82380000Y-85500000D02*
X82380000Y-64620000D01*
X95500000Y-51500000D02*
X98680000Y-51500000D01*
X82380000Y-86000000D02*
X82410000Y-85970000D01*
X82500000Y-64500000D02*
X86817600Y-60182400D01*
X82440000Y-85940000D02*
X82500000Y-85880000D01*
X98680000Y-51500000D02*
X99427500Y-50752500D01*
X82410000Y-85970000D02*
X82380000Y-85940000D01*
X82500000Y-86000000D02*
X82440000Y-85940000D01*
%TO.N,/DIO*%
X108292000Y-77373600D02*
X108292000Y-55711200D01*
X113650000Y-50353700D02*
X113650000Y-49290000D01*
X108292000Y-55711200D02*
X113650000Y-50353700D01*
%TD*%
M02*
