M48
; DRILL file {KiCad 9.0.5} date 2026-05-07T09:13:55-0700
; FORMAT={-:-/ absolute / metric / decimal}
; #@! TF.CreationDate,2026-05-07T09:13:55-07:00
; #@! TF.GenerationSoftware,Kicad,Pcbnew,9.0.5
; #@! TF.FileFunction,Plated,1,2,PTH
FMAT,2
METRIC
; #@! TA.AperFunction,Plated,PTH,ViaDrill
T1C0.300
; #@! TA.AperFunction,Plated,PTH,ComponentDrill
T2C0.762
; #@! TA.AperFunction,Plated,PTH,ComponentDrill
T3C0.800
; #@! TA.AperFunction,Plated,PTH,ComponentDrill
T4C1.000
; #@! TA.AperFunction,Plated,PTH,ComponentDrill
T5C1.067
; #@! TA.AperFunction,Plated,PTH,ComponentDrill
T6C2.540
; #@! TA.AperFunction,Plated,PTH,ComponentDrill
T7C3.200
%
G90
G05
T1
X87.5Y-71.397
X99.427Y-50.752
X101.638Y-80.016
X107.0Y-69.5
X108.292Y-77.374
X109.081Y-59.626
X127.045Y-67.476
X140.96Y-66.75
X143.752Y-83.289
X167.0Y-74.904
T2
X104.76Y-45.48
X104.76Y-48.02
X104.76Y-50.56
X104.76Y-53.1
X104.76Y-55.64
X104.76Y-58.18
X104.76Y-60.72
X104.76Y-63.26
X104.76Y-65.8
X104.76Y-68.34
X104.76Y-70.88
X104.76Y-73.42
X104.76Y-75.96
X104.76Y-78.5
X104.76Y-81.04
X104.76Y-83.58
X104.76Y-86.12
X104.76Y-88.66
X104.76Y-91.2
X104.76Y-93.74
X111.11Y-49.29
X113.65Y-49.29
X120.0Y-45.48
X120.0Y-48.02
X120.0Y-50.56
X120.0Y-53.1
X120.0Y-55.64
X120.0Y-58.18
X120.0Y-60.72
X120.0Y-63.26
X120.0Y-65.8
X120.0Y-68.34
X120.0Y-70.88
X120.0Y-73.42
X120.0Y-75.96
X120.0Y-78.5
X120.0Y-81.04
X120.0Y-83.58
X120.0Y-86.12
X120.0Y-88.66
X120.0Y-91.2
X120.0Y-93.74
T3
X96.39Y-50.34
X96.39Y-52.88
X96.39Y-55.42
X96.39Y-57.96
X96.39Y-60.5
X96.39Y-63.04
X96.39Y-65.58
X96.39Y-68.12
X96.39Y-70.66
X133.34Y-73.88
X135.88Y-73.88
X138.42Y-73.88
X138.42Y-89.12
X140.96Y-73.88
X140.96Y-89.12
X143.5Y-73.88
X143.5Y-89.12
X146.04Y-73.88
X146.04Y-89.12
X148.58Y-73.88
X148.58Y-89.12
X151.12Y-73.88
X153.66Y-73.88
X161.35Y-45.69
X161.35Y-48.23
X161.35Y-50.77
X161.35Y-53.31
X161.35Y-58.69
X161.35Y-61.23
X161.35Y-63.77
X161.35Y-66.31
T4
X82.38Y-85.5
X84.92Y-85.5
X87.46Y-85.5
X90.0Y-85.5
X92.54Y-85.5
X95.08Y-85.5
X128.644Y-46.35
X128.644Y-48.89
X128.644Y-51.43
X128.644Y-53.97
X128.644Y-56.51
X128.644Y-59.05
X128.644Y-61.59
X128.644Y-64.13
X169.115Y-63.69
X169.115Y-66.23
X169.115Y-68.77
X169.115Y-71.31
X169.615Y-79.69
X169.615Y-82.23
X169.615Y-84.77
X169.615Y-87.31
T5
X169.527Y-51.16
X169.527Y-54.16
T6
X78.61Y-50.34
X78.61Y-70.66
X129.53Y-73.88
X129.53Y-89.12
X149.275Y-49.5
X149.275Y-62.5
X157.47Y-73.88
X157.47Y-89.12
T7
X72.0Y-44.0
X72.0Y-93.0
X183.0Y-44.0
X183.0Y-93.0
M30
